<?xml version="1.0" encoding="UTF-8" standalone="no"?>
<!DOCTYPE svg PUBLIC "-//W3C//DTD SVG 1.1//EN"
 "http://www.w3.org/Graphics/SVG/1.1/DTD/svg11.dtd">
<!-- Generated by graphviz version 2.29.20110702.0445 (20110702.0445)
 -->
<!-- Title: house Pages: 1 -->
<svg width="290pt" height="289pt"
 viewBox="0.00 0.00 290.42 289.00" xmlns="http://www.w3.org/2000/svg" xmlns:xlink="http://www.w3.org/1999/xlink">
<g id="graph1" class="graph" transform="scale(1 1) rotate(0) translate(4 285)">
<title>house</title>
<polygon fill="white" stroke="white" points="-4,5 -4,-285 287.42,-285 287.42,5 -4,5"/>
<g id="graph2" class="cluster"><title>clustercontextKey</title>
<polygon fill="ghostwhite" stroke="white" points="8,-219 8,-273 96,-273 96,-219 8,-219"/>
<text text-anchor="middle" x="52.1792" y="-255" font-family="Helvetica,sans-Serif" font-size="14.00">Parameters</text>
</g>
<g id="graph3" class="cluster"><title>clusterhouseKey</title>
<polygon fill="ghostwhite" stroke="white" points="104,-219 104,-273 160,-273 160,-219 104,-219"/>
<text text-anchor="middle" x="132.234" y="-255" font-family="Helvetica,sans-Serif" font-size="14.00">House</text>
</g>
<!-- contextOverview -->
<g id="node2" class="node"><title>contextOverview</title>
<ellipse fill="black" stroke="black" cx="52" cy="-234" rx="7.2" ry="7.2"/>
</g>
<!-- intializeNonFrameworkOverview -->
<g id="node4" class="node"><title>intializeNonFrameworkOverview</title>
<a xlink:href="house__Overview.svg">
<ellipse fill="#cc1414" stroke="#cc1414" cx="131" cy="-234" rx="7.2" ry="7.2"/>
</a>
</g>
<!-- intializeNonFramework -->
<g id="node5" class="node"><title>intializeNonFramework</title>
<a xlink:href="house_intializeNonFramework.svg" xlink:title="Initialize">
<polygon fill="#ffcccc" stroke="#ffcccc" points="221.937,-252 180.063,-252 168.063,-240 168.063,-228 180.063,-216 221.937,-216 233.937,-228 233.937,-240 221.937,-252"/>
<path fill="#ffcccc" stroke="#ffcccc" d="M180.063,-252C174.063,-252 168.063,-246 168.063,-240"/>
<path fill="#ffcccc" stroke="#ffcccc" d="M168.063,-228C168.063,-222 174.063,-216 180.063,-216"/>
<path fill="#ffcccc" stroke="#ffcccc" d="M221.937,-216C227.937,-216 233.937,-222 233.937,-228"/>
<path fill="#ffcccc" stroke="#ffcccc" d="M233.937,-240C233.937,-246 227.937,-252 221.937,-252"/>
<polyline fill="none" stroke="black" points="221.937,-252 180.063,-252 "/>
<path fill="none" stroke="black" d="M180.063,-252C174.063,-252 168.063,-246 168.063,-240"/>
<polyline fill="none" stroke="black" points="168.063,-240 168.063,-228 "/>
<path fill="none" stroke="black" d="M168.063,-228C168.063,-222 174.063,-216 180.063,-216"/>
<polyline fill="none" stroke="black" points="180.063,-216 221.937,-216 "/>
<path fill="none" stroke="black" d="M221.937,-216C227.937,-216 233.937,-222 233.937,-228"/>
<polyline fill="none" stroke="black" points="233.937,-228 233.937,-240 "/>
<path fill="none" stroke="black" d="M233.937,-240C233.937,-246 227.937,-252 221.937,-252"/>
<text text-anchor="middle" x="201" y="-228.4" font-family="Helvetica,sans-Serif" font-size="14.00">Initialize</text>
</a>
</g>
<!-- house -->
<g id="node7" class="node"><title>house</title>
<polygon fill="#ffe2cc" stroke="#ffe2cc" points="249.353,-180 216.647,-180 204.647,-168 204.647,-156 216.647,-144 249.353,-144 261.353,-156 261.353,-168 249.353,-180"/>
<path fill="#ffe2cc" stroke="#ffe2cc" d="M216.647,-180C210.647,-180 204.647,-174 204.647,-168"/>
<path fill="#ffe2cc" stroke="#ffe2cc" d="M204.647,-156C204.647,-150 210.647,-144 216.647,-144"/>
<path fill="#ffe2cc" stroke="#ffe2cc" d="M249.353,-144C255.353,-144 261.353,-150 261.353,-156"/>
<path fill="#ffe2cc" stroke="#ffe2cc" d="M261.353,-168C261.353,-174 255.353,-180 249.353,-180"/>
<polyline fill="none" stroke="gray" points="249.353,-180 216.647,-180 "/>
<path fill="none" stroke="gray" d="M216.647,-180C210.647,-180 204.647,-174 204.647,-168"/>
<polyline fill="none" stroke="gray" points="204.647,-168 204.647,-156 "/>
<path fill="none" stroke="gray" d="M204.647,-156C204.647,-150 210.647,-144 216.647,-144"/>
<polyline fill="none" stroke="gray" points="216.647,-144 249.353,-144 "/>
<path fill="none" stroke="gray" d="M249.353,-144C255.353,-144 261.353,-150 261.353,-156"/>
<polyline fill="none" stroke="gray" points="261.353,-156 261.353,-168 "/>
<path fill="none" stroke="gray" d="M261.353,-168C261.353,-174 255.353,-180 249.353,-180"/>
<text text-anchor="middle" x="233" y="-156.4" font-family="Helvetica,sans-Serif" font-size="14.00">House</text>
</g>
<!-- intializeNonFramework&#45;&gt;house -->
<g id="edge4" class="edge"><title>intializeNonFramework&#45;&gt;house</title>
<path fill="none" stroke="#cc1414" stroke-width="3" d="M208.91,-215.697C211.313,-210.441 214.046,-204.463 216.787,-198.467"/>
<polygon fill="#cc1414" stroke="#cc1414" points="223.232,-201.204 225.181,-180.104 210.499,-195.383 223.232,-201.204"/>
</g>
<!-- moveHouse -->
<g id="node10" class="node"><title>moveHouse</title>
<polygon fill="#ffcccc" stroke="#ffcccc" points="248,-36 218,-36 206,-24 206,-12 218,-0 248,-0 260,-12 260,-24 248,-36"/>
<path fill="#ffcccc" stroke="#ffcccc" d="M218,-36C212,-36 206,-30 206,-24"/>
<path fill="#ffcccc" stroke="#ffcccc" d="M206,-12C206,-6 212,-0 218,-0"/>
<path fill="#ffcccc" stroke="#ffcccc" d="M248,-0C254,-0 260,-6 260,-12"/>
<path fill="#ffcccc" stroke="#ffcccc" d="M260,-24C260,-30 254,-36 248,-36"/>
<polyline fill="none" stroke="#ffcccc" points="248,-36 218,-36 "/>
<path fill="none" stroke="#ffcccc" d="M218,-36C212,-36 206,-30 206,-24"/>
<polyline fill="none" stroke="#ffcccc" points="206,-24 206,-12 "/>
<path fill="none" stroke="#ffcccc" d="M206,-12C206,-6 212,-0 218,-0"/>
<polyline fill="none" stroke="#ffcccc" points="218,-0 248,-0 "/>
<path fill="none" stroke="#ffcccc" d="M248,-0C254,-0 260,-6 260,-12"/>
<polyline fill="none" stroke="#ffcccc" points="260,-12 260,-24 "/>
<path fill="none" stroke="#ffcccc" d="M260,-24C260,-30 254,-36 248,-36"/>
<text text-anchor="middle" x="233" y="-12.4" font-family="Helvetica,sans-Serif" font-size="14.00">Move</text>
</g>
<!-- intializeNonFramework&#45;&gt;moveHouse -->
<g id="edge8" class="edge"><title>intializeNonFramework&#45;&gt;moveHouse:nw</title>
<path fill="none" stroke="#cc1414" stroke-width="3" stroke-dasharray="5,2" d="M195.207,-215.542C186.154,-185.398 171.329,-122.014 188,-72 191.656,-61.0308 195.383,-55.4393 200.608,-49.941"/>
<polygon fill="#cc1414" stroke="#cc1414" points="205.505,-54.9433 215,-36 195.764,-44.8876 205.505,-54.9433"/>
</g>
<!-- availableQuery -->
<g id="node9" class="node"><title>availableQuery</title>
<polygon fill="#ffe2cc" stroke="#ffe2cc" points="256.928,-108 209.072,-108 197.072,-96 197.072,-84 209.072,-72 256.928,-72 268.928,-84 268.928,-96 256.928,-108"/>
<path fill="#ffe2cc" stroke="#ffe2cc" d="M209.072,-108C203.072,-108 197.072,-102 197.072,-96"/>
<path fill="#ffe2cc" stroke="#ffe2cc" d="M197.072,-84C197.072,-78 203.072,-72 209.072,-72"/>
<path fill="#ffe2cc" stroke="#ffe2cc" d="M256.928,-72C262.928,-72 268.928,-78 268.928,-84"/>
<path fill="#ffe2cc" stroke="#ffe2cc" d="M268.928,-96C268.928,-102 262.928,-108 256.928,-108"/>
<polyline fill="none" stroke="#ffe2cc" points="256.928,-108 209.072,-108 "/>
<path fill="none" stroke="#ffe2cc" d="M209.072,-108C203.072,-108 197.072,-102 197.072,-96"/>
<polyline fill="none" stroke="#ffe2cc" points="197.072,-96 197.072,-84 "/>
<path fill="none" stroke="#ffe2cc" d="M197.072,-84C197.072,-78 203.072,-72 209.072,-72"/>
<polyline fill="none" stroke="#ffe2cc" points="209.072,-72 256.928,-72 "/>
<path fill="none" stroke="#ffe2cc" d="M256.928,-72C262.928,-72 268.928,-78 268.928,-84"/>
<polyline fill="none" stroke="#ffe2cc" points="268.928,-84 268.928,-96 "/>
<path fill="none" stroke="#ffe2cc" d="M268.928,-96C268.928,-102 262.928,-108 256.928,-108"/>
<text text-anchor="middle" x="233" y="-84.4" font-family="Helvetica,sans-Serif" font-size="14.00">Available</text>
</g>
<!-- house&#45;&gt;availableQuery -->
<g id="edge6" class="edge"><title>house&#45;&gt;availableQuery</title>
<path fill="none" stroke="#cc6514" stroke-width="3" d="M233,-143.697C233,-138.95 233,-133.613 233,-128.206"/>
<polygon fill="#cc6514" stroke="#cc6514" points="240,-128.104 233,-108.104 226,-128.104 240,-128.104"/>
</g>
<!-- house&#45;&gt;moveHouse -->
<g id="edge10" class="edge"><title>house&#45;&gt;moveHouse:ne</title>
<path fill="none" stroke="#cc6514" stroke-width="3" stroke-dasharray="5,2" d="M253.379,-143.531C262.807,-134.092 273.006,-121.597 278,-108 287.251,-82.8115 280.228,-67.6886 265.086,-50.6562"/>
<polygon fill="#cc6514" stroke="#cc6514" points="269.906,-45.5691 251,-36 259.812,-55.2704 269.906,-45.5691"/>
</g>
<!-- availableQuery&#45;&gt;moveHouse -->
<g id="edge12" class="edge"><title>availableQuery&#45;&gt;moveHouse</title>
<path fill="none" stroke="#cc6514" stroke-width="3" d="M233,-71.6966C233,-66.9496 233,-61.6132 233,-56.2063"/>
<polygon fill="#cc6514" stroke="#cc6514" points="240,-56.1043 233,-36.1043 226,-56.1044 240,-56.1043"/>
</g>
</g>
</svg>
