<?xml version="1.0" encoding="UTF-8" standalone="no"?>
<!DOCTYPE svg PUBLIC "-//W3C//DTD SVG 1.1//EN"
 "http://www.w3.org/Graphics/SVG/1.1/DTD/svg11.dtd">
<!-- Generated by graphviz version 2.29.20110702.0445 (20110702.0445)
 -->
<!-- Title: watchAgeIndex Pages: 1 -->
<svg width="741pt" height="537pt"
 viewBox="0.00 0.00 740.97 537.00" xmlns="http://www.w3.org/2000/svg" xmlns:xlink="http://www.w3.org/1999/xlink">
<g id="graph1" class="graph" transform="scale(1 1) rotate(0) translate(4 533)">
<title>watchAgeIndex</title>
<polygon fill="white" stroke="white" points="-4,5 -4,-533 737.968,-533 737.968,5 -4,5"/>
<g id="graph2" class="cluster"><title>clustercontextKey</title>
<polygon fill="ghostwhite" stroke="white" points="202.139,-467 202.139,-521 290.139,-521 290.139,-467 202.139,-467"/>
<text text-anchor="middle" x="246.318" y="-503" font-family="Helvetica,sans-Serif" font-size="14.00">Parameters</text>
</g>
<g id="graph3" class="cluster"><title>clusterindividualKey</title>
<polygon fill="ghostwhite" stroke="white" points="298.139,-467 298.139,-521 373.139,-521 373.139,-467 298.139,-467"/>
<text text-anchor="middle" x="335.714" y="-503" font-family="Helvetica,sans-Serif" font-size="14.00">Individual</text>
</g>
<!-- contextOverview -->
<g id="node2" class="node"><title>contextOverview</title>
<ellipse fill="black" stroke="black" cx="246.139" cy="-482" rx="7.2" ry="7.2"/>
</g>
<!-- watchAgeIndexOverview -->
<g id="node4" class="node"><title>watchAgeIndexOverview</title>
<a xlink:href="individual__Overview.svg">
<ellipse fill="#5114cc" stroke="#5114cc" cx="334.139" cy="-482" rx="7.2" ry="7.2"/>
</a>
</g>
<!-- individualgenderRecord -->
<g id="node5" class="node"><title>individualgenderRecord</title>
<polygon fill="white" stroke="none" points="272.625,-377.2 272.625,-426.8 381.652,-426.8 381.652,-377.2 272.625,-377.2"/>
<text text-anchor="middle" x="327.139" y="-408.8" font-family="Helvetica,sans-Serif" font-size="14.00">Gender</text>
<polyline fill="none" stroke="none" points="272.625,-402 381.652,-402 "/>
<text text-anchor="middle" x="303.966" y="-384" font-family="Helvetica,sans-Serif" font-size="14.00">Female</text>
<polyline fill="none" stroke="none" points="335.307,-377.2 335.307,-402 "/>
<text text-anchor="middle" x="358.48" y="-384" font-family="Helvetica,sans-Serif" font-size="14.00">Male</text>
</g>
<!-- genderIdenticalMaleQueryCopy -->
<g id="node16" class="node"><title>genderIdenticalMaleQueryCopy</title>
<polygon fill="#dcccff" stroke="#dcccff" points="343.139,-340 313.139,-340 301.139,-328 301.139,-316 313.139,-304 343.139,-304 355.139,-316 355.139,-328 343.139,-340"/>
<path fill="#dcccff" stroke="#dcccff" d="M313.139,-340C307.139,-340 301.139,-334 301.139,-328"/>
<path fill="#dcccff" stroke="#dcccff" d="M301.139,-316C301.139,-310 307.139,-304 313.139,-304"/>
<path fill="#dcccff" stroke="#dcccff" d="M343.139,-304C349.139,-304 355.139,-310 355.139,-316"/>
<path fill="#dcccff" stroke="#dcccff" d="M355.139,-328C355.139,-334 349.139,-340 343.139,-340"/>
<polyline fill="none" stroke="#dcccff" points="343.139,-340 313.139,-340 "/>
<path fill="none" stroke="#dcccff" d="M313.139,-340C307.139,-340 301.139,-334 301.139,-328"/>
<polyline fill="none" stroke="#dcccff" points="301.139,-328 301.139,-316 "/>
<path fill="none" stroke="#dcccff" d="M301.139,-316C301.139,-310 307.139,-304 313.139,-304"/>
<polyline fill="none" stroke="#dcccff" points="313.139,-304 343.139,-304 "/>
<path fill="none" stroke="#dcccff" d="M343.139,-304C349.139,-304 355.139,-310 355.139,-316"/>
<polyline fill="none" stroke="#dcccff" points="355.139,-316 355.139,-328 "/>
<path fill="none" stroke="#dcccff" d="M355.139,-328C355.139,-334 349.139,-340 343.139,-340"/>
<text text-anchor="middle" x="328.139" y="-316.4" font-family="Helvetica,sans-Serif" font-size="14.00">Is?</text>
</g>
<!-- individualgenderRecord&#45;&gt;genderIdenticalMaleQueryCopy -->
<g id="edge46" class="edge"><title>individualgenderRecord:individualgendermale&#45;&gt;genderIdenticalMaleQueryCopy:ne</title>
<path fill="none" stroke="#5114cc" stroke-width="2" stroke-dasharray="1,5" d="M358.139,-376C358.139,-362.165 358.089,-354.828 351.488,-346.055"/>
<ellipse fill="#5114cc" stroke="#5114cc" cx="348.787" cy="-342.998" rx="4.00002" ry="4.00002"/>
</g>
<!-- genderIdenticalFemaleQueryCopy -->
<g id="node20" class="node"><title>genderIdenticalFemaleQueryCopy</title>
<polygon fill="#dcccff" stroke="#dcccff" points="57.1385,-268 27.1385,-268 15.1385,-256 15.1385,-244 27.1385,-232 57.1385,-232 69.1385,-244 69.1385,-256 57.1385,-268"/>
<path fill="#dcccff" stroke="#dcccff" d="M27.1385,-268C21.1385,-268 15.1385,-262 15.1385,-256"/>
<path fill="#dcccff" stroke="#dcccff" d="M15.1385,-244C15.1385,-238 21.1385,-232 27.1385,-232"/>
<path fill="#dcccff" stroke="#dcccff" d="M57.1385,-232C63.1385,-232 69.1385,-238 69.1385,-244"/>
<path fill="#dcccff" stroke="#dcccff" d="M69.1385,-256C69.1385,-262 63.1385,-268 57.1385,-268"/>
<polyline fill="none" stroke="#dcccff" points="57.1385,-268 27.1385,-268 "/>
<path fill="none" stroke="#dcccff" d="M27.1385,-268C21.1385,-268 15.1385,-262 15.1385,-256"/>
<polyline fill="none" stroke="#dcccff" points="15.1385,-256 15.1385,-244 "/>
<path fill="none" stroke="#dcccff" d="M15.1385,-244C15.1385,-238 21.1385,-232 27.1385,-232"/>
<polyline fill="none" stroke="#dcccff" points="27.1385,-232 57.1385,-232 "/>
<path fill="none" stroke="#dcccff" d="M57.1385,-232C63.1385,-232 69.1385,-238 69.1385,-244"/>
<polyline fill="none" stroke="#dcccff" points="69.1385,-244 69.1385,-256 "/>
<path fill="none" stroke="#dcccff" d="M69.1385,-256C69.1385,-262 63.1385,-268 57.1385,-268"/>
<text text-anchor="middle" x="42.1385" y="-244.4" font-family="Helvetica,sans-Serif" font-size="14.00">Is?</text>
</g>
<!-- individualgenderRecord&#45;&gt;genderIdenticalFemaleQueryCopy -->
<g id="edge32" class="edge"><title>individualgenderRecord:individualgenderfemale&#45;&gt;genderIdenticalFemaleQueryCopy:ne</title>
<path fill="none" stroke="#5114cc" stroke-width="2" stroke-dasharray="1,5" d="M271.139,-390C263.972,-390 268.206,-381.067 263.139,-376 217.531,-330.393 194.4,-333.683 137.139,-304 106.219,-287.972 89.5708,-293.603 66.2296,-273.652"/>
<ellipse fill="#5114cc" stroke="#5114cc" cx="63.0706" cy="-270.721" rx="4.00002" ry="4.00002"/>
</g>
<!-- genderIdenticalMale -->
<g id="node27" class="node"><title>genderIdenticalMale</title>
<polygon fill="#dcccff" stroke="#dcccff" points="381.139,-268 351.139,-268 339.139,-256 339.139,-244 351.139,-232 381.139,-232 393.139,-244 393.139,-256 381.139,-268"/>
<path fill="#dcccff" stroke="#dcccff" d="M351.139,-268C345.139,-268 339.139,-262 339.139,-256"/>
<path fill="#dcccff" stroke="#dcccff" d="M339.139,-244C339.139,-238 345.139,-232 351.139,-232"/>
<path fill="#dcccff" stroke="#dcccff" d="M381.139,-232C387.139,-232 393.139,-238 393.139,-244"/>
<path fill="#dcccff" stroke="#dcccff" d="M393.139,-256C393.139,-262 387.139,-268 381.139,-268"/>
<polyline fill="none" stroke="#dcccff" points="381.139,-268 351.139,-268 "/>
<path fill="none" stroke="#dcccff" d="M351.139,-268C345.139,-268 339.139,-262 339.139,-256"/>
<polyline fill="none" stroke="#dcccff" points="339.139,-256 339.139,-244 "/>
<path fill="none" stroke="#dcccff" d="M339.139,-244C339.139,-238 345.139,-232 351.139,-232"/>
<polyline fill="none" stroke="#dcccff" points="351.139,-232 381.139,-232 "/>
<path fill="none" stroke="#dcccff" d="M381.139,-232C387.139,-232 393.139,-238 393.139,-244"/>
<polyline fill="none" stroke="#dcccff" points="393.139,-244 393.139,-256 "/>
<path fill="none" stroke="#dcccff" d="M393.139,-256C393.139,-262 387.139,-268 381.139,-268"/>
<text text-anchor="middle" x="366.139" y="-244.4" font-family="Helvetica,sans-Serif" font-size="14.00">Is?</text>
</g>
<!-- individualgenderRecord&#45;&gt;genderIdenticalMale -->
<g id="edge48" class="edge"><title>individualgenderRecord:individualgendermale&#45;&gt;genderIdenticalMale:ne</title>
<path fill="none" stroke="#5114cc" stroke-width="2" stroke-dasharray="1,5" d="M358.139,-376C358.139,-329.714 411.673,-305.976 389.6,-274.424"/>
<ellipse fill="#5114cc" stroke="#5114cc" cx="386.729" cy="-271.048" rx="4.00002" ry="4.00002"/>
</g>
<!-- individualsmokingRecord -->
<g id="node6" class="node"><title>individualsmokingRecord</title>
<polygon fill="white" stroke="none" points="542.904,-1.2 542.904,-50.8 613.373,-50.8 613.373,-1.2 542.904,-1.2"/>
<text text-anchor="middle" x="578.139" y="-32.8" font-family="Helvetica,sans-Serif" font-size="14.00">Smoking</text>
<polyline fill="none" stroke="none" points="542.904,-26 613.373,-26 "/>
<text text-anchor="middle" x="578.021" y="-8" font-family="Helvetica,sans-Serif" font-size="14.00">Smoker</text>
</g>
<!-- individualhIVStatusRecord -->
<g id="node7" class="node"><title>individualhIVStatusRecord</title>
<polygon fill="white" stroke="none" points="230.014,-1.2 230.014,-50.8 322.263,-50.8 322.263,-1.2 230.014,-1.2"/>
<text text-anchor="middle" x="276.139" y="-32.8" font-family="Helvetica,sans-Serif" font-size="14.00">HIV Status</text>
<polyline fill="none" stroke="none" points="230.014,-26 322.263,-26 "/>
<text text-anchor="middle" x="276.139" y="-8" font-family="Helvetica,sans-Serif" font-size="14.00">HIV Positive</text>
</g>
<!-- individualageIndex -->
<g id="node8" class="node"><title>individualageIndex</title>
<polygon fill="white" stroke="white" points="460.424,-500 381.853,-500 381.853,-464 460.424,-464 460.424,-500"/>
<text text-anchor="middle" x="421.139" y="-476.4" font-family="Helvetica,sans-Serif" font-size="14.00">Age Index</text>
</g>
<!-- watchAgeIndex -->
<g id="node11" class="node"><title>watchAgeIndex</title>
<a xlink:href="individual_watchAgeIndex.svg" xlink:title="Watch Age Index">
<polygon fill="#dcccff" stroke="#dcccff" points="242.639,-420 145.638,-420 133.638,-408 133.638,-396 145.638,-384 242.639,-384 254.639,-396 254.639,-408 242.639,-420"/>
<path fill="#dcccff" stroke="#dcccff" d="M145.638,-420C139.638,-420 133.638,-414 133.638,-408"/>
<path fill="#dcccff" stroke="#dcccff" d="M133.638,-396C133.638,-390 139.638,-384 145.638,-384"/>
<path fill="#dcccff" stroke="#dcccff" d="M242.639,-384C248.639,-384 254.639,-390 254.639,-396"/>
<path fill="#dcccff" stroke="#dcccff" d="M254.639,-408C254.639,-414 248.639,-420 242.639,-420"/>
<polyline fill="none" stroke="black" points="242.639,-420 145.638,-420 "/>
<path fill="none" stroke="black" d="M145.638,-420C139.638,-420 133.638,-414 133.638,-408"/>
<polyline fill="none" stroke="black" points="133.638,-408 133.638,-396 "/>
<path fill="none" stroke="black" d="M133.638,-396C133.638,-390 139.638,-384 145.638,-384"/>
<polyline fill="none" stroke="black" points="145.638,-384 242.639,-384 "/>
<path fill="none" stroke="black" d="M242.639,-384C248.639,-384 254.639,-390 254.639,-396"/>
<polyline fill="none" stroke="black" points="254.639,-396 254.639,-408 "/>
<path fill="none" stroke="black" d="M254.639,-408C254.639,-414 248.639,-420 242.639,-420"/>
<text text-anchor="middle" x="194.139" y="-396.4" font-family="Helvetica,sans-Serif" font-size="14.00">Watch Age Index</text>
</a>
</g>
<!-- individualageIndex&#45;&gt;watchAgeIndex -->
<g id="edge4" class="edge"><title>individualageIndex&#45;&gt;watchAgeIndex</title>
<path fill="none" stroke="#5114cc" stroke-width="2" d="M381.843,-465.677C380.257,-465.103 378.684,-464.542 377.139,-464 326.999,-446.417 313.46,-445.054 263.139,-428 258.883,-426.558 254.49,-425.039 250.08,-423.491"/>
<polygon fill="#5114cc" stroke="#5114cc" points="240.44,-420.076 251.368,-419.173 245.32,-421.274 250.033,-422.944 249.866,-423.415 249.699,-423.886 244.986,-422.217 248.363,-427.657 240.44,-420.076 240.44,-420.076"/>
</g>
<!-- item_SmokingPrevelanceMalebyAgeIndexAgeIndex_ -->
<g id="node17" class="node"><title>item_SmokingPrevelanceMalebyAgeIndexAgeIndex_</title>
<polygon fill="#dcccff" stroke="#dcccff" points="614.139,-268 584.139,-268 572.139,-256 572.139,-244 584.139,-232 614.139,-232 626.139,-244 626.139,-256 614.139,-268"/>
<path fill="#dcccff" stroke="#dcccff" d="M584.139,-268C578.139,-268 572.139,-262 572.139,-256"/>
<path fill="#dcccff" stroke="#dcccff" d="M572.139,-244C572.139,-238 578.139,-232 584.139,-232"/>
<path fill="#dcccff" stroke="#dcccff" d="M614.139,-232C620.139,-232 626.139,-238 626.139,-244"/>
<path fill="#dcccff" stroke="#dcccff" d="M626.139,-256C626.139,-262 620.139,-268 614.139,-268"/>
<polyline fill="none" stroke="#dcccff" points="614.139,-268 584.139,-268 "/>
<path fill="none" stroke="#dcccff" d="M584.139,-268C578.139,-268 572.139,-262 572.139,-256"/>
<polyline fill="none" stroke="#dcccff" points="572.139,-256 572.139,-244 "/>
<path fill="none" stroke="#dcccff" d="M572.139,-244C572.139,-238 578.139,-232 584.139,-232"/>
<polyline fill="none" stroke="#dcccff" points="584.139,-232 614.139,-232 "/>
<path fill="none" stroke="#dcccff" d="M614.139,-232C620.139,-232 626.139,-238 626.139,-244"/>
<polyline fill="none" stroke="#dcccff" points="626.139,-244 626.139,-256 "/>
<path fill="none" stroke="#dcccff" d="M626.139,-256C626.139,-262 620.139,-268 614.139,-268"/>
<text text-anchor="middle" x="599.139" y="-244.4" font-family="Helvetica,sans-Serif" font-size="14.00">Item?</text>
</g>
<!-- individualageIndex&#45;&gt;item_SmokingPrevelanceMalebyAgeIndexAgeIndex_ -->
<g id="edge30" class="edge"><title>individualageIndex&#45;&gt;item_SmokingPrevelanceMalebyAgeIndexAgeIndex_:ne</title>
<path fill="none" stroke="#5114cc" stroke-width="2" stroke-dasharray="1,5" d="M460.441,-475.95C527.804,-464.941 663.696,-431.914 722.139,-340 765.893,-271.186 656.702,-268.376 625.293,-268.16"/>
<ellipse fill="#5114cc" stroke="#5114cc" cx="621.138" cy="-268.078" rx="4" ry="4"/>
</g>
<!-- item_HIVPrevalenceMalebyAgeIndexAgeIndex_ -->
<g id="node28" class="node"><title>item_HIVPrevalenceMalebyAgeIndexAgeIndex_</title>
<polygon fill="#dcccff" stroke="#dcccff" points="309.139,-196 279.139,-196 267.139,-184 267.139,-172 279.139,-160 309.139,-160 321.139,-172 321.139,-184 309.139,-196"/>
<path fill="#dcccff" stroke="#dcccff" d="M279.139,-196C273.139,-196 267.139,-190 267.139,-184"/>
<path fill="#dcccff" stroke="#dcccff" d="M267.139,-172C267.139,-166 273.139,-160 279.139,-160"/>
<path fill="#dcccff" stroke="#dcccff" d="M309.139,-160C315.139,-160 321.139,-166 321.139,-172"/>
<path fill="#dcccff" stroke="#dcccff" d="M321.139,-184C321.139,-190 315.139,-196 309.139,-196"/>
<polyline fill="none" stroke="#dcccff" points="309.139,-196 279.139,-196 "/>
<path fill="none" stroke="#dcccff" d="M279.139,-196C273.139,-196 267.139,-190 267.139,-184"/>
<polyline fill="none" stroke="#dcccff" points="267.139,-184 267.139,-172 "/>
<path fill="none" stroke="#dcccff" d="M267.139,-172C267.139,-166 273.139,-160 279.139,-160"/>
<polyline fill="none" stroke="#dcccff" points="279.139,-160 309.139,-160 "/>
<path fill="none" stroke="#dcccff" d="M309.139,-160C315.139,-160 321.139,-166 321.139,-172"/>
<polyline fill="none" stroke="#dcccff" points="321.139,-172 321.139,-184 "/>
<path fill="none" stroke="#dcccff" d="M321.139,-184C321.139,-190 315.139,-196 309.139,-196"/>
<text text-anchor="middle" x="294.139" y="-172.4" font-family="Helvetica,sans-Serif" font-size="14.00">Item?</text>
</g>
<!-- individualageIndex&#45;&gt;item_HIVPrevalenceMalebyAgeIndexAgeIndex_ -->
<g id="edge40" class="edge"><title>individualageIndex&#45;&gt;item_HIVPrevalenceMalebyAgeIndexAgeIndex_:ne</title>
<path fill="none" stroke="#5114cc" stroke-width="2" stroke-dasharray="1,5" d="M425.439,-463.821C435.277,-420.218 454.731,-303.646 402.139,-232 378.338,-199.577 347.085,-222.868 318.251,-201.316"/>
<ellipse fill="#5114cc" stroke="#5114cc" cx="315.157" cy="-198.625" rx="4.00002" ry="4.00002"/>
</g>
<!-- tBmodelsmokingPrevelanceMalebyAgeIndex -->
<g id="node9" class="node"><title>tBmodelsmokingPrevelanceMalebyAgeIndex</title>
<polygon fill="white" stroke="white" points="713.139,-340 449.139,-340 449.139,-304 713.139,-304 713.139,-340"/>
<text text-anchor="start" x="457.639" y="-316.5" font-family="Helvetica,sans-Serif" font-size="14.00">Smoking Prevelance Male by Age Index</text>
</g>
<!-- tBmodelsmokingPrevelanceMalebyAgeIndex&#45;&gt;item_SmokingPrevelanceMalebyAgeIndexAgeIndex_ -->
<g id="edge28" class="edge"><title>tBmodelsmokingPrevelanceMalebyAgeIndex&#45;&gt;item_SmokingPrevelanceMalebyAgeIndexAgeIndex_:nw</title>
<path fill="none" stroke="#5114cc" stroke-width="2" stroke-dasharray="1,5" d="M575.528,-303.826C573.462,-294.67 572.489,-283.513 576.505,-274.727"/>
<ellipse fill="#5114cc" stroke="#5114cc" cx="578.87" cy="-271.294" rx="4.00002" ry="4.00002"/>
</g>
<!-- tBmodelhIVPrevalenceMalebyAgeIndex -->
<g id="node10" class="node"><title>tBmodelhIVPrevalenceMalebyAgeIndex</title>
<polygon fill="white" stroke="white" points="320.389,-268 87.8885,-268 87.8885,-232 320.389,-232 320.389,-268"/>
<text text-anchor="start" x="96.1385" y="-244.5" font-family="Helvetica,sans-Serif" font-size="14.00">HIV Prevalence Male by Age Index</text>
</g>
<!-- tBmodelhIVPrevalenceMalebyAgeIndex&#45;&gt;item_HIVPrevalenceMalebyAgeIndexAgeIndex_ -->
<g id="edge38" class="edge"><title>tBmodelhIVPrevalenceMalebyAgeIndex&#45;&gt;item_HIVPrevalenceMalebyAgeIndexAgeIndex_:nw</title>
<path fill="none" stroke="#5114cc" stroke-width="2" stroke-dasharray="1,5" d="M231.316,-231.879C243.497,-223.614 257.875,-213.027 270.245,-201.645"/>
<ellipse fill="#5114cc" stroke="#5114cc" cx="273.25" cy="-198.767" rx="4.00002" ry="4.00002"/>
</g>
<!-- hIVDraw -->
<g id="node14" class="node"><title>hIVDraw</title>
<polygon fill="#dcccff" stroke="#dcccff" points="116.418,-340 43.8594,-340 31.8594,-328 31.8594,-316 43.8594,-304 116.418,-304 128.418,-316 128.418,-328 116.418,-340"/>
<path fill="#dcccff" stroke="#dcccff" d="M43.8594,-340C37.8594,-340 31.8594,-334 31.8594,-328"/>
<path fill="#dcccff" stroke="#dcccff" d="M31.8594,-316C31.8594,-310 37.8594,-304 43.8594,-304"/>
<path fill="#dcccff" stroke="#dcccff" d="M116.418,-304C122.418,-304 128.418,-310 128.418,-316"/>
<path fill="#dcccff" stroke="#dcccff" d="M128.418,-328C128.418,-334 122.418,-340 116.418,-340"/>
<polyline fill="none" stroke="#dcccff" points="116.418,-340 43.8594,-340 "/>
<path fill="none" stroke="#dcccff" d="M43.8594,-340C37.8594,-340 31.8594,-334 31.8594,-328"/>
<polyline fill="none" stroke="#dcccff" points="31.8594,-328 31.8594,-316 "/>
<path fill="none" stroke="#dcccff" d="M31.8594,-316C31.8594,-310 37.8594,-304 43.8594,-304"/>
<polyline fill="none" stroke="#dcccff" points="43.8594,-304 116.418,-304 "/>
<path fill="none" stroke="#dcccff" d="M116.418,-304C122.418,-304 128.418,-310 128.418,-316"/>
<polyline fill="none" stroke="#dcccff" points="128.418,-316 128.418,-328 "/>
<path fill="none" stroke="#dcccff" d="M128.418,-328C128.418,-334 122.418,-340 116.418,-340"/>
<text text-anchor="middle" x="80.1385" y="-316.4" font-family="Helvetica,sans-Serif" font-size="14.00">Random Unit</text>
</g>
<!-- watchAgeIndex&#45;&gt;hIVDraw -->
<g id="edge6" class="edge"><title>watchAgeIndex&#45;&gt;hIVDraw</title>
<path fill="none" stroke="#5114cc" stroke-width="3" d="M169.121,-383.883C155.236,-374.383 137.609,-362.322 121.713,-351.445"/>
<polygon fill="#5114cc" stroke="#5114cc" points="125.557,-345.594 105.098,-340.078 117.651,-357.148 125.557,-345.594"/>
</g>
<!-- watchAgeIndex&#45;&gt;genderIdenticalMaleQueryCopy -->
<g id="edge8" class="edge"><title>watchAgeIndex&#45;&gt;genderIdenticalMaleQueryCopy</title>
<path fill="none" stroke="#5114cc" stroke-width="3" d="M223.545,-383.883C241.15,-373.635 263.876,-360.407 283.644,-348.9"/>
<polygon fill="#5114cc" stroke="#5114cc" points="287.316,-354.862 301.08,-338.751 280.273,-342.762 287.316,-354.862"/>
</g>
<!-- hIVDraw&#45;&gt;genderIdenticalFemaleQueryCopy -->
<g id="edge16" class="edge"><title>hIVDraw&#45;&gt;genderIdenticalFemaleQueryCopy</title>
<path fill="none" stroke="#5114cc" stroke-width="3" d="M70.7452,-303.697C67.8002,-298.271 64.4372,-292.076 61.0768,-285.886"/>
<polygon fill="#5114cc" stroke="#5114cc" points="67.1176,-282.342 51.4237,-268.104 54.8136,-289.021 67.1176,-282.342"/>
</g>
<!-- hIVDrawLesserItem_HIVPrevalenceMalebyAgeIndexAgeIndex_Query -->
<g id="node23" class="node"><title>hIVDrawLesserItem_HIVPrevalenceMalebyAgeIndexAgeIndex_Query</title>
<polygon fill="#dcccff" stroke="#dcccff" points="296.495,-124 255.782,-124 243.782,-112 243.782,-100 255.782,-88 296.495,-88 308.495,-100 308.495,-112 296.495,-124"/>
<path fill="#dcccff" stroke="#dcccff" d="M255.782,-124C249.782,-124 243.782,-118 243.782,-112"/>
<path fill="#dcccff" stroke="#dcccff" d="M243.782,-100C243.782,-94 249.782,-88 255.782,-88"/>
<path fill="#dcccff" stroke="#dcccff" d="M296.495,-88C302.495,-88 308.495,-94 308.495,-100"/>
<path fill="#dcccff" stroke="#dcccff" d="M308.495,-112C308.495,-118 302.495,-124 296.495,-124"/>
<polyline fill="none" stroke="#dcccff" points="296.495,-124 255.782,-124 "/>
<path fill="none" stroke="#dcccff" d="M255.782,-124C249.782,-124 243.782,-118 243.782,-112"/>
<polyline fill="none" stroke="#dcccff" points="243.782,-112 243.782,-100 "/>
<path fill="none" stroke="#dcccff" d="M243.782,-100C243.782,-94 249.782,-88 255.782,-88"/>
<polyline fill="none" stroke="#dcccff" points="255.782,-88 296.495,-88 "/>
<path fill="none" stroke="#dcccff" d="M296.495,-88C302.495,-88 308.495,-94 308.495,-100"/>
<polyline fill="none" stroke="#dcccff" points="308.495,-100 308.495,-112 "/>
<path fill="none" stroke="#dcccff" d="M308.495,-112C308.495,-118 302.495,-124 296.495,-124"/>
<text text-anchor="middle" x="276.139" y="-100.4" font-family="Helvetica,sans-Serif" font-size="14.00">Lesser?</text>
</g>
<!-- hIVDraw&#45;&gt;hIVDrawLesserItem_HIVPrevalenceMalebyAgeIndexAgeIndex_Query -->
<g id="edge34" class="edge"><title>hIVDraw&#45;&gt;hIVDrawLesserItem_HIVPrevalenceMalebyAgeIndexAgeIndex_Query:nw</title>
<path fill="none" stroke="blue" stroke-width="2" stroke-dasharray="1,5" d="M42.7475,-303.798C28.5943,-295.203 14.0104,-283.321 6.13851,-268 -1.17371,-253.769 -2.66935,-245.357 6.13851,-232 71.7105,-132.558 167.555,-206.665 252.314,-129.559"/>
<ellipse fill="blue" stroke="blue" cx="255.245" cy="-126.762" rx="4.00002" ry="4.00002"/>
</g>
<!-- hIVDraw&#45;&gt;genderIdenticalMale -->
<g id="edge18" class="edge"><title>hIVDraw&#45;&gt;genderIdenticalMale</title>
<path fill="none" stroke="#5114cc" stroke-width="3" d="M128.711,-313.926C175.35,-306.443 247.988,-292.989 319.737,-270.549"/>
<polygon fill="#5114cc" stroke="#5114cc" points="322.072,-277.151 338.932,-264.316 317.747,-263.836 322.072,-277.151"/>
</g>
<!-- genderIdenticalMaleQueryCopy&#45;&gt;item_SmokingPrevelanceMalebyAgeIndexAgeIndex_ -->
<g id="edge24" class="edge"><title>genderIdenticalMaleQueryCopy&#45;&gt;item_SmokingPrevelanceMalebyAgeIndexAgeIndex_</title>
<path fill="none" stroke="#5114cc" stroke-width="3" d="M355.364,-313.968C401.525,-302.044 495.662,-277.728 552.496,-263.048"/>
<polygon fill="#5114cc" stroke="#5114cc" points="554.318,-269.807 571.931,-258.028 550.816,-256.252 554.318,-269.807"/>
</g>
<!-- smokingDraw -->
<g id="node19" class="node"><title>smokingDraw</title>
<polygon fill="#dcccff" stroke="#dcccff" points="596.418,-196 523.859,-196 511.859,-184 511.859,-172 523.859,-160 596.418,-160 608.418,-172 608.418,-184 596.418,-196"/>
<path fill="#dcccff" stroke="#dcccff" d="M523.859,-196C517.859,-196 511.859,-190 511.859,-184"/>
<path fill="#dcccff" stroke="#dcccff" d="M511.859,-172C511.859,-166 517.859,-160 523.859,-160"/>
<path fill="#dcccff" stroke="#dcccff" d="M596.418,-160C602.418,-160 608.418,-166 608.418,-172"/>
<path fill="#dcccff" stroke="#dcccff" d="M608.418,-184C608.418,-190 602.418,-196 596.418,-196"/>
<polyline fill="none" stroke="#dcccff" points="596.418,-196 523.859,-196 "/>
<path fill="none" stroke="#dcccff" d="M523.859,-196C517.859,-196 511.859,-190 511.859,-184"/>
<polyline fill="none" stroke="#dcccff" points="511.859,-184 511.859,-172 "/>
<path fill="none" stroke="#dcccff" d="M511.859,-172C511.859,-166 517.859,-160 523.859,-160"/>
<polyline fill="none" stroke="#dcccff" points="523.859,-160 596.418,-160 "/>
<path fill="none" stroke="#dcccff" d="M596.418,-160C602.418,-160 608.418,-166 608.418,-172"/>
<polyline fill="none" stroke="#dcccff" points="608.418,-172 608.418,-184 "/>
<path fill="none" stroke="#dcccff" d="M608.418,-184C608.418,-190 602.418,-196 596.418,-196"/>
<text text-anchor="middle" x="560.139" y="-172.4" font-family="Helvetica,sans-Serif" font-size="14.00">Random Unit</text>
</g>
<!-- item_SmokingPrevelanceMalebyAgeIndexAgeIndex_&#45;&gt;smokingDraw -->
<g id="edge10" class="edge"><title>item_SmokingPrevelanceMalebyAgeIndexAgeIndex_&#45;&gt;smokingDraw</title>
<path fill="none" stroke="#5114cc" stroke-width="3" d="M589.498,-231.697C586.428,-226.187 582.916,-219.883 579.413,-213.596"/>
<polygon fill="#5114cc" stroke="#5114cc" points="585.517,-210.169 569.668,-196.104 573.287,-216.983 585.517,-210.169"/>
</g>
<!-- smokingDrawLesserItem_SmokingPrevelanceMalebyAgeIndexAgeIndex_Query -->
<g id="node22" class="node"><title>smokingDrawLesserItem_SmokingPrevelanceMalebyAgeIndexAgeIndex_Query</title>
<polygon fill="#dcccff" stroke="#dcccff" points="598.495,-124 557.782,-124 545.782,-112 545.782,-100 557.782,-88 598.495,-88 610.495,-100 610.495,-112 598.495,-124"/>
<path fill="#dcccff" stroke="#dcccff" d="M557.782,-124C551.782,-124 545.782,-118 545.782,-112"/>
<path fill="#dcccff" stroke="#dcccff" d="M545.782,-100C545.782,-94 551.782,-88 557.782,-88"/>
<path fill="#dcccff" stroke="#dcccff" d="M598.495,-88C604.495,-88 610.495,-94 610.495,-100"/>
<path fill="#dcccff" stroke="#dcccff" d="M610.495,-112C610.495,-118 604.495,-124 598.495,-124"/>
<polyline fill="none" stroke="#dcccff" points="598.495,-124 557.782,-124 "/>
<path fill="none" stroke="#dcccff" d="M557.782,-124C551.782,-124 545.782,-118 545.782,-112"/>
<polyline fill="none" stroke="#dcccff" points="545.782,-112 545.782,-100 "/>
<path fill="none" stroke="#dcccff" d="M545.782,-100C545.782,-94 551.782,-88 557.782,-88"/>
<polyline fill="none" stroke="#dcccff" points="557.782,-88 598.495,-88 "/>
<path fill="none" stroke="#dcccff" d="M598.495,-88C604.495,-88 610.495,-94 610.495,-100"/>
<polyline fill="none" stroke="#dcccff" points="610.495,-100 610.495,-112 "/>
<path fill="none" stroke="#dcccff" d="M610.495,-112C610.495,-118 604.495,-124 598.495,-124"/>
<text text-anchor="middle" x="578.139" y="-100.4" font-family="Helvetica,sans-Serif" font-size="14.00">Lesser?</text>
</g>
<!-- item_SmokingPrevelanceMalebyAgeIndexAgeIndex_&#45;&gt;smokingDrawLesserItem_SmokingPrevelanceMalebyAgeIndexAgeIndex_Query -->
<g id="edge42" class="edge"><title>item_SmokingPrevelanceMalebyAgeIndexAgeIndex_&#45;&gt;smokingDrawLesserItem_SmokingPrevelanceMalebyAgeIndexAgeIndex_Query:ne</title>
<path fill="none" stroke="blue" stroke-width="2" stroke-dasharray="1,5" d="M606.618,-231.704C610.611,-221.522 615.111,-208.272 617.139,-196 622.104,-165.939 620.139,-150.37 601.764,-129.915"/>
<ellipse fill="blue" stroke="blue" cx="598.895" cy="-126.898" rx="4.00002" ry="4.00002"/>
</g>
<!-- smokingDraw&#45;&gt;smokingDrawLesserItem_SmokingPrevelanceMalebyAgeIndexAgeIndex_Query -->
<g id="edge44" class="edge"><title>smokingDraw&#45;&gt;smokingDrawLesserItem_SmokingPrevelanceMalebyAgeIndexAgeIndex_Query:nw</title>
<path fill="none" stroke="blue" stroke-width="2" stroke-dasharray="1,5" d="M554.528,-159.826C552.462,-150.67 551.489,-139.513 555.505,-130.727"/>
<ellipse fill="blue" stroke="blue" cx="557.87" cy="-127.294" rx="4.00002" ry="4.00002"/>
</g>
<!-- smokingDraw&#45;&gt;smokingDrawLesserItem_SmokingPrevelanceMalebyAgeIndexAgeIndex_Query -->
<g id="edge12" class="edge"><title>smokingDraw&#45;&gt;smokingDrawLesserItem_SmokingPrevelanceMalebyAgeIndexAgeIndex_Query</title>
<path fill="none" stroke="#5114cc" stroke-width="3" d="M564.588,-159.697C565.852,-154.78 567.279,-149.231 568.72,-143.627"/>
<polygon fill="#5114cc" stroke="#5114cc" points="575.539,-145.218 573.74,-124.104 561.98,-141.731 575.539,-145.218"/>
</g>
<!-- smokingDrawLesserItem_SmokingPrevelanceMalebyAgeIndexAgeIndex_Query&#45;&gt;individualsmokingRecord -->
<g id="edge22" class="edge"><title>smokingDrawLesserItem_SmokingPrevelanceMalebyAgeIndexAgeIndex_Query&#45;&gt;individualsmokingRecord:individualsmokingsmoker</title>
<path fill="none" stroke="#5114cc" stroke-width="3" d="M592.163,-87.8836C605.205,-71.2024 623.128,-46.0465 626.566,-29.8217"/>
<polygon fill="#5114cc" stroke="#5114cc" points="631.998,-25.4043 614.139,-14 620.988,-34.0522 631.998,-25.4043"/>
</g>
<!-- hIVDrawLesserItem_HIVPrevalenceMalebyAgeIndexAgeIndex_Query&#45;&gt;individualhIVStatusRecord -->
<g id="edge14" class="edge"><title>hIVDrawLesserItem_HIVPrevalenceMalebyAgeIndexAgeIndex_Query&#45;&gt;individualhIVStatusRecord:individualhIVStatushIVPositive</title>
<path fill="none" stroke="#5114cc" stroke-width="3" d="M292.57,-87.8836C307.644,-71.5113 328.475,-46.9753 334.215,-30.7322"/>
<polygon fill="#5114cc" stroke="#5114cc" points="340.016,-26.8127 323.139,-14 328.342,-34.5409 340.016,-26.8127"/>
</g>
<!-- genderIdenticalMale&#45;&gt;item_HIVPrevalenceMalebyAgeIndexAgeIndex_ -->
<g id="edge26" class="edge"><title>genderIdenticalMale&#45;&gt;item_HIVPrevalenceMalebyAgeIndexAgeIndex_</title>
<path fill="none" stroke="#5114cc" stroke-width="3" d="M348.341,-231.697C341.627,-225.169 333.767,-217.528 326.149,-210.121"/>
<polygon fill="#5114cc" stroke="#5114cc" points="330.951,-205.027 311.732,-196.104 321.192,-215.065 330.951,-205.027"/>
</g>
<!-- item_HIVPrevalenceMalebyAgeIndexAgeIndex_&#45;&gt;hIVDrawLesserItem_HIVPrevalenceMalebyAgeIndexAgeIndex_Query -->
<g id="edge36" class="edge"><title>item_HIVPrevalenceMalebyAgeIndexAgeIndex_&#45;&gt;hIVDrawLesserItem_HIVPrevalenceMalebyAgeIndexAgeIndex_Query:ne</title>
<path fill="none" stroke="blue" stroke-width="2" stroke-dasharray="1,5" d="M299.749,-159.826C301.815,-150.67 302.788,-139.513 298.772,-130.727"/>
<ellipse fill="blue" stroke="blue" cx="296.407" cy="-127.294" rx="4.00002" ry="4.00002"/>
</g>
<!-- item_HIVPrevalenceMalebyAgeIndexAgeIndex_&#45;&gt;hIVDrawLesserItem_HIVPrevalenceMalebyAgeIndexAgeIndex_Query -->
<g id="edge20" class="edge"><title>item_HIVPrevalenceMalebyAgeIndexAgeIndex_&#45;&gt;hIVDrawLesserItem_HIVPrevalenceMalebyAgeIndexAgeIndex_Query</title>
<path fill="none" stroke="#5114cc" stroke-width="3" d="M289.689,-159.697C288.425,-154.78 286.998,-149.231 285.557,-143.627"/>
<polygon fill="#5114cc" stroke="#5114cc" points="292.297,-141.731 280.537,-124.104 278.738,-145.218 292.297,-141.731"/>
</g>
</g>
</svg>
