<?xml version="1.0" encoding="UTF-8" standalone="no"?>
<!DOCTYPE svg PUBLIC "-//W3C//DTD SVG 1.1//EN"
 "http://www.w3.org/Graphics/SVG/1.1/DTD/svg11.dtd">
<!-- Generated by graphviz version 2.29.20110702.0445 (20110702.0445)
 -->
<!-- Title: immuneResponse Pages: 1 -->
<svg width="1126pt" height="441pt"
 viewBox="0.00 0.00 1126.00 441.00" xmlns="http://www.w3.org/2000/svg" xmlns:xlink="http://www.w3.org/1999/xlink">
<g id="graph1" class="graph" transform="scale(1 1) rotate(0) translate(4 437)">
<title>immuneResponse</title>
<polygon fill="white" stroke="white" points="-4,5 -4,-437 1123,-437 1123,5 -4,5"/>
<g id="graph2" class="cluster"><title>clustercontextKey</title>
<polygon fill="ghostwhite" stroke="white" points="8,-371 8,-425 96,-425 96,-371 8,-371"/>
<text text-anchor="middle" x="52.1792" y="-407" font-family="Helvetica,sans-Serif" font-size="14.00">Parameters</text>
</g>
<g id="graph3" class="cluster"><title>clusterindividualKey</title>
<polygon fill="ghostwhite" stroke="white" points="104,-371 104,-425 179,-425 179,-371 104,-371"/>
<text text-anchor="middle" x="141.576" y="-407" font-family="Helvetica,sans-Serif" font-size="14.00">Individual</text>
</g>
<!-- contextOverview -->
<g id="node2" class="node"><title>contextOverview</title>
<ellipse fill="black" stroke="black" cx="52" cy="-386" rx="7.2" ry="7.2"/>
</g>
<!-- immuneResponseOverview -->
<g id="node4" class="node"><title>immuneResponseOverview</title>
<a xlink:href="individual__Overview.svg">
<ellipse fill="#14cc8e" stroke="#14cc8e" cx="140" cy="-386" rx="7.2" ry="7.2"/>
</a>
</g>
<!-- watchTBStatus -->
<g id="node5" class="node"><title>watchTBStatus</title>
<a xlink:href="individual_watchTBStatus.svg" xlink:title="Watch TB Status">
<polygon fill="#feccff" stroke="#feccff" points="575.207,-324 478.793,-324 466.793,-312 466.793,-300 478.793,-288 575.207,-288 587.207,-300 587.207,-312 575.207,-324"/>
<path fill="#feccff" stroke="#feccff" d="M478.793,-324C472.793,-324 466.793,-318 466.793,-312"/>
<path fill="#feccff" stroke="#feccff" d="M466.793,-300C466.793,-294 472.793,-288 478.793,-288"/>
<path fill="#feccff" stroke="#feccff" d="M575.207,-288C581.207,-288 587.207,-294 587.207,-300"/>
<path fill="#feccff" stroke="#feccff" d="M587.207,-312C587.207,-318 581.207,-324 575.207,-324"/>
<polyline fill="none" stroke="black" points="575.207,-324 478.793,-324 "/>
<path fill="none" stroke="black" d="M478.793,-324C472.793,-324 466.793,-318 466.793,-312"/>
<polyline fill="none" stroke="black" points="466.793,-312 466.793,-300 "/>
<path fill="none" stroke="black" d="M466.793,-300C466.793,-294 472.793,-288 478.793,-288"/>
<polyline fill="none" stroke="black" points="478.793,-288 575.207,-288 "/>
<path fill="none" stroke="black" d="M575.207,-288C581.207,-288 587.207,-294 587.207,-300"/>
<polyline fill="none" stroke="black" points="587.207,-300 587.207,-312 "/>
<path fill="none" stroke="black" d="M587.207,-312C587.207,-318 581.207,-324 575.207,-324"/>
<text text-anchor="middle" x="527" y="-300.4" font-family="Helvetica,sans-Serif" font-size="14.00">Watch TB Status</text>
</a>
</g>
<!-- individualtBStatusRecord -->
<g id="node6" class="node"><title>individualtBStatusRecord</title>
<polygon fill="white" stroke="none" points="426.849,-361.2 426.849,-410.8 563.151,-410.8 563.151,-361.2 426.849,-361.2"/>
<text text-anchor="middle" x="495" y="-392.8" font-family="Helvetica,sans-Serif" font-size="14.00">TB Status</text>
<polyline fill="none" stroke="none" points="426.849,-386 563.151,-386 "/>
<text text-anchor="middle" x="467.538" y="-368" font-family="Helvetica,sans-Serif" font-size="14.00">Suseptible</text>
<polyline fill="none" stroke="none" points="508.228,-361.2 508.228,-386 "/>
<text text-anchor="middle" x="535.689" y="-368" font-family="Helvetica,sans-Serif" font-size="14.00">Latent</text>
</g>
<!-- individualtBStatusRecord&#45;&gt;watchTBStatus -->
<g id="edge4" class="edge"><title>individualtBStatusRecord:individualtBStatus&#45;&gt;watchTBStatus</title>
<path fill="none" stroke="#cb14cc" stroke-width="2" d="M564,-398C592.593,-398 567.865,-358.97 547.393,-332.032"/>
<polygon fill="#cb14cc" stroke="#cb14cc" points="541.24,-324.116 550.93,-329.25 544.704,-327.757 547.772,-331.705 547.377,-332.012 546.983,-332.318 543.914,-328.371 543.825,-334.773 541.24,-324.116 541.24,-324.116"/>
</g>
<!-- tBStatusIdenticalSuseptibleQuery -->
<g id="node13" class="node"><title>tBStatusIdenticalSuseptibleQuery</title>
<polygon fill="#ccffed" stroke="#ccffed" points="181,-324 151,-324 139,-312 139,-300 151,-288 181,-288 193,-300 193,-312 181,-324"/>
<path fill="#ccffed" stroke="#ccffed" d="M151,-324C145,-324 139,-318 139,-312"/>
<path fill="#ccffed" stroke="#ccffed" d="M139,-300C139,-294 145,-288 151,-288"/>
<path fill="#ccffed" stroke="#ccffed" d="M181,-288C187,-288 193,-294 193,-300"/>
<path fill="#ccffed" stroke="#ccffed" d="M193,-312C193,-318 187,-324 181,-324"/>
<polyline fill="none" stroke="#ccffed" points="181,-324 151,-324 "/>
<path fill="none" stroke="#ccffed" d="M151,-324C145,-324 139,-318 139,-312"/>
<polyline fill="none" stroke="#ccffed" points="139,-312 139,-300 "/>
<path fill="none" stroke="#ccffed" d="M139,-300C139,-294 145,-288 151,-288"/>
<polyline fill="none" stroke="#ccffed" points="151,-288 181,-288 "/>
<path fill="none" stroke="#ccffed" d="M181,-288C187,-288 193,-294 193,-300"/>
<polyline fill="none" stroke="#ccffed" points="193,-300 193,-312 "/>
<path fill="none" stroke="#ccffed" d="M193,-312C193,-318 187,-324 181,-324"/>
<text text-anchor="middle" x="166" y="-300.4" font-family="Helvetica,sans-Serif" font-size="14.00">Is?</text>
</g>
<!-- individualtBStatusRecord&#45;&gt;tBStatusIdenticalSuseptibleQuery -->
<g id="edge30" class="edge"><title>individualtBStatusRecord:individualtBStatussuseptible&#45;&gt;tBStatusIdenticalSuseptibleQuery:ne</title>
<path fill="none" stroke="#14cc8e" stroke-width="2" stroke-dasharray="1,5" d="M426,-374C413.505,-374 231.327,-340.622 191.374,-327.306"/>
<ellipse fill="#14cc8e" stroke="#14cc8e" cx="187.65" cy="-325.636" rx="4.00002" ry="4.00002"/>
</g>
<!-- tBStatusDifferentSuseptibleQueryCopy -->
<g id="node15" class="node"><title>tBStatusDifferentSuseptibleQueryCopy</title>
<polygon fill="#ccffed" stroke="#ccffed" points="437.264,-324 400.736,-324 388.736,-312 388.736,-300 400.736,-288 437.264,-288 449.264,-300 449.264,-312 437.264,-324"/>
<path fill="#ccffed" stroke="#ccffed" d="M400.736,-324C394.736,-324 388.736,-318 388.736,-312"/>
<path fill="#ccffed" stroke="#ccffed" d="M388.736,-300C388.736,-294 394.736,-288 400.736,-288"/>
<path fill="#ccffed" stroke="#ccffed" d="M437.264,-288C443.264,-288 449.264,-294 449.264,-300"/>
<path fill="#ccffed" stroke="#ccffed" d="M449.264,-312C449.264,-318 443.264,-324 437.264,-324"/>
<polyline fill="none" stroke="#ccffed" points="437.264,-324 400.736,-324 "/>
<path fill="none" stroke="#ccffed" d="M400.736,-324C394.736,-324 388.736,-318 388.736,-312"/>
<polyline fill="none" stroke="#ccffed" points="388.736,-312 388.736,-300 "/>
<path fill="none" stroke="#ccffed" d="M388.736,-300C388.736,-294 394.736,-288 400.736,-288"/>
<polyline fill="none" stroke="#ccffed" points="400.736,-288 437.264,-288 "/>
<path fill="none" stroke="#ccffed" d="M437.264,-288C443.264,-288 449.264,-294 449.264,-300"/>
<polyline fill="none" stroke="#ccffed" points="449.264,-300 449.264,-312 "/>
<path fill="none" stroke="#ccffed" d="M449.264,-312C449.264,-318 443.264,-324 437.264,-324"/>
<text text-anchor="middle" x="419" y="-300.4" font-family="Helvetica,sans-Serif" font-size="14.00">Is Not?</text>
</g>
<!-- individualtBStatusRecord&#45;&gt;tBStatusDifferentSuseptibleQueryCopy -->
<g id="edge40" class="edge"><title>individualtBStatusRecord:individualtBStatussuseptible&#45;&gt;tBStatusDifferentSuseptibleQueryCopy:ne</title>
<path fill="none" stroke="#14cc8e" stroke-width="2" stroke-dasharray="1,5" d="M426,-374C406.446,-374 440.507,-348.956 440.261,-331.701"/>
<ellipse fill="#14cc8e" stroke="#14cc8e" cx="438.56" cy="-327.683" rx="4.00001" ry="4.00001"/>
</g>
<!-- individualbacterialLoad -->
<g id="node8" class="node"><title>individualbacterialLoad</title>
<polygon fill="white" stroke="white" points="466.13,-108 361.87,-108 361.87,-72 466.13,-72 466.13,-108"/>
<text text-anchor="middle" x="414" y="-84.4" font-family="Helvetica,sans-Serif" font-size="14.00">Bacterial Load</text>
</g>
<!-- bacterialLoadGreaterBacterialLoadInfectionThresholdQuery -->
<g id="node18" class="node"><title>bacterialLoadGreaterBacterialLoadInfectionThresholdQuery</title>
<polygon fill="#ccffed" stroke="#ccffed" points="843.435,-36 796.565,-36 784.565,-24 784.565,-12 796.565,-0 843.435,-0 855.435,-12 855.435,-24 843.435,-36"/>
<path fill="#ccffed" stroke="#ccffed" d="M796.565,-36C790.565,-36 784.565,-30 784.565,-24"/>
<path fill="#ccffed" stroke="#ccffed" d="M784.565,-12C784.565,-6 790.565,-0 796.565,-0"/>
<path fill="#ccffed" stroke="#ccffed" d="M843.435,-0C849.435,-0 855.435,-6 855.435,-12"/>
<path fill="#ccffed" stroke="#ccffed" d="M855.435,-24C855.435,-30 849.435,-36 843.435,-36"/>
<polyline fill="none" stroke="#ccffed" points="843.435,-36 796.565,-36 "/>
<path fill="none" stroke="#ccffed" d="M796.565,-36C790.565,-36 784.565,-30 784.565,-24"/>
<polyline fill="none" stroke="#ccffed" points="784.565,-24 784.565,-12 "/>
<path fill="none" stroke="#ccffed" d="M784.565,-12C784.565,-6 790.565,-0 796.565,-0"/>
<polyline fill="none" stroke="#ccffed" points="796.565,-0 843.435,-0 "/>
<path fill="none" stroke="#ccffed" d="M843.435,-0C849.435,-0 855.435,-6 855.435,-12"/>
<polyline fill="none" stroke="#ccffed" points="855.435,-12 855.435,-24 "/>
<path fill="none" stroke="#ccffed" d="M855.435,-24C855.435,-30 849.435,-36 843.435,-36"/>
<text text-anchor="middle" x="820" y="-12.4" font-family="Helvetica,sans-Serif" font-size="14.00">Greater?</text>
</g>
<!-- individualbacterialLoad&#45;&gt;bacterialLoadGreaterBacterialLoadInfectionThresholdQuery -->
<g id="edge32" class="edge"><title>individualbacterialLoad&#45;&gt;bacterialLoadGreaterBacterialLoadInfectionThresholdQuery:nw</title>
<path fill="none" stroke="#14cc8e" stroke-width="2" stroke-dasharray="1,5" d="M466.371,-85.3406C560.325,-78.3097 751.781,-61.7087 795.212,-40.4569"/>
<ellipse fill="#14cc8e" stroke="#14cc8e" cx="798.656" cy="-38.1954" rx="4.00002" ry="4.00002"/>
</g>
<!-- bacterialLoadSubtractBacterialClearingRate -->
<g id="node22" class="node"><title>bacterialLoadSubtractBacterialClearingRate</title>
<polygon fill="#ccffed" stroke="#ccffed" points="335.103,-252 290.897,-252 278.897,-240 278.897,-228 290.897,-216 335.103,-216 347.103,-228 347.103,-240 335.103,-252"/>
<path fill="#ccffed" stroke="#ccffed" d="M290.897,-252C284.897,-252 278.897,-246 278.897,-240"/>
<path fill="#ccffed" stroke="#ccffed" d="M278.897,-228C278.897,-222 284.897,-216 290.897,-216"/>
<path fill="#ccffed" stroke="#ccffed" d="M335.103,-216C341.103,-216 347.103,-222 347.103,-228"/>
<path fill="#ccffed" stroke="#ccffed" d="M347.103,-240C347.103,-246 341.103,-252 335.103,-252"/>
<polyline fill="none" stroke="#ccffed" points="335.103,-252 290.897,-252 "/>
<path fill="none" stroke="#ccffed" d="M290.897,-252C284.897,-252 278.897,-246 278.897,-240"/>
<polyline fill="none" stroke="#ccffed" points="278.897,-240 278.897,-228 "/>
<path fill="none" stroke="#ccffed" d="M278.897,-228C278.897,-222 284.897,-216 290.897,-216"/>
<polyline fill="none" stroke="#ccffed" points="290.897,-216 335.103,-216 "/>
<path fill="none" stroke="#ccffed" d="M335.103,-216C341.103,-216 347.103,-222 347.103,-228"/>
<polyline fill="none" stroke="#ccffed" points="347.103,-228 347.103,-240 "/>
<path fill="none" stroke="#ccffed" d="M347.103,-240C347.103,-246 341.103,-252 335.103,-252"/>
<text text-anchor="middle" x="313" y="-228.4" font-family="Helvetica,sans-Serif" font-size="14.00">Subtract</text>
</g>
<!-- individualbacterialLoad&#45;&gt;bacterialLoadSubtractBacterialClearingRate -->
<g id="edge36" class="edge"><title>individualbacterialLoad&#45;&gt;bacterialLoadSubtractBacterialClearingRate:nw</title>
<path fill="none" stroke="#14cc8e" stroke-width="2" stroke-dasharray="1,5" d="M375.269,-108.142C357.919,-117.108 338.029,-129.296 323,-144 296.182,-170.238 289.105,-179.888 278.931,-216 273.051,-236.871 273.218,-267.087 288.619,-258.153"/>
<ellipse fill="#14cc8e" stroke="#14cc8e" cx="291.888" cy="-255.513" rx="4.00002" ry="4.00002"/>
</g>
<!-- tBmodelbacterialLoadInfectionThreshold -->
<g id="node9" class="node"><title>tBmodelbacterialLoadInfectionThreshold</title>
<polygon fill="white" stroke="white" points="1118.25,-108 889.75,-108 889.75,-72 1118.25,-72 1118.25,-108"/>
<text text-anchor="start" x="898" y="-84.5" font-family="Helvetica,sans-Serif" font-size="14.00">Bacterial Load Infection Threshold</text>
</g>
<!-- tBmodelbacterialLoadInfectionThreshold&#45;&gt;bacterialLoadGreaterBacterialLoadInfectionThresholdQuery -->
<g id="edge34" class="edge"><title>tBmodelbacterialLoadInfectionThreshold&#45;&gt;bacterialLoadGreaterBacterialLoadInfectionThresholdQuery:ne</title>
<path fill="none" stroke="black" stroke-width="2" stroke-dasharray="1,5" d="M899.041,-71.963C879.242,-65.0424 859.832,-55.317 844.074,-41.6525"/>
<ellipse fill="black" stroke="black" cx="840.928" cy="-38.7249" rx="4.00002" ry="4.00002"/>
</g>
<!-- individualbacterialClearingRate -->
<g id="node10" class="node"><title>individualbacterialClearingRate</title>
<polygon fill="white" stroke="white" points="370.469,-324 211.531,-324 211.531,-288 370.469,-288 370.469,-324"/>
<text text-anchor="middle" x="291" y="-300.4" font-family="Helvetica,sans-Serif" font-size="14.00">Bacterial Clearing Rate</text>
</g>
<!-- individualbacterialClearingRate&#45;&gt;bacterialLoadSubtractBacterialClearingRate -->
<g id="edge38" class="edge"><title>individualbacterialClearingRate&#45;&gt;bacterialLoadSubtractBacterialClearingRate:ne</title>
<path fill="none" stroke="#14cc8e" stroke-width="2" stroke-dasharray="1,5" d="M317.037,-287.804C327.727,-279.141 337.182,-268.485 335.056,-258.986"/>
<ellipse fill="#14cc8e" stroke="#14cc8e" cx="333.008" cy="-255.459" rx="4.00002" ry="4.00002"/>
</g>
<!-- immuneResponse -->
<g id="node11" class="node"><title>immuneResponse</title>
<a xlink:href="individual_immuneResponse.svg" xlink:title="Immune Response">
<polygon fill="#ccffed" stroke="#ccffed" points="308.13,-404 199.87,-404 187.87,-392 187.87,-380 199.87,-368 308.13,-368 320.13,-380 320.13,-392 308.13,-404"/>
<path fill="#ccffed" stroke="#ccffed" d="M199.87,-404C193.87,-404 187.87,-398 187.87,-392"/>
<path fill="#ccffed" stroke="#ccffed" d="M187.87,-380C187.87,-374 193.87,-368 199.87,-368"/>
<path fill="#ccffed" stroke="#ccffed" d="M308.13,-368C314.13,-368 320.13,-374 320.13,-380"/>
<path fill="#ccffed" stroke="#ccffed" d="M320.13,-392C320.13,-398 314.13,-404 308.13,-404"/>
<polyline fill="none" stroke="black" points="308.13,-404 199.87,-404 "/>
<path fill="none" stroke="black" d="M199.87,-404C193.87,-404 187.87,-398 187.87,-392"/>
<polyline fill="none" stroke="black" points="187.87,-392 187.87,-380 "/>
<path fill="none" stroke="black" d="M187.87,-380C187.87,-374 193.87,-368 199.87,-368"/>
<polyline fill="none" stroke="black" points="199.87,-368 308.13,-368 "/>
<path fill="none" stroke="black" d="M308.13,-368C314.13,-368 320.13,-374 320.13,-380"/>
<polyline fill="none" stroke="black" points="320.13,-380 320.13,-392 "/>
<path fill="none" stroke="black" d="M320.13,-392C320.13,-398 314.13,-404 308.13,-404"/>
<text text-anchor="middle" x="254" y="-380.4" font-family="Helvetica,sans-Serif" font-size="14.00">Immune Response</text>
</a>
</g>
<!-- immuneResponse&#45;&gt;tBStatusIdenticalSuseptibleQuery -->
<g id="edge6" class="edge"><title>immuneResponse&#45;&gt;tBStatusIdenticalSuseptibleQuery</title>
<path fill="none" stroke="#14cc8e" stroke-width="3" d="M234.47,-367.689C224.558,-358.904 212.217,-347.965 200.753,-337.804"/>
<polygon fill="#14cc8e" stroke="#14cc8e" points="205.086,-332.29 185.475,-324.262 195.799,-342.767 205.086,-332.29"/>
</g>
<!-- immuneResponse&#45;&gt;tBStatusDifferentSuseptibleQueryCopy -->
<g id="edge8" class="edge"><title>immuneResponse&#45;&gt;tBStatusDifferentSuseptibleQueryCopy</title>
<path fill="none" stroke="#14cc8e" stroke-width="3" d="M290.21,-367.883C313.72,-356.769 344.645,-342.15 370.299,-330.022"/>
<polygon fill="#14cc8e" stroke="#14cc8e" points="373.589,-336.21 388.679,-321.334 367.606,-323.553 373.589,-336.21"/>
</g>
<!-- tBStatusIdenticalSuseptibleQuery&#45;&gt;bacterialLoadSubtractBacterialClearingRate -->
<g id="edge14" class="edge"><title>tBStatusIdenticalSuseptibleQuery&#45;&gt;bacterialLoadSubtractBacterialClearingRate</title>
<path fill="none" stroke="#14cc8e" stroke-width="3" d="M193.305,-291.998C212.181,-283.009 237.894,-270.765 260.65,-259.929"/>
<polygon fill="#14cc8e" stroke="#14cc8e" points="263.807,-266.179 278.854,-251.26 257.788,-253.538 263.807,-266.179"/>
</g>
<!-- setBacterialLoadToBacterialLoadInfectionThreshold -->
<g id="node20" class="node"><title>setBacterialLoadToBacterialLoadInfectionThreshold</title>
<polygon fill="#ccffed" stroke="#ccffed" points="479,-252 449,-252 437,-240 437,-228 449,-216 479,-216 491,-228 491,-240 479,-252"/>
<path fill="#ccffed" stroke="#ccffed" d="M449,-252C443,-252 437,-246 437,-240"/>
<path fill="#ccffed" stroke="#ccffed" d="M437,-228C437,-222 443,-216 449,-216"/>
<path fill="#ccffed" stroke="#ccffed" d="M479,-216C485,-216 491,-222 491,-228"/>
<path fill="#ccffed" stroke="#ccffed" d="M491,-240C491,-246 485,-252 479,-252"/>
<polyline fill="none" stroke="#ccffed" points="479,-252 449,-252 "/>
<path fill="none" stroke="#ccffed" d="M449,-252C443,-252 437,-246 437,-240"/>
<polyline fill="none" stroke="#ccffed" points="437,-240 437,-228 "/>
<path fill="none" stroke="#ccffed" d="M437,-228C437,-222 443,-216 449,-216"/>
<polyline fill="none" stroke="#ccffed" points="449,-216 479,-216 "/>
<path fill="none" stroke="#ccffed" d="M479,-216C485,-216 491,-222 491,-228"/>
<polyline fill="none" stroke="#ccffed" points="491,-228 491,-240 "/>
<path fill="none" stroke="#ccffed" d="M491,-240C491,-246 485,-252 479,-252"/>
<text text-anchor="middle" x="464" y="-228.4" font-family="Helvetica,sans-Serif" font-size="14.00">Set</text>
</g>
<!-- tBStatusDifferentSuseptibleQueryCopy&#45;&gt;setBacterialLoadToBacterialLoadInfectionThreshold -->
<g id="edge20" class="edge"><title>tBStatusDifferentSuseptibleQueryCopy&#45;&gt;setBacterialLoadToBacterialLoadInfectionThreshold</title>
<path fill="none" stroke="#14cc8e" stroke-width="3" d="M430.124,-287.697C433.775,-282.017 437.968,-275.494 442.133,-269.016"/>
<polygon fill="#14cc8e" stroke="#14cc8e" points="448.077,-272.713 453.004,-252.104 436.301,-265.143 448.077,-272.713"/>
</g>
<!-- maximum_BacterialLoadSubtractBacterialClearingRateZero_ -->
<g id="node16" class="node"><title>maximum_BacterialLoadSubtractBacterialClearingRateZero_</title>
<polygon fill="#ccffed" stroke="#ccffed" points="404.342,-180 343.658,-180 331.658,-168 331.658,-156 343.658,-144 404.342,-144 416.342,-156 416.342,-168 404.342,-180"/>
<path fill="#ccffed" stroke="#ccffed" d="M343.658,-180C337.658,-180 331.658,-174 331.658,-168"/>
<path fill="#ccffed" stroke="#ccffed" d="M331.658,-156C331.658,-150 337.658,-144 343.658,-144"/>
<path fill="#ccffed" stroke="#ccffed" d="M404.342,-144C410.342,-144 416.342,-150 416.342,-156"/>
<path fill="#ccffed" stroke="#ccffed" d="M416.342,-168C416.342,-174 410.342,-180 404.342,-180"/>
<polyline fill="none" stroke="#ccffed" points="404.342,-180 343.658,-180 "/>
<path fill="none" stroke="#ccffed" d="M343.658,-180C337.658,-180 331.658,-174 331.658,-168"/>
<polyline fill="none" stroke="#ccffed" points="331.658,-168 331.658,-156 "/>
<path fill="none" stroke="#ccffed" d="M331.658,-156C331.658,-150 337.658,-144 343.658,-144"/>
<polyline fill="none" stroke="#ccffed" points="343.658,-144 404.342,-144 "/>
<path fill="none" stroke="#ccffed" d="M404.342,-144C410.342,-144 416.342,-150 416.342,-156"/>
<polyline fill="none" stroke="#ccffed" points="416.342,-156 416.342,-168 "/>
<path fill="none" stroke="#ccffed" d="M416.342,-168C416.342,-174 410.342,-180 404.342,-180"/>
<text text-anchor="middle" x="374" y="-156.4" font-family="Helvetica,sans-Serif" font-size="14.00">Maximum?</text>
</g>
<!-- maximum_BacterialLoadSubtractBacterialClearingRateZero_&#45;&gt;individualbacterialLoad -->
<g id="edge12" class="edge"><title>maximum_BacterialLoadSubtractBacterialClearingRateZero_&#45;&gt;individualbacterialLoad</title>
<path fill="none" stroke="#14cc8e" stroke-width="3" d="M383.888,-143.697C387.036,-138.187 390.638,-131.883 394.231,-125.596"/>
<polygon fill="#14cc8e" stroke="#14cc8e" points="400.381,-128.942 404.226,-108.104 388.226,-121.996 400.381,-128.942"/>
</g>
<!-- maximum_BacterialLoadSubtractBacterialClearingRateZero_&#45;&gt;bacterialLoadGreaterBacterialLoadInfectionThresholdQuery -->
<g id="edge10" class="edge"><title>maximum_BacterialLoadSubtractBacterialClearingRateZero_&#45;&gt;bacterialLoadGreaterBacterialLoadInfectionThresholdQuery</title>
<path fill="none" stroke="#14cc8e" stroke-width="3" d="M416.361,-147.513C497.641,-121.634 675.39,-65.0418 765.421,-36.3772"/>
<polygon fill="#14cc8e" stroke="#14cc8e" points="767.586,-43.0342 784.52,-30.2964 763.339,-29.694 767.586,-43.0342"/>
</g>
<!-- bacterialLoadGreaterBacterialLoadInfectionThresholdQuery&#45;&gt;individualtBStatusRecord -->
<g id="edge16" class="edge"><title>bacterialLoadGreaterBacterialLoadInfectionThresholdQuery&#45;&gt;individualtBStatusRecord:individualtBStatuslatent</title>
<path fill="none" stroke="#14cc8e" stroke-width="3" d="M828.297,-36.0292C840.277,-62.2297 861,-114.299 861,-161 861,-235 861,-235 861,-235 861,-275.447 871.059,-295.866 842,-324 801.131,-363.567 657.57,-372.483 584.293,-373.807"/>
<polygon fill="#14cc8e" stroke="#14cc8e" points="583.933,-366.81 564,-374 584.066,-380.81 583.933,-366.81"/>
</g>
<!-- setBacterialLoadToBacterialLoadInfectionThreshold&#45;&gt;individualbacterialLoad -->
<g id="edge22" class="edge"><title>setBacterialLoadToBacterialLoadInfectionThreshold&#45;&gt;individualbacterialLoad</title>
<path fill="none" stroke="#14cc8e" stroke-width="3" d="M457.969,-215.871C450.273,-194.016 436.76,-155.638 426.739,-127.18"/>
<polygon fill="#14cc8e" stroke="#14cc8e" points="433.298,-124.729 420.053,-108.189 420.092,-129.379 433.298,-124.729"/>
</g>
<!-- bacterialLoadSubtractBacterialClearingRate&#45;&gt;maximum_BacterialLoadSubtractBacterialClearingRateZero_ -->
<g id="edge24" class="edge"><title>bacterialLoadSubtractBacterialClearingRate&#45;&gt;maximum_BacterialLoadSubtractBacterialClearingRateZero_:nw</title>
<path fill="none" stroke="blue" stroke-width="2" stroke-dasharray="1,5" d="M325.708,-215.526C332.454,-206.648 341.216,-195.695 350.31,-185.912"/>
<ellipse fill="blue" stroke="blue" cx="353.226" cy="-182.882" rx="4.00002" ry="4.00002"/>
</g>
<!-- bacterialLoadSubtractBacterialClearingRate&#45;&gt;maximum_BacterialLoadSubtractBacterialClearingRateZero_ -->
<g id="edge18" class="edge"><title>bacterialLoadSubtractBacterialClearingRate&#45;&gt;maximum_BacterialLoadSubtractBacterialClearingRateZero_</title>
<path fill="none" stroke="#14cc8e" stroke-width="3" d="M328.079,-215.697C333.471,-209.509 339.736,-202.319 345.873,-195.277"/>
<polygon fill="#14cc8e" stroke="#14cc8e" points="351.233,-199.781 359.095,-180.104 340.678,-190.584 351.233,-199.781"/>
</g>
<!-- importxyxmaximum_BacterialLoadSubtractBacterialClearingRateZero_functionszero1 -->
<g id="node28" class="node"><title>importxyxmaximum_BacterialLoadSubtractBacterialClearingRateZero_functionszero1</title>
<text text-anchor="middle" x="392" y="-228.4" font-family="Helvetica,sans-Serif" font-size="14.00">0</text>
</g>
<!-- importxyxmaximum_BacterialLoadSubtractBacterialClearingRateZero_functionszero1&#45;&gt;maximum_BacterialLoadSubtractBacterialClearingRateZero_ -->
<g id="edge26" class="edge"><title>importxyxmaximum_BacterialLoadSubtractBacterialClearingRateZero_functionszero1&#45;&gt;maximum_BacterialLoadSubtractBacterialClearingRateZero_:ne</title>
<path fill="none" stroke="black" stroke-width="2" stroke-dasharray="1,5" d="M397.611,-215.826C399.677,-206.67 400.65,-195.513 396.633,-186.727"/>
<ellipse fill="black" stroke="black" cx="394.269" cy="-183.294" rx="4.00002" ry="4.00002"/>
</g>
<!-- importabcsetBacterialLoadToBacterialLoadInfectionThresholdtBmodelbacterialLoadInfectionThreshold -->
<g id="node30" class="node"><title>importabcsetBacterialLoadToBacterialLoadInfectionThresholdtBmodelbacterialLoadInfectionThreshold</title>
<text text-anchor="middle" x="719" y="-300.4" font-family="Helvetica,sans-Serif" font-size="14.00">Bacterial Load Infection Threshold</text>
</g>
<!-- importabcsetBacterialLoadToBacterialLoadInfectionThresholdtBmodelbacterialLoadInfectionThreshold&#45;&gt;setBacterialLoadToBacterialLoadInfectionThreshold -->
<g id="edge28" class="edge"><title>importabcsetBacterialLoadToBacterialLoadInfectionThresholdtBmodelbacterialLoadInfectionThreshold&#45;&gt;setBacterialLoadToBacterialLoadInfectionThreshold:ne</title>
<path fill="none" stroke="black" stroke-width="2" stroke-dasharray="1,5" d="M619.926,-287.971C567.624,-278.218 510.004,-266.023 488.95,-256.284"/>
<ellipse fill="black" stroke="black" cx="485.405" cy="-254.099" rx="4.00002" ry="4.00002"/>
</g>
</g>
</svg>
