<?xml version="1.0" encoding="UTF-8" standalone="no"?>
<!DOCTYPE svg PUBLIC "-//W3C//DTD SVG 1.1//EN"
 "http://www.w3.org/Graphics/SVG/1.1/DTD/svg11.dtd">
<!-- Generated by graphviz version 2.29.20110702.0445 (20110702.0445)
 -->
<!-- Title: watchGender Pages: 1 -->
<svg width="495pt" height="441pt"
 viewBox="0.00 0.00 495.20 441.00" xmlns="http://www.w3.org/2000/svg" xmlns:xlink="http://www.w3.org/1999/xlink">
<g id="graph1" class="graph" transform="scale(1 1) rotate(0) translate(4 437)">
<title>watchGender</title>
<polygon fill="white" stroke="white" points="-4,5 -4,-437 492.199,-437 492.199,5 -4,5"/>
<g id="graph2" class="cluster"><title>clustercontextKey</title>
<polygon fill="ghostwhite" stroke="white" points="125,-371 125,-425 213,-425 213,-371 125,-371"/>
<text text-anchor="middle" x="169.179" y="-407" font-family="Helvetica,sans-Serif" font-size="14.00">Parameters</text>
</g>
<g id="graph3" class="cluster"><title>clusterindividualKey</title>
<polygon fill="ghostwhite" stroke="white" points="221,-371 221,-425 296,-425 296,-371 221,-371"/>
<text text-anchor="middle" x="258.576" y="-407" font-family="Helvetica,sans-Serif" font-size="14.00">Individual</text>
</g>
<!-- contextOverview -->
<g id="node2" class="node"><title>contextOverview</title>
<ellipse fill="black" stroke="black" cx="169" cy="-386" rx="7.2" ry="7.2"/>
</g>
<!-- watchGenderOverview -->
<g id="node4" class="node"><title>watchGenderOverview</title>
<a xlink:href="individual__Overview.svg">
<ellipse fill="#8d14cc" stroke="#8d14cc" cx="257" cy="-386" rx="7.2" ry="7.2"/>
</a>
</g>
<!-- watchAgeIndex -->
<g id="node5" class="node"><title>watchAgeIndex</title>
<a xlink:href="individual_watchAgeIndex.svg" xlink:title="Watch Age Index">
<polygon fill="#dcccff" stroke="#dcccff" points="327.501,-36 230.499,-36 218.499,-24 218.499,-12 230.499,-0 327.501,-0 339.501,-12 339.501,-24 327.501,-36"/>
<path fill="#dcccff" stroke="#dcccff" d="M230.499,-36C224.499,-36 218.499,-30 218.499,-24"/>
<path fill="#dcccff" stroke="#dcccff" d="M218.499,-12C218.499,-6 224.499,-0 230.499,-0"/>
<path fill="#dcccff" stroke="#dcccff" d="M327.501,-0C333.501,-0 339.501,-6 339.501,-12"/>
<path fill="#dcccff" stroke="#dcccff" d="M339.501,-24C339.501,-30 333.501,-36 327.501,-36"/>
<polyline fill="none" stroke="black" points="327.501,-36 230.499,-36 "/>
<path fill="none" stroke="black" d="M230.499,-36C224.499,-36 218.499,-30 218.499,-24"/>
<polyline fill="none" stroke="black" points="218.499,-24 218.499,-12 "/>
<path fill="none" stroke="black" d="M218.499,-12C218.499,-6 224.499,-0 230.499,-0"/>
<polyline fill="none" stroke="black" points="230.499,-0 327.501,-0 "/>
<path fill="none" stroke="black" d="M327.501,-0C333.501,-0 339.501,-6 339.501,-12"/>
<polyline fill="none" stroke="black" points="339.501,-12 339.501,-24 "/>
<path fill="none" stroke="black" d="M339.501,-24C339.501,-30 333.501,-36 327.501,-36"/>
<text text-anchor="middle" x="279" y="-12.4" font-family="Helvetica,sans-Serif" font-size="14.00">Watch Age Index</text>
</a>
</g>
<!-- individualageIndex -->
<g id="node6" class="node"><title>individualageIndex</title>
<polygon fill="white" stroke="white" points="318.286,-108 239.714,-108 239.714,-72 318.286,-72 318.286,-108"/>
<text text-anchor="middle" x="279" y="-84.4" font-family="Helvetica,sans-Serif" font-size="14.00">Age Index</text>
</g>
<!-- individualageIndex&#45;&gt;watchAgeIndex -->
<g id="edge4" class="edge"><title>individualageIndex&#45;&gt;watchAgeIndex</title>
<path fill="none" stroke="#5114cc" stroke-width="2" d="M279,-71.6966C279,-63.9827 279,-54.7125 279,-46.1124"/>
<polygon fill="#5114cc" stroke="#5114cc" points="279,-36.1043 283.5,-46.1043 279.5,-41.1043 279.5,-46.1043 279,-46.1043 278.5,-46.1043 278.5,-41.1043 274.5,-46.1044 279,-36.1043 279,-36.1043"/>
</g>
<!-- individualgenderRecord -->
<g id="node8" class="node"><title>individualgenderRecord</title>
<polygon fill="white" stroke="none" points="304.486,-361.2 304.486,-410.8 413.514,-410.8 413.514,-361.2 304.486,-361.2"/>
<text text-anchor="middle" x="359" y="-392.8" font-family="Helvetica,sans-Serif" font-size="14.00">Gender</text>
<polyline fill="none" stroke="none" points="304.486,-386 413.514,-386 "/>
<text text-anchor="middle" x="335.828" y="-368" font-family="Helvetica,sans-Serif" font-size="14.00">Female</text>
<polyline fill="none" stroke="none" points="367.169,-361.2 367.169,-386 "/>
<text text-anchor="middle" x="390.341" y="-368" font-family="Helvetica,sans-Serif" font-size="14.00">Male</text>
</g>
<!-- watchGender -->
<g id="node11" class="node"><title>watchGender</title>
<a xlink:href="individual_watchGender.svg" xlink:title="Watch Gender">
<polygon fill="#edccff" stroke="#edccff" points="399.313,-324 318.687,-324 306.687,-312 306.687,-300 318.687,-288 399.313,-288 411.313,-300 411.313,-312 399.313,-324"/>
<path fill="#edccff" stroke="#edccff" d="M318.687,-324C312.687,-324 306.687,-318 306.687,-312"/>
<path fill="#edccff" stroke="#edccff" d="M306.687,-300C306.687,-294 312.687,-288 318.687,-288"/>
<path fill="#edccff" stroke="#edccff" d="M399.313,-288C405.313,-288 411.313,-294 411.313,-300"/>
<path fill="#edccff" stroke="#edccff" d="M411.313,-312C411.313,-318 405.313,-324 399.313,-324"/>
<polyline fill="none" stroke="black" points="399.313,-324 318.687,-324 "/>
<path fill="none" stroke="black" d="M318.687,-324C312.687,-324 306.687,-318 306.687,-312"/>
<polyline fill="none" stroke="black" points="306.687,-312 306.687,-300 "/>
<path fill="none" stroke="black" d="M306.687,-300C306.687,-294 312.687,-288 318.687,-288"/>
<polyline fill="none" stroke="black" points="318.687,-288 399.313,-288 "/>
<path fill="none" stroke="black" d="M399.313,-288C405.313,-288 411.313,-294 411.313,-300"/>
<polyline fill="none" stroke="black" points="411.313,-300 411.313,-312 "/>
<path fill="none" stroke="black" d="M411.313,-312C411.313,-318 405.313,-324 399.313,-324"/>
<text text-anchor="middle" x="359" y="-300.4" font-family="Helvetica,sans-Serif" font-size="14.00">Watch Gender</text>
</a>
</g>
<!-- individualgenderRecord&#45;&gt;watchGender -->
<g id="edge6" class="edge"><title>individualgenderRecord:individualgender&#45;&gt;watchGender</title>
<path fill="none" stroke="#8d14cc" stroke-width="2" d="M359,-412C359,-436.004 396.184,-428.13 413,-411 428.879,-394.825 421.772,-380.901 413,-360 408.36,-348.945 400.166,-339.037 391.54,-330.862"/>
<polygon fill="#8d14cc" stroke="#8d14cc" points="383.928,-324.139 394.402,-327.386 388.007,-327.074 391.755,-330.384 391.424,-330.759 391.093,-331.134 387.345,-327.824 388.445,-334.132 383.928,-324.139 383.928,-324.139"/>
</g>
<!-- genderIdenticalMaleQuery -->
<g id="node14" class="node"><title>genderIdenticalMaleQuery</title>
<polygon fill="#edccff" stroke="#edccff" points="466,-252 436,-252 424,-240 424,-228 436,-216 466,-216 478,-228 478,-240 466,-252"/>
<path fill="#edccff" stroke="#edccff" d="M436,-252C430,-252 424,-246 424,-240"/>
<path fill="#edccff" stroke="#edccff" d="M424,-228C424,-222 430,-216 436,-216"/>
<path fill="#edccff" stroke="#edccff" d="M466,-216C472,-216 478,-222 478,-228"/>
<path fill="#edccff" stroke="#edccff" d="M478,-240C478,-246 472,-252 466,-252"/>
<polyline fill="none" stroke="#edccff" points="466,-252 436,-252 "/>
<path fill="none" stroke="#edccff" d="M436,-252C430,-252 424,-246 424,-240"/>
<polyline fill="none" stroke="#edccff" points="424,-240 424,-228 "/>
<path fill="none" stroke="#edccff" d="M424,-228C424,-222 430,-216 436,-216"/>
<polyline fill="none" stroke="#edccff" points="436,-216 466,-216 "/>
<path fill="none" stroke="#edccff" d="M466,-216C472,-216 478,-222 478,-228"/>
<polyline fill="none" stroke="#edccff" points="478,-228 478,-240 "/>
<path fill="none" stroke="#edccff" d="M478,-240C478,-246 472,-252 466,-252"/>
<text text-anchor="middle" x="451" y="-228.4" font-family="Helvetica,sans-Serif" font-size="14.00">Is?</text>
</g>
<!-- individualgenderRecord&#45;&gt;genderIdenticalMaleQuery -->
<g id="edge24" class="edge"><title>individualgenderRecord:individualgendermale&#45;&gt;genderIdenticalMaleQuery:ne</title>
<path fill="none" stroke="#8d14cc" stroke-width="2" stroke-dasharray="1,5" d="M415,-374C471.517,-374 507.445,-301.26 474.384,-258.135"/>
<ellipse fill="#8d14cc" stroke="#8d14cc" cx="471.638" cy="-255.007" rx="4.00002" ry="4.00002"/>
</g>
<!-- genderIdenticalFemaleQuery -->
<g id="node16" class="node"><title>genderIdenticalFemaleQuery</title>
<polygon fill="#edccff" stroke="#edccff" points="226,-252 196,-252 184,-240 184,-228 196,-216 226,-216 238,-228 238,-240 226,-252"/>
<path fill="#edccff" stroke="#edccff" d="M196,-252C190,-252 184,-246 184,-240"/>
<path fill="#edccff" stroke="#edccff" d="M184,-228C184,-222 190,-216 196,-216"/>
<path fill="#edccff" stroke="#edccff" d="M226,-216C232,-216 238,-222 238,-228"/>
<path fill="#edccff" stroke="#edccff" d="M238,-240C238,-246 232,-252 226,-252"/>
<polyline fill="none" stroke="#edccff" points="226,-252 196,-252 "/>
<path fill="none" stroke="#edccff" d="M196,-252C190,-252 184,-246 184,-240"/>
<polyline fill="none" stroke="#edccff" points="184,-240 184,-228 "/>
<path fill="none" stroke="#edccff" d="M184,-228C184,-222 190,-216 196,-216"/>
<polyline fill="none" stroke="#edccff" points="196,-216 226,-216 "/>
<path fill="none" stroke="#edccff" d="M226,-216C232,-216 238,-222 238,-228"/>
<polyline fill="none" stroke="#edccff" points="238,-228 238,-240 "/>
<path fill="none" stroke="#edccff" d="M238,-240C238,-246 232,-252 226,-252"/>
<text text-anchor="middle" x="211" y="-228.4" font-family="Helvetica,sans-Serif" font-size="14.00">Is?</text>
</g>
<!-- individualgenderRecord&#45;&gt;genderIdenticalFemaleQuery -->
<g id="edge22" class="edge"><title>individualgenderRecord:individualgenderfemale&#45;&gt;genderIdenticalFemaleQuery:ne</title>
<path fill="none" stroke="#8d14cc" stroke-width="2" stroke-dasharray="1,5" d="M303,-374C299.818,-374 301.228,-362.935 300,-360 278.951,-309.7 270.488,-294.18 234.943,-257.994"/>
<ellipse fill="#8d14cc" stroke="#8d14cc" cx="231.817" cy="-254.84" rx="4.00002" ry="4.00002"/>
</g>
<!-- tBmodelageDistributionFemale -->
<g id="node9" class="node"><title>tBmodelageDistributionFemale</title>
<polygon fill="white" stroke="white" points="166,-252 0,-252 0,-216 166,-216 166,-252"/>
<text text-anchor="start" x="8.5" y="-228.5" font-family="Helvetica,sans-Serif" font-size="14.00">Age Distribution Female</text>
</g>
<!-- randomWeighted_AgeDistributionFemale_ -->
<g id="node17" class="node"><title>randomWeighted_AgeDistributionFemale_</title>
<polygon fill="#edccff" stroke="#edccff" points="258.618,-180 143.382,-180 131.382,-168 131.382,-156 143.382,-144 258.618,-144 270.618,-156 270.618,-168 258.618,-180"/>
<path fill="#edccff" stroke="#edccff" d="M143.382,-180C137.382,-180 131.382,-174 131.382,-168"/>
<path fill="#edccff" stroke="#edccff" d="M131.382,-156C131.382,-150 137.382,-144 143.382,-144"/>
<path fill="#edccff" stroke="#edccff" d="M258.618,-144C264.618,-144 270.618,-150 270.618,-156"/>
<path fill="#edccff" stroke="#edccff" d="M270.618,-168C270.618,-174 264.618,-180 258.618,-180"/>
<polyline fill="none" stroke="#edccff" points="258.618,-180 143.382,-180 "/>
<path fill="none" stroke="#edccff" d="M143.382,-180C137.382,-180 131.382,-174 131.382,-168"/>
<polyline fill="none" stroke="#edccff" points="131.382,-168 131.382,-156 "/>
<path fill="none" stroke="#edccff" d="M131.382,-156C131.382,-150 137.382,-144 143.382,-144"/>
<polyline fill="none" stroke="#edccff" points="143.382,-144 258.618,-144 "/>
<path fill="none" stroke="#edccff" d="M258.618,-144C264.618,-144 270.618,-150 270.618,-156"/>
<polyline fill="none" stroke="#edccff" points="270.618,-156 270.618,-168 "/>
<path fill="none" stroke="#edccff" d="M270.618,-168C270.618,-174 264.618,-180 258.618,-180"/>
<text text-anchor="middle" x="201" y="-156.4" font-family="Helvetica,sans-Serif" font-size="14.00">Random Weighted?</text>
</g>
<!-- tBmodelageDistributionFemale&#45;&gt;randomWeighted_AgeDistributionFemale_ -->
<g id="edge20" class="edge"><title>tBmodelageDistributionFemale&#45;&gt;randomWeighted_AgeDistributionFemale_:nw</title>
<path fill="none" stroke="#8d14cc" stroke-width="2" stroke-dasharray="1,5" d="M128.312,-215.977C144.591,-208.408 162.498,-198.294 177.005,-185.599"/>
<ellipse fill="#8d14cc" stroke="#8d14cc" cx="180.077" cy="-182.73" rx="4.00002" ry="4.00002"/>
</g>
<!-- tBmodelageDistributionMale -->
<g id="node10" class="node"><title>tBmodelageDistributionMale</title>
<polygon fill="white" stroke="white" points="406,-252 256,-252 256,-216 406,-216 406,-252"/>
<text text-anchor="start" x="264.5" y="-228.5" font-family="Helvetica,sans-Serif" font-size="14.00">Age Distribution Male</text>
</g>
<!-- randomWeighted_AgeDistributionMale_ -->
<g id="node21" class="node"><title>randomWeighted_AgeDistributionMale_</title>
<polygon fill="#edccff" stroke="#edccff" points="415.618,-180 300.382,-180 288.382,-168 288.382,-156 300.382,-144 415.618,-144 427.618,-156 427.618,-168 415.618,-180"/>
<path fill="#edccff" stroke="#edccff" d="M300.382,-180C294.382,-180 288.382,-174 288.382,-168"/>
<path fill="#edccff" stroke="#edccff" d="M288.382,-156C288.382,-150 294.382,-144 300.382,-144"/>
<path fill="#edccff" stroke="#edccff" d="M415.618,-144C421.618,-144 427.618,-150 427.618,-156"/>
<path fill="#edccff" stroke="#edccff" d="M427.618,-168C427.618,-174 421.618,-180 415.618,-180"/>
<polyline fill="none" stroke="#edccff" points="415.618,-180 300.382,-180 "/>
<path fill="none" stroke="#edccff" d="M300.382,-180C294.382,-180 288.382,-174 288.382,-168"/>
<polyline fill="none" stroke="#edccff" points="288.382,-168 288.382,-156 "/>
<path fill="none" stroke="#edccff" d="M288.382,-156C288.382,-150 294.382,-144 300.382,-144"/>
<polyline fill="none" stroke="#edccff" points="300.382,-144 415.618,-144 "/>
<path fill="none" stroke="#edccff" d="M415.618,-144C421.618,-144 427.618,-150 427.618,-156"/>
<polyline fill="none" stroke="#edccff" points="427.618,-156 427.618,-168 "/>
<path fill="none" stroke="#edccff" d="M427.618,-168C427.618,-174 421.618,-180 415.618,-180"/>
<text text-anchor="middle" x="358" y="-156.4" font-family="Helvetica,sans-Serif" font-size="14.00">Random Weighted?</text>
</g>
<!-- tBmodelageDistributionMale&#45;&gt;randomWeighted_AgeDistributionMale_ -->
<g id="edge26" class="edge"><title>tBmodelageDistributionMale&#45;&gt;randomWeighted_AgeDistributionMale_:nw</title>
<path fill="none" stroke="#8d14cc" stroke-width="2" stroke-dasharray="1,5" d="M329.178,-215.907C328.986,-206.688 330.083,-195.414 335.093,-186.529"/>
<ellipse fill="#8d14cc" stroke="#8d14cc" cx="337.597" cy="-183.197" rx="4.00002" ry="4.00002"/>
</g>
<!-- watchGender&#45;&gt;genderIdenticalMaleQuery -->
<g id="edge8" class="edge"><title>watchGender&#45;&gt;genderIdenticalMaleQuery</title>
<path fill="none" stroke="#8d14cc" stroke-width="3" d="M381.742,-287.697C390.989,-280.661 401.937,-272.33 412.367,-264.395"/>
<polygon fill="#8d14cc" stroke="#8d14cc" points="416.842,-269.786 428.52,-252.104 408.365,-258.644 416.842,-269.786"/>
</g>
<!-- watchGender&#45;&gt;genderIdenticalFemaleQuery -->
<g id="edge10" class="edge"><title>watchGender&#45;&gt;genderIdenticalFemaleQuery</title>
<path fill="none" stroke="#8d14cc" stroke-width="3" d="M322.795,-287.876C302.746,-278.393 277.638,-266.518 256.298,-256.425"/>
<polygon fill="#8d14cc" stroke="#8d14cc" points="259.085,-249.999 238.012,-247.776 253.099,-262.655 259.085,-249.999"/>
</g>
<!-- genderIdenticalMaleQuery&#45;&gt;randomWeighted_AgeDistributionMale_ -->
<g id="edge16" class="edge"><title>genderIdenticalMaleQuery&#45;&gt;randomWeighted_AgeDistributionMale_</title>
<path fill="none" stroke="#8d14cc" stroke-width="3" d="M428.011,-215.697C418.664,-208.661 407.596,-200.33 397.053,-192.395"/>
<polygon fill="#8d14cc" stroke="#8d14cc" points="400.913,-186.539 380.724,-180.104 392.494,-197.725 400.913,-186.539"/>
</g>
<!-- genderIdenticalFemaleQuery&#45;&gt;randomWeighted_AgeDistributionFemale_ -->
<g id="edge14" class="edge"><title>genderIdenticalFemaleQuery&#45;&gt;randomWeighted_AgeDistributionFemale_</title>
<path fill="none" stroke="#8d14cc" stroke-width="3" d="M208.528,-215.697C207.838,-210.865 207.06,-205.422 206.274,-199.917"/>
<polygon fill="#8d14cc" stroke="#8d14cc" points="213.202,-198.913 203.443,-180.104 199.342,-200.893 213.202,-198.913"/>
</g>
<!-- randomWeighted_AgeDistributionFemale_&#45;&gt;individualageIndex -->
<g id="edge12" class="edge"><title>randomWeighted_AgeDistributionFemale_&#45;&gt;individualageIndex</title>
<path fill="none" stroke="#8d14cc" stroke-width="3" d="M220.281,-143.697C227.743,-137 236.512,-129.13 244.965,-121.544"/>
<polygon fill="#8d14cc" stroke="#8d14cc" points="249.731,-126.672 259.941,-108.104 240.381,-116.253 249.731,-126.672"/>
</g>
<!-- randomWeighted_AgeDistributionMale_&#45;&gt;individualageIndex -->
<g id="edge18" class="edge"><title>randomWeighted_AgeDistributionMale_&#45;&gt;individualageIndex</title>
<path fill="none" stroke="#8d14cc" stroke-width="3" d="M338.472,-143.697C330.914,-137 322.033,-129.13 313.472,-121.544"/>
<polygon fill="#8d14cc" stroke="#8d14cc" points="317.915,-116.129 298.303,-108.104 308.63,-126.607 317.915,-116.129"/>
</g>
</g>
</svg>
