<?xml version="1.0" encoding="UTF-8" standalone="no"?>
<!DOCTYPE svg PUBLIC "-//W3C//DTD SVG 1.1//EN"
 "http://www.w3.org/Graphics/SVG/1.1/DTD/svg11.dtd">
<!-- Generated by graphviz version 2.29.20110702.0445 (20110702.0445)
 -->
<!-- Title: movement Pages: 1 -->
<svg width="1049pt" height="601pt"
 viewBox="0.00 0.00 1049.00 601.00" xmlns="http://www.w3.org/2000/svg" xmlns:xlink="http://www.w3.org/1999/xlink">
<g id="graph1" class="graph" transform="scale(1 1) rotate(0) translate(4 597)">
<title>movement</title>
<polygon fill="white" stroke="white" points="-4,5 -4,-597 1046,-597 1046,5 -4,5"/>
<g id="graph2" class="cluster"><title>clustercontextKey</title>
<polygon fill="ghostwhite" stroke="white" points="8,-531 8,-585 96,-585 96,-531 8,-531"/>
<text text-anchor="middle" x="52.1792" y="-567" font-family="Helvetica,sans-Serif" font-size="14.00">Parameters</text>
</g>
<g id="graph3" class="cluster"><title>clusterindividualKey</title>
<polygon fill="ghostwhite" stroke="white" points="104,-531 104,-585 179,-585 179,-531 104,-531"/>
<text text-anchor="middle" x="141.576" y="-567" font-family="Helvetica,sans-Serif" font-size="14.00">Individual</text>
</g>
<g id="graph4" class="cluster"><title>clustermapLocationKey</title>
<polygon fill="ghostwhite" stroke="white" points="187,-531 187,-585 287,-585 287,-531 187,-531"/>
<text text-anchor="middle" x="237.027" y="-567" font-family="Helvetica,sans-Serif" font-size="14.00">Map Location</text>
</g>
<!-- contextOverview -->
<g id="node2" class="node"><title>contextOverview</title>
<ellipse fill="black" stroke="black" cx="52" cy="-546" rx="7.2" ry="7.2"/>
</g>
<!-- movementOverview -->
<g id="node4" class="node"><title>movementOverview</title>
<a xlink:href="individual__Overview.svg">
<ellipse fill="#1451cc" stroke="#1451cc" cx="141" cy="-546" rx="7.2" ry="7.2"/>
</a>
</g>
<!-- nearestTBPositiveOverview -->
<g id="node6" class="node"><title>nearestTBPositiveOverview</title>
<a xlink:href="mapLocation__Overview.svg">
<ellipse fill="#4414cc" stroke="#4414cc" cx="236" cy="-546" rx="7.2" ry="7.2"/>
</a>
</g>
<!-- individualtBStatusRecord -->
<g id="node7" class="node"><title>individualtBStatusRecord</title>
<polygon fill="white" stroke="none" points="443.204,-521.2 443.204,-570.8 546.796,-570.8 546.796,-521.2 443.204,-521.2"/>
<text text-anchor="middle" x="495" y="-552.8" font-family="Helvetica,sans-Serif" font-size="14.00">TB Status</text>
<polyline fill="none" stroke="none" points="443.204,-546 546.796,-546 "/>
<text text-anchor="middle" x="470.266" y="-528" font-family="Helvetica,sans-Serif" font-size="14.00">Active</text>
<polyline fill="none" stroke="none" points="497.328,-521.2 497.328,-546 "/>
<text text-anchor="middle" x="522.062" y="-528" font-family="Helvetica,sans-Serif" font-size="14.00">Dead</text>
</g>
<!-- tBStatusDifferentDeadQuery -->
<g id="node13" class="node"><title>tBStatusDifferentDeadQuery</title>
<polygon fill="#ccddff" stroke="#ccddff" points="434.264,-484 397.736,-484 385.736,-472 385.736,-460 397.736,-448 434.264,-448 446.264,-460 446.264,-472 434.264,-484"/>
<path fill="#ccddff" stroke="#ccddff" d="M397.736,-484C391.736,-484 385.736,-478 385.736,-472"/>
<path fill="#ccddff" stroke="#ccddff" d="M385.736,-460C385.736,-454 391.736,-448 397.736,-448"/>
<path fill="#ccddff" stroke="#ccddff" d="M434.264,-448C440.264,-448 446.264,-454 446.264,-460"/>
<path fill="#ccddff" stroke="#ccddff" d="M446.264,-472C446.264,-478 440.264,-484 434.264,-484"/>
<polyline fill="none" stroke="#ccddff" points="434.264,-484 397.736,-484 "/>
<path fill="none" stroke="#ccddff" d="M397.736,-484C391.736,-484 385.736,-478 385.736,-472"/>
<polyline fill="none" stroke="#ccddff" points="385.736,-472 385.736,-460 "/>
<path fill="none" stroke="#ccddff" d="M385.736,-460C385.736,-454 391.736,-448 397.736,-448"/>
<polyline fill="none" stroke="#ccddff" points="397.736,-448 434.264,-448 "/>
<path fill="none" stroke="#ccddff" d="M434.264,-448C440.264,-448 446.264,-454 446.264,-460"/>
<polyline fill="none" stroke="#ccddff" points="446.264,-460 446.264,-472 "/>
<path fill="none" stroke="#ccddff" d="M446.264,-472C446.264,-478 440.264,-484 434.264,-484"/>
<text text-anchor="middle" x="416" y="-460.4" font-family="Helvetica,sans-Serif" font-size="14.00">Is Not?</text>
</g>
<!-- individualtBStatusRecord&#45;&gt;tBStatusDifferentDeadQuery -->
<g id="edge59" class="edge"><title>individualtBStatusRecord:individualtBStatusdead&#45;&gt;tBStatusDifferentDeadQuery:ne</title>
<path fill="none" stroke="#1451cc" stroke-width="2" stroke-dasharray="1,5" d="M522,-520C522,-480.549 471.343,-509.427 440.301,-489.122"/>
<ellipse fill="#1451cc" stroke="#1451cc" cx="437.104" cy="-486.523" rx="4.00002" ry="4.00002"/>
</g>
<!-- tBStatusDifferentActiveQuery -->
<g id="node15" class="node"><title>tBStatusDifferentActiveQuery</title>
<polygon fill="#ccddff" stroke="#ccddff" points="512.264,-484 475.736,-484 463.736,-472 463.736,-460 475.736,-448 512.264,-448 524.264,-460 524.264,-472 512.264,-484"/>
<path fill="#ccddff" stroke="#ccddff" d="M475.736,-484C469.736,-484 463.736,-478 463.736,-472"/>
<path fill="#ccddff" stroke="#ccddff" d="M463.736,-460C463.736,-454 469.736,-448 475.736,-448"/>
<path fill="#ccddff" stroke="#ccddff" d="M512.264,-448C518.264,-448 524.264,-454 524.264,-460"/>
<path fill="#ccddff" stroke="#ccddff" d="M524.264,-472C524.264,-478 518.264,-484 512.264,-484"/>
<polyline fill="none" stroke="#ccddff" points="512.264,-484 475.736,-484 "/>
<path fill="none" stroke="#ccddff" d="M475.736,-484C469.736,-484 463.736,-478 463.736,-472"/>
<polyline fill="none" stroke="#ccddff" points="463.736,-472 463.736,-460 "/>
<path fill="none" stroke="#ccddff" d="M463.736,-460C463.736,-454 469.736,-448 475.736,-448"/>
<polyline fill="none" stroke="#ccddff" points="475.736,-448 512.264,-448 "/>
<path fill="none" stroke="#ccddff" d="M512.264,-448C518.264,-448 524.264,-454 524.264,-460"/>
<polyline fill="none" stroke="#ccddff" points="524.264,-460 524.264,-472 "/>
<path fill="none" stroke="#ccddff" d="M524.264,-472C524.264,-478 518.264,-484 512.264,-484"/>
<text text-anchor="middle" x="494" y="-460.4" font-family="Helvetica,sans-Serif" font-size="14.00">Is Not?</text>
</g>
<!-- individualtBStatusRecord&#45;&gt;tBStatusDifferentActiveQuery -->
<g id="edge55" class="edge"><title>individualtBStatusRecord:individualtBStatusactive&#45;&gt;tBStatusDifferentActiveQuery:ne</title>
<path fill="none" stroke="#1451cc" stroke-width="2" stroke-dasharray="1,5" d="M470,-520C470,-500.024 509.203,-500.22 514.58,-491.671"/>
<ellipse fill="#1451cc" stroke="#1451cc" cx="513.275" cy="-487.791" rx="4.00001" ry="4.00001"/>
</g>
<!-- mapLocationtBBacterialPresense -->
<g id="node8" class="node"><title>mapLocationtBBacterialPresense</title>
<polygon fill="white" stroke="white" points="697.461,-252 542.539,-252 542.539,-216 697.461,-216 697.461,-252"/>
<text text-anchor="middle" x="620" y="-228.4" font-family="Helvetica,sans-Serif" font-size="14.00">TB Bacterial Presense</text>
</g>
<!-- tBBacterialPresenseGreaterTBAvoidanceThresholdQuery -->
<g id="node16" class="node"><title>tBBacterialPresenseGreaterTBAvoidanceThresholdQuery</title>
<polygon fill="#d9ccff" stroke="#d9ccff" points="805.435,-180 758.565,-180 746.565,-168 746.565,-156 758.565,-144 805.435,-144 817.435,-156 817.435,-168 805.435,-180"/>
<path fill="#d9ccff" stroke="#d9ccff" d="M758.565,-180C752.565,-180 746.565,-174 746.565,-168"/>
<path fill="#d9ccff" stroke="#d9ccff" d="M746.565,-156C746.565,-150 752.565,-144 758.565,-144"/>
<path fill="#d9ccff" stroke="#d9ccff" d="M805.435,-144C811.435,-144 817.435,-150 817.435,-156"/>
<path fill="#d9ccff" stroke="#d9ccff" d="M817.435,-168C817.435,-174 811.435,-180 805.435,-180"/>
<polyline fill="none" stroke="#d9ccff" points="805.435,-180 758.565,-180 "/>
<path fill="none" stroke="#d9ccff" d="M758.565,-180C752.565,-180 746.565,-174 746.565,-168"/>
<polyline fill="none" stroke="#d9ccff" points="746.565,-168 746.565,-156 "/>
<path fill="none" stroke="#d9ccff" d="M746.565,-156C746.565,-150 752.565,-144 758.565,-144"/>
<polyline fill="none" stroke="#d9ccff" points="758.565,-144 805.435,-144 "/>
<path fill="none" stroke="#d9ccff" d="M805.435,-144C811.435,-144 817.435,-150 817.435,-156"/>
<polyline fill="none" stroke="#d9ccff" points="817.435,-156 817.435,-168 "/>
<path fill="none" stroke="#d9ccff" d="M817.435,-168C817.435,-174 811.435,-180 805.435,-180"/>
<text text-anchor="middle" x="782" y="-156.4" font-family="Helvetica,sans-Serif" font-size="14.00">Greater?</text>
</g>
<!-- mapLocationtBBacterialPresense&#45;&gt;tBBacterialPresenseGreaterTBAvoidanceThresholdQuery -->
<g id="edge51" class="edge"><title>mapLocationtBBacterialPresense&#45;&gt;tBBacterialPresenseGreaterTBAvoidanceThresholdQuery:nw</title>
<path fill="none" stroke="#4414cc" stroke-width="2" stroke-dasharray="1,5" d="M697.619,-217.837C718.802,-210.797 740.638,-200.554 757.869,-185.688"/>
<ellipse fill="#4414cc" stroke="#4414cc" cx="761.068" cy="-182.721" rx="4.00002" ry="4.00002"/>
</g>
<!-- tBmodeltBAvoidanceThreshold -->
<g id="node9" class="node"><title>tBmodeltBAvoidanceThreshold</title>
<polygon fill="white" stroke="white" points="884.25,-252 715.75,-252 715.75,-216 884.25,-216 884.25,-252"/>
<text text-anchor="start" x="724" y="-228.5" font-family="Helvetica,sans-Serif" font-size="14.00">TB Avoidance Threshold</text>
</g>
<!-- tBmodeltBAvoidanceThreshold&#45;&gt;tBBacterialPresenseGreaterTBAvoidanceThresholdQuery -->
<g id="edge53" class="edge"><title>tBmodeltBAvoidanceThreshold&#45;&gt;tBBacterialPresenseGreaterTBAvoidanceThresholdQuery:ne</title>
<path fill="none" stroke="black" stroke-width="2" stroke-dasharray="1,5" d="M805.611,-215.826C807.677,-206.67 808.65,-195.513 804.633,-186.727"/>
<ellipse fill="black" stroke="black" cx="802.269" cy="-183.294" rx="4.00002" ry="4.00002"/>
</g>
<!-- tBmodelavoidTBLocationsRecord -->
<g id="node10" class="node"><title>tBmodelavoidTBLocationsRecord</title>
<polygon fill="white" stroke="none" points="493.936,-361.2 493.936,-410.8 630.064,-410.8 630.064,-361.2 493.936,-361.2"/>
<text text-anchor="middle" x="562" y="-392.8" font-family="Helvetica,sans-Serif" font-size="14.00">Avoid TB Locations</text>
<polyline fill="none" stroke="none" points="493.936,-386 630.064,-386 "/>
<text text-anchor="middle" x="526.073" y="-368" font-family="Helvetica,sans-Serif" font-size="14.00">True</text>
<polyline fill="none" stroke="none" points="558.209,-361.2 558.209,-386 "/>
<text text-anchor="middle" x="593.827" y="-368" font-family="Helvetica,sans-Serif" font-size="14.00">False</text>
</g>
<!-- identityAvoidTBLocationsQuery -->
<g id="node44" class="node"><title>identityAvoidTBLocationsQuery</title>
<polygon fill="#ccddff" stroke="#ccddff" points="690,-324 660,-324 648,-312 648,-300 660,-288 690,-288 702,-300 702,-312 690,-324"/>
<path fill="#ccddff" stroke="#ccddff" d="M660,-324C654,-324 648,-318 648,-312"/>
<path fill="#ccddff" stroke="#ccddff" d="M648,-300C648,-294 654,-288 660,-288"/>
<path fill="#ccddff" stroke="#ccddff" d="M690,-288C696,-288 702,-294 702,-300"/>
<path fill="#ccddff" stroke="#ccddff" d="M702,-312C702,-318 696,-324 690,-324"/>
<polyline fill="none" stroke="#ccddff" points="690,-324 660,-324 "/>
<path fill="none" stroke="#ccddff" d="M660,-324C654,-324 648,-318 648,-312"/>
<polyline fill="none" stroke="#ccddff" points="648,-312 648,-300 "/>
<path fill="none" stroke="#ccddff" d="M648,-300C648,-294 654,-288 660,-288"/>
<polyline fill="none" stroke="#ccddff" points="660,-288 690,-288 "/>
<path fill="none" stroke="#ccddff" d="M690,-288C696,-288 702,-294 702,-300"/>
<polyline fill="none" stroke="#ccddff" points="702,-300 702,-312 "/>
<path fill="none" stroke="#ccddff" d="M702,-312C702,-318 696,-324 690,-324"/>
<text text-anchor="middle" x="675" y="-300.4" font-family="Helvetica,sans-Serif" font-size="14.00">Is?</text>
</g>
<!-- tBmodelavoidTBLocationsRecord&#45;&gt;identityAvoidTBLocationsQuery -->
<g id="edge57" class="edge"><title>tBmodelavoidTBLocationsRecord&#45;&gt;identityAvoidTBLocationsQuery:nw</title>
<path fill="none" stroke="black" stroke-width="2" stroke-dasharray="1,5" d="M607.942,-360.975C622.351,-352.271 637.926,-341.593 651.119,-329.6"/>
<ellipse fill="black" stroke="black" cx="654.103" cy="-326.758" rx="4.00002" ry="4.00002"/>
</g>
<!-- movement -->
<g id="node11" class="node"><title>movement</title>
<a xlink:href="individual_movement.svg" xlink:title="Movement">
<polygon fill="#ccddff" stroke="#ccddff" points="364.518,-564 307.482,-564 295.482,-552 295.482,-540 307.482,-528 364.518,-528 376.518,-540 376.518,-552 364.518,-564"/>
<path fill="#ccddff" stroke="#ccddff" d="M307.482,-564C301.482,-564 295.482,-558 295.482,-552"/>
<path fill="#ccddff" stroke="#ccddff" d="M295.482,-540C295.482,-534 301.482,-528 307.482,-528"/>
<path fill="#ccddff" stroke="#ccddff" d="M364.518,-528C370.518,-528 376.518,-534 376.518,-540"/>
<path fill="#ccddff" stroke="#ccddff" d="M376.518,-552C376.518,-558 370.518,-564 364.518,-564"/>
<polyline fill="none" stroke="black" points="364.518,-564 307.482,-564 "/>
<path fill="none" stroke="black" d="M307.482,-564C301.482,-564 295.482,-558 295.482,-552"/>
<polyline fill="none" stroke="black" points="295.482,-552 295.482,-540 "/>
<path fill="none" stroke="black" d="M295.482,-540C295.482,-534 301.482,-528 307.482,-528"/>
<polyline fill="none" stroke="black" points="307.482,-528 364.518,-528 "/>
<path fill="none" stroke="black" d="M364.518,-528C370.518,-528 376.518,-534 376.518,-540"/>
<polyline fill="none" stroke="black" points="376.518,-540 376.518,-552 "/>
<path fill="none" stroke="black" d="M376.518,-552C376.518,-558 370.518,-564 364.518,-564"/>
<text text-anchor="middle" x="336" y="-540.4" font-family="Helvetica,sans-Serif" font-size="14.00">Movement</text>
</a>
</g>
<!-- movement&#45;&gt;tBStatusDifferentDeadQuery -->
<g id="edge5" class="edge"><title>movement&#45;&gt;tBStatusDifferentDeadQuery</title>
<path fill="none" stroke="#1451cc" stroke-width="3" d="M353.755,-527.689C362.558,-519.106 373.47,-508.467 383.687,-498.506"/>
<polygon fill="#1451cc" stroke="#1451cc" points="388.862,-503.236 398.295,-484.262 379.088,-493.212 388.862,-503.236"/>
</g>
<!-- movement&#45;&gt;tBStatusDifferentActiveQuery -->
<g id="edge7" class="edge"><title>movement&#45;&gt;tBStatusDifferentActiveQuery</title>
<path fill="none" stroke="#1451cc" stroke-width="3" d="M370.674,-527.883C392.607,-517.055 421.281,-502.899 445.459,-490.963"/>
<polygon fill="#1451cc" stroke="#1451cc" points="448.837,-497.102 463.672,-481.972 442.639,-484.549 448.837,-497.102"/>
</g>
<!-- moveIndividualCopy -->
<g id="node20" class="node"><title>moveIndividualCopy</title>
<polygon fill="#ccddff" stroke="#ccddff" points="885,-36 855,-36 843,-24 843,-12 855,-0 885,-0 897,-12 897,-24 885,-36"/>
<path fill="#ccddff" stroke="#ccddff" d="M855,-36C849,-36 843,-30 843,-24"/>
<path fill="#ccddff" stroke="#ccddff" d="M843,-12C843,-6 849,-0 855,-0"/>
<path fill="#ccddff" stroke="#ccddff" d="M885,-0C891,-0 897,-6 897,-12"/>
<path fill="#ccddff" stroke="#ccddff" d="M897,-24C897,-30 891,-36 885,-36"/>
<polyline fill="none" stroke="#ccddff" points="885,-36 855,-36 "/>
<path fill="none" stroke="#ccddff" d="M855,-36C849,-36 843,-30 843,-24"/>
<polyline fill="none" stroke="#ccddff" points="843,-24 843,-12 "/>
<path fill="none" stroke="#ccddff" d="M843,-12C843,-6 849,-0 855,-0"/>
<polyline fill="none" stroke="#ccddff" points="855,-0 885,-0 "/>
<path fill="none" stroke="#ccddff" d="M885,-0C891,-0 897,-6 897,-12"/>
<polyline fill="none" stroke="#ccddff" points="897,-12 897,-24 "/>
<path fill="none" stroke="#ccddff" d="M897,-24C897,-30 891,-36 885,-36"/>
<text text-anchor="middle" x="870" y="-12.4" font-family="Helvetica,sans-Serif" font-size="14.00">Move</text>
</g>
<!-- movement&#45;&gt;moveIndividualCopy -->
<g id="edge23" class="edge"><title>movement&#45;&gt;moveIndividualCopy:nw</title>
<path fill="none" stroke="#1451cc" stroke-width="3" stroke-dasharray="5,2" d="M320.768,-527.927C297.812,-500.365 257,-443.43 257,-387 257,-387 257,-387 257,-161 257,102.356 640.676,-210.386 837.044,-49.553"/>
<polygon fill="#1451cc" stroke="#1451cc" points="841.88,-54.617 852,-36 832.479,-44.2429 841.88,-54.617"/>
</g>
<!-- moveIndividualCopyCopyCopy -->
<g id="node40" class="node"><title>moveIndividualCopyCopyCopy</title>
<polygon fill="#ccddff" stroke="#ccddff" points="419,-180 389,-180 377,-168 377,-156 389,-144 419,-144 431,-156 431,-168 419,-180"/>
<path fill="#ccddff" stroke="#ccddff" d="M389,-180C383,-180 377,-174 377,-168"/>
<path fill="#ccddff" stroke="#ccddff" d="M377,-156C377,-150 383,-144 389,-144"/>
<path fill="#ccddff" stroke="#ccddff" d="M419,-144C425,-144 431,-150 431,-156"/>
<path fill="#ccddff" stroke="#ccddff" d="M431,-168C431,-174 425,-180 419,-180"/>
<polyline fill="none" stroke="#ccddff" points="419,-180 389,-180 "/>
<path fill="none" stroke="#ccddff" d="M389,-180C383,-180 377,-174 377,-168"/>
<polyline fill="none" stroke="#ccddff" points="377,-168 377,-156 "/>
<path fill="none" stroke="#ccddff" d="M377,-156C377,-150 383,-144 389,-144"/>
<polyline fill="none" stroke="#ccddff" points="389,-144 419,-144 "/>
<path fill="none" stroke="#ccddff" d="M419,-144C425,-144 431,-150 431,-156"/>
<polyline fill="none" stroke="#ccddff" points="431,-156 431,-168 "/>
<path fill="none" stroke="#ccddff" d="M431,-168C431,-174 425,-180 419,-180"/>
<text text-anchor="middle" x="404" y="-156.4" font-family="Helvetica,sans-Serif" font-size="14.00">Move</text>
</g>
<!-- movement&#45;&gt;moveIndividualCopyCopyCopy -->
<g id="edge35" class="edge"><title>movement&#45;&gt;moveIndividualCopyCopyCopy:nw</title>
<path fill="none" stroke="#1451cc" stroke-width="3" stroke-dasharray="5,2" d="M328.48,-527.844C316.644,-499.233 295,-439.711 295,-387 295,-387 295,-387 295,-305 295,-243.395 329.083,-230.837 371.149,-193.888"/>
<polygon fill="#1451cc" stroke="#1451cc" points="376.173,-198.773 386,-180 366.611,-188.548 376.173,-198.773"/>
</g>
<!-- neighboringCell -->
<g id="node21" class="node"><title>neighboringCell</title>
<polygon fill="#ccceff" stroke="#ccceff" points="463.13,-404 368.87,-404 356.87,-392 356.87,-380 368.87,-368 463.13,-368 475.13,-380 475.13,-392 463.13,-404"/>
<path fill="#ccceff" stroke="#ccceff" d="M368.87,-404C362.87,-404 356.87,-398 356.87,-392"/>
<path fill="#ccceff" stroke="#ccceff" d="M356.87,-380C356.87,-374 362.87,-368 368.87,-368"/>
<path fill="#ccceff" stroke="#ccceff" d="M463.13,-368C469.13,-368 475.13,-374 475.13,-380"/>
<path fill="#ccceff" stroke="#ccceff" d="M475.13,-392C475.13,-398 469.13,-404 463.13,-404"/>
<polyline fill="none" stroke="gray" points="463.13,-404 368.87,-404 "/>
<path fill="none" stroke="gray" d="M368.87,-404C362.87,-404 356.87,-398 356.87,-392"/>
<polyline fill="none" stroke="gray" points="356.87,-392 356.87,-380 "/>
<path fill="none" stroke="gray" d="M356.87,-380C356.87,-374 362.87,-368 368.87,-368"/>
<polyline fill="none" stroke="gray" points="368.87,-368 463.13,-368 "/>
<path fill="none" stroke="gray" d="M463.13,-368C469.13,-368 475.13,-374 475.13,-380"/>
<polyline fill="none" stroke="gray" points="475.13,-380 475.13,-392 "/>
<path fill="none" stroke="gray" d="M475.13,-392C475.13,-398 469.13,-404 463.13,-404"/>
<text text-anchor="middle" x="416" y="-380.4" font-family="Helvetica,sans-Serif" font-size="14.00">Neighboring Cell</text>
</g>
<!-- tBStatusDifferentDeadQuery&#45;&gt;neighboringCell -->
<g id="edge47" class="edge"><title>tBStatusDifferentDeadQuery&#45;&gt;neighboringCell</title>
<path fill="none" stroke="#1451cc" stroke-width="3" d="M416,-447.689C416,-440.822 416,-432.64 416,-424.542"/>
<polygon fill="#1451cc" stroke="#1451cc" points="423,-424.262 416,-404.262 409,-424.262 423,-424.262"/>
</g>
<!-- _TBStatusDifferentActiveQueryAndTBStatusDifferentDeadQuery_ -->
<g id="node39" class="node"><title>_TBStatusDifferentActiveQueryAndTBStatusDifferentDeadQuery_</title>
<polygon fill="#ccddff" stroke="#ccddff" points="690,-404 660,-404 648,-392 648,-380 660,-368 690,-368 702,-380 702,-392 690,-404"/>
<path fill="#ccddff" stroke="#ccddff" d="M660,-404C654,-404 648,-398 648,-392"/>
<path fill="#ccddff" stroke="#ccddff" d="M648,-380C648,-374 654,-368 660,-368"/>
<path fill="#ccddff" stroke="#ccddff" d="M690,-368C696,-368 702,-374 702,-380"/>
<path fill="#ccddff" stroke="#ccddff" d="M702,-392C702,-398 696,-404 690,-404"/>
<polyline fill="none" stroke="#ccddff" points="690,-404 660,-404 "/>
<path fill="none" stroke="#ccddff" d="M660,-404C654,-404 648,-398 648,-392"/>
<polyline fill="none" stroke="#ccddff" points="648,-392 648,-380 "/>
<path fill="none" stroke="#ccddff" d="M648,-380C648,-374 654,-368 660,-368"/>
<polyline fill="none" stroke="#ccddff" points="660,-368 690,-368 "/>
<path fill="none" stroke="#ccddff" d="M690,-368C696,-368 702,-374 702,-380"/>
<polyline fill="none" stroke="#ccddff" points="702,-380 702,-392 "/>
<path fill="none" stroke="#ccddff" d="M702,-392C702,-398 696,-404 690,-404"/>
<text text-anchor="middle" x="675" y="-380.4" font-family="Helvetica,sans-Serif" font-size="14.00">And</text>
</g>
<!-- tBStatusDifferentDeadQuery&#45;&gt;_TBStatusDifferentActiveQueryAndTBStatusDifferentDeadQuery_ -->
<g id="edge49" class="edge"><title>tBStatusDifferentDeadQuery&#45;&gt;_TBStatusDifferentActiveQueryAndTBStatusDifferentDeadQuery_</title>
<path fill="none" stroke="#1451cc" stroke-width="3" d="M446.417,-450.993C449.288,-449.899 452.179,-448.879 455,-448 528.805,-424.997 557.979,-441.626 634.568,-411.948"/>
<polygon fill="#1451cc" stroke="#1451cc" points="637.593,-418.271 653.372,-404.129 632.217,-405.344 637.593,-418.271"/>
</g>
<!-- tBStatusDifferentActiveQuery&#45;&gt;_TBStatusDifferentActiveQueryAndTBStatusDifferentDeadQuery_ -->
<g id="edge33" class="edge"><title>tBStatusDifferentActiveQuery&#45;&gt;_TBStatusDifferentActiveQueryAndTBStatusDifferentDeadQuery_</title>
<path fill="none" stroke="#1451cc" stroke-width="3" d="M524.103,-456.479C550.59,-448.482 590.284,-435.287 634.489,-413.285"/>
<polygon fill="#1451cc" stroke="#1451cc" points="637.775,-419.466 652.311,-404.049 631.333,-407.036 637.775,-419.466"/>
</g>
<!-- avoidedTBLocation -->
<g id="node18" class="node"><title>avoidedTBLocation</title>
<polygon fill="#d9ccff" stroke="#d9ccff" points="885,-108 855,-108 843,-96 843,-84 855,-72 885,-72 897,-84 897,-96 885,-108"/>
<path fill="#d9ccff" stroke="#d9ccff" d="M855,-108C849,-108 843,-102 843,-96"/>
<path fill="#d9ccff" stroke="#d9ccff" d="M843,-84C843,-78 849,-72 855,-72"/>
<path fill="#d9ccff" stroke="#d9ccff" d="M885,-72C891,-72 897,-78 897,-84"/>
<path fill="#d9ccff" stroke="#d9ccff" d="M897,-96C897,-102 891,-108 885,-108"/>
<polyline fill="none" stroke="#d9ccff" points="885,-108 855,-108 "/>
<path fill="none" stroke="#d9ccff" d="M855,-108C849,-108 843,-102 843,-96"/>
<polyline fill="none" stroke="#d9ccff" points="843,-96 843,-84 "/>
<path fill="none" stroke="#d9ccff" d="M843,-84C843,-78 849,-72 855,-72"/>
<polyline fill="none" stroke="#d9ccff" points="855,-72 885,-72 "/>
<path fill="none" stroke="#d9ccff" d="M885,-72C891,-72 897,-78 897,-84"/>
<polyline fill="none" stroke="#d9ccff" points="897,-84 897,-96 "/>
<path fill="none" stroke="#d9ccff" d="M897,-96C897,-102 891,-108 885,-108"/>
<text text-anchor="middle" x="870" y="-84.4" font-family="Helvetica,sans-Serif" font-size="14.00">And</text>
</g>
<!-- tBBacterialPresenseGreaterTBAvoidanceThresholdQuery&#45;&gt;avoidedTBLocation -->
<g id="edge9" class="edge"><title>tBBacterialPresenseGreaterTBAvoidanceThresholdQuery&#45;&gt;avoidedTBLocation</title>
<path fill="none" stroke="#4414cc" stroke-width="3" d="M803.753,-143.697C812.491,-136.746 822.818,-128.531 832.686,-120.682"/>
<polygon fill="#4414cc" stroke="#4414cc" points="837.203,-126.033 848.497,-108.104 828.488,-115.077 837.203,-126.033"/>
</g>
<!-- avoidedTBLocation&#45;&gt;moveIndividualCopy -->
<g id="edge11" class="edge"><title>avoidedTBLocation&#45;&gt;moveIndividualCopy</title>
<path fill="none" stroke="#4414cc" stroke-width="3" d="M870,-71.6966C870,-66.9496 870,-61.6132 870,-56.2063"/>
<polygon fill="#4414cc" stroke="#4414cc" points="877,-56.1043 870,-36.1043 863,-56.1044 877,-56.1043"/>
</g>
<!-- availableQueryCopy -->
<g id="node23" class="node"><title>availableQueryCopy</title>
<polygon fill="#ccceff" stroke="#ccceff" points="382.928,-324 335.072,-324 323.072,-312 323.072,-300 335.072,-288 382.928,-288 394.928,-300 394.928,-312 382.928,-324"/>
<path fill="#ccceff" stroke="#ccceff" d="M335.072,-324C329.072,-324 323.072,-318 323.072,-312"/>
<path fill="#ccceff" stroke="#ccceff" d="M323.072,-300C323.072,-294 329.072,-288 335.072,-288"/>
<path fill="#ccceff" stroke="#ccceff" d="M382.928,-288C388.928,-288 394.928,-294 394.928,-300"/>
<path fill="#ccceff" stroke="#ccceff" d="M394.928,-312C394.928,-318 388.928,-324 382.928,-324"/>
<polyline fill="none" stroke="#ccceff" points="382.928,-324 335.072,-324 "/>
<path fill="none" stroke="#ccceff" d="M335.072,-324C329.072,-324 323.072,-318 323.072,-312"/>
<polyline fill="none" stroke="#ccceff" points="323.072,-312 323.072,-300 "/>
<path fill="none" stroke="#ccceff" d="M323.072,-300C323.072,-294 329.072,-288 335.072,-288"/>
<polyline fill="none" stroke="#ccceff" points="335.072,-288 382.928,-288 "/>
<path fill="none" stroke="#ccceff" d="M382.928,-288C388.928,-288 394.928,-294 394.928,-300"/>
<polyline fill="none" stroke="#ccceff" points="394.928,-300 394.928,-312 "/>
<path fill="none" stroke="#ccceff" d="M394.928,-312C394.928,-318 388.928,-324 382.928,-324"/>
<text text-anchor="middle" x="359" y="-300.4" font-family="Helvetica,sans-Serif" font-size="14.00">Available</text>
</g>
<!-- neighboringCell&#45;&gt;availableQueryCopy -->
<g id="edge13" class="edge"><title>neighboringCell&#45;&gt;availableQueryCopy</title>
<path fill="none" stroke="#141bcc" stroke-width="3" d="M403.35,-367.689C397.52,-359.712 390.393,-349.958 383.572,-340.624"/>
<polygon fill="#141bcc" stroke="#141bcc" points="389.067,-336.28 371.615,-324.262 377.763,-344.54 389.067,-336.28"/>
</g>
<!-- neighborQueryCopyCopy -->
<g id="node25" class="node"><title>neighborQueryCopyCopy</title>
<polygon fill="#ccceff" stroke="#ccceff" points="474.111,-324 425.889,-324 413.889,-312 413.889,-300 425.889,-288 474.111,-288 486.111,-300 486.111,-312 474.111,-324"/>
<path fill="#ccceff" stroke="#ccceff" d="M425.889,-324C419.889,-324 413.889,-318 413.889,-312"/>
<path fill="#ccceff" stroke="#ccceff" d="M413.889,-300C413.889,-294 419.889,-288 425.889,-288"/>
<path fill="#ccceff" stroke="#ccceff" d="M474.111,-288C480.111,-288 486.111,-294 486.111,-300"/>
<path fill="#ccceff" stroke="#ccceff" d="M486.111,-312C486.111,-318 480.111,-324 474.111,-324"/>
<polyline fill="none" stroke="#ccceff" points="474.111,-324 425.889,-324 "/>
<path fill="none" stroke="#ccceff" d="M425.889,-324C419.889,-324 413.889,-318 413.889,-312"/>
<polyline fill="none" stroke="#ccceff" points="413.889,-312 413.889,-300 "/>
<path fill="none" stroke="#ccceff" d="M413.889,-300C413.889,-294 419.889,-288 425.889,-288"/>
<polyline fill="none" stroke="#ccceff" points="425.889,-288 474.111,-288 "/>
<path fill="none" stroke="#ccceff" d="M474.111,-288C480.111,-288 486.111,-294 486.111,-300"/>
<polyline fill="none" stroke="#ccceff" points="486.111,-300 486.111,-312 "/>
<path fill="none" stroke="#ccceff" d="M486.111,-312C486.111,-318 480.111,-324 474.111,-324"/>
<text text-anchor="middle" x="450" y="-300.4" font-family="Helvetica,sans-Serif" font-size="14.00">Neighbor</text>
</g>
<!-- neighboringCell&#45;&gt;neighborQueryCopyCopy -->
<g id="edge15" class="edge"><title>neighboringCell&#45;&gt;neighborQueryCopyCopy</title>
<path fill="none" stroke="#141bcc" stroke-width="3" d="M423.546,-367.689C426.759,-360.317 430.633,-351.43 434.414,-342.757"/>
<polygon fill="#141bcc" stroke="#141bcc" points="440.9,-345.393 442.475,-324.262 428.067,-339.799 440.9,-345.393"/>
</g>
<!-- neighboringCell&#45;&gt;moveIndividualCopyCopyCopy -->
<g id="edge37" class="edge"><title>neighboringCell&#45;&gt;moveIndividualCopyCopyCopy:ne</title>
<path fill="none" stroke="#141bcc" stroke-width="3" stroke-dasharray="5,2" d="M450.614,-367.953C467.3,-357.718 485.679,-342.974 495,-324 518.169,-276.837 464.996,-219.409 437.323,-193.605"/>
<polygon fill="#141bcc" stroke="#141bcc" points="441.603,-188.044 422,-180 432.308,-198.513 441.603,-188.044"/>
</g>
<!-- _And_NeighborQueryCopyCopy -->
<g id="node36" class="node"><title>_And_NeighborQueryCopyCopy</title>
<polygon fill="#ccceff" stroke="#ccceff" points="419,-252 389,-252 377,-240 377,-228 389,-216 419,-216 431,-228 431,-240 419,-252"/>
<path fill="#ccceff" stroke="#ccceff" d="M389,-252C383,-252 377,-246 377,-240"/>
<path fill="#ccceff" stroke="#ccceff" d="M377,-228C377,-222 383,-216 389,-216"/>
<path fill="#ccceff" stroke="#ccceff" d="M419,-216C425,-216 431,-222 431,-228"/>
<path fill="#ccceff" stroke="#ccceff" d="M431,-240C431,-246 425,-252 419,-252"/>
<polyline fill="none" stroke="#ccceff" points="419,-252 389,-252 "/>
<path fill="none" stroke="#ccceff" d="M389,-252C383,-252 377,-246 377,-240"/>
<polyline fill="none" stroke="#ccceff" points="377,-240 377,-228 "/>
<path fill="none" stroke="#ccceff" d="M377,-228C377,-222 383,-216 389,-216"/>
<polyline fill="none" stroke="#ccceff" points="389,-216 419,-216 "/>
<path fill="none" stroke="#ccceff" d="M419,-216C425,-216 431,-222 431,-228"/>
<polyline fill="none" stroke="#ccceff" points="431,-228 431,-240 "/>
<path fill="none" stroke="#ccceff" d="M431,-240C431,-246 425,-252 419,-252"/>
<text text-anchor="middle" x="404" y="-228.4" font-family="Helvetica,sans-Serif" font-size="14.00">And</text>
</g>
<!-- availableQueryCopy&#45;&gt;_And_NeighborQueryCopyCopy -->
<g id="edge29" class="edge"><title>availableQueryCopy&#45;&gt;_And_NeighborQueryCopyCopy</title>
<path fill="none" stroke="#141bcc" stroke-width="3" d="M370.124,-287.697C373.775,-282.017 377.968,-275.494 382.133,-269.016"/>
<polygon fill="#141bcc" stroke="#141bcc" points="388.077,-272.713 393.004,-252.104 376.301,-265.143 388.077,-272.713"/>
</g>
<!-- neighborQueryCopyCopy&#45;&gt;_And_NeighborQueryCopyCopy -->
<g id="edge41" class="edge"><title>neighborQueryCopyCopy&#45;&gt;_And_NeighborQueryCopyCopy</title>
<path fill="none" stroke="#141bcc" stroke-width="3" d="M438.629,-287.697C434.897,-282.017 430.61,-275.494 426.353,-269.016"/>
<polygon fill="#141bcc" stroke="#141bcc" points="432.074,-264.974 415.24,-252.104 420.374,-272.663 432.074,-264.974"/>
</g>
<!-- nearestTBPositive -->
<g id="node26" class="node"><title>nearestTBPositive</title>
<polygon fill="#d9ccff" stroke="#d9ccff" points="1029.6,-252 914.403,-252 902.403,-240 902.403,-228 914.403,-216 1029.6,-216 1041.6,-228 1041.6,-240 1029.6,-252"/>
<path fill="#d9ccff" stroke="#d9ccff" d="M914.403,-252C908.403,-252 902.403,-246 902.403,-240"/>
<path fill="#d9ccff" stroke="#d9ccff" d="M902.403,-228C902.403,-222 908.403,-216 914.403,-216"/>
<path fill="#d9ccff" stroke="#d9ccff" d="M1029.6,-216C1035.6,-216 1041.6,-222 1041.6,-228"/>
<path fill="#d9ccff" stroke="#d9ccff" d="M1041.6,-240C1041.6,-246 1035.6,-252 1029.6,-252"/>
<polyline fill="none" stroke="gray" points="1029.6,-252 914.403,-252 "/>
<path fill="none" stroke="gray" d="M914.403,-252C908.403,-252 902.403,-246 902.403,-240"/>
<polyline fill="none" stroke="gray" points="902.403,-240 902.403,-228 "/>
<path fill="none" stroke="gray" d="M902.403,-228C902.403,-222 908.403,-216 914.403,-216"/>
<polyline fill="none" stroke="gray" points="914.403,-216 1029.6,-216 "/>
<path fill="none" stroke="gray" d="M1029.6,-216C1035.6,-216 1041.6,-222 1041.6,-228"/>
<polyline fill="none" stroke="gray" points="1041.6,-228 1041.6,-240 "/>
<path fill="none" stroke="gray" d="M1041.6,-240C1041.6,-246 1035.6,-252 1029.6,-252"/>
<text text-anchor="middle" x="972" y="-228.4" font-family="Helvetica,sans-Serif" font-size="14.00">Nearest TB Positive</text>
</g>
<!-- nearestTBPositive&#45;&gt;tBBacterialPresenseGreaterTBAvoidanceThresholdQuery -->
<g id="edge19" class="edge"><title>nearestTBPositive&#45;&gt;tBBacterialPresenseGreaterTBAvoidanceThresholdQuery</title>
<path fill="none" stroke="#4414cc" stroke-width="3" d="M924.935,-215.942C900.868,-207.189 870.701,-196.171 836.304,-183.432"/>
<polygon fill="#4414cc" stroke="#4414cc" points="838.546,-176.797 817.36,-176.399 833.674,-189.922 838.546,-176.797"/>
</g>
<!-- nearestTBPositive&#45;&gt;moveIndividualCopy -->
<g id="edge25" class="edge"><title>nearestTBPositive&#45;&gt;moveIndividualCopy:ne</title>
<path fill="none" stroke="#4414cc" stroke-width="3" stroke-dasharray="5,2" d="M979.506,-215.707C986.346,-197.351 994.107,-167.768 985,-144 964.531,-90.5778 939.965,-82.8498 902.855,-49.9775"/>
<polygon fill="#4414cc" stroke="#4414cc" points="907.363,-44.6076 888,-36 897.769,-54.8036 907.363,-44.6076"/>
</g>
<!-- moveAvailable -->
<g id="node28" class="node"><title>moveAvailable</title>
<polygon fill="#d9ccff" stroke="#d9ccff" points="892.183,-180 847.817,-180 835.817,-168 835.817,-156 847.817,-144 892.183,-144 904.183,-156 904.183,-168 892.183,-180"/>
<path fill="#d9ccff" stroke="#d9ccff" d="M847.817,-180C841.817,-180 835.817,-174 835.817,-168"/>
<path fill="#d9ccff" stroke="#d9ccff" d="M835.817,-156C835.817,-150 841.817,-144 847.817,-144"/>
<path fill="#d9ccff" stroke="#d9ccff" d="M892.183,-144C898.183,-144 904.183,-150 904.183,-156"/>
<path fill="#d9ccff" stroke="#d9ccff" d="M904.183,-168C904.183,-174 898.183,-180 892.183,-180"/>
<polyline fill="none" stroke="#d9ccff" points="892.183,-180 847.817,-180 "/>
<path fill="none" stroke="#d9ccff" d="M847.817,-180C841.817,-180 835.817,-174 835.817,-168"/>
<polyline fill="none" stroke="#d9ccff" points="835.817,-168 835.817,-156 "/>
<path fill="none" stroke="#d9ccff" d="M835.817,-156C835.817,-150 841.817,-144 847.817,-144"/>
<polyline fill="none" stroke="#d9ccff" points="847.817,-144 892.183,-144 "/>
<path fill="none" stroke="#d9ccff" d="M892.183,-144C898.183,-144 904.183,-150 904.183,-156"/>
<polyline fill="none" stroke="#d9ccff" points="904.183,-156 904.183,-168 "/>
<path fill="none" stroke="#d9ccff" d="M904.183,-168C904.183,-174 898.183,-180 892.183,-180"/>
<text text-anchor="middle" x="870" y="-156.4" font-family="Helvetica,sans-Serif" font-size="14.00">Nearest </text>
</g>
<!-- nearestTBPositive&#45;&gt;moveAvailable -->
<g id="edge17" class="edge"><title>nearestTBPositive&#45;&gt;moveAvailable</title>
<path fill="none" stroke="#4414cc" stroke-width="3" d="M947.048,-215.876C936.428,-208.588 923.749,-199.886 911.771,-191.667"/>
<polygon fill="#4414cc" stroke="#4414cc" points="915.499,-185.735 895.048,-180.19 907.577,-197.278 915.499,-185.735"/>
</g>
<!-- awayQuery -->
<g id="node31" class="node"><title>awayQuery</title>
<polygon fill="#d9ccff" stroke="#d9ccff" points="964,-180 934,-180 922,-168 922,-156 934,-144 964,-144 976,-156 976,-168 964,-180"/>
<path fill="#d9ccff" stroke="#d9ccff" d="M934,-180C928,-180 922,-174 922,-168"/>
<path fill="#d9ccff" stroke="#d9ccff" d="M922,-156C922,-150 928,-144 934,-144"/>
<path fill="#d9ccff" stroke="#d9ccff" d="M964,-144C970,-144 976,-150 976,-156"/>
<path fill="#d9ccff" stroke="#d9ccff" d="M976,-168C976,-174 970,-180 964,-180"/>
<polyline fill="none" stroke="#d9ccff" points="964,-180 934,-180 "/>
<path fill="none" stroke="#d9ccff" d="M934,-180C928,-180 922,-174 922,-168"/>
<polyline fill="none" stroke="#d9ccff" points="922,-168 922,-156 "/>
<path fill="none" stroke="#d9ccff" d="M922,-156C922,-150 928,-144 934,-144"/>
<polyline fill="none" stroke="#d9ccff" points="934,-144 964,-144 "/>
<path fill="none" stroke="#d9ccff" d="M964,-144C970,-144 976,-150 976,-156"/>
<polyline fill="none" stroke="#d9ccff" points="976,-156 976,-168 "/>
<path fill="none" stroke="#d9ccff" d="M976,-168C976,-174 970,-180 964,-180"/>
<text text-anchor="middle" x="949" y="-156.4" font-family="Helvetica,sans-Serif" font-size="14.00">Away</text>
</g>
<!-- nearestTBPositive&#45;&gt;awayQuery -->
<g id="edge21" class="edge"><title>nearestTBPositive&#45;&gt;awayQuery</title>
<path fill="none" stroke="#4414cc" stroke-width="3" d="M966.315,-215.697C964.671,-210.695 962.813,-205.04 960.939,-199.337"/>
<polygon fill="#4414cc" stroke="#4414cc" points="967.513,-196.92 954.62,-180.104 954.213,-201.29 967.513,-196.92"/>
</g>
<!-- moveAvailable&#45;&gt;avoidedTBLocation -->
<g id="edge27" class="edge"><title>moveAvailable&#45;&gt;avoidedTBLocation</title>
<path fill="none" stroke="#4414cc" stroke-width="3" d="M870,-143.697C870,-138.95 870,-133.613 870,-128.206"/>
<polygon fill="#4414cc" stroke="#4414cc" points="877,-128.104 870,-108.104 863,-128.104 877,-128.104"/>
</g>
<!-- awayQuery&#45;&gt;avoidedTBLocation -->
<g id="edge31" class="edge"><title>awayQuery&#45;&gt;avoidedTBLocation</title>
<path fill="none" stroke="#4414cc" stroke-width="3" d="M929.472,-143.697C921.914,-137 913.033,-129.13 904.472,-121.544"/>
<polygon fill="#4414cc" stroke="#4414cc" points="908.915,-116.129 889.303,-108.104 899.63,-126.607 908.915,-116.129"/>
</g>
<!-- _And_NeighborQueryCopyCopy&#45;&gt;moveIndividualCopyCopyCopy -->
<g id="edge43" class="edge"><title>_And_NeighborQueryCopyCopy&#45;&gt;moveIndividualCopyCopyCopy</title>
<path fill="none" stroke="#141bcc" stroke-width="3" d="M404,-215.697C404,-210.95 404,-205.613 404,-200.206"/>
<polygon fill="#141bcc" stroke="#141bcc" points="411,-200.104 404,-180.104 397,-200.104 411,-200.104"/>
</g>
<!-- _TBStatusDifferentActiveQueryAndTBStatusDifferentDeadQuery_&#45;&gt;identityAvoidTBLocationsQuery -->
<g id="edge39" class="edge"><title>_TBStatusDifferentActiveQueryAndTBStatusDifferentDeadQuery_&#45;&gt;identityAvoidTBLocationsQuery</title>
<path fill="none" stroke="#1451cc" stroke-width="3" d="M675,-367.689C675,-360.822 675,-352.64 675,-344.542"/>
<polygon fill="#1451cc" stroke="#1451cc" points="682,-344.262 675,-324.262 668,-344.262 682,-344.262"/>
</g>
<!-- identityAvoidTBLocationsQuery&#45;&gt;nearestTBPositive -->
<g id="edge45" class="edge"><title>identityAvoidTBLocationsQuery&#45;&gt;nearestTBPositive</title>
<path fill="none" stroke="#1451cc" stroke-width="3" d="M702.144,-298.602C742.694,-289.045 820.936,-270.604 882.773,-256.03"/>
<polygon fill="#1451cc" stroke="#1451cc" points="884.76,-262.754 902.62,-251.352 881.548,-249.127 884.76,-262.754"/>
</g>
</g>
</svg>
