<?xml version="1.0" encoding="UTF-8" standalone="no"?>
<!DOCTYPE svg PUBLIC "-//W3C//DTD SVG 1.1//EN"
 "http://www.w3.org/Graphics/SVG/1.1/DTD/svg11.dtd">
<!-- Generated by graphviz version 2.29.20110702.0445 (20110702.0445)
 -->
<!-- Title: watchTBStatus Pages: 1 -->
<svg width="506pt" height="385pt"
 viewBox="0.00 0.00 506.00 385.00" xmlns="http://www.w3.org/2000/svg" xmlns:xlink="http://www.w3.org/1999/xlink">
<g id="graph1" class="graph" transform="scale(1 1) rotate(0) translate(4 381)">
<title>watchTBStatus</title>
<polygon fill="white" stroke="white" points="-4,5 -4,-381 503,-381 503,5 -4,5"/>
<g id="graph2" class="cluster"><title>clustercontextKey</title>
<polygon fill="ghostwhite" stroke="white" points="8,-315 8,-369 96,-369 96,-315 8,-315"/>
<text text-anchor="middle" x="52.1792" y="-351" font-family="Helvetica,sans-Serif" font-size="14.00">Parameters</text>
</g>
<g id="graph3" class="cluster"><title>clusterindividualKey</title>
<polygon fill="ghostwhite" stroke="white" points="104,-315 104,-369 179,-369 179,-315 104,-315"/>
<text text-anchor="middle" x="141.576" y="-351" font-family="Helvetica,sans-Serif" font-size="14.00">Individual</text>
</g>
<!-- contextOverview -->
<g id="node2" class="node"><title>contextOverview</title>
<ellipse fill="black" stroke="black" cx="52" cy="-330" rx="7.2" ry="7.2"/>
</g>
<!-- watchTBStatusOverview -->
<g id="node4" class="node"><title>watchTBStatusOverview</title>
<a xlink:href="individual__Overview.svg">
<ellipse fill="#cb14cc" stroke="#cb14cc" cx="140" cy="-330" rx="7.2" ry="7.2"/>
</a>
</g>
<!-- watchTreatmentStatus -->
<g id="node5" class="node"><title>watchTreatmentStatus</title>
<a xlink:href="individual_watchTreatmentStatus.svg" xlink:title="Watch Treatment Status">
<polygon fill="#ffccee" stroke="#ffccee" points="291.256,-36 150.744,-36 138.744,-24 138.744,-12 150.744,-0 291.256,-0 303.256,-12 303.256,-24 291.256,-36"/>
<path fill="#ffccee" stroke="#ffccee" d="M150.744,-36C144.744,-36 138.744,-30 138.744,-24"/>
<path fill="#ffccee" stroke="#ffccee" d="M138.744,-12C138.744,-6 144.744,-0 150.744,-0"/>
<path fill="#ffccee" stroke="#ffccee" d="M291.256,-0C297.256,-0 303.256,-6 303.256,-12"/>
<path fill="#ffccee" stroke="#ffccee" d="M303.256,-24C303.256,-30 297.256,-36 291.256,-36"/>
<polyline fill="none" stroke="black" points="291.256,-36 150.744,-36 "/>
<path fill="none" stroke="black" d="M150.744,-36C144.744,-36 138.744,-30 138.744,-24"/>
<polyline fill="none" stroke="black" points="138.744,-24 138.744,-12 "/>
<path fill="none" stroke="black" d="M138.744,-12C138.744,-6 144.744,-0 150.744,-0"/>
<polyline fill="none" stroke="black" points="150.744,-0 291.256,-0 "/>
<path fill="none" stroke="black" d="M291.256,-0C297.256,-0 303.256,-6 303.256,-12"/>
<polyline fill="none" stroke="black" points="303.256,-12 303.256,-24 "/>
<path fill="none" stroke="black" d="M303.256,-24C303.256,-30 297.256,-36 291.256,-36"/>
<text text-anchor="middle" x="221" y="-12.4" font-family="Helvetica,sans-Serif" font-size="14.00">Watch Treatment Status</text>
</a>
</g>
<!-- individualtreatmentStatusRecord -->
<g id="node6" class="node"><title>individualtreatmentStatusRecord</title>
<polygon fill="white" stroke="none" points="142.842,-73.2 142.842,-122.8 335.158,-122.8 335.158,-73.2 142.842,-73.2"/>
<text text-anchor="middle" x="239" y="-104.8" font-family="Helvetica,sans-Serif" font-size="14.00">Treatment Status</text>
<polyline fill="none" stroke="none" points="142.842,-98 335.158,-98 "/>
<text text-anchor="middle" x="188.586" y="-80" font-family="Helvetica,sans-Serif" font-size="14.00">Not Infected</text>
<polyline fill="none" stroke="none" points="234.331,-73.2 234.331,-98 "/>
<text text-anchor="middle" x="284.745" y="-80" font-family="Helvetica,sans-Serif" font-size="14.00">No Treatment</text>
</g>
<!-- individualtreatmentStatusRecord&#45;&gt;watchTreatmentStatus -->
<g id="edge4" class="edge"><title>individualtreatmentStatusRecord:individualtreatmentStatus&#45;&gt;watchTreatmentStatus</title>
<path fill="none" stroke="#cc148f" stroke-width="2" d="M239,-124C239,-145.334 319.993,-138.164 335,-123 350.944,-106.889 347.19,-91.1099 335,-72 326.252,-58.2854 312.935,-48.0641 298.45,-40.4646"/>
<polygon fill="#cc148f" stroke="#cc148f" points="289.312,-36.0638 300.274,-36.3481 294.033,-37.7826 298.538,-39.952 298.321,-40.4025 298.105,-40.853 293.6,-38.6836 296.369,-44.4569 289.312,-36.0638 289.312,-36.0638"/>
</g>
<!-- individualtBStatusRecord -->
<g id="node8" class="node"><title>individualtBStatusRecord</title>
<polygon fill="white" stroke="none" points="186.849,-305.2 186.849,-354.8 323.151,-354.8 323.151,-305.2 186.849,-305.2"/>
<text text-anchor="middle" x="255" y="-336.8" font-family="Helvetica,sans-Serif" font-size="14.00">TB Status</text>
<polyline fill="none" stroke="none" points="186.849,-330 323.151,-330 "/>
<text text-anchor="middle" x="227.538" y="-312" font-family="Helvetica,sans-Serif" font-size="14.00">Suseptible</text>
<polyline fill="none" stroke="none" points="268.228,-305.2 268.228,-330 "/>
<text text-anchor="middle" x="295.689" y="-312" font-family="Helvetica,sans-Serif" font-size="14.00">Latent</text>
</g>
<!-- watchTBStatus -->
<g id="node10" class="node"><title>watchTBStatus</title>
<a xlink:href="individual_watchTBStatus.svg" xlink:title="Watch TB Status">
<polygon fill="#feccff" stroke="#feccff" points="303.207,-268 206.793,-268 194.793,-256 194.793,-244 206.793,-232 303.207,-232 315.207,-244 315.207,-256 303.207,-268"/>
<path fill="#feccff" stroke="#feccff" d="M206.793,-268C200.793,-268 194.793,-262 194.793,-256"/>
<path fill="#feccff" stroke="#feccff" d="M194.793,-244C194.793,-238 200.793,-232 206.793,-232"/>
<path fill="#feccff" stroke="#feccff" d="M303.207,-232C309.207,-232 315.207,-238 315.207,-244"/>
<path fill="#feccff" stroke="#feccff" d="M315.207,-256C315.207,-262 309.207,-268 303.207,-268"/>
<polyline fill="none" stroke="black" points="303.207,-268 206.793,-268 "/>
<path fill="none" stroke="black" d="M206.793,-268C200.793,-268 194.793,-262 194.793,-256"/>
<polyline fill="none" stroke="black" points="194.793,-256 194.793,-244 "/>
<path fill="none" stroke="black" d="M194.793,-244C194.793,-238 200.793,-232 206.793,-232"/>
<polyline fill="none" stroke="black" points="206.793,-232 303.207,-232 "/>
<path fill="none" stroke="black" d="M303.207,-232C309.207,-232 315.207,-238 315.207,-244"/>
<polyline fill="none" stroke="black" points="315.207,-244 315.207,-256 "/>
<path fill="none" stroke="black" d="M315.207,-256C315.207,-262 309.207,-268 303.207,-268"/>
<text text-anchor="middle" x="255" y="-244.4" font-family="Helvetica,sans-Serif" font-size="14.00">Watch TB Status</text>
</a>
</g>
<!-- individualtBStatusRecord&#45;&gt;watchTBStatus -->
<g id="edge6" class="edge"><title>individualtBStatusRecord:individualtBStatus&#45;&gt;watchTBStatus</title>
<path fill="none" stroke="#cb14cc" stroke-width="2" d="M255,-356C255,-371.113 312.393,-365.765 323,-355 338.909,-338.855 332.948,-324.367 323,-304 317.194,-292.114 307.293,-282.119 296.816,-274.125"/>
<polygon fill="#cb14cc" stroke="#cb14cc" points="288.358,-268.145 299.121,-270.243 292.729,-270.623 296.812,-273.509 296.523,-273.917 296.235,-274.326 292.152,-271.439 293.926,-277.592 288.358,-268.145 288.358,-268.145"/>
</g>
<!-- tBStatusIdenticalLatentQueryCopy -->
<g id="node13" class="node"><title>tBStatusIdenticalLatentQueryCopy</title>
<polygon fill="#feccff" stroke="#feccff" points="305,-196 275,-196 263,-184 263,-172 275,-160 305,-160 317,-172 317,-184 305,-196"/>
<path fill="#feccff" stroke="#feccff" d="M275,-196C269,-196 263,-190 263,-184"/>
<path fill="#feccff" stroke="#feccff" d="M263,-172C263,-166 269,-160 275,-160"/>
<path fill="#feccff" stroke="#feccff" d="M305,-160C311,-160 317,-166 317,-172"/>
<path fill="#feccff" stroke="#feccff" d="M317,-184C317,-190 311,-196 305,-196"/>
<polyline fill="none" stroke="#feccff" points="305,-196 275,-196 "/>
<path fill="none" stroke="#feccff" d="M275,-196C269,-196 263,-190 263,-184"/>
<polyline fill="none" stroke="#feccff" points="263,-184 263,-172 "/>
<path fill="none" stroke="#feccff" d="M263,-172C263,-166 269,-160 275,-160"/>
<polyline fill="none" stroke="#feccff" points="275,-160 305,-160 "/>
<path fill="none" stroke="#feccff" d="M305,-160C311,-160 317,-166 317,-172"/>
<polyline fill="none" stroke="#feccff" points="317,-172 317,-184 "/>
<path fill="none" stroke="#feccff" d="M317,-184C317,-190 311,-196 305,-196"/>
<text text-anchor="middle" x="290" y="-172.4" font-family="Helvetica,sans-Serif" font-size="14.00">Is?</text>
</g>
<!-- individualtBStatusRecord&#45;&gt;tBStatusIdenticalLatentQueryCopy -->
<g id="edge22" class="edge"><title>individualtBStatusRecord:individualtBStatuslatent&#45;&gt;tBStatusIdenticalLatentQueryCopy:ne</title>
<path fill="none" stroke="#cb14cc" stroke-width="2" stroke-dasharray="1,5" d="M324,-318C376.016,-318 349.589,-242.608 313.608,-201.969"/>
<ellipse fill="#cb14cc" stroke="#cb14cc" cx="310.739" cy="-198.915" rx="4.00002" ry="4.00002"/>
</g>
<!-- tBStatusIdenticalSuseptibleQueryCopy -->
<g id="node15" class="node"><title>tBStatusIdenticalSuseptibleQueryCopy</title>
<polygon fill="#feccff" stroke="#feccff" points="204,-196 174,-196 162,-184 162,-172 174,-160 204,-160 216,-172 216,-184 204,-196"/>
<path fill="#feccff" stroke="#feccff" d="M174,-196C168,-196 162,-190 162,-184"/>
<path fill="#feccff" stroke="#feccff" d="M162,-172C162,-166 168,-160 174,-160"/>
<path fill="#feccff" stroke="#feccff" d="M204,-160C210,-160 216,-166 216,-172"/>
<path fill="#feccff" stroke="#feccff" d="M216,-184C216,-190 210,-196 204,-196"/>
<polyline fill="none" stroke="#feccff" points="204,-196 174,-196 "/>
<path fill="none" stroke="#feccff" d="M174,-196C168,-196 162,-190 162,-184"/>
<polyline fill="none" stroke="#feccff" points="162,-184 162,-172 "/>
<path fill="none" stroke="#feccff" d="M162,-172C162,-166 168,-160 174,-160"/>
<polyline fill="none" stroke="#feccff" points="174,-160 204,-160 "/>
<path fill="none" stroke="#feccff" d="M204,-160C210,-160 216,-166 216,-172"/>
<polyline fill="none" stroke="#feccff" points="216,-172 216,-184 "/>
<path fill="none" stroke="#feccff" d="M216,-184C216,-190 210,-196 204,-196"/>
<text text-anchor="middle" x="189" y="-172.4" font-family="Helvetica,sans-Serif" font-size="14.00">Is?</text>
</g>
<!-- individualtBStatusRecord&#45;&gt;tBStatusIdenticalSuseptibleQueryCopy -->
<g id="edge20" class="edge"><title>individualtBStatusRecord:individualtBStatussuseptible&#45;&gt;tBStatusIdenticalSuseptibleQueryCopy:ne</title>
<path fill="none" stroke="#cb14cc" stroke-width="2" stroke-dasharray="1,5" d="M186,-318C181.222,-318 184.753,-236.612 186,-232 189.777,-218.03 208.464,-211.91 210.213,-203.655"/>
<ellipse fill="#cb14cc" stroke="#cb14cc" cx="208.548" cy="-199.688" rx="4.00001" ry="4.00001"/>
</g>
<!-- individualtBInfectionsPerLifetime -->
<g id="node9" class="node"><title>individualtBInfectionsPerLifetime</title>
<polygon fill="white" stroke="white" points="498.217,-36 321.783,-36 321.783,-0 498.217,-0 498.217,-36"/>
<text text-anchor="middle" x="410" y="-12.4" font-family="Helvetica,sans-Serif" font-size="14.00">TB Infections Per Lifetime</text>
</g>
<!-- incrementTBInfectionsPerLifetime -->
<g id="node18" class="node"><title>incrementTBInfectionsPerLifetime</title>
<polygon fill="#feccff" stroke="#feccff" points="437.186,-116 382.814,-116 370.814,-104 370.814,-92 382.814,-80 437.186,-80 449.186,-92 449.186,-104 437.186,-116"/>
<path fill="#feccff" stroke="#feccff" d="M382.814,-116C376.814,-116 370.814,-110 370.814,-104"/>
<path fill="#feccff" stroke="#feccff" d="M370.814,-92C370.814,-86 376.814,-80 382.814,-80"/>
<path fill="#feccff" stroke="#feccff" d="M437.186,-80C443.186,-80 449.186,-86 449.186,-92"/>
<path fill="#feccff" stroke="#feccff" d="M449.186,-104C449.186,-110 443.186,-116 437.186,-116"/>
<polyline fill="none" stroke="#feccff" points="437.186,-116 382.814,-116 "/>
<path fill="none" stroke="#feccff" d="M382.814,-116C376.814,-116 370.814,-110 370.814,-104"/>
<polyline fill="none" stroke="#feccff" points="370.814,-104 370.814,-92 "/>
<path fill="none" stroke="#feccff" d="M370.814,-92C370.814,-86 376.814,-80 382.814,-80"/>
<polyline fill="none" stroke="#feccff" points="382.814,-80 437.186,-80 "/>
<path fill="none" stroke="#feccff" d="M437.186,-80C443.186,-80 449.186,-86 449.186,-92"/>
<polyline fill="none" stroke="#feccff" points="449.186,-92 449.186,-104 "/>
<path fill="none" stroke="#feccff" d="M449.186,-104C449.186,-110 443.186,-116 437.186,-116"/>
<text text-anchor="middle" x="410" y="-92.4" font-family="Helvetica,sans-Serif" font-size="14.00">Increment</text>
</g>
<!-- individualtBInfectionsPerLifetime&#45;&gt;incrementTBInfectionsPerLifetime -->
<g id="edge24" class="edge"><title>individualtBInfectionsPerLifetime&#45;&gt;incrementTBInfectionsPerLifetime:nw</title>
<path fill="none" stroke="#cb14cc" stroke-width="2" stroke-dasharray="1,5" d="M395.243,-36.0768C386.273,-47.6288 375.654,-63.701 370.876,-80 366.375,-95.3539 359.833,-104.422 370.876,-116 375.234,-120.57 380.272,-122.45 385.124,-121.177"/>
<ellipse fill="#cb14cc" stroke="#cb14cc" cx="388.581" cy="-119.077" rx="4.00002" ry="4.00002"/>
</g>
<!-- watchTBStatus&#45;&gt;tBStatusIdenticalLatentQueryCopy -->
<g id="edge8" class="edge"><title>watchTBStatus&#45;&gt;tBStatusIdenticalLatentQueryCopy</title>
<path fill="none" stroke="#cb14cc" stroke-width="3" d="M263.652,-231.697C266.322,-226.356 269.365,-220.27 272.412,-214.176"/>
<polygon fill="#cb14cc" stroke="#cb14cc" points="278.765,-217.123 281.448,-196.104 266.243,-210.862 278.765,-217.123"/>
</g>
<!-- watchTBStatus&#45;&gt;tBStatusIdenticalSuseptibleQueryCopy -->
<g id="edge10" class="edge"><title>watchTBStatus&#45;&gt;tBStatusIdenticalSuseptibleQueryCopy</title>
<path fill="none" stroke="#cb14cc" stroke-width="3" d="M238.685,-231.697C232.691,-225.339 225.7,-217.924 218.887,-210.699"/>
<polygon fill="#cb14cc" stroke="#cb14cc" points="223.94,-205.854 205.127,-196.104 213.754,-215.458 223.94,-205.854"/>
</g>
<!-- tBStatusIdenticalLatentQueryCopy&#45;&gt;individualtreatmentStatusRecord -->
<g id="edge16" class="edge"><title>tBStatusIdenticalLatentQueryCopy&#45;&gt;individualtreatmentStatusRecord:individualtreatmentStatusnoTreatment</title>
<path fill="none" stroke="#cb14cc" stroke-width="3" d="M306.209,-159.884C321.074,-143.511 341.6,-118.975 347.173,-102.732"/>
<polygon fill="#cb14cc" stroke="#cb14cc" points="352.928,-98.7453 336,-86 341.285,-106.52 352.928,-98.7453"/>
</g>
<!-- tBStatusIdenticalLatentQueryCopy&#45;&gt;incrementTBInfectionsPerLifetime -->
<g id="edge14" class="edge"><title>tBStatusIdenticalLatentQueryCopy&#45;&gt;incrementTBInfectionsPerLifetime</title>
<path fill="none" stroke="#cb14cc" stroke-width="3" d="M316.335,-159.883C331.106,-150.281 349.902,-138.064 366.774,-127.097"/>
<polygon fill="#cb14cc" stroke="#cb14cc" points="370.773,-132.846 383.727,-116.078 363.143,-121.108 370.773,-132.846"/>
</g>
<!-- tBStatusIdenticalSuseptibleQueryCopy&#45;&gt;individualtreatmentStatusRecord -->
<g id="edge12" class="edge"><title>tBStatusIdenticalSuseptibleQueryCopy&#45;&gt;individualtreatmentStatusRecord:individualtreatmentStatusnotInfected</title>
<path fill="none" stroke="#cb14cc" stroke-width="3" d="M172.569,-159.884C157.494,-143.511 136.663,-118.975 130.923,-102.732"/>
<polygon fill="#cb14cc" stroke="#cb14cc" points="136.797,-106.541 142,-86 125.123,-98.8127 136.797,-106.541"/>
</g>
<!-- incrementTBInfectionsPerLifetime&#45;&gt;individualtBInfectionsPerLifetime -->
<g id="edge18" class="edge"><title>incrementTBInfectionsPerLifetime&#45;&gt;individualtBInfectionsPerLifetime</title>
<path fill="none" stroke="#cb14cc" stroke-width="3" d="M410,-79.6893C410,-72.8224 410,-64.6401 410,-56.5417"/>
<polygon fill="#cb14cc" stroke="#cb14cc" points="417,-56.2623 410,-36.2623 403,-56.2624 417,-56.2623"/>
</g>
</g>
</svg>
