<?xml version="1.0" encoding="UTF-8" standalone="no"?>
<!DOCTYPE svg PUBLIC "-//W3C//DTD SVG 1.1//EN"
 "http://www.w3.org/Graphics/SVG/1.1/DTD/svg11.dtd">
<!-- Generated by graphviz version 2.29.20110702.0445 (20110702.0445)
 -->
<!-- Title: deathProcess Pages: 1 -->
<svg width="814pt" height="369pt"
 viewBox="0.00 0.00 814.00 369.00" xmlns="http://www.w3.org/2000/svg" xmlns:xlink="http://www.w3.org/1999/xlink">
<g id="graph1" class="graph" transform="scale(1 1) rotate(0) translate(4 365)">
<title>deathProcess</title>
<polygon fill="white" stroke="white" points="-4,5 -4,-365 811,-365 811,5 -4,5"/>
<g id="graph2" class="cluster"><title>clustercontextKey</title>
<polygon fill="ghostwhite" stroke="white" points="8,-299 8,-353 96,-353 96,-299 8,-299"/>
<text text-anchor="middle" x="52.1792" y="-335" font-family="Helvetica,sans-Serif" font-size="14.00">Parameters</text>
</g>
<g id="graph3" class="cluster"><title>clusterindividualKey</title>
<polygon fill="ghostwhite" stroke="white" points="104,-299 104,-353 179,-353 179,-299 104,-299"/>
<text text-anchor="middle" x="141.576" y="-335" font-family="Helvetica,sans-Serif" font-size="14.00">Individual</text>
</g>
<!-- contextOverview -->
<g id="node2" class="node"><title>contextOverview</title>
<ellipse fill="black" stroke="black" cx="52" cy="-314" rx="7.2" ry="7.2"/>
</g>
<!-- deathProcessOverview -->
<g id="node4" class="node"><title>deathProcessOverview</title>
<a xlink:href="individual__Overview.svg">
<ellipse fill="#cc5014" stroke="#cc5014" cx="140" cy="-314" rx="7.2" ry="7.2"/>
</a>
</g>
<!-- watchTBStatus -->
<g id="node5" class="node"><title>watchTBStatus</title>
<a xlink:href="individual_watchTBStatus.svg" xlink:title="Watch TB Status">
<polygon fill="#feccff" stroke="#feccff" points="403.207,-252 306.793,-252 294.793,-240 294.793,-228 306.793,-216 403.207,-216 415.207,-228 415.207,-240 403.207,-252"/>
<path fill="#feccff" stroke="#feccff" d="M306.793,-252C300.793,-252 294.793,-246 294.793,-240"/>
<path fill="#feccff" stroke="#feccff" d="M294.793,-228C294.793,-222 300.793,-216 306.793,-216"/>
<path fill="#feccff" stroke="#feccff" d="M403.207,-216C409.207,-216 415.207,-222 415.207,-228"/>
<path fill="#feccff" stroke="#feccff" d="M415.207,-240C415.207,-246 409.207,-252 403.207,-252"/>
<polyline fill="none" stroke="black" points="403.207,-252 306.793,-252 "/>
<path fill="none" stroke="black" d="M306.793,-252C300.793,-252 294.793,-246 294.793,-240"/>
<polyline fill="none" stroke="black" points="294.793,-240 294.793,-228 "/>
<path fill="none" stroke="black" d="M294.793,-228C294.793,-222 300.793,-216 306.793,-216"/>
<polyline fill="none" stroke="black" points="306.793,-216 403.207,-216 "/>
<path fill="none" stroke="black" d="M403.207,-216C409.207,-216 415.207,-222 415.207,-228"/>
<polyline fill="none" stroke="black" points="415.207,-228 415.207,-240 "/>
<path fill="none" stroke="black" d="M415.207,-240C415.207,-246 409.207,-252 403.207,-252"/>
<text text-anchor="middle" x="355" y="-228.4" font-family="Helvetica,sans-Serif" font-size="14.00">Watch TB Status</text>
</a>
</g>
<!-- individualtBStatusRecord -->
<g id="node6" class="node"><title>individualtBStatusRecord</title>
<polygon fill="white" stroke="none" points="313.204,-289.2 313.204,-338.8 416.796,-338.8 416.796,-289.2 313.204,-289.2"/>
<text text-anchor="middle" x="365" y="-320.8" font-family="Helvetica,sans-Serif" font-size="14.00">TB Status</text>
<polyline fill="none" stroke="none" points="313.204,-314 416.796,-314 "/>
<text text-anchor="middle" x="340.266" y="-296" font-family="Helvetica,sans-Serif" font-size="14.00">Active</text>
<polyline fill="none" stroke="none" points="367.328,-289.2 367.328,-314 "/>
<text text-anchor="middle" x="392.062" y="-296" font-family="Helvetica,sans-Serif" font-size="14.00">Dead</text>
</g>
<!-- individualtBStatusRecord&#45;&gt;watchTBStatus -->
<g id="edge4" class="edge"><title>individualtBStatusRecord:individualtBStatus&#45;&gt;watchTBStatus</title>
<path fill="none" stroke="#cb14cc" stroke-width="2" d="M312,-326C295.105,-326 307.235,-303.881 313,-288 316.666,-277.902 323.076,-268.252 329.802,-260.02"/>
<polygon fill="#cb14cc" stroke="#cb14cc" points="336.542,-252.295 333.358,-262.789 333.631,-256.392 330.344,-260.159 329.967,-259.83 329.59,-259.501 332.878,-255.734 326.576,-256.871 336.542,-252.295 336.542,-252.295"/>
</g>
<!-- tBStatusIdenticalActiveQueryCopy -->
<g id="node12" class="node"><title>tBStatusIdenticalActiveQueryCopy</title>
<polygon fill="#ffdccc" stroke="#ffdccc" points="265,-252 235,-252 223,-240 223,-228 235,-216 265,-216 277,-228 277,-240 265,-252"/>
<path fill="#ffdccc" stroke="#ffdccc" d="M235,-252C229,-252 223,-246 223,-240"/>
<path fill="#ffdccc" stroke="#ffdccc" d="M223,-228C223,-222 229,-216 235,-216"/>
<path fill="#ffdccc" stroke="#ffdccc" d="M265,-216C271,-216 277,-222 277,-228"/>
<path fill="#ffdccc" stroke="#ffdccc" d="M277,-240C277,-246 271,-252 265,-252"/>
<polyline fill="none" stroke="#ffdccc" points="265,-252 235,-252 "/>
<path fill="none" stroke="#ffdccc" d="M235,-252C229,-252 223,-246 223,-240"/>
<polyline fill="none" stroke="#ffdccc" points="223,-240 223,-228 "/>
<path fill="none" stroke="#ffdccc" d="M223,-228C223,-222 229,-216 235,-216"/>
<polyline fill="none" stroke="#ffdccc" points="235,-216 265,-216 "/>
<path fill="none" stroke="#ffdccc" d="M265,-216C271,-216 277,-222 277,-228"/>
<polyline fill="none" stroke="#ffdccc" points="277,-228 277,-240 "/>
<path fill="none" stroke="#ffdccc" d="M277,-240C277,-246 271,-252 265,-252"/>
<text text-anchor="middle" x="250" y="-228.4" font-family="Helvetica,sans-Serif" font-size="14.00">Is?</text>
</g>
<!-- individualtBStatusRecord&#45;&gt;tBStatusIdenticalActiveQueryCopy -->
<g id="edge20" class="edge"><title>individualtBStatusRecord:individualtBStatusactive&#45;&gt;tBStatusIdenticalActiveQueryCopy:ne</title>
<path fill="none" stroke="#cc5014" stroke-width="2" stroke-dasharray="1,5" d="M312,-302C304.603,-302 307.601,-293.792 303,-288 290.963,-272.848 285.348,-268.769 273.779,-257.663"/>
<ellipse fill="#cc5014" stroke="#cc5014" cx="270.857" cy="-254.799" rx="4.00002" ry="4.00002"/>
</g>
<!-- tBmodelperiodsinYear -->
<g id="node8" class="node"><title>tBmodelperiodsinYear</title>
<polygon fill="white" stroke="white" points="806.25,-180 695.75,-180 695.75,-144 806.25,-144 806.25,-180"/>
<text text-anchor="start" x="704" y="-156.5" font-family="Helvetica,sans-Serif" font-size="14.00">Periods in Year</text>
</g>
<!-- tBActiveDeathRateperYearDividePeriodsinYear -->
<g id="node15" class="node"><title>tBActiveDeathRateperYearDividePeriodsinYear</title>
<polygon fill="#ffdccc" stroke="#ffdccc" points="513.178,-108 482.822,-108 470.822,-96 470.822,-84 482.822,-72 513.178,-72 525.178,-84 525.178,-96 513.178,-108"/>
<path fill="#ffdccc" stroke="#ffdccc" d="M482.822,-108C476.822,-108 470.822,-102 470.822,-96"/>
<path fill="#ffdccc" stroke="#ffdccc" d="M470.822,-84C470.822,-78 476.822,-72 482.822,-72"/>
<path fill="#ffdccc" stroke="#ffdccc" d="M513.178,-72C519.178,-72 525.178,-78 525.178,-84"/>
<path fill="#ffdccc" stroke="#ffdccc" d="M525.178,-96C525.178,-102 519.178,-108 513.178,-108"/>
<polyline fill="none" stroke="#ffdccc" points="513.178,-108 482.822,-108 "/>
<path fill="none" stroke="#ffdccc" d="M482.822,-108C476.822,-108 470.822,-102 470.822,-96"/>
<polyline fill="none" stroke="#ffdccc" points="470.822,-96 470.822,-84 "/>
<path fill="none" stroke="#ffdccc" d="M470.822,-84C470.822,-78 476.822,-72 482.822,-72"/>
<polyline fill="none" stroke="#ffdccc" points="482.822,-72 513.178,-72 "/>
<path fill="none" stroke="#ffdccc" d="M513.178,-72C519.178,-72 525.178,-78 525.178,-84"/>
<polyline fill="none" stroke="#ffdccc" points="525.178,-84 525.178,-96 "/>
<path fill="none" stroke="#ffdccc" d="M525.178,-96C525.178,-102 519.178,-108 513.178,-108"/>
<text text-anchor="middle" x="498" y="-84.4" font-family="Helvetica,sans-Serif" font-size="14.00">Divide</text>
</g>
<!-- tBmodelperiodsinYear&#45;&gt;tBActiveDeathRateperYearDividePeriodsinYear -->
<g id="edge24" class="edge"><title>tBmodelperiodsinYear&#45;&gt;tBActiveDeathRateperYearDividePeriodsinYear:ne</title>
<path fill="none" stroke="black" stroke-width="2" stroke-dasharray="1,5" d="M695.726,-146.354C692.439,-145.542 689.178,-144.752 686,-144 613.631,-126.884 573.645,-159.985 522.023,-113.711"/>
<ellipse fill="black" stroke="black" cx="518.903" cy="-110.752" rx="4.00002" ry="4.00002"/>
</g>
<!-- tBmodeltBActiveDeathRateperYear -->
<g id="node9" class="node"><title>tBmodeltBActiveDeathRateperYear</title>
<polygon fill="white" stroke="white" points="677,-180 471,-180 471,-144 677,-144 677,-180"/>
<text text-anchor="start" x="479.5" y="-156.5" font-family="Helvetica,sans-Serif" font-size="14.00">TB Active Death Rate per Year</text>
</g>
<!-- tBmodeltBActiveDeathRateperYear&#45;&gt;tBActiveDeathRateperYearDividePeriodsinYear -->
<g id="edge22" class="edge"><title>tBmodeltBActiveDeathRateperYear&#45;&gt;tBActiveDeathRateperYearDividePeriodsinYear:nw</title>
<path fill="none" stroke="black" stroke-width="2" stroke-dasharray="1,5" d="M505.071,-143.993C485.202,-136.469 470.088,-126.562 475.324,-114.502"/>
<ellipse fill="black" stroke="black" cx="477.665" cy="-111.248" rx="4.00002" ry="4.00002"/>
</g>
<!-- deathProcess -->
<g id="node10" class="node"><title>deathProcess</title>
<a xlink:href="individual_deathProcess.svg" xlink:title="Death Process">
<polygon fill="#ffdccc" stroke="#ffdccc" points="282.366,-332 199.634,-332 187.634,-320 187.634,-308 199.634,-296 282.366,-296 294.366,-308 294.366,-320 282.366,-332"/>
<path fill="#ffdccc" stroke="#ffdccc" d="M199.634,-332C193.634,-332 187.634,-326 187.634,-320"/>
<path fill="#ffdccc" stroke="#ffdccc" d="M187.634,-308C187.634,-302 193.634,-296 199.634,-296"/>
<path fill="#ffdccc" stroke="#ffdccc" d="M282.366,-296C288.366,-296 294.366,-302 294.366,-308"/>
<path fill="#ffdccc" stroke="#ffdccc" d="M294.366,-320C294.366,-326 288.366,-332 282.366,-332"/>
<polyline fill="none" stroke="black" points="282.366,-332 199.634,-332 "/>
<path fill="none" stroke="black" d="M199.634,-332C193.634,-332 187.634,-326 187.634,-320"/>
<polyline fill="none" stroke="black" points="187.634,-320 187.634,-308 "/>
<path fill="none" stroke="black" d="M187.634,-308C187.634,-302 193.634,-296 199.634,-296"/>
<polyline fill="none" stroke="black" points="199.634,-296 282.366,-296 "/>
<path fill="none" stroke="black" d="M282.366,-296C288.366,-296 294.366,-302 294.366,-308"/>
<polyline fill="none" stroke="black" points="294.366,-308 294.366,-320 "/>
<path fill="none" stroke="black" d="M294.366,-320C294.366,-326 288.366,-332 282.366,-332"/>
<text text-anchor="middle" x="241" y="-308.4" font-family="Helvetica,sans-Serif" font-size="14.00">Death Process</text>
</a>
</g>
<!-- deathProcess&#45;&gt;tBStatusIdenticalActiveQueryCopy -->
<g id="edge6" class="edge"><title>deathProcess&#45;&gt;tBStatusIdenticalActiveQueryCopy</title>
<path fill="none" stroke="#cc5014" stroke-width="3" d="M242.997,-295.689C243.801,-288.721 244.762,-280.399 245.709,-272.185"/>
<polygon fill="#cc5014" stroke="#cc5014" points="252.669,-272.933 248.008,-252.262 238.762,-271.328 252.669,-272.933"/>
</g>
<!-- randomUnit -->
<g id="node13" class="node"><title>randomUnit</title>
<polygon fill="#ffdccc" stroke="#ffdccc" points="402.279,-180 329.721,-180 317.721,-168 317.721,-156 329.721,-144 402.279,-144 414.279,-156 414.279,-168 402.279,-180"/>
<path fill="#ffdccc" stroke="#ffdccc" d="M329.721,-180C323.721,-180 317.721,-174 317.721,-168"/>
<path fill="#ffdccc" stroke="#ffdccc" d="M317.721,-156C317.721,-150 323.721,-144 329.721,-144"/>
<path fill="#ffdccc" stroke="#ffdccc" d="M402.279,-144C408.279,-144 414.279,-150 414.279,-156"/>
<path fill="#ffdccc" stroke="#ffdccc" d="M414.279,-168C414.279,-174 408.279,-180 402.279,-180"/>
<polyline fill="none" stroke="#ffdccc" points="402.279,-180 329.721,-180 "/>
<path fill="none" stroke="#ffdccc" d="M329.721,-180C323.721,-180 317.721,-174 317.721,-168"/>
<polyline fill="none" stroke="#ffdccc" points="317.721,-168 317.721,-156 "/>
<path fill="none" stroke="#ffdccc" d="M317.721,-156C317.721,-150 323.721,-144 329.721,-144"/>
<polyline fill="none" stroke="#ffdccc" points="329.721,-144 402.279,-144 "/>
<path fill="none" stroke="#ffdccc" d="M402.279,-144C408.279,-144 414.279,-150 414.279,-156"/>
<polyline fill="none" stroke="#ffdccc" points="414.279,-156 414.279,-168 "/>
<path fill="none" stroke="#ffdccc" d="M414.279,-168C414.279,-174 408.279,-180 402.279,-180"/>
<text text-anchor="middle" x="366" y="-156.4" font-family="Helvetica,sans-Serif" font-size="14.00">Random Unit</text>
</g>
<!-- tBStatusIdenticalActiveQueryCopy&#45;&gt;randomUnit -->
<g id="edge12" class="edge"><title>tBStatusIdenticalActiveQueryCopy&#45;&gt;randomUnit</title>
<path fill="none" stroke="#cc5014" stroke-width="3" d="M277.197,-216.588C290.004,-208.86 305.634,-199.428 320.191,-190.644"/>
<polygon fill="#cc5014" stroke="#cc5014" points="324.255,-196.367 337.762,-180.04 317.022,-184.38 324.255,-196.367"/>
</g>
<!-- randomUnit&#45;&gt;tBActiveDeathRateperYearDividePeriodsinYear -->
<g id="edge8" class="edge"><title>randomUnit&#45;&gt;tBActiveDeathRateperYearDividePeriodsinYear</title>
<path fill="none" stroke="#cc5014" stroke-width="3" d="M398.291,-143.876C414.632,-135.21 434.742,-124.546 452.612,-115.07"/>
<polygon fill="#cc5014" stroke="#cc5014" points="456.113,-121.136 470.503,-105.582 449.554,-108.768 456.113,-121.136"/>
</g>
<!-- randomUnitLesserTBActiveDeathRateperYearDividePeriodsinYearQuery -->
<g id="node16" class="node"><title>randomUnitLesserTBActiveDeathRateperYearDividePeriodsinYearQuery</title>
<polygon fill="#ffdccc" stroke="#ffdccc" points="481.357,-36 440.643,-36 428.643,-24 428.643,-12 440.643,-0 481.357,-0 493.357,-12 493.357,-24 481.357,-36"/>
<path fill="#ffdccc" stroke="#ffdccc" d="M440.643,-36C434.643,-36 428.643,-30 428.643,-24"/>
<path fill="#ffdccc" stroke="#ffdccc" d="M428.643,-12C428.643,-6 434.643,-0 440.643,-0"/>
<path fill="#ffdccc" stroke="#ffdccc" d="M481.357,-0C487.357,-0 493.357,-6 493.357,-12"/>
<path fill="#ffdccc" stroke="#ffdccc" d="M493.357,-24C493.357,-30 487.357,-36 481.357,-36"/>
<polyline fill="none" stroke="#ffdccc" points="481.357,-36 440.643,-36 "/>
<path fill="none" stroke="#ffdccc" d="M440.643,-36C434.643,-36 428.643,-30 428.643,-24"/>
<polyline fill="none" stroke="#ffdccc" points="428.643,-24 428.643,-12 "/>
<path fill="none" stroke="#ffdccc" d="M428.643,-12C428.643,-6 434.643,-0 440.643,-0"/>
<polyline fill="none" stroke="#ffdccc" points="440.643,-0 481.357,-0 "/>
<path fill="none" stroke="#ffdccc" d="M481.357,-0C487.357,-0 493.357,-6 493.357,-12"/>
<polyline fill="none" stroke="#ffdccc" points="493.357,-12 493.357,-24 "/>
<path fill="none" stroke="#ffdccc" d="M493.357,-24C493.357,-30 487.357,-36 481.357,-36"/>
<text text-anchor="middle" x="461" y="-12.4" font-family="Helvetica,sans-Serif" font-size="14.00">Lesser?</text>
</g>
<!-- randomUnit&#45;&gt;randomUnitLesserTBActiveDeathRateperYearDividePeriodsinYearQuery -->
<g id="edge16" class="edge"><title>randomUnit&#45;&gt;randomUnitLesserTBActiveDeathRateperYearDividePeriodsinYearQuery:nw</title>
<path fill="none" stroke="blue" stroke-width="2" stroke-dasharray="1,5" d="M373.36,-143.927C384.429,-119.653 407.305,-74.5031 437.315,-41.9282"/>
<ellipse fill="blue" stroke="blue" cx="440.231" cy="-38.887" rx="4.00002" ry="4.00002"/>
</g>
<!-- tBActiveDeathRateperYearDividePeriodsinYear&#45;&gt;randomUnitLesserTBActiveDeathRateperYearDividePeriodsinYearQuery -->
<g id="edge14" class="edge"><title>tBActiveDeathRateperYearDividePeriodsinYear&#45;&gt;randomUnitLesserTBActiveDeathRateperYearDividePeriodsinYearQuery</title>
<path fill="none" stroke="#cc5014" stroke-width="3" d="M488.854,-71.6966C485.986,-66.2715 482.712,-60.0765 479.44,-53.8862"/>
<polygon fill="#cc5014" stroke="#cc5014" points="485.576,-50.5151 470.041,-36.1043 473.198,-57.0574 485.576,-50.5151"/>
</g>
<!-- tBActiveDeathRateperYearDividePeriodsinYear&#45;&gt;randomUnitLesserTBActiveDeathRateperYearDividePeriodsinYearQuery -->
<g id="edge18" class="edge"><title>tBActiveDeathRateperYearDividePeriodsinYear&#45;&gt;randomUnitLesserTBActiveDeathRateperYearDividePeriodsinYearQuery:ne</title>
<path fill="none" stroke="blue" stroke-width="2" stroke-dasharray="1,5" d="M495.691,-71.6788C493.797,-62.5271 490.38,-51.3615 484.243,-42.3764"/>
<ellipse fill="blue" stroke="blue" cx="481.54" cy="-39.0897" rx="4.00002" ry="4.00002"/>
</g>
<!-- randomUnitLesserTBActiveDeathRateperYearDividePeriodsinYearQuery&#45;&gt;individualtBStatusRecord -->
<g id="edge10" class="edge"><title>randomUnitLesserTBActiveDeathRateperYearDividePeriodsinYearQuery&#45;&gt;individualtBStatusRecord:individualtBStatusdead</title>
<path fill="none" stroke="#cc5014" stroke-width="3" d="M460.208,-36.2769C457.684,-87.2798 448.887,-236.701 430.515,-286.008"/>
<polygon fill="#cc5014" stroke="#cc5014" points="424.813,-281.936 418,-302 435.838,-290.564 424.813,-281.936"/>
</g>
</g>
</svg>
