<?xml version="1.0" encoding="UTF-8" standalone="no"?>
<!DOCTYPE svg PUBLIC "-//W3C//DTD SVG 1.1//EN"
 "http://www.w3.org/Graphics/SVG/1.1/DTD/svg11.dtd">
<!-- Generated by graphviz version 2.29.20110702.0445 (20110702.0445)
 -->
<!-- Title: deriveSuccesfulTreatments Pages: 1 -->
<svg width="539pt" height="225pt"
 viewBox="0.00 0.00 539.00 225.00" xmlns="http://www.w3.org/2000/svg" xmlns:xlink="http://www.w3.org/1999/xlink">
<g id="graph1" class="graph" transform="scale(1 1) rotate(0) translate(4 221)">
<title>deriveSuccesfulTreatments</title>
<polygon fill="white" stroke="white" points="-4,5 -4,-221 536,-221 536,5 -4,5"/>
<g id="graph2" class="cluster"><title>clustercontextKey</title>
<polygon fill="ghostwhite" stroke="white" points="8,-155 8,-209 96,-209 96,-155 8,-155"/>
<text text-anchor="middle" x="52.1792" y="-191" font-family="Helvetica,sans-Serif" font-size="14.00">Parameters</text>
</g>
<g id="graph3" class="cluster"><title>clusterindividualKey</title>
<polygon fill="ghostwhite" stroke="white" points="104,-155 104,-209 179,-209 179,-155 104,-155"/>
<text text-anchor="middle" x="141.576" y="-191" font-family="Helvetica,sans-Serif" font-size="14.00">Individual</text>
</g>
<!-- contextOverview -->
<g id="node2" class="node"><title>contextOverview</title>
<ellipse fill="black" stroke="black" cx="52" cy="-170" rx="7.2" ry="7.2"/>
</g>
<!-- deriveSuccesfulTreatmentsOverview -->
<g id="node4" class="node"><title>deriveSuccesfulTreatmentsOverview</title>
<a xlink:href="individual__Overview.svg">
<ellipse fill="#52cc14" stroke="#52cc14" cx="140" cy="-170" rx="7.2" ry="7.2"/>
</a>
</g>
<!-- individualtBStatusRecord -->
<g id="node5" class="node"><title>individualtBStatusRecord</title>
<polygon fill="white" stroke="none" points="403.311,-145.2 403.311,-194.8 484.689,-194.8 484.689,-145.2 403.311,-145.2"/>
<text text-anchor="middle" x="444" y="-176.8" font-family="Helvetica,sans-Serif" font-size="14.00">TB Status</text>
<polyline fill="none" stroke="none" points="403.311,-170 484.689,-170 "/>
<text text-anchor="middle" x="444" y="-152" font-family="Helvetica,sans-Serif" font-size="14.00">Suseptible</text>
</g>
<!-- tBStatusDifferentSuseptibleQuery -->
<g id="node9" class="node"><title>tBStatusDifferentSuseptibleQuery</title>
<polygon fill="#ddffcc" stroke="#ddffcc" points="447.264,-108 410.736,-108 398.736,-96 398.736,-84 410.736,-72 447.264,-72 459.264,-84 459.264,-96 447.264,-108"/>
<path fill="#ddffcc" stroke="#ddffcc" d="M410.736,-108C404.736,-108 398.736,-102 398.736,-96"/>
<path fill="#ddffcc" stroke="#ddffcc" d="M398.736,-84C398.736,-78 404.736,-72 410.736,-72"/>
<path fill="#ddffcc" stroke="#ddffcc" d="M447.264,-72C453.264,-72 459.264,-78 459.264,-84"/>
<path fill="#ddffcc" stroke="#ddffcc" d="M459.264,-96C459.264,-102 453.264,-108 447.264,-108"/>
<polyline fill="none" stroke="#ddffcc" points="447.264,-108 410.736,-108 "/>
<path fill="none" stroke="#ddffcc" d="M410.736,-108C404.736,-108 398.736,-102 398.736,-96"/>
<polyline fill="none" stroke="#ddffcc" points="398.736,-96 398.736,-84 "/>
<path fill="none" stroke="#ddffcc" d="M398.736,-84C398.736,-78 404.736,-72 410.736,-72"/>
<polyline fill="none" stroke="#ddffcc" points="410.736,-72 447.264,-72 "/>
<path fill="none" stroke="#ddffcc" d="M447.264,-72C453.264,-72 459.264,-78 459.264,-84"/>
<polyline fill="none" stroke="#ddffcc" points="459.264,-84 459.264,-96 "/>
<path fill="none" stroke="#ddffcc" d="M459.264,-96C459.264,-102 453.264,-108 447.264,-108"/>
<text text-anchor="middle" x="429" y="-84.4" font-family="Helvetica,sans-Serif" font-size="14.00">Is Not?</text>
</g>
<!-- individualtBStatusRecord&#45;&gt;tBStatusDifferentSuseptibleQuery -->
<g id="edge18" class="edge"><title>individualtBStatusRecord:individualtBStatussuseptible&#45;&gt;tBStatusDifferentSuseptibleQuery:ne</title>
<path fill="none" stroke="#52cc14" stroke-width="2" stroke-dasharray="1,5" d="M444,-144C444,-131.457 452.76,-123.469 451.179,-115.161"/>
<ellipse fill="#52cc14" stroke="#52cc14" cx="449.016" cy="-111.455" rx="4.00002" ry="4.00002"/>
</g>
<!-- tBStatusIdenticalSuseptibleQueryCopyCopy -->
<g id="node11" class="node"><title>tBStatusIdenticalSuseptibleQueryCopyCopy</title>
<polygon fill="#ddffcc" stroke="#ddffcc" points="297,-108 267,-108 255,-96 255,-84 267,-72 297,-72 309,-84 309,-96 297,-108"/>
<path fill="#ddffcc" stroke="#ddffcc" d="M267,-108C261,-108 255,-102 255,-96"/>
<path fill="#ddffcc" stroke="#ddffcc" d="M255,-84C255,-78 261,-72 267,-72"/>
<path fill="#ddffcc" stroke="#ddffcc" d="M297,-72C303,-72 309,-78 309,-84"/>
<path fill="#ddffcc" stroke="#ddffcc" d="M309,-96C309,-102 303,-108 297,-108"/>
<polyline fill="none" stroke="#ddffcc" points="297,-108 267,-108 "/>
<path fill="none" stroke="#ddffcc" d="M267,-108C261,-108 255,-102 255,-96"/>
<polyline fill="none" stroke="#ddffcc" points="255,-96 255,-84 "/>
<path fill="none" stroke="#ddffcc" d="M255,-84C255,-78 261,-72 267,-72"/>
<polyline fill="none" stroke="#ddffcc" points="267,-72 297,-72 "/>
<path fill="none" stroke="#ddffcc" d="M297,-72C303,-72 309,-78 309,-84"/>
<polyline fill="none" stroke="#ddffcc" points="309,-84 309,-96 "/>
<path fill="none" stroke="#ddffcc" d="M309,-96C309,-102 303,-108 297,-108"/>
<text text-anchor="middle" x="282" y="-84.4" font-family="Helvetica,sans-Serif" font-size="14.00">Is?</text>
</g>
<!-- individualtBStatusRecord&#45;&gt;tBStatusIdenticalSuseptibleQueryCopyCopy -->
<g id="edge16" class="edge"><title>individualtBStatusRecord:individualtBStatussuseptible&#45;&gt;tBStatusIdenticalSuseptibleQueryCopyCopy:ne</title>
<path fill="none" stroke="#52cc14" stroke-width="2" stroke-dasharray="1,5" d="M402,-158C393.805,-158 396.663,-148.771 390,-144 357.297,-120.587 333.764,-136.064 305.995,-113.435"/>
<ellipse fill="#52cc14" stroke="#52cc14" cx="302.963" cy="-110.687" rx="4.00002" ry="4.00002"/>
</g>
<!-- individualtBInfectionsPerLifetime -->
<g id="node6" class="node"><title>individualtBInfectionsPerLifetime</title>
<polygon fill="white" stroke="white" points="237.217,-108 60.7831,-108 60.7831,-72 237.217,-72 237.217,-108"/>
<text text-anchor="middle" x="149" y="-84.4" font-family="Helvetica,sans-Serif" font-size="14.00">TB Infections Per Lifetime</text>
</g>
<!-- tBInfectionsPerLifetimeSubtractUnit -->
<g id="node12" class="node"><title>tBInfectionsPerLifetimeSubtractUnit</title>
<polygon fill="#ddffcc" stroke="#ddffcc" points="451.103,-36 406.897,-36 394.897,-24 394.897,-12 406.897,-0 451.103,-0 463.103,-12 463.103,-24 451.103,-36"/>
<path fill="#ddffcc" stroke="#ddffcc" d="M406.897,-36C400.897,-36 394.897,-30 394.897,-24"/>
<path fill="#ddffcc" stroke="#ddffcc" d="M394.897,-12C394.897,-6 400.897,-0 406.897,-0"/>
<path fill="#ddffcc" stroke="#ddffcc" d="M451.103,-0C457.103,-0 463.103,-6 463.103,-12"/>
<path fill="#ddffcc" stroke="#ddffcc" d="M463.103,-24C463.103,-30 457.103,-36 451.103,-36"/>
<polyline fill="none" stroke="#ddffcc" points="451.103,-36 406.897,-36 "/>
<path fill="none" stroke="#ddffcc" d="M406.897,-36C400.897,-36 394.897,-30 394.897,-24"/>
<polyline fill="none" stroke="#ddffcc" points="394.897,-24 394.897,-12 "/>
<path fill="none" stroke="#ddffcc" d="M394.897,-12C394.897,-6 400.897,-0 406.897,-0"/>
<polyline fill="none" stroke="#ddffcc" points="406.897,-0 451.103,-0 "/>
<path fill="none" stroke="#ddffcc" d="M451.103,-0C457.103,-0 463.103,-6 463.103,-12"/>
<polyline fill="none" stroke="#ddffcc" points="463.103,-12 463.103,-24 "/>
<path fill="none" stroke="#ddffcc" d="M463.103,-24C463.103,-30 457.103,-36 451.103,-36"/>
<text text-anchor="middle" x="429" y="-12.4" font-family="Helvetica,sans-Serif" font-size="14.00">Subtract</text>
</g>
<!-- individualtBInfectionsPerLifetime&#45;&gt;tBInfectionsPerLifetimeSubtractUnit -->
<g id="edge12" class="edge"><title>individualtBInfectionsPerLifetime&#45;&gt;tBInfectionsPerLifetimeSubtractUnit:nw</title>
<path fill="none" stroke="#52cc14" stroke-width="2" stroke-dasharray="1,5" d="M237.268,-73.5362C300.503,-62.1368 378.686,-47.2814 403.44,-39.3131"/>
<ellipse fill="#52cc14" stroke="#52cc14" cx="407.336" cy="-37.6055" rx="4.00002" ry="4.00002"/>
</g>
<!-- tBInfectionsPerLifetimeSubtractZero -->
<g id="node14" class="node"><title>tBInfectionsPerLifetimeSubtractZero</title>
<polygon fill="#ddffcc" stroke="#ddffcc" points="304.103,-36 259.897,-36 247.897,-24 247.897,-12 259.897,-0 304.103,-0 316.103,-12 316.103,-24 304.103,-36"/>
<path fill="#ddffcc" stroke="#ddffcc" d="M259.897,-36C253.897,-36 247.897,-30 247.897,-24"/>
<path fill="#ddffcc" stroke="#ddffcc" d="M247.897,-12C247.897,-6 253.897,-0 259.897,-0"/>
<path fill="#ddffcc" stroke="#ddffcc" d="M304.103,-0C310.103,-0 316.103,-6 316.103,-12"/>
<path fill="#ddffcc" stroke="#ddffcc" d="M316.103,-24C316.103,-30 310.103,-36 304.103,-36"/>
<polyline fill="none" stroke="#ddffcc" points="304.103,-36 259.897,-36 "/>
<path fill="none" stroke="#ddffcc" d="M259.897,-36C253.897,-36 247.897,-30 247.897,-24"/>
<polyline fill="none" stroke="#ddffcc" points="247.897,-24 247.897,-12 "/>
<path fill="none" stroke="#ddffcc" d="M247.897,-12C247.897,-6 253.897,-0 259.897,-0"/>
<polyline fill="none" stroke="#ddffcc" points="259.897,-0 304.103,-0 "/>
<path fill="none" stroke="#ddffcc" d="M304.103,-0C310.103,-0 316.103,-6 316.103,-12"/>
<polyline fill="none" stroke="#ddffcc" points="316.103,-12 316.103,-24 "/>
<path fill="none" stroke="#ddffcc" d="M316.103,-24C316.103,-30 310.103,-36 304.103,-36"/>
<text text-anchor="middle" x="282" y="-12.4" font-family="Helvetica,sans-Serif" font-size="14.00">Subtract</text>
</g>
<!-- individualtBInfectionsPerLifetime&#45;&gt;tBInfectionsPerLifetimeSubtractZero -->
<g id="edge20" class="edge"><title>individualtBInfectionsPerLifetime&#45;&gt;tBInfectionsPerLifetimeSubtractZero:nw</title>
<path fill="none" stroke="#52cc14" stroke-width="2" stroke-dasharray="1,5" d="M205.974,-71.9922C223.712,-64.7522 242.576,-54.8842 257.741,-41.8041"/>
<ellipse fill="#52cc14" stroke="#52cc14" cx="261.067" cy="-38.7199" rx="4.00002" ry="4.00002"/>
</g>
<!-- deriveSuccesfulTreatments -->
<g id="node7" class="node"><title>deriveSuccesfulTreatments</title>
<a xlink:href="individual_deriveSuccesfulTreatments.svg" xlink:title="Derive Succesful Treatments">
<polygon fill="#ddffcc" stroke="#ddffcc" points="369.229,-188 198.771,-188 186.771,-176 186.771,-164 198.771,-152 369.229,-152 381.229,-164 381.229,-176 369.229,-188"/>
<path fill="#ddffcc" stroke="#ddffcc" d="M198.771,-188C192.771,-188 186.771,-182 186.771,-176"/>
<path fill="#ddffcc" stroke="#ddffcc" d="M186.771,-164C186.771,-158 192.771,-152 198.771,-152"/>
<path fill="#ddffcc" stroke="#ddffcc" d="M369.229,-152C375.229,-152 381.229,-158 381.229,-164"/>
<path fill="#ddffcc" stroke="#ddffcc" d="M381.229,-176C381.229,-182 375.229,-188 369.229,-188"/>
<polyline fill="none" stroke="black" points="369.229,-188 198.771,-188 "/>
<path fill="none" stroke="black" d="M198.771,-188C192.771,-188 186.771,-182 186.771,-176"/>
<polyline fill="none" stroke="black" points="186.771,-176 186.771,-164 "/>
<path fill="none" stroke="black" d="M186.771,-164C186.771,-158 192.771,-152 198.771,-152"/>
<polyline fill="none" stroke="black" points="198.771,-152 369.229,-152 "/>
<path fill="none" stroke="black" d="M369.229,-152C375.229,-152 381.229,-158 381.229,-164"/>
<polyline fill="none" stroke="black" points="381.229,-164 381.229,-176 "/>
<path fill="none" stroke="black" d="M381.229,-176C381.229,-182 375.229,-188 369.229,-188"/>
<text text-anchor="middle" x="284" y="-164.4" font-family="Helvetica,sans-Serif" font-size="14.00">Derive Succesful Treatments</text>
</a>
</g>
<!-- deriveSuccesfulTreatments&#45;&gt;tBStatusDifferentSuseptibleQuery -->
<g id="edge4" class="edge"><title>deriveSuccesfulTreatments&#45;&gt;tBStatusDifferentSuseptibleQuery</title>
<path fill="none" stroke="#52cc14" stroke-width="3" d="M315.821,-151.883C334.906,-141.616 359.553,-128.358 380.971,-116.836"/>
<polygon fill="#52cc14" stroke="#52cc14" points="384.444,-122.917 398.741,-107.277 377.812,-110.587 384.444,-122.917"/>
</g>
<!-- deriveSuccesfulTreatments&#45;&gt;tBStatusIdenticalSuseptibleQueryCopyCopy -->
<g id="edge6" class="edge"><title>deriveSuccesfulTreatments&#45;&gt;tBStatusIdenticalSuseptibleQueryCopyCopy</title>
<path fill="none" stroke="#52cc14" stroke-width="3" d="M283.556,-151.689C283.38,-144.822 283.17,-136.64 282.963,-128.542"/>
<polygon fill="#52cc14" stroke="#52cc14" points="289.953,-128.076 282.443,-108.262 275.958,-128.435 289.953,-128.076"/>
</g>
<!-- tBStatusDifferentSuseptibleQuery&#45;&gt;tBInfectionsPerLifetimeSubtractUnit -->
<g id="edge10" class="edge"><title>tBStatusDifferentSuseptibleQuery&#45;&gt;tBInfectionsPerLifetimeSubtractUnit</title>
<path fill="none" stroke="#52cc14" stroke-width="3" d="M429,-71.6966C429,-66.9496 429,-61.6132 429,-56.2063"/>
<polygon fill="#52cc14" stroke="#52cc14" points="436,-56.1043 429,-36.1043 422,-56.1044 436,-56.1043"/>
</g>
<!-- tBStatusIdenticalSuseptibleQueryCopyCopy&#45;&gt;tBInfectionsPerLifetimeSubtractZero -->
<g id="edge8" class="edge"><title>tBStatusIdenticalSuseptibleQueryCopyCopy&#45;&gt;tBInfectionsPerLifetimeSubtractZero</title>
<path fill="none" stroke="#52cc14" stroke-width="3" d="M282,-71.6966C282,-66.9496 282,-61.6132 282,-56.2063"/>
<polygon fill="#52cc14" stroke="#52cc14" points="289,-56.1043 282,-36.1043 275,-56.1044 289,-56.1043"/>
</g>
<!-- importxyxtBInfectionsPerLifetimeSubtractUnitfunctionsunit0 -->
<g id="node17" class="node"><title>importxyxtBInfectionsPerLifetimeSubtractUnitfunctionsunit0</title>
<text text-anchor="middle" x="504" y="-84.4" font-family="Helvetica,sans-Serif" font-size="14.00">1</text>
</g>
<!-- importxyxtBInfectionsPerLifetimeSubtractUnitfunctionsunit0&#45;&gt;tBInfectionsPerLifetimeSubtractUnit -->
<g id="edge14" class="edge"><title>importxyxtBInfectionsPerLifetimeSubtractUnitfunctionsunit0&#45;&gt;tBInfectionsPerLifetimeSubtractUnit:ne</title>
<path fill="none" stroke="black" stroke-width="2" stroke-dasharray="1,5" d="M484.934,-71.911C475.458,-63.2848 463.742,-52.4247 452.908,-41.8377"/>
<ellipse fill="black" stroke="black" cx="449.845" cy="-38.8114" rx="4.00002" ry="4.00002"/>
</g>
<!-- importxyxtBInfectionsPerLifetimeSubtractZerofunctionszero0 -->
<g id="node22" class="node"><title>importxyxtBInfectionsPerLifetimeSubtractZerofunctionszero0</title>
<text text-anchor="middle" x="354" y="-84.4" font-family="Helvetica,sans-Serif" font-size="14.00">0</text>
</g>
<!-- importxyxtBInfectionsPerLifetimeSubtractZerofunctionszero0&#45;&gt;tBInfectionsPerLifetimeSubtractZero -->
<g id="edge22" class="edge"><title>importxyxtBInfectionsPerLifetimeSubtractZerofunctionszero0&#45;&gt;tBInfectionsPerLifetimeSubtractZero:ne</title>
<path fill="none" stroke="black" stroke-width="2" stroke-dasharray="1,5" d="M336.408,-71.8966C327.467,-63.1699 316.291,-52.2107 305.764,-41.7457"/>
<ellipse fill="black" stroke="black" cx="302.833" cy="-38.824" rx="4.00002" ry="4.00002"/>
</g>
</g>
</svg>
