<?xml version="1.0" encoding="UTF-8" standalone="no"?>
<!DOCTYPE svg PUBLIC "-//W3C//DTD SVG 1.1//EN"
 "http://www.w3.org/Graphics/SVG/1.1/DTD/svg11.dtd">
<!-- Generated by graphviz version 2.29.20110702.0445 (20110702.0445)
 -->
<!-- Title: watchAgeIndex Pages: 1 -->
<svg width="791pt" height="537pt"
 viewBox="0.00 0.00 790.97 537.00" xmlns="http://www.w3.org/2000/svg" xmlns:xlink="http://www.w3.org/1999/xlink">
<g id="graph1" class="graph" transform="scale(1 1) rotate(0) translate(4 533)">
<title>watchAgeIndex</title>
<polygon fill="white" stroke="white" points="-4,5 -4,-533 787.966,-533 787.966,5 -4,5"/>
<g id="graph2" class="cluster"><title>clustercontextKey</title>
<polygon fill="ghostwhite" stroke="white" points="175,-467 175,-521 263,-521 263,-467 175,-467"/>
<text text-anchor="middle" x="219.179" y="-503" font-family="Helvetica,sans-Serif" font-size="14.00">Parameters</text>
</g>
<g id="graph3" class="cluster"><title>clusterindividualKey</title>
<polygon fill="ghostwhite" stroke="white" points="271,-467 271,-521 346,-521 346,-467 271,-467"/>
<text text-anchor="middle" x="308.576" y="-503" font-family="Helvetica,sans-Serif" font-size="14.00">Individual</text>
</g>
<!-- contextOverview -->
<g id="node2" class="node"><title>contextOverview</title>
<ellipse fill="black" stroke="black" cx="219" cy="-482" rx="7.2" ry="7.2"/>
</g>
<!-- watchAgeIndexOverview -->
<g id="node4" class="node"><title>watchAgeIndexOverview</title>
<a xlink:href="individual__Overview.svg">
<ellipse fill="#5114cc" stroke="#5114cc" cx="307" cy="-482" rx="7.2" ry="7.2"/>
</a>
</g>
<!-- individualgenderRecord -->
<g id="node5" class="node"><title>individualgenderRecord</title>
<polygon fill="white" stroke="none" points="486.486,-377.2 486.486,-426.8 595.514,-426.8 595.514,-377.2 486.486,-377.2"/>
<text text-anchor="middle" x="541" y="-408.8" font-family="Helvetica,sans-Serif" font-size="14.00">Gender</text>
<polyline fill="none" stroke="none" points="486.486,-402 595.514,-402 "/>
<text text-anchor="middle" x="517.828" y="-384" font-family="Helvetica,sans-Serif" font-size="14.00">Female</text>
<polyline fill="none" stroke="none" points="549.169,-377.2 549.169,-402 "/>
<text text-anchor="middle" x="572.341" y="-384" font-family="Helvetica,sans-Serif" font-size="14.00">Male</text>
</g>
<!-- genderIdenticalMaleQueryCopy -->
<g id="node16" class="node"><title>genderIdenticalMaleQueryCopy</title>
<polygon fill="#dcccff" stroke="#dcccff" points="362,-340 332,-340 320,-328 320,-316 332,-304 362,-304 374,-316 374,-328 362,-340"/>
<path fill="#dcccff" stroke="#dcccff" d="M332,-340C326,-340 320,-334 320,-328"/>
<path fill="#dcccff" stroke="#dcccff" d="M320,-316C320,-310 326,-304 332,-304"/>
<path fill="#dcccff" stroke="#dcccff" d="M362,-304C368,-304 374,-310 374,-316"/>
<path fill="#dcccff" stroke="#dcccff" d="M374,-328C374,-334 368,-340 362,-340"/>
<polyline fill="none" stroke="#dcccff" points="362,-340 332,-340 "/>
<path fill="none" stroke="#dcccff" d="M332,-340C326,-340 320,-334 320,-328"/>
<polyline fill="none" stroke="#dcccff" points="320,-328 320,-316 "/>
<path fill="none" stroke="#dcccff" d="M320,-316C320,-310 326,-304 332,-304"/>
<polyline fill="none" stroke="#dcccff" points="332,-304 362,-304 "/>
<path fill="none" stroke="#dcccff" d="M362,-304C368,-304 374,-310 374,-316"/>
<polyline fill="none" stroke="#dcccff" points="374,-316 374,-328 "/>
<path fill="none" stroke="#dcccff" d="M374,-328C374,-334 368,-340 362,-340"/>
<text text-anchor="middle" x="347" y="-316.4" font-family="Helvetica,sans-Serif" font-size="14.00">Is?</text>
</g>
<!-- individualgenderRecord&#45;&gt;genderIdenticalMaleQueryCopy -->
<g id="edge28" class="edge"><title>individualgenderRecord:individualgendermale&#45;&gt;genderIdenticalMaleQueryCopy:ne</title>
<path fill="none" stroke="#5114cc" stroke-width="2" stroke-dasharray="1,5" d="M572,-376C572,-331.863 416.524,-368.505 371.63,-344.756"/>
<ellipse fill="#5114cc" stroke="#5114cc" cx="368.25" cy="-342.331" rx="4.00002" ry="4.00002"/>
</g>
<!-- genderIdenticalMale -->
<g id="node23" class="node"><title>genderIdenticalMale</title>
<polygon fill="#dcccff" stroke="#dcccff" points="752,-268 722,-268 710,-256 710,-244 722,-232 752,-232 764,-244 764,-256 752,-268"/>
<path fill="#dcccff" stroke="#dcccff" d="M722,-268C716,-268 710,-262 710,-256"/>
<path fill="#dcccff" stroke="#dcccff" d="M710,-244C710,-238 716,-232 722,-232"/>
<path fill="#dcccff" stroke="#dcccff" d="M752,-232C758,-232 764,-238 764,-244"/>
<path fill="#dcccff" stroke="#dcccff" d="M764,-256C764,-262 758,-268 752,-268"/>
<polyline fill="none" stroke="#dcccff" points="752,-268 722,-268 "/>
<path fill="none" stroke="#dcccff" d="M722,-268C716,-268 710,-262 710,-256"/>
<polyline fill="none" stroke="#dcccff" points="710,-256 710,-244 "/>
<path fill="none" stroke="#dcccff" d="M710,-244C710,-238 716,-232 722,-232"/>
<polyline fill="none" stroke="#dcccff" points="722,-232 752,-232 "/>
<path fill="none" stroke="#dcccff" d="M752,-232C758,-232 764,-238 764,-244"/>
<polyline fill="none" stroke="#dcccff" points="764,-244 764,-256 "/>
<path fill="none" stroke="#dcccff" d="M764,-256C764,-262 758,-268 752,-268"/>
<text text-anchor="middle" x="737" y="-244.4" font-family="Helvetica,sans-Serif" font-size="14.00">Is?</text>
</g>
<!-- individualgenderRecord&#45;&gt;genderIdenticalMale -->
<g id="edge34" class="edge"><title>individualgenderRecord:individualgendermale&#45;&gt;genderIdenticalMale:ne</title>
<path fill="none" stroke="#5114cc" stroke-width="2" stroke-dasharray="1,5" d="M597,-390C682.774,-390 809.016,-334.605 760.614,-274.235"/>
<ellipse fill="#5114cc" stroke="#5114cc" cx="757.676" cy="-270.973" rx="4.00002" ry="4.00002"/>
</g>
<!-- genderIdenticalFemaleQueryCopy -->
<g id="node30" class="node"><title>genderIdenticalFemaleQueryCopy</title>
<polygon fill="#dcccff" stroke="#dcccff" points="428,-268 398,-268 386,-256 386,-244 398,-232 428,-232 440,-244 440,-256 428,-268"/>
<path fill="#dcccff" stroke="#dcccff" d="M398,-268C392,-268 386,-262 386,-256"/>
<path fill="#dcccff" stroke="#dcccff" d="M386,-244C386,-238 392,-232 398,-232"/>
<path fill="#dcccff" stroke="#dcccff" d="M428,-232C434,-232 440,-238 440,-244"/>
<path fill="#dcccff" stroke="#dcccff" d="M440,-256C440,-262 434,-268 428,-268"/>
<polyline fill="none" stroke="#dcccff" points="428,-268 398,-268 "/>
<path fill="none" stroke="#dcccff" d="M398,-268C392,-268 386,-262 386,-256"/>
<polyline fill="none" stroke="#dcccff" points="386,-256 386,-244 "/>
<path fill="none" stroke="#dcccff" d="M386,-244C386,-238 392,-232 398,-232"/>
<polyline fill="none" stroke="#dcccff" points="398,-232 428,-232 "/>
<path fill="none" stroke="#dcccff" d="M428,-232C434,-232 440,-238 440,-244"/>
<polyline fill="none" stroke="#dcccff" points="440,-244 440,-256 "/>
<path fill="none" stroke="#dcccff" d="M440,-256C440,-262 434,-268 428,-268"/>
<text text-anchor="middle" x="413" y="-244.4" font-family="Helvetica,sans-Serif" font-size="14.00">Is?</text>
</g>
<!-- individualgenderRecord&#45;&gt;genderIdenticalFemaleQueryCopy -->
<g id="edge44" class="edge"><title>individualgenderRecord:individualgenderfemale&#45;&gt;genderIdenticalFemaleQueryCopy:ne</title>
<path fill="none" stroke="#5114cc" stroke-width="2" stroke-dasharray="1,5" d="M518,-376C518,-342.788 518.737,-329.942 498,-304 478.707,-279.864 458.676,-289.745 437.121,-273.366"/>
<ellipse fill="#5114cc" stroke="#5114cc" cx="434.008" cy="-270.637" rx="4.00002" ry="4.00002"/>
</g>
<!-- individualsmokingRecord -->
<g id="node6" class="node"><title>individualsmokingRecord</title>
<polygon fill="white" stroke="none" points="202.766,-1.2 202.766,-50.8 273.234,-50.8 273.234,-1.2 202.766,-1.2"/>
<text text-anchor="middle" x="238" y="-32.8" font-family="Helvetica,sans-Serif" font-size="14.00">Smoking</text>
<polyline fill="none" stroke="none" points="202.766,-26 273.234,-26 "/>
<text text-anchor="middle" x="237.883" y="-8" font-family="Helvetica,sans-Serif" font-size="14.00">Smoker</text>
</g>
<!-- individualhIVStatusRecord -->
<g id="node7" class="node"><title>individualhIVStatusRecord</title>
<polygon fill="white" stroke="none" points="600.876,-1.2 600.876,-50.8 693.124,-50.8 693.124,-1.2 600.876,-1.2"/>
<text text-anchor="middle" x="647" y="-32.8" font-family="Helvetica,sans-Serif" font-size="14.00">HIV Status</text>
<polyline fill="none" stroke="none" points="600.876,-26 693.124,-26 "/>
<text text-anchor="middle" x="647" y="-8" font-family="Helvetica,sans-Serif" font-size="14.00">HIV Positive</text>
</g>
<!-- individualageIndex -->
<g id="node8" class="node"><title>individualageIndex</title>
<polygon fill="white" stroke="white" points="433.286,-500 354.714,-500 354.714,-464 433.286,-464 433.286,-500"/>
<text text-anchor="middle" x="394" y="-476.4" font-family="Helvetica,sans-Serif" font-size="14.00">Age Index</text>
</g>
<!-- watchAgeIndex -->
<g id="node11" class="node"><title>watchAgeIndex</title>
<a xlink:href="individual_watchAgeIndex.svg" xlink:title="Watch Age Index">
<polygon fill="#dcccff" stroke="#dcccff" points="442.501,-420 345.499,-420 333.499,-408 333.499,-396 345.499,-384 442.501,-384 454.501,-396 454.501,-408 442.501,-420"/>
<path fill="#dcccff" stroke="#dcccff" d="M345.499,-420C339.499,-420 333.499,-414 333.499,-408"/>
<path fill="#dcccff" stroke="#dcccff" d="M333.499,-396C333.499,-390 339.499,-384 345.499,-384"/>
<path fill="#dcccff" stroke="#dcccff" d="M442.501,-384C448.501,-384 454.501,-390 454.501,-396"/>
<path fill="#dcccff" stroke="#dcccff" d="M454.501,-408C454.501,-414 448.501,-420 442.501,-420"/>
<polyline fill="none" stroke="black" points="442.501,-420 345.499,-420 "/>
<path fill="none" stroke="black" d="M345.499,-420C339.499,-420 333.499,-414 333.499,-408"/>
<polyline fill="none" stroke="black" points="333.499,-408 333.499,-396 "/>
<path fill="none" stroke="black" d="M333.499,-396C333.499,-390 339.499,-384 345.499,-384"/>
<polyline fill="none" stroke="black" points="345.499,-384 442.501,-384 "/>
<path fill="none" stroke="black" d="M442.501,-384C448.501,-384 454.501,-390 454.501,-396"/>
<polyline fill="none" stroke="black" points="454.501,-396 454.501,-408 "/>
<path fill="none" stroke="black" d="M454.501,-408C454.501,-414 448.501,-420 442.501,-420"/>
<text text-anchor="middle" x="394" y="-396.4" font-family="Helvetica,sans-Serif" font-size="14.00">Watch Age Index</text>
</a>
</g>
<!-- individualageIndex&#45;&gt;watchAgeIndex -->
<g id="edge4" class="edge"><title>individualageIndex&#45;&gt;watchAgeIndex</title>
<path fill="none" stroke="#5114cc" stroke-width="2" d="M394,-463.689C394,-453.894 394,-441.422 394,-430.335"/>
<polygon fill="#5114cc" stroke="#5114cc" points="394,-420.262 398.5,-430.262 394.5,-425.262 394.5,-430.262 394,-430.262 393.5,-430.262 393.5,-425.262 389.5,-430.262 394,-420.262 394,-420.262"/>
</g>
<!-- item_SmokingPrevelanceMalebyAgeIndexAgeIndex_ -->
<g id="node21" class="node"><title>item_SmokingPrevelanceMalebyAgeIndexAgeIndex_</title>
<polygon fill="#dcccff" stroke="#dcccff" points="289,-268 259,-268 247,-256 247,-244 259,-232 289,-232 301,-244 301,-256 289,-268"/>
<path fill="#dcccff" stroke="#dcccff" d="M259,-268C253,-268 247,-262 247,-256"/>
<path fill="#dcccff" stroke="#dcccff" d="M247,-244C247,-238 253,-232 259,-232"/>
<path fill="#dcccff" stroke="#dcccff" d="M289,-232C295,-232 301,-238 301,-244"/>
<path fill="#dcccff" stroke="#dcccff" d="M301,-256C301,-262 295,-268 289,-268"/>
<polyline fill="none" stroke="#dcccff" points="289,-268 259,-268 "/>
<path fill="none" stroke="#dcccff" d="M259,-268C253,-268 247,-262 247,-256"/>
<polyline fill="none" stroke="#dcccff" points="247,-256 247,-244 "/>
<path fill="none" stroke="#dcccff" d="M247,-244C247,-238 253,-232 259,-232"/>
<polyline fill="none" stroke="#dcccff" points="259,-232 289,-232 "/>
<path fill="none" stroke="#dcccff" d="M289,-232C295,-232 301,-238 301,-244"/>
<polyline fill="none" stroke="#dcccff" points="301,-244 301,-256 "/>
<path fill="none" stroke="#dcccff" d="M301,-256C301,-262 295,-268 289,-268"/>
<text text-anchor="middle" x="274" y="-244.4" font-family="Helvetica,sans-Serif" font-size="14.00">Item?</text>
</g>
<!-- individualageIndex&#45;&gt;item_SmokingPrevelanceMalebyAgeIndexAgeIndex_ -->
<g id="edge32" class="edge"><title>individualageIndex&#45;&gt;item_SmokingPrevelanceMalebyAgeIndexAgeIndex_:ne</title>
<path fill="none" stroke="#5114cc" stroke-width="2" stroke-dasharray="1,5" d="M362.161,-463.993C348.384,-455.055 333.313,-442.851 324,-428 306.092,-399.44 315.984,-307.853 296.861,-274.513"/>
<ellipse fill="#5114cc" stroke="#5114cc" cx="294.393" cy="-271.206" rx="4.00002" ry="4.00002"/>
</g>
<!-- item_HIVPrevalenceMalebyAgeIndexAgeIndex_ -->
<g id="node25" class="node"><title>item_HIVPrevalenceMalebyAgeIndexAgeIndex_</title>
<polygon fill="#dcccff" stroke="#dcccff" points="680,-196 650,-196 638,-184 638,-172 650,-160 680,-160 692,-172 692,-184 680,-196"/>
<path fill="#dcccff" stroke="#dcccff" d="M650,-196C644,-196 638,-190 638,-184"/>
<path fill="#dcccff" stroke="#dcccff" d="M638,-172C638,-166 644,-160 650,-160"/>
<path fill="#dcccff" stroke="#dcccff" d="M680,-160C686,-160 692,-166 692,-172"/>
<path fill="#dcccff" stroke="#dcccff" d="M692,-184C692,-190 686,-196 680,-196"/>
<polyline fill="none" stroke="#dcccff" points="680,-196 650,-196 "/>
<path fill="none" stroke="#dcccff" d="M650,-196C644,-196 638,-190 638,-184"/>
<polyline fill="none" stroke="#dcccff" points="638,-184 638,-172 "/>
<path fill="none" stroke="#dcccff" d="M638,-172C638,-166 644,-160 650,-160"/>
<polyline fill="none" stroke="#dcccff" points="650,-160 680,-160 "/>
<path fill="none" stroke="#dcccff" d="M680,-160C686,-160 692,-166 692,-172"/>
<polyline fill="none" stroke="#dcccff" points="692,-172 692,-184 "/>
<path fill="none" stroke="#dcccff" d="M692,-184C692,-190 686,-196 680,-196"/>
<text text-anchor="middle" x="665" y="-172.4" font-family="Helvetica,sans-Serif" font-size="14.00">Item?</text>
</g>
<!-- individualageIndex&#45;&gt;item_HIVPrevalenceMalebyAgeIndexAgeIndex_ -->
<g id="edge42" class="edge"><title>individualageIndex&#45;&gt;item_HIVPrevalenceMalebyAgeIndexAgeIndex_:ne</title>
<path fill="none" stroke="#5114cc" stroke-width="2" stroke-dasharray="1,5" d="M433.314,-480.935C515.343,-478.356 703.149,-459.105 776,-340 784.983,-325.314 786.315,-250.811 773,-232 749.763,-199.171 718.022,-222.814 689.12,-201.31"/>
<ellipse fill="#5114cc" stroke="#5114cc" cx="686.021" cy="-198.622" rx="4.00002" ry="4.00002"/>
</g>
<!-- tBmodelsmokingPrevelanceMalebyAgeIndex -->
<g id="node9" class="node"><title>tBmodelsmokingPrevelanceMalebyAgeIndex</title>
<polygon fill="white" stroke="white" points="264,-340 0,-340 0,-304 264,-304 264,-340"/>
<text text-anchor="start" x="8.5" y="-316.5" font-family="Helvetica,sans-Serif" font-size="14.00">Smoking Prevelance Male by Age Index</text>
</g>
<!-- tBmodelsmokingPrevelanceMalebyAgeIndex&#45;&gt;item_SmokingPrevelanceMalebyAgeIndexAgeIndex_ -->
<g id="edge30" class="edge"><title>tBmodelsmokingPrevelanceMalebyAgeIndex&#45;&gt;item_SmokingPrevelanceMalebyAgeIndexAgeIndex_:nw</title>
<path fill="none" stroke="#5114cc" stroke-width="2" stroke-dasharray="1,5" d="M196.858,-303.894C215.348,-296.742 234.64,-286.887 250.07,-273.514"/>
<ellipse fill="#5114cc" stroke="#5114cc" cx="253.071" cy="-270.724" rx="4.00002" ry="4.00002"/>
</g>
<!-- tBmodelhIVPrevalenceMalebyAgeIndex -->
<g id="node10" class="node"><title>tBmodelhIVPrevalenceMalebyAgeIndex</title>
<polygon fill="white" stroke="white" points="691.25,-268 458.75,-268 458.75,-232 691.25,-232 691.25,-268"/>
<text text-anchor="start" x="467" y="-244.5" font-family="Helvetica,sans-Serif" font-size="14.00">HIV Prevalence Male by Age Index</text>
</g>
<!-- tBmodelhIVPrevalenceMalebyAgeIndex&#45;&gt;item_HIVPrevalenceMalebyAgeIndexAgeIndex_ -->
<g id="edge40" class="edge"><title>tBmodelhIVPrevalenceMalebyAgeIndex&#45;&gt;item_HIVPrevalenceMalebyAgeIndexAgeIndex_:nw</title>
<path fill="none" stroke="#5114cc" stroke-width="2" stroke-dasharray="1,5" d="M602.177,-231.879C614.358,-223.614 628.736,-213.027 641.107,-201.645"/>
<ellipse fill="#5114cc" stroke="#5114cc" cx="644.111" cy="-198.767" rx="4.00002" ry="4.00002"/>
</g>
<!-- hIVDraw -->
<g id="node14" class="node"><title>hIVDraw</title>
<polygon fill="#dcccff" stroke="#dcccff" points="477.279,-340 404.721,-340 392.721,-328 392.721,-316 404.721,-304 477.279,-304 489.279,-316 489.279,-328 477.279,-340"/>
<path fill="#dcccff" stroke="#dcccff" d="M404.721,-340C398.721,-340 392.721,-334 392.721,-328"/>
<path fill="#dcccff" stroke="#dcccff" d="M392.721,-316C392.721,-310 398.721,-304 404.721,-304"/>
<path fill="#dcccff" stroke="#dcccff" d="M477.279,-304C483.279,-304 489.279,-310 489.279,-316"/>
<path fill="#dcccff" stroke="#dcccff" d="M489.279,-328C489.279,-334 483.279,-340 477.279,-340"/>
<polyline fill="none" stroke="#dcccff" points="477.279,-340 404.721,-340 "/>
<path fill="none" stroke="#dcccff" d="M404.721,-340C398.721,-340 392.721,-334 392.721,-328"/>
<polyline fill="none" stroke="#dcccff" points="392.721,-328 392.721,-316 "/>
<path fill="none" stroke="#dcccff" d="M392.721,-316C392.721,-310 398.721,-304 404.721,-304"/>
<polyline fill="none" stroke="#dcccff" points="404.721,-304 477.279,-304 "/>
<path fill="none" stroke="#dcccff" d="M477.279,-304C483.279,-304 489.279,-310 489.279,-316"/>
<polyline fill="none" stroke="#dcccff" points="489.279,-316 489.279,-328 "/>
<path fill="none" stroke="#dcccff" d="M489.279,-328C489.279,-334 483.279,-340 477.279,-340"/>
<text text-anchor="middle" x="441" y="-316.4" font-family="Helvetica,sans-Serif" font-size="14.00">Random Unit</text>
</g>
<!-- watchAgeIndex&#45;&gt;hIVDraw -->
<g id="edge6" class="edge"><title>watchAgeIndex&#45;&gt;hIVDraw</title>
<path fill="none" stroke="#5114cc" stroke-width="3" d="M404.431,-383.689C409.055,-376.015 414.67,-366.697 420.097,-357.689"/>
<polygon fill="#5114cc" stroke="#5114cc" points="426.272,-361.006 430.598,-340.262 414.28,-353.78 426.272,-361.006"/>
</g>
<!-- watchAgeIndex&#45;&gt;genderIdenticalMaleQueryCopy -->
<g id="edge8" class="edge"><title>watchAgeIndex&#45;&gt;genderIdenticalMaleQueryCopy</title>
<path fill="none" stroke="#5114cc" stroke-width="3" d="M383.569,-383.689C378.945,-376.015 373.33,-366.697 367.903,-357.689"/>
<polygon fill="#5114cc" stroke="#5114cc" points="373.72,-353.78 357.402,-340.262 361.728,-361.006 373.72,-353.78"/>
</g>
<!-- hIVDraw&#45;&gt;genderIdenticalMale -->
<g id="edge24" class="edge"><title>hIVDraw&#45;&gt;genderIdenticalMale</title>
<path fill="none" stroke="#5114cc" stroke-width="3" d="M489.59,-314.456C538.171,-307.193 615.202,-293.736 690.667,-270.47"/>
<polygon fill="#5114cc" stroke="#5114cc" points="692.89,-277.108 709.801,-264.341 688.619,-263.776 692.89,-277.108"/>
</g>
<!-- hIVDrawLesserItem_HIVPrevalenceMalebyAgeIndexAgeIndex_Query -->
<g id="node26" class="node"><title>hIVDrawLesserItem_HIVPrevalenceMalebyAgeIndexAgeIndex_Query</title>
<polygon fill="#dcccff" stroke="#dcccff" points="667.357,-124 626.643,-124 614.643,-112 614.643,-100 626.643,-88 667.357,-88 679.357,-100 679.357,-112 667.357,-124"/>
<path fill="#dcccff" stroke="#dcccff" d="M626.643,-124C620.643,-124 614.643,-118 614.643,-112"/>
<path fill="#dcccff" stroke="#dcccff" d="M614.643,-100C614.643,-94 620.643,-88 626.643,-88"/>
<path fill="#dcccff" stroke="#dcccff" d="M667.357,-88C673.357,-88 679.357,-94 679.357,-100"/>
<path fill="#dcccff" stroke="#dcccff" d="M679.357,-112C679.357,-118 673.357,-124 667.357,-124"/>
<polyline fill="none" stroke="#dcccff" points="667.357,-124 626.643,-124 "/>
<path fill="none" stroke="#dcccff" d="M626.643,-124C620.643,-124 614.643,-118 614.643,-112"/>
<polyline fill="none" stroke="#dcccff" points="614.643,-112 614.643,-100 "/>
<path fill="none" stroke="#dcccff" d="M614.643,-100C614.643,-94 620.643,-88 626.643,-88"/>
<polyline fill="none" stroke="#dcccff" points="626.643,-88 667.357,-88 "/>
<path fill="none" stroke="#dcccff" d="M667.357,-88C673.357,-88 679.357,-94 679.357,-100"/>
<polyline fill="none" stroke="#dcccff" points="679.357,-100 679.357,-112 "/>
<path fill="none" stroke="#dcccff" d="M679.357,-112C679.357,-118 673.357,-124 667.357,-124"/>
<text text-anchor="middle" x="647" y="-100.4" font-family="Helvetica,sans-Serif" font-size="14.00">Lesser?</text>
</g>
<!-- hIVDraw&#45;&gt;hIVDrawLesserItem_HIVPrevalenceMalebyAgeIndexAgeIndex_Query -->
<g id="edge38" class="edge"><title>hIVDraw&#45;&gt;hIVDrawLesserItem_HIVPrevalenceMalebyAgeIndexAgeIndex_Query:nw</title>
<path fill="none" stroke="blue" stroke-width="2" stroke-dasharray="1,5" d="M410.231,-303.907C397.456,-295.021 383.999,-282.883 377,-268 370.191,-253.521 368.192,-245.357 377,-232 442.572,-132.558 538.417,-206.665 623.176,-129.559"/>
<ellipse fill="blue" stroke="blue" cx="626.106" cy="-126.762" rx="4.00002" ry="4.00002"/>
</g>
<!-- hIVDraw&#45;&gt;genderIdenticalFemaleQueryCopy -->
<g id="edge22" class="edge"><title>hIVDraw&#45;&gt;genderIdenticalFemaleQueryCopy</title>
<path fill="none" stroke="#5114cc" stroke-width="3" d="M434.079,-303.697C432.01,-298.526 429.662,-292.656 427.303,-286.757"/>
<polygon fill="#5114cc" stroke="#5114cc" points="433.769,-284.074 419.842,-268.104 420.77,-289.274 433.769,-284.074"/>
</g>
<!-- genderIdenticalMaleQueryCopy&#45;&gt;item_SmokingPrevelanceMalebyAgeIndexAgeIndex_ -->
<g id="edge12" class="edge"><title>genderIdenticalMaleQueryCopy&#45;&gt;item_SmokingPrevelanceMalebyAgeIndexAgeIndex_</title>
<path fill="none" stroke="#5114cc" stroke-width="3" d="M328.955,-303.697C322.148,-297.169 314.179,-289.528 306.455,-282.121"/>
<polygon fill="#5114cc" stroke="#5114cc" points="311.118,-276.894 291.837,-268.104 301.428,-286.999 311.118,-276.894"/>
</g>
<!-- smokingDraw -->
<g id="node17" class="node"><title>smokingDraw</title>
<polygon fill="#dcccff" stroke="#dcccff" points="256.279,-196 183.721,-196 171.721,-184 171.721,-172 183.721,-160 256.279,-160 268.279,-172 268.279,-184 256.279,-196"/>
<path fill="#dcccff" stroke="#dcccff" d="M183.721,-196C177.721,-196 171.721,-190 171.721,-184"/>
<path fill="#dcccff" stroke="#dcccff" d="M171.721,-172C171.721,-166 177.721,-160 183.721,-160"/>
<path fill="#dcccff" stroke="#dcccff" d="M256.279,-160C262.279,-160 268.279,-166 268.279,-172"/>
<path fill="#dcccff" stroke="#dcccff" d="M268.279,-184C268.279,-190 262.279,-196 256.279,-196"/>
<polyline fill="none" stroke="#dcccff" points="256.279,-196 183.721,-196 "/>
<path fill="none" stroke="#dcccff" d="M183.721,-196C177.721,-196 171.721,-190 171.721,-184"/>
<polyline fill="none" stroke="#dcccff" points="171.721,-184 171.721,-172 "/>
<path fill="none" stroke="#dcccff" d="M171.721,-172C171.721,-166 177.721,-160 183.721,-160"/>
<polyline fill="none" stroke="#dcccff" points="183.721,-160 256.279,-160 "/>
<path fill="none" stroke="#dcccff" d="M256.279,-160C262.279,-160 268.279,-166 268.279,-172"/>
<polyline fill="none" stroke="#dcccff" points="268.279,-172 268.279,-184 "/>
<path fill="none" stroke="#dcccff" d="M268.279,-184C268.279,-190 262.279,-196 256.279,-196"/>
<text text-anchor="middle" x="220" y="-172.4" font-family="Helvetica,sans-Serif" font-size="14.00">Random Unit</text>
</g>
<!-- smokingDrawLesserItem_SmokingPrevelanceMalebyAgeIndexAgeIndex_Query -->
<g id="node19" class="node"><title>smokingDrawLesserItem_SmokingPrevelanceMalebyAgeIndexAgeIndex_Query</title>
<polygon fill="#dcccff" stroke="#dcccff" points="258.357,-124 217.643,-124 205.643,-112 205.643,-100 217.643,-88 258.357,-88 270.357,-100 270.357,-112 258.357,-124"/>
<path fill="#dcccff" stroke="#dcccff" d="M217.643,-124C211.643,-124 205.643,-118 205.643,-112"/>
<path fill="#dcccff" stroke="#dcccff" d="M205.643,-100C205.643,-94 211.643,-88 217.643,-88"/>
<path fill="#dcccff" stroke="#dcccff" d="M258.357,-88C264.357,-88 270.357,-94 270.357,-100"/>
<path fill="#dcccff" stroke="#dcccff" d="M270.357,-112C270.357,-118 264.357,-124 258.357,-124"/>
<polyline fill="none" stroke="#dcccff" points="258.357,-124 217.643,-124 "/>
<path fill="none" stroke="#dcccff" d="M217.643,-124C211.643,-124 205.643,-118 205.643,-112"/>
<polyline fill="none" stroke="#dcccff" points="205.643,-112 205.643,-100 "/>
<path fill="none" stroke="#dcccff" d="M205.643,-100C205.643,-94 211.643,-88 217.643,-88"/>
<polyline fill="none" stroke="#dcccff" points="217.643,-88 258.357,-88 "/>
<path fill="none" stroke="#dcccff" d="M258.357,-88C264.357,-88 270.357,-94 270.357,-100"/>
<polyline fill="none" stroke="#dcccff" points="270.357,-100 270.357,-112 "/>
<path fill="none" stroke="#dcccff" d="M270.357,-112C270.357,-118 264.357,-124 258.357,-124"/>
<text text-anchor="middle" x="238" y="-100.4" font-family="Helvetica,sans-Serif" font-size="14.00">Lesser?</text>
</g>
<!-- smokingDraw&#45;&gt;smokingDrawLesserItem_SmokingPrevelanceMalebyAgeIndexAgeIndex_Query -->
<g id="edge46" class="edge"><title>smokingDraw&#45;&gt;smokingDrawLesserItem_SmokingPrevelanceMalebyAgeIndexAgeIndex_Query:nw</title>
<path fill="none" stroke="blue" stroke-width="2" stroke-dasharray="1,5" d="M214.389,-159.826C212.323,-150.67 211.35,-139.513 215.367,-130.727"/>
<ellipse fill="blue" stroke="blue" cx="217.731" cy="-127.294" rx="4.00002" ry="4.00002"/>
</g>
<!-- smokingDraw&#45;&gt;smokingDrawLesserItem_SmokingPrevelanceMalebyAgeIndexAgeIndex_Query -->
<g id="edge10" class="edge"><title>smokingDraw&#45;&gt;smokingDrawLesserItem_SmokingPrevelanceMalebyAgeIndexAgeIndex_Query</title>
<path fill="none" stroke="#5114cc" stroke-width="3" d="M224.449,-159.697C225.714,-154.78 227.141,-149.231 228.582,-143.627"/>
<polygon fill="#5114cc" stroke="#5114cc" points="235.4,-145.218 233.602,-124.104 221.841,-141.731 235.4,-145.218"/>
</g>
<!-- smokingDrawLesserItem_SmokingPrevelanceMalebyAgeIndexAgeIndex_Query&#45;&gt;individualsmokingRecord -->
<g id="edge26" class="edge"><title>smokingDrawLesserItem_SmokingPrevelanceMalebyAgeIndexAgeIndex_Query&#45;&gt;individualsmokingRecord:individualsmokingsmoker</title>
<path fill="none" stroke="#5114cc" stroke-width="3" d="M252.024,-87.8836C265.067,-71.2024 282.989,-46.0465 286.428,-29.8217"/>
<polygon fill="#5114cc" stroke="#5114cc" points="291.859,-25.4043 274,-14 280.849,-34.0522 291.859,-25.4043"/>
</g>
<!-- item_SmokingPrevelanceMalebyAgeIndexAgeIndex_&#45;&gt;smokingDraw -->
<g id="edge14" class="edge"><title>item_SmokingPrevelanceMalebyAgeIndexAgeIndex_&#45;&gt;smokingDraw</title>
<path fill="none" stroke="#5114cc" stroke-width="3" d="M260.652,-231.697C256.074,-225.763 250.786,-218.908 245.57,-212.146"/>
<polygon fill="#5114cc" stroke="#5114cc" points="250.953,-207.664 233.195,-196.104 239.868,-216.216 250.953,-207.664"/>
</g>
<!-- item_SmokingPrevelanceMalebyAgeIndexAgeIndex_&#45;&gt;smokingDrawLesserItem_SmokingPrevelanceMalebyAgeIndexAgeIndex_Query -->
<g id="edge48" class="edge"><title>item_SmokingPrevelanceMalebyAgeIndexAgeIndex_&#45;&gt;smokingDrawLesserItem_SmokingPrevelanceMalebyAgeIndexAgeIndex_Query:ne</title>
<path fill="none" stroke="blue" stroke-width="2" stroke-dasharray="1,5" d="M275.219,-231.825C275.893,-221.456 276.661,-207.976 277,-196 277.452,-180.006 281.176,-175.446 277,-160 272.959,-145.052 270.152,-139.092 261.689,-129.887"/>
<ellipse fill="blue" stroke="blue" cx="258.78" cy="-126.876" rx="4.00002" ry="4.00002"/>
</g>
<!-- genderIdenticalMale&#45;&gt;item_HIVPrevalenceMalebyAgeIndexAgeIndex_ -->
<g id="edge16" class="edge"><title>genderIdenticalMale&#45;&gt;item_HIVPrevalenceMalebyAgeIndexAgeIndex_</title>
<path fill="none" stroke="#5114cc" stroke-width="3" d="M719.202,-231.697C712.489,-225.169 704.629,-217.528 697.01,-210.121"/>
<polygon fill="#5114cc" stroke="#5114cc" points="701.813,-205.027 682.593,-196.104 692.053,-215.065 701.813,-205.027"/>
</g>
<!-- item_HIVPrevalenceMalebyAgeIndexAgeIndex_&#45;&gt;hIVDrawLesserItem_HIVPrevalenceMalebyAgeIndexAgeIndex_Query -->
<g id="edge36" class="edge"><title>item_HIVPrevalenceMalebyAgeIndexAgeIndex_&#45;&gt;hIVDrawLesserItem_HIVPrevalenceMalebyAgeIndexAgeIndex_Query:ne</title>
<path fill="none" stroke="blue" stroke-width="2" stroke-dasharray="1,5" d="M670.611,-159.826C672.677,-150.67 673.65,-139.513 669.633,-130.727"/>
<ellipse fill="blue" stroke="blue" cx="667.269" cy="-127.294" rx="4.00002" ry="4.00002"/>
</g>
<!-- item_HIVPrevalenceMalebyAgeIndexAgeIndex_&#45;&gt;hIVDrawLesserItem_HIVPrevalenceMalebyAgeIndexAgeIndex_Query -->
<g id="edge20" class="edge"><title>item_HIVPrevalenceMalebyAgeIndexAgeIndex_&#45;&gt;hIVDrawLesserItem_HIVPrevalenceMalebyAgeIndexAgeIndex_Query</title>
<path fill="none" stroke="#5114cc" stroke-width="3" d="M660.551,-159.697C659.286,-154.78 657.859,-149.231 656.418,-143.627"/>
<polygon fill="#5114cc" stroke="#5114cc" points="663.159,-141.731 651.398,-124.104 649.6,-145.218 663.159,-141.731"/>
</g>
<!-- hIVDrawLesserItem_HIVPrevalenceMalebyAgeIndexAgeIndex_Query&#45;&gt;individualhIVStatusRecord -->
<g id="edge18" class="edge"><title>hIVDrawLesserItem_HIVPrevalenceMalebyAgeIndexAgeIndex_Query&#45;&gt;individualhIVStatusRecord:individualhIVStatushIVPositive</title>
<path fill="none" stroke="#5114cc" stroke-width="3" d="M663.431,-87.8836C678.506,-71.5113 699.337,-46.9753 705.077,-30.7322"/>
<polygon fill="#5114cc" stroke="#5114cc" points="710.877,-26.8127 694,-14 699.203,-34.5409 710.877,-26.8127"/>
</g>
</g>
</svg>
