<?xml version="1.0" encoding="UTF-8" standalone="no"?>
<!DOCTYPE svg PUBLIC "-//W3C//DTD SVG 1.1//EN"
 "http://www.w3.org/Graphics/SVG/1.1/DTD/svg11.dtd">
<!-- Generated by graphviz version 2.29.20110702.0445 (20110702.0445)
 -->
<!-- Title: movement Pages: 1 -->
<svg width="797pt" height="601pt"
 viewBox="0.00 0.00 796.78 601.00" xmlns="http://www.w3.org/2000/svg" xmlns:xlink="http://www.w3.org/1999/xlink">
<g id="graph1" class="graph" transform="scale(1 1) rotate(0) translate(4 597)">
<title>movement</title>
<polygon fill="white" stroke="white" points="-4,5 -4,-597 793.782,-597 793.782,5 -4,5"/>
<g id="graph2" class="cluster"><title>clustercontextKey</title>
<polygon fill="ghostwhite" stroke="white" points="244.782,-531 244.782,-585 332.782,-585 332.782,-531 244.782,-531"/>
<text text-anchor="middle" x="288.961" y="-567" font-family="Helvetica,sans-Serif" font-size="14.00">Parameters</text>
</g>
<g id="graph3" class="cluster"><title>clusterindividualKey</title>
<polygon fill="ghostwhite" stroke="white" points="340.782,-531 340.782,-585 415.782,-585 415.782,-531 340.782,-531"/>
<text text-anchor="middle" x="378.358" y="-567" font-family="Helvetica,sans-Serif" font-size="14.00">Individual</text>
</g>
<g id="graph4" class="cluster"><title>clustermapLocationKey</title>
<polygon fill="ghostwhite" stroke="white" points="423.782,-531 423.782,-585 523.782,-585 523.782,-531 423.782,-531"/>
<text text-anchor="middle" x="473.81" y="-567" font-family="Helvetica,sans-Serif" font-size="14.00">Map Location</text>
</g>
<!-- contextOverview -->
<g id="node2" class="node"><title>contextOverview</title>
<ellipse fill="black" stroke="black" cx="288.782" cy="-546" rx="7.2" ry="7.2"/>
</g>
<!-- movementOverview -->
<g id="node4" class="node"><title>movementOverview</title>
<a xlink:href="individual__Overview.svg">
<ellipse fill="#1451cc" stroke="#1451cc" cx="377.782" cy="-546" rx="7.2" ry="7.2"/>
</a>
</g>
<!-- nearestTBPositiveOverview -->
<g id="node6" class="node"><title>nearestTBPositiveOverview</title>
<a xlink:href="mapLocation__Overview.svg">
<ellipse fill="#4414cc" stroke="#4414cc" cx="472.782" cy="-546" rx="7.2" ry="7.2"/>
</a>
</g>
<!-- individualtBStatusRecord -->
<g id="node7" class="node"><title>individualtBStatusRecord</title>
<polygon fill="white" stroke="none" points="638.986,-521.2 638.986,-570.8 742.579,-570.8 742.579,-521.2 638.986,-521.2"/>
<text text-anchor="middle" x="690.782" y="-552.8" font-family="Helvetica,sans-Serif" font-size="14.00">TB Status</text>
<polyline fill="none" stroke="none" points="638.986,-546 742.579,-546 "/>
<text text-anchor="middle" x="666.048" y="-528" font-family="Helvetica,sans-Serif" font-size="14.00">Active</text>
<polyline fill="none" stroke="none" points="693.11,-521.2 693.11,-546 "/>
<text text-anchor="middle" x="717.844" y="-528" font-family="Helvetica,sans-Serif" font-size="14.00">Dead</text>
</g>
<!-- tBStatusDifferentDeadQuery -->
<g id="node13" class="node"><title>tBStatusDifferentDeadQuery</title>
<polygon fill="#ccddff" stroke="#ccddff" points="723.046,-484 686.518,-484 674.518,-472 674.518,-460 686.518,-448 723.046,-448 735.046,-460 735.046,-472 723.046,-484"/>
<path fill="#ccddff" stroke="#ccddff" d="M686.518,-484C680.518,-484 674.518,-478 674.518,-472"/>
<path fill="#ccddff" stroke="#ccddff" d="M674.518,-460C674.518,-454 680.518,-448 686.518,-448"/>
<path fill="#ccddff" stroke="#ccddff" d="M723.046,-448C729.046,-448 735.046,-454 735.046,-460"/>
<path fill="#ccddff" stroke="#ccddff" d="M735.046,-472C735.046,-478 729.046,-484 723.046,-484"/>
<polyline fill="none" stroke="#ccddff" points="723.046,-484 686.518,-484 "/>
<path fill="none" stroke="#ccddff" d="M686.518,-484C680.518,-484 674.518,-478 674.518,-472"/>
<polyline fill="none" stroke="#ccddff" points="674.518,-472 674.518,-460 "/>
<path fill="none" stroke="#ccddff" d="M674.518,-460C674.518,-454 680.518,-448 686.518,-448"/>
<polyline fill="none" stroke="#ccddff" points="686.518,-448 723.046,-448 "/>
<path fill="none" stroke="#ccddff" d="M723.046,-448C729.046,-448 735.046,-454 735.046,-460"/>
<polyline fill="none" stroke="#ccddff" points="735.046,-460 735.046,-472 "/>
<path fill="none" stroke="#ccddff" d="M735.046,-472C735.046,-478 729.046,-484 723.046,-484"/>
<text text-anchor="middle" x="704.782" y="-460.4" font-family="Helvetica,sans-Serif" font-size="14.00">Is Not?</text>
</g>
<!-- individualtBStatusRecord&#45;&gt;tBStatusDifferentDeadQuery -->
<g id="edge55" class="edge"><title>individualtBStatusRecord:individualtBStatusdead&#45;&gt;tBStatusDifferentDeadQuery:ne</title>
<path fill="none" stroke="#1451cc" stroke-width="2" stroke-dasharray="1,5" d="M717.782,-520C717.782,-507.38 727.806,-499.478 726.744,-491.178"/>
<ellipse fill="#1451cc" stroke="#1451cc" cx="724.715" cy="-487.502" rx="4.00002" ry="4.00002"/>
</g>
<!-- tBStatusDifferentActiveQuery -->
<g id="node15" class="node"><title>tBStatusDifferentActiveQuery</title>
<polygon fill="#ccddff" stroke="#ccddff" points="645.046,-484 608.518,-484 596.518,-472 596.518,-460 608.518,-448 645.046,-448 657.046,-460 657.046,-472 645.046,-484"/>
<path fill="#ccddff" stroke="#ccddff" d="M608.518,-484C602.518,-484 596.518,-478 596.518,-472"/>
<path fill="#ccddff" stroke="#ccddff" d="M596.518,-460C596.518,-454 602.518,-448 608.518,-448"/>
<path fill="#ccddff" stroke="#ccddff" d="M645.046,-448C651.046,-448 657.046,-454 657.046,-460"/>
<path fill="#ccddff" stroke="#ccddff" d="M657.046,-472C657.046,-478 651.046,-484 645.046,-484"/>
<polyline fill="none" stroke="#ccddff" points="645.046,-484 608.518,-484 "/>
<path fill="none" stroke="#ccddff" d="M608.518,-484C602.518,-484 596.518,-478 596.518,-472"/>
<polyline fill="none" stroke="#ccddff" points="596.518,-472 596.518,-460 "/>
<path fill="none" stroke="#ccddff" d="M596.518,-460C596.518,-454 602.518,-448 608.518,-448"/>
<polyline fill="none" stroke="#ccddff" points="608.518,-448 645.046,-448 "/>
<path fill="none" stroke="#ccddff" d="M645.046,-448C651.046,-448 657.046,-454 657.046,-460"/>
<polyline fill="none" stroke="#ccddff" points="657.046,-460 657.046,-472 "/>
<path fill="none" stroke="#ccddff" d="M657.046,-472C657.046,-478 651.046,-484 645.046,-484"/>
<text text-anchor="middle" x="626.782" y="-460.4" font-family="Helvetica,sans-Serif" font-size="14.00">Is Not?</text>
</g>
<!-- individualtBStatusRecord&#45;&gt;tBStatusDifferentActiveQuery -->
<g id="edge53" class="edge"><title>individualtBStatusRecord:individualtBStatusactive&#45;&gt;tBStatusDifferentActiveQuery:ne</title>
<path fill="none" stroke="#1451cc" stroke-width="2" stroke-dasharray="1,5" d="M665.782,-520C665.782,-504.371 660.157,-498.812 650.531,-489.588"/>
<ellipse fill="#1451cc" stroke="#1451cc" cx="647.65" cy="-486.788" rx="4.00002" ry="4.00002"/>
</g>
<!-- tBmodelavoidTBLocationsRecord -->
<g id="node8" class="node"><title>tBmodelavoidTBLocationsRecord</title>
<polygon fill="white" stroke="none" points="222.718,-361.2 222.718,-410.8 358.846,-410.8 358.846,-361.2 222.718,-361.2"/>
<text text-anchor="middle" x="290.782" y="-392.8" font-family="Helvetica,sans-Serif" font-size="14.00">Avoid TB Locations</text>
<polyline fill="none" stroke="none" points="222.718,-386 358.846,-386 "/>
<text text-anchor="middle" x="254.855" y="-368" font-family="Helvetica,sans-Serif" font-size="14.00">True</text>
<polyline fill="none" stroke="none" points="286.992,-361.2 286.992,-386 "/>
<text text-anchor="middle" x="322.609" y="-368" font-family="Helvetica,sans-Serif" font-size="14.00">False</text>
</g>
<!-- identityAvoidTBLocationsQuery -->
<g id="node25" class="node"><title>identityAvoidTBLocationsQuery</title>
<polygon fill="#ccddff" stroke="#ccddff" points="323.782,-324 293.782,-324 281.782,-312 281.782,-300 293.782,-288 323.782,-288 335.782,-300 335.782,-312 323.782,-324"/>
<path fill="#ccddff" stroke="#ccddff" d="M293.782,-324C287.782,-324 281.782,-318 281.782,-312"/>
<path fill="#ccddff" stroke="#ccddff" d="M281.782,-300C281.782,-294 287.782,-288 293.782,-288"/>
<path fill="#ccddff" stroke="#ccddff" d="M323.782,-288C329.782,-288 335.782,-294 335.782,-300"/>
<path fill="#ccddff" stroke="#ccddff" d="M335.782,-312C335.782,-318 329.782,-324 323.782,-324"/>
<polyline fill="none" stroke="#ccddff" points="323.782,-324 293.782,-324 "/>
<path fill="none" stroke="#ccddff" d="M293.782,-324C287.782,-324 281.782,-318 281.782,-312"/>
<polyline fill="none" stroke="#ccddff" points="281.782,-312 281.782,-300 "/>
<path fill="none" stroke="#ccddff" d="M281.782,-300C281.782,-294 287.782,-288 293.782,-288"/>
<polyline fill="none" stroke="#ccddff" points="293.782,-288 323.782,-288 "/>
<path fill="none" stroke="#ccddff" d="M323.782,-288C329.782,-288 335.782,-294 335.782,-300"/>
<polyline fill="none" stroke="#ccddff" points="335.782,-300 335.782,-312 "/>
<path fill="none" stroke="#ccddff" d="M335.782,-312C335.782,-318 329.782,-324 323.782,-324"/>
<text text-anchor="middle" x="308.782" y="-300.4" font-family="Helvetica,sans-Serif" font-size="14.00">Is?</text>
</g>
<!-- tBmodelavoidTBLocationsRecord&#45;&gt;identityAvoidTBLocationsQuery -->
<g id="edge51" class="edge"><title>tBmodelavoidTBLocationsRecord&#45;&gt;identityAvoidTBLocationsQuery:nw</title>
<path fill="none" stroke="black" stroke-width="2" stroke-dasharray="1,5" d="M283.483,-361.085C281.681,-351.044 281.393,-339.634 285.987,-330.631"/>
<ellipse fill="black" stroke="black" cx="288.438" cy="-327.241" rx="4.00002" ry="4.00002"/>
</g>
<!-- mapLocationtBBacterialPresense -->
<g id="node9" class="node"><title>mapLocationtBBacterialPresense</title>
<polygon fill="white" stroke="white" points="353.244,-252 198.321,-252 198.321,-216 353.244,-216 353.244,-252"/>
<text text-anchor="middle" x="275.782" y="-228.4" font-family="Helvetica,sans-Serif" font-size="14.00">TB Bacterial Presense</text>
</g>
<!-- tBBacterialPresenseGreaterTBAvoidanceThresholdQuery -->
<g id="node43" class="node"><title>tBBacterialPresenseGreaterTBAvoidanceThresholdQuery</title>
<polygon fill="#d9ccff" stroke="#d9ccff" points="309.218,-180 262.347,-180 250.347,-168 250.347,-156 262.347,-144 309.218,-144 321.218,-156 321.218,-168 309.218,-180"/>
<path fill="#d9ccff" stroke="#d9ccff" d="M262.347,-180C256.347,-180 250.347,-174 250.347,-168"/>
<path fill="#d9ccff" stroke="#d9ccff" d="M250.347,-156C250.347,-150 256.347,-144 262.347,-144"/>
<path fill="#d9ccff" stroke="#d9ccff" d="M309.218,-144C315.218,-144 321.218,-150 321.218,-156"/>
<path fill="#d9ccff" stroke="#d9ccff" d="M321.218,-168C321.218,-174 315.218,-180 309.218,-180"/>
<polyline fill="none" stroke="#d9ccff" points="309.218,-180 262.347,-180 "/>
<path fill="none" stroke="#d9ccff" d="M262.347,-180C256.347,-180 250.347,-174 250.347,-168"/>
<polyline fill="none" stroke="#d9ccff" points="250.347,-168 250.347,-156 "/>
<path fill="none" stroke="#d9ccff" d="M250.347,-156C250.347,-150 256.347,-144 262.347,-144"/>
<polyline fill="none" stroke="#d9ccff" points="262.347,-144 309.218,-144 "/>
<path fill="none" stroke="#d9ccff" d="M309.218,-144C315.218,-144 321.218,-150 321.218,-156"/>
<polyline fill="none" stroke="#d9ccff" points="321.218,-156 321.218,-168 "/>
<path fill="none" stroke="#d9ccff" d="M321.218,-168C321.218,-174 315.218,-180 309.218,-180"/>
<text text-anchor="middle" x="285.782" y="-156.4" font-family="Helvetica,sans-Serif" font-size="14.00">Greater?</text>
</g>
<!-- mapLocationtBBacterialPresense&#45;&gt;tBBacterialPresenseGreaterTBAvoidanceThresholdQuery -->
<g id="edge57" class="edge"><title>mapLocationtBBacterialPresense&#45;&gt;tBBacterialPresenseGreaterTBAvoidanceThresholdQuery:nw</title>
<path fill="none" stroke="#4414cc" stroke-width="2" stroke-dasharray="1,5" d="M266.669,-215.89C262.886,-206.757 260.071,-195.611 263.413,-186.78"/>
<ellipse fill="#4414cc" stroke="#4414cc" cx="265.615" cy="-183.362" rx="4.00002" ry="4.00002"/>
</g>
<!-- tBmodeltBAvoidanceThreshold -->
<g id="node10" class="node"><title>tBmodeltBAvoidanceThreshold</title>
<polygon fill="white" stroke="white" points="540.032,-252 371.532,-252 371.532,-216 540.032,-216 540.032,-252"/>
<text text-anchor="start" x="379.782" y="-228.5" font-family="Helvetica,sans-Serif" font-size="14.00">TB Avoidance Threshold</text>
</g>
<!-- tBmodeltBAvoidanceThreshold&#45;&gt;tBBacterialPresenseGreaterTBAvoidanceThresholdQuery -->
<g id="edge59" class="edge"><title>tBmodeltBAvoidanceThreshold&#45;&gt;tBBacterialPresenseGreaterTBAvoidanceThresholdQuery:ne</title>
<path fill="none" stroke="black" stroke-width="2" stroke-dasharray="1,5" d="M371.344,-218.127C349.641,-211.128 327.505,-200.853 310.009,-185.775"/>
<ellipse fill="black" stroke="black" cx="306.715" cy="-182.72" rx="4.00002" ry="4.00002"/>
</g>
<!-- movement -->
<g id="node11" class="node"><title>movement</title>
<a xlink:href="individual_movement.svg" xlink:title="Movement">
<polygon fill="#ccddff" stroke="#ccddff" points="601.3,-564 544.264,-564 532.264,-552 532.264,-540 544.264,-528 601.3,-528 613.3,-540 613.3,-552 601.3,-564"/>
<path fill="#ccddff" stroke="#ccddff" d="M544.264,-564C538.264,-564 532.264,-558 532.264,-552"/>
<path fill="#ccddff" stroke="#ccddff" d="M532.264,-540C532.264,-534 538.264,-528 544.264,-528"/>
<path fill="#ccddff" stroke="#ccddff" d="M601.3,-528C607.3,-528 613.3,-534 613.3,-540"/>
<path fill="#ccddff" stroke="#ccddff" d="M613.3,-552C613.3,-558 607.3,-564 601.3,-564"/>
<polyline fill="none" stroke="black" points="601.3,-564 544.264,-564 "/>
<path fill="none" stroke="black" d="M544.264,-564C538.264,-564 532.264,-558 532.264,-552"/>
<polyline fill="none" stroke="black" points="532.264,-552 532.264,-540 "/>
<path fill="none" stroke="black" d="M532.264,-540C532.264,-534 538.264,-528 544.264,-528"/>
<polyline fill="none" stroke="black" points="544.264,-528 601.3,-528 "/>
<path fill="none" stroke="black" d="M601.3,-528C607.3,-528 613.3,-534 613.3,-540"/>
<polyline fill="none" stroke="black" points="613.3,-540 613.3,-552 "/>
<path fill="none" stroke="black" d="M613.3,-552C613.3,-558 607.3,-564 601.3,-564"/>
<text text-anchor="middle" x="572.782" y="-540.4" font-family="Helvetica,sans-Serif" font-size="14.00">Movement</text>
</a>
</g>
<!-- movement&#45;&gt;tBStatusDifferentDeadQuery -->
<g id="edge5" class="edge"><title>movement&#45;&gt;tBStatusDifferentDeadQuery</title>
<path fill="none" stroke="#1451cc" stroke-width="3" d="M601.75,-527.883C618.343,-518.078 639.552,-505.545 658.409,-494.402"/>
<polygon fill="#1451cc" stroke="#1451cc" points="662.224,-500.279 675.882,-484.078 655.102,-488.226 662.224,-500.279"/>
</g>
<!-- movement&#45;&gt;tBStatusDifferentActiveQuery -->
<g id="edge7" class="edge"><title>movement&#45;&gt;tBStatusDifferentActiveQuery</title>
<path fill="none" stroke="#1451cc" stroke-width="3" d="M584.767,-527.689C590.22,-519.813 596.871,-510.205 603.258,-500.979"/>
<polygon fill="#1451cc" stroke="#1451cc" points="609.202,-504.691 614.831,-484.262 597.692,-496.722 609.202,-504.691"/>
</g>
<!-- moveIndividualCopy -->
<g id="node16" class="node"><title>moveIndividualCopy</title>
<polygon fill="#ccddff" stroke="#ccddff" points="52.7822,-36 22.7822,-36 10.7822,-24 10.7822,-12 22.7822,-0 52.7822,-0 64.7822,-12 64.7822,-24 52.7822,-36"/>
<path fill="#ccddff" stroke="#ccddff" d="M22.7822,-36C16.7822,-36 10.7822,-30 10.7822,-24"/>
<path fill="#ccddff" stroke="#ccddff" d="M10.7822,-12C10.7822,-6 16.7822,-0 22.7822,-0"/>
<path fill="#ccddff" stroke="#ccddff" d="M52.7822,-0C58.7822,-0 64.7822,-6 64.7822,-12"/>
<path fill="#ccddff" stroke="#ccddff" d="M64.7822,-24C64.7822,-30 58.7822,-36 52.7822,-36"/>
<polyline fill="none" stroke="#ccddff" points="52.7822,-36 22.7822,-36 "/>
<path fill="none" stroke="#ccddff" d="M22.7822,-36C16.7822,-36 10.7822,-30 10.7822,-24"/>
<polyline fill="none" stroke="#ccddff" points="10.7822,-24 10.7822,-12 "/>
<path fill="none" stroke="#ccddff" d="M10.7822,-12C10.7822,-6 16.7822,-0 22.7822,-0"/>
<polyline fill="none" stroke="#ccddff" points="22.7822,-0 52.7822,-0 "/>
<path fill="none" stroke="#ccddff" d="M52.7822,-0C58.7822,-0 64.7822,-6 64.7822,-12"/>
<polyline fill="none" stroke="#ccddff" points="64.7822,-12 64.7822,-24 "/>
<path fill="none" stroke="#ccddff" d="M64.7822,-24C64.7822,-30 58.7822,-36 52.7822,-36"/>
<text text-anchor="middle" x="37.7822" y="-12.4" font-family="Helvetica,sans-Serif" font-size="14.00">Move</text>
</g>
<!-- movement&#45;&gt;moveIndividualCopy -->
<g id="edge9" class="edge"><title>movement&#45;&gt;moveIndividualCopy:nw</title>
<path fill="none" stroke="#1451cc" stroke-width="3" stroke-dasharray="5,2" d="M544.266,-527.743C538.905,-524.909 533.26,-522.187 527.782,-520 308.24,-432.334 12.7822,-623.398 12.7822,-387 12.7822,-387 12.7822,-387 12.7822,-161 12.7822,-113.182 -11.1056,-84.293 7.14727,-52.1423"/>
<polygon fill="#1451cc" stroke="#1451cc" points="12.9671,-56.0638 19.7822,-36 1.94268,-47.4347 12.9671,-56.0638"/>
</g>
<!-- moveIndividualCopyCopyCopy -->
<g id="node35" class="node"><title>moveIndividualCopyCopyCopy</title>
<polygon fill="#ccddff" stroke="#ccddff" points="694.782,-180 664.782,-180 652.782,-168 652.782,-156 664.782,-144 694.782,-144 706.782,-156 706.782,-168 694.782,-180"/>
<path fill="#ccddff" stroke="#ccddff" d="M664.782,-180C658.782,-180 652.782,-174 652.782,-168"/>
<path fill="#ccddff" stroke="#ccddff" d="M652.782,-156C652.782,-150 658.782,-144 664.782,-144"/>
<path fill="#ccddff" stroke="#ccddff" d="M694.782,-144C700.782,-144 706.782,-150 706.782,-156"/>
<path fill="#ccddff" stroke="#ccddff" d="M706.782,-168C706.782,-174 700.782,-180 694.782,-180"/>
<polyline fill="none" stroke="#ccddff" points="694.782,-180 664.782,-180 "/>
<path fill="none" stroke="#ccddff" d="M664.782,-180C658.782,-180 652.782,-174 652.782,-168"/>
<polyline fill="none" stroke="#ccddff" points="652.782,-168 652.782,-156 "/>
<path fill="none" stroke="#ccddff" d="M652.782,-156C652.782,-150 658.782,-144 664.782,-144"/>
<polyline fill="none" stroke="#ccddff" points="664.782,-144 694.782,-144 "/>
<path fill="none" stroke="#ccddff" d="M694.782,-144C700.782,-144 706.782,-150 706.782,-156"/>
<polyline fill="none" stroke="#ccddff" points="706.782,-156 706.782,-168 "/>
<path fill="none" stroke="#ccddff" d="M706.782,-168C706.782,-174 700.782,-180 694.782,-180"/>
<text text-anchor="middle" x="679.782" y="-156.4" font-family="Helvetica,sans-Serif" font-size="14.00">Move</text>
</g>
<!-- movement&#45;&gt;moveIndividualCopyCopyCopy -->
<g id="edge27" class="edge"><title>movement&#45;&gt;moveIndividualCopyCopyCopy:nw</title>
<path fill="none" stroke="#1451cc" stroke-width="3" stroke-dasharray="5,2" d="M572.067,-527.936C570.917,-498.967 568.782,-438.312 568.782,-387 568.782,-387 568.782,-387 568.782,-305 568.782,-242.788 604.328,-230.987 647.057,-193.723"/>
<polygon fill="#1451cc" stroke="#1451cc" points="651.924,-198.757 661.782,-180 642.379,-188.515 651.924,-198.757"/>
</g>
<!-- _TBStatusDifferentActiveQueryAndTBStatusDifferentDeadQuery_ -->
<g id="node23" class="node"><title>_TBStatusDifferentActiveQueryAndTBStatusDifferentDeadQuery_</title>
<polygon fill="#ccddff" stroke="#ccddff" points="638.782,-404 608.782,-404 596.782,-392 596.782,-380 608.782,-368 638.782,-368 650.782,-380 650.782,-392 638.782,-404"/>
<path fill="#ccddff" stroke="#ccddff" d="M608.782,-404C602.782,-404 596.782,-398 596.782,-392"/>
<path fill="#ccddff" stroke="#ccddff" d="M596.782,-380C596.782,-374 602.782,-368 608.782,-368"/>
<path fill="#ccddff" stroke="#ccddff" d="M638.782,-368C644.782,-368 650.782,-374 650.782,-380"/>
<path fill="#ccddff" stroke="#ccddff" d="M650.782,-392C650.782,-398 644.782,-404 638.782,-404"/>
<polyline fill="none" stroke="#ccddff" points="638.782,-404 608.782,-404 "/>
<path fill="none" stroke="#ccddff" d="M608.782,-404C602.782,-404 596.782,-398 596.782,-392"/>
<polyline fill="none" stroke="#ccddff" points="596.782,-392 596.782,-380 "/>
<path fill="none" stroke="#ccddff" d="M596.782,-380C596.782,-374 602.782,-368 608.782,-368"/>
<polyline fill="none" stroke="#ccddff" points="608.782,-368 638.782,-368 "/>
<path fill="none" stroke="#ccddff" d="M638.782,-368C644.782,-368 650.782,-374 650.782,-380"/>
<polyline fill="none" stroke="#ccddff" points="650.782,-380 650.782,-392 "/>
<path fill="none" stroke="#ccddff" d="M650.782,-392C650.782,-398 644.782,-404 638.782,-404"/>
<text text-anchor="middle" x="623.782" y="-380.4" font-family="Helvetica,sans-Serif" font-size="14.00">And</text>
</g>
<!-- tBStatusDifferentDeadQuery&#45;&gt;_TBStatusDifferentActiveQueryAndTBStatusDifferentDeadQuery_ -->
<g id="edge33" class="edge"><title>tBStatusDifferentDeadQuery&#45;&gt;_TBStatusDifferentActiveQueryAndTBStatusDifferentDeadQuery_</title>
<path fill="none" stroke="#1451cc" stroke-width="3" d="M686.806,-447.689C677.787,-439.005 666.584,-428.216 656.135,-418.154"/>
<polygon fill="#1451cc" stroke="#1451cc" points="660.97,-413.093 641.709,-404.262 651.259,-423.177 660.97,-413.093"/>
</g>
<!-- neighboringCell -->
<g id="node37" class="node"><title>neighboringCell</title>
<polygon fill="#ccceff" stroke="#ccceff" points="775.912,-404 681.652,-404 669.652,-392 669.652,-380 681.652,-368 775.912,-368 787.912,-380 787.912,-392 775.912,-404"/>
<path fill="#ccceff" stroke="#ccceff" d="M681.652,-404C675.652,-404 669.652,-398 669.652,-392"/>
<path fill="#ccceff" stroke="#ccceff" d="M669.652,-380C669.652,-374 675.652,-368 681.652,-368"/>
<path fill="#ccceff" stroke="#ccceff" d="M775.912,-368C781.912,-368 787.912,-374 787.912,-380"/>
<path fill="#ccceff" stroke="#ccceff" d="M787.912,-392C787.912,-398 781.912,-404 775.912,-404"/>
<polyline fill="none" stroke="gray" points="775.912,-404 681.652,-404 "/>
<path fill="none" stroke="gray" d="M681.652,-404C675.652,-404 669.652,-398 669.652,-392"/>
<polyline fill="none" stroke="gray" points="669.652,-392 669.652,-380 "/>
<path fill="none" stroke="gray" d="M669.652,-380C669.652,-374 675.652,-368 681.652,-368"/>
<polyline fill="none" stroke="gray" points="681.652,-368 775.912,-368 "/>
<path fill="none" stroke="gray" d="M775.912,-368C781.912,-368 787.912,-374 787.912,-380"/>
<polyline fill="none" stroke="gray" points="787.912,-380 787.912,-392 "/>
<path fill="none" stroke="gray" d="M787.912,-392C787.912,-398 781.912,-404 775.912,-404"/>
<text text-anchor="middle" x="728.782" y="-380.4" font-family="Helvetica,sans-Serif" font-size="14.00">Neighboring Cell</text>
</g>
<!-- tBStatusDifferentDeadQuery&#45;&gt;neighboringCell -->
<g id="edge31" class="edge"><title>tBStatusDifferentDeadQuery&#45;&gt;neighboringCell</title>
<path fill="none" stroke="#1451cc" stroke-width="3" d="M710.109,-447.689C712.315,-440.519 714.962,-431.916 717.561,-423.471"/>
<polygon fill="#1451cc" stroke="#1451cc" points="724.279,-425.437 723.471,-404.262 710.899,-421.319 724.279,-425.437"/>
</g>
<!-- tBStatusDifferentActiveQuery&#45;&gt;_TBStatusDifferentActiveQueryAndTBStatusDifferentDeadQuery_ -->
<g id="edge25" class="edge"><title>tBStatusDifferentActiveQuery&#45;&gt;_TBStatusDifferentActiveQueryAndTBStatusDifferentDeadQuery_</title>
<path fill="none" stroke="#1451cc" stroke-width="3" d="M626.116,-447.689C625.852,-440.822 625.538,-432.64 625.226,-424.542"/>
<polygon fill="#1451cc" stroke="#1451cc" points="632.21,-423.978 624.446,-404.262 618.22,-424.517 632.21,-423.978"/>
</g>
<!-- nearestTBPositive -->
<g id="node18" class="node"><title>nearestTBPositive</title>
<polygon fill="#d9ccff" stroke="#d9ccff" points="168.38,-252 53.1848,-252 41.1848,-240 41.1848,-228 53.1848,-216 168.38,-216 180.38,-228 180.38,-240 168.38,-252"/>
<path fill="#d9ccff" stroke="#d9ccff" d="M53.1848,-252C47.1848,-252 41.1848,-246 41.1848,-240"/>
<path fill="#d9ccff" stroke="#d9ccff" d="M41.1848,-228C41.1848,-222 47.1848,-216 53.1848,-216"/>
<path fill="#d9ccff" stroke="#d9ccff" d="M168.38,-216C174.38,-216 180.38,-222 180.38,-228"/>
<path fill="#d9ccff" stroke="#d9ccff" d="M180.38,-240C180.38,-246 174.38,-252 168.38,-252"/>
<polyline fill="none" stroke="gray" points="168.38,-252 53.1848,-252 "/>
<path fill="none" stroke="gray" d="M53.1848,-252C47.1848,-252 41.1848,-246 41.1848,-240"/>
<polyline fill="none" stroke="gray" points="41.1848,-240 41.1848,-228 "/>
<path fill="none" stroke="gray" d="M41.1848,-228C41.1848,-222 47.1848,-216 53.1848,-216"/>
<polyline fill="none" stroke="gray" points="53.1848,-216 168.38,-216 "/>
<path fill="none" stroke="gray" d="M168.38,-216C174.38,-216 180.38,-222 180.38,-228"/>
<polyline fill="none" stroke="gray" points="180.38,-228 180.38,-240 "/>
<path fill="none" stroke="gray" d="M180.38,-240C180.38,-246 174.38,-252 168.38,-252"/>
<text text-anchor="middle" x="110.782" y="-228.4" font-family="Helvetica,sans-Serif" font-size="14.00">Nearest TB Positive</text>
</g>
<!-- nearestTBPositive&#45;&gt;moveIndividualCopy -->
<g id="edge11" class="edge"><title>nearestTBPositive&#45;&gt;moveIndividualCopy:ne</title>
<path fill="none" stroke="#4414cc" stroke-width="3" stroke-dasharray="5,2" d="M95.8546,-215.539C88.2914,-205.727 79.6917,-192.89 74.7822,-180 54.4971,-126.743 90.7955,-90.8657 68.1751,-51.782"/>
<polygon fill="#4414cc" stroke="#4414cc" points="73.6397,-47.4067 55.7822,-36 62.6288,-56.0531 73.6397,-47.4067"/>
</g>
<!-- awayQuery -->
<g id="node20" class="node"><title>awayQuery</title>
<polygon fill="#d9ccff" stroke="#d9ccff" points="125.782,-180 95.7822,-180 83.7822,-168 83.7822,-156 95.7822,-144 125.782,-144 137.782,-156 137.782,-168 125.782,-180"/>
<path fill="#d9ccff" stroke="#d9ccff" d="M95.7822,-180C89.7822,-180 83.7822,-174 83.7822,-168"/>
<path fill="#d9ccff" stroke="#d9ccff" d="M83.7822,-156C83.7822,-150 89.7822,-144 95.7822,-144"/>
<path fill="#d9ccff" stroke="#d9ccff" d="M125.782,-144C131.782,-144 137.782,-150 137.782,-156"/>
<path fill="#d9ccff" stroke="#d9ccff" d="M137.782,-168C137.782,-174 131.782,-180 125.782,-180"/>
<polyline fill="none" stroke="#d9ccff" points="125.782,-180 95.7822,-180 "/>
<path fill="none" stroke="#d9ccff" d="M95.7822,-180C89.7822,-180 83.7822,-174 83.7822,-168"/>
<polyline fill="none" stroke="#d9ccff" points="83.7822,-168 83.7822,-156 "/>
<path fill="none" stroke="#d9ccff" d="M83.7822,-156C83.7822,-150 89.7822,-144 95.7822,-144"/>
<polyline fill="none" stroke="#d9ccff" points="95.7822,-144 125.782,-144 "/>
<path fill="none" stroke="#d9ccff" d="M125.782,-144C131.782,-144 137.782,-150 137.782,-156"/>
<polyline fill="none" stroke="#d9ccff" points="137.782,-156 137.782,-168 "/>
<path fill="none" stroke="#d9ccff" d="M137.782,-168C137.782,-174 131.782,-180 125.782,-180"/>
<text text-anchor="middle" x="110.782" y="-156.4" font-family="Helvetica,sans-Serif" font-size="14.00">Away</text>
</g>
<!-- nearestTBPositive&#45;&gt;awayQuery -->
<g id="edge49" class="edge"><title>nearestTBPositive&#45;&gt;awayQuery</title>
<path fill="none" stroke="#4414cc" stroke-width="3" d="M110.782,-215.697C110.782,-210.95 110.782,-205.613 110.782,-200.206"/>
<polygon fill="#4414cc" stroke="#4414cc" points="117.782,-200.104 110.782,-180.104 103.782,-200.104 117.782,-200.104"/>
</g>
<!-- moveAvailable -->
<g id="node27" class="node"><title>moveAvailable</title>
<polygon fill="#d9ccff" stroke="#d9ccff" points="211.965,-180 167.599,-180 155.599,-168 155.599,-156 167.599,-144 211.965,-144 223.965,-156 223.965,-168 211.965,-180"/>
<path fill="#d9ccff" stroke="#d9ccff" d="M167.599,-180C161.599,-180 155.599,-174 155.599,-168"/>
<path fill="#d9ccff" stroke="#d9ccff" d="M155.599,-156C155.599,-150 161.599,-144 167.599,-144"/>
<path fill="#d9ccff" stroke="#d9ccff" d="M211.965,-144C217.965,-144 223.965,-150 223.965,-156"/>
<path fill="#d9ccff" stroke="#d9ccff" d="M223.965,-168C223.965,-174 217.965,-180 211.965,-180"/>
<polyline fill="none" stroke="#d9ccff" points="211.965,-180 167.599,-180 "/>
<path fill="none" stroke="#d9ccff" d="M167.599,-180C161.599,-180 155.599,-174 155.599,-168"/>
<polyline fill="none" stroke="#d9ccff" points="155.599,-168 155.599,-156 "/>
<path fill="none" stroke="#d9ccff" d="M155.599,-156C155.599,-150 161.599,-144 167.599,-144"/>
<polyline fill="none" stroke="#d9ccff" points="167.599,-144 211.965,-144 "/>
<path fill="none" stroke="#d9ccff" d="M211.965,-144C217.965,-144 223.965,-150 223.965,-156"/>
<polyline fill="none" stroke="#d9ccff" points="223.965,-156 223.965,-168 "/>
<path fill="none" stroke="#d9ccff" d="M223.965,-168C223.965,-174 217.965,-180 211.965,-180"/>
<text text-anchor="middle" x="189.782" y="-156.4" font-family="Helvetica,sans-Serif" font-size="14.00">Nearest </text>
</g>
<!-- nearestTBPositive&#45;&gt;moveAvailable -->
<g id="edge45" class="edge"><title>nearestTBPositive&#45;&gt;moveAvailable</title>
<path fill="none" stroke="#4414cc" stroke-width="3" d="M130.31,-215.697C137.868,-209 146.749,-201.13 155.311,-193.544"/>
<polygon fill="#4414cc" stroke="#4414cc" points="160.152,-198.607 170.479,-180.104 150.867,-188.129 160.152,-198.607"/>
</g>
<!-- nearestTBPositive&#45;&gt;tBBacterialPresenseGreaterTBAvoidanceThresholdQuery -->
<g id="edge47" class="edge"><title>nearestTBPositive&#45;&gt;tBBacterialPresenseGreaterTBAvoidanceThresholdQuery</title>
<path fill="none" stroke="#4414cc" stroke-width="3" d="M153.592,-215.876C177.102,-206.472 206.496,-194.714 231.593,-184.676"/>
<polygon fill="#4414cc" stroke="#4414cc" points="234.22,-191.164 250.19,-177.237 229.02,-178.166 234.22,-191.164"/>
</g>
<!-- avoidedTBLocation -->
<g id="node22" class="node"><title>avoidedTBLocation</title>
<polygon fill="#d9ccff" stroke="#d9ccff" points="164.782,-108 134.782,-108 122.782,-96 122.782,-84 134.782,-72 164.782,-72 176.782,-84 176.782,-96 164.782,-108"/>
<path fill="#d9ccff" stroke="#d9ccff" d="M134.782,-108C128.782,-108 122.782,-102 122.782,-96"/>
<path fill="#d9ccff" stroke="#d9ccff" d="M122.782,-84C122.782,-78 128.782,-72 134.782,-72"/>
<path fill="#d9ccff" stroke="#d9ccff" d="M164.782,-72C170.782,-72 176.782,-78 176.782,-84"/>
<path fill="#d9ccff" stroke="#d9ccff" d="M176.782,-96C176.782,-102 170.782,-108 164.782,-108"/>
<polyline fill="none" stroke="#d9ccff" points="164.782,-108 134.782,-108 "/>
<path fill="none" stroke="#d9ccff" d="M134.782,-108C128.782,-108 122.782,-102 122.782,-96"/>
<polyline fill="none" stroke="#d9ccff" points="122.782,-96 122.782,-84 "/>
<path fill="none" stroke="#d9ccff" d="M122.782,-84C122.782,-78 128.782,-72 134.782,-72"/>
<polyline fill="none" stroke="#d9ccff" points="134.782,-72 164.782,-72 "/>
<path fill="none" stroke="#d9ccff" d="M164.782,-72C170.782,-72 176.782,-78 176.782,-84"/>
<polyline fill="none" stroke="#d9ccff" points="176.782,-84 176.782,-96 "/>
<path fill="none" stroke="#d9ccff" d="M176.782,-96C176.782,-102 170.782,-108 164.782,-108"/>
<text text-anchor="middle" x="149.782" y="-84.4" font-family="Helvetica,sans-Serif" font-size="14.00">And</text>
</g>
<!-- awayQuery&#45;&gt;avoidedTBLocation -->
<g id="edge13" class="edge"><title>awayQuery&#45;&gt;avoidedTBLocation</title>
<path fill="none" stroke="#4414cc" stroke-width="3" d="M120.423,-143.697C123.493,-138.187 127.005,-131.883 130.507,-125.596"/>
<polygon fill="#4414cc" stroke="#4414cc" points="136.634,-128.983 140.253,-108.104 124.404,-122.169 136.634,-128.983"/>
</g>
<!-- avoidedTBLocation&#45;&gt;moveIndividualCopy -->
<g id="edge41" class="edge"><title>avoidedTBLocation&#45;&gt;moveIndividualCopy</title>
<path fill="none" stroke="#4414cc" stroke-width="3" d="M122.67,-72.055C110.516,-64.4588 95.8625,-55.3002 82.1761,-46.7461"/>
<polygon fill="#4414cc" stroke="#4414cc" points="85.7028,-40.6957 65.0328,-36.0316 78.2828,-52.5676 85.7028,-40.6957"/>
</g>
<!-- _TBStatusDifferentActiveQueryAndTBStatusDifferentDeadQuery_&#45;&gt;identityAvoidTBLocationsQuery -->
<g id="edge15" class="edge"><title>_TBStatusDifferentActiveQueryAndTBStatusDifferentDeadQuery_&#45;&gt;identityAvoidTBLocationsQuery</title>
<path fill="none" stroke="#1451cc" stroke-width="3" d="M596.653,-378.282C542.924,-364.978 422.412,-335.137 355.608,-318.595"/>
<polygon fill="#1451cc" stroke="#1451cc" points="357.054,-311.742 335.958,-313.729 353.689,-325.331 357.054,-311.742"/>
</g>
<!-- identityAvoidTBLocationsQuery&#45;&gt;nearestTBPositive -->
<g id="edge17" class="edge"><title>identityAvoidTBLocationsQuery&#45;&gt;nearestTBPositive</title>
<path fill="none" stroke="#1451cc" stroke-width="3" d="M281.666,-295.414C255.125,-286.03 213.629,-271.36 178.175,-258.826"/>
<polygon fill="#1451cc" stroke="#1451cc" points="180.423,-252.196 159.233,-252.129 175.756,-265.395 180.423,-252.196"/>
</g>
<!-- moveAvailable&#45;&gt;avoidedTBLocation -->
<g id="edge19" class="edge"><title>moveAvailable&#45;&gt;avoidedTBLocation</title>
<path fill="none" stroke="#4414cc" stroke-width="3" d="M179.895,-143.697C176.746,-138.187 173.144,-131.883 169.551,-125.596"/>
<polygon fill="#4414cc" stroke="#4414cc" points="175.557,-121.996 159.556,-108.104 163.401,-128.942 175.557,-121.996"/>
</g>
<!-- neighborQueryCopyCopy -->
<g id="node29" class="node"><title>neighborQueryCopyCopy</title>
<polygon fill="#ccceff" stroke="#ccceff" points="658.893,-324 610.671,-324 598.671,-312 598.671,-300 610.671,-288 658.893,-288 670.893,-300 670.893,-312 658.893,-324"/>
<path fill="#ccceff" stroke="#ccceff" d="M610.671,-324C604.671,-324 598.671,-318 598.671,-312"/>
<path fill="#ccceff" stroke="#ccceff" d="M598.671,-300C598.671,-294 604.671,-288 610.671,-288"/>
<path fill="#ccceff" stroke="#ccceff" d="M658.893,-288C664.893,-288 670.893,-294 670.893,-300"/>
<path fill="#ccceff" stroke="#ccceff" d="M670.893,-312C670.893,-318 664.893,-324 658.893,-324"/>
<polyline fill="none" stroke="#ccceff" points="658.893,-324 610.671,-324 "/>
<path fill="none" stroke="#ccceff" d="M610.671,-324C604.671,-324 598.671,-318 598.671,-312"/>
<polyline fill="none" stroke="#ccceff" points="598.671,-312 598.671,-300 "/>
<path fill="none" stroke="#ccceff" d="M598.671,-300C598.671,-294 604.671,-288 610.671,-288"/>
<polyline fill="none" stroke="#ccceff" points="610.671,-288 658.893,-288 "/>
<path fill="none" stroke="#ccceff" d="M658.893,-288C664.893,-288 670.893,-294 670.893,-300"/>
<polyline fill="none" stroke="#ccceff" points="670.893,-300 670.893,-312 "/>
<path fill="none" stroke="#ccceff" d="M670.893,-312C670.893,-318 664.893,-324 658.893,-324"/>
<text text-anchor="middle" x="634.782" y="-300.4" font-family="Helvetica,sans-Serif" font-size="14.00">Neighbor</text>
</g>
<!-- _And_NeighborQueryCopyCopy -->
<g id="node31" class="node"><title>_And_NeighborQueryCopyCopy</title>
<polygon fill="#ccceff" stroke="#ccceff" points="694.782,-252 664.782,-252 652.782,-240 652.782,-228 664.782,-216 694.782,-216 706.782,-228 706.782,-240 694.782,-252"/>
<path fill="#ccceff" stroke="#ccceff" d="M664.782,-252C658.782,-252 652.782,-246 652.782,-240"/>
<path fill="#ccceff" stroke="#ccceff" d="M652.782,-228C652.782,-222 658.782,-216 664.782,-216"/>
<path fill="#ccceff" stroke="#ccceff" d="M694.782,-216C700.782,-216 706.782,-222 706.782,-228"/>
<path fill="#ccceff" stroke="#ccceff" d="M706.782,-240C706.782,-246 700.782,-252 694.782,-252"/>
<polyline fill="none" stroke="#ccceff" points="694.782,-252 664.782,-252 "/>
<path fill="none" stroke="#ccceff" d="M664.782,-252C658.782,-252 652.782,-246 652.782,-240"/>
<polyline fill="none" stroke="#ccceff" points="652.782,-240 652.782,-228 "/>
<path fill="none" stroke="#ccceff" d="M652.782,-228C652.782,-222 658.782,-216 664.782,-216"/>
<polyline fill="none" stroke="#ccceff" points="664.782,-216 694.782,-216 "/>
<path fill="none" stroke="#ccceff" d="M694.782,-216C700.782,-216 706.782,-222 706.782,-228"/>
<polyline fill="none" stroke="#ccceff" points="706.782,-228 706.782,-240 "/>
<path fill="none" stroke="#ccceff" d="M706.782,-240C706.782,-246 700.782,-252 694.782,-252"/>
<text text-anchor="middle" x="679.782" y="-228.4" font-family="Helvetica,sans-Serif" font-size="14.00">And</text>
</g>
<!-- neighborQueryCopyCopy&#45;&gt;_And_NeighborQueryCopyCopy -->
<g id="edge21" class="edge"><title>neighborQueryCopyCopy&#45;&gt;_And_NeighborQueryCopyCopy</title>
<path fill="none" stroke="#141bcc" stroke-width="3" d="M645.906,-287.697C649.557,-282.017 653.75,-275.494 657.915,-269.016"/>
<polygon fill="#141bcc" stroke="#141bcc" points="663.86,-272.713 668.787,-252.104 652.083,-265.143 663.86,-272.713"/>
</g>
<!-- _And_NeighborQueryCopyCopy&#45;&gt;moveIndividualCopyCopyCopy -->
<g id="edge43" class="edge"><title>_And_NeighborQueryCopyCopy&#45;&gt;moveIndividualCopyCopyCopy</title>
<path fill="none" stroke="#141bcc" stroke-width="3" d="M679.782,-215.697C679.782,-210.95 679.782,-205.613 679.782,-200.206"/>
<polygon fill="#141bcc" stroke="#141bcc" points="686.782,-200.104 679.782,-180.104 672.782,-200.104 686.782,-200.104"/>
</g>
<!-- availableQueryCopy -->
<g id="node32" class="node"><title>availableQueryCopy</title>
<polygon fill="#ccceff" stroke="#ccceff" points="749.71,-324 701.855,-324 689.855,-312 689.855,-300 701.855,-288 749.71,-288 761.71,-300 761.71,-312 749.71,-324"/>
<path fill="#ccceff" stroke="#ccceff" d="M701.855,-324C695.855,-324 689.855,-318 689.855,-312"/>
<path fill="#ccceff" stroke="#ccceff" d="M689.855,-300C689.855,-294 695.855,-288 701.855,-288"/>
<path fill="#ccceff" stroke="#ccceff" d="M749.71,-288C755.71,-288 761.71,-294 761.71,-300"/>
<path fill="#ccceff" stroke="#ccceff" d="M761.71,-312C761.71,-318 755.71,-324 749.71,-324"/>
<polyline fill="none" stroke="#ccceff" points="749.71,-324 701.855,-324 "/>
<path fill="none" stroke="#ccceff" d="M701.855,-324C695.855,-324 689.855,-318 689.855,-312"/>
<polyline fill="none" stroke="#ccceff" points="689.855,-312 689.855,-300 "/>
<path fill="none" stroke="#ccceff" d="M689.855,-300C689.855,-294 695.855,-288 701.855,-288"/>
<polyline fill="none" stroke="#ccceff" points="701.855,-288 749.71,-288 "/>
<path fill="none" stroke="#ccceff" d="M749.71,-288C755.71,-288 761.71,-294 761.71,-300"/>
<polyline fill="none" stroke="#ccceff" points="761.71,-300 761.71,-312 "/>
<path fill="none" stroke="#ccceff" d="M761.71,-312C761.71,-318 755.71,-324 749.71,-324"/>
<text text-anchor="middle" x="725.782" y="-300.4" font-family="Helvetica,sans-Serif" font-size="14.00">Available</text>
</g>
<!-- availableQueryCopy&#45;&gt;_And_NeighborQueryCopyCopy -->
<g id="edge23" class="edge"><title>availableQueryCopy&#45;&gt;_And_NeighborQueryCopyCopy</title>
<path fill="none" stroke="#141bcc" stroke-width="3" d="M714.411,-287.697C710.679,-282.017 706.393,-275.494 702.136,-269.016"/>
<polygon fill="#141bcc" stroke="#141bcc" points="707.856,-264.974 691.022,-252.104 696.156,-272.663 707.856,-264.974"/>
</g>
<!-- neighboringCell&#45;&gt;neighborQueryCopyCopy -->
<g id="edge37" class="edge"><title>neighboringCell&#45;&gt;neighborQueryCopyCopy</title>
<path fill="none" stroke="#141bcc" stroke-width="3" d="M707.921,-367.689C697.089,-358.702 683.543,-347.461 671.062,-337.104"/>
<polygon fill="#141bcc" stroke="#141bcc" points="675.447,-331.647 655.586,-324.262 666.507,-342.421 675.447,-331.647"/>
</g>
<!-- neighboringCell&#45;&gt;availableQueryCopy -->
<g id="edge35" class="edge"><title>neighboringCell&#45;&gt;availableQueryCopy</title>
<path fill="none" stroke="#141bcc" stroke-width="3" d="M728.116,-367.689C727.852,-360.822 727.538,-352.64 727.226,-344.542"/>
<polygon fill="#141bcc" stroke="#141bcc" points="734.21,-343.978 726.446,-324.262 720.22,-344.517 734.21,-343.978"/>
</g>
<!-- neighboringCell&#45;&gt;moveIndividualCopyCopyCopy -->
<g id="edge29" class="edge"><title>neighboringCell&#45;&gt;moveIndividualCopyCopyCopy:ne</title>
<path fill="none" stroke="#141bcc" stroke-width="3" stroke-dasharray="5,2" d="M744.821,-367.852C754.398,-356.394 765.666,-340.452 770.782,-324 775.533,-308.722 775.468,-303.299 770.782,-288 755.937,-239.528 742.546,-224.56 711.985,-194.131"/>
<polygon fill="#141bcc" stroke="#141bcc" points="716.898,-189.144 697.782,-180 707.023,-199.068 716.898,-189.144"/>
</g>
<!-- tBBacterialPresenseGreaterTBAvoidanceThresholdQuery&#45;&gt;avoidedTBLocation -->
<g id="edge39" class="edge"><title>tBBacterialPresenseGreaterTBAvoidanceThresholdQuery&#45;&gt;avoidedTBLocation</title>
<path fill="none" stroke="#4414cc" stroke-width="3" d="M252.513,-143.876C235.264,-134.998 213.939,-124.022 195.196,-114.375"/>
<polygon fill="#4414cc" stroke="#4414cc" points="198.207,-108.052 177.221,-105.123 191.8,-120.5 198.207,-108.052"/>
</g>
</g>
</svg>
