<?xml version="1.0" encoding="UTF-8" standalone="no"?>
<!DOCTYPE svg PUBLIC "-//W3C//DTD SVG 1.1//EN"
 "http://www.w3.org/Graphics/SVG/1.1/DTD/svg11.dtd">
<!-- Generated by graphviz version 2.29.20110702.0445 (20110702.0445)
 -->
<!-- Title: individual Pages: 1 -->
<svg width="1225pt" height="908pt"
 viewBox="0.00 0.00 1225.00 908.00" xmlns="http://www.w3.org/2000/svg" xmlns:xlink="http://www.w3.org/1999/xlink">
<g id="graph1" class="graph" transform="scale(1 1) rotate(0) translate(4 904)">
<title>individual</title>
<polygon fill="white" stroke="white" points="-4,5 -4,-904 1222,-904 1222,5 -4,5"/>
<g id="graph2" class="cluster"><title>clusterWatch</title>
<polygon fill="ghostwhite" stroke="white" points="236,-8 236,-156 1209,-156 1209,-8 236,-8"/>
<text text-anchor="middle" x="263.582" y="-138" font-family="Helvetica,sans-Serif" font-size="14.00">Watch</text>
</g>
<g id="graph3" class="cluster"><title>clusterRule</title>
<polygon fill="ghostwhite" stroke="white" points="58,-80 58,-664 228,-664 228,-80 58,-80"/>
<text text-anchor="middle" x="83.8965" y="-646" font-family="Helvetica,sans-Serif" font-size="14.00">Rules</text>
</g>
<g id="graph4" class="cluster"><title>clusterInit</title>
<polygon fill="ghostwhite" stroke="white" points="168,-672 168,-892 302,-892 302,-672 168,-672"/>
<text text-anchor="middle" x="201.29" y="-874" font-family="Helvetica,sans-Serif" font-size="14.00">Initialize</text>
</g>
<!-- iteration -->
<g id="node1" class="node"><title>iteration</title>
<polygon fill="lightgray" stroke="lightgray" points="171,-632 141,-632 129,-620 129,-608 141,-596 171,-596 183,-608 183,-620 171,-632"/>
<path fill="lightgray" stroke="lightgray" d="M141,-632C135,-632 129,-626 129,-620"/>
<path fill="lightgray" stroke="lightgray" d="M129,-608C129,-602 135,-596 141,-596"/>
<path fill="lightgray" stroke="lightgray" d="M171,-596C177,-596 183,-602 183,-608"/>
<path fill="lightgray" stroke="lightgray" d="M183,-620C183,-626 177,-632 171,-632"/>
<polyline fill="none" stroke="black" points="171,-632 141,-632 "/>
<path fill="none" stroke="black" d="M141,-632C135,-632 129,-626 129,-620"/>
<polyline fill="none" stroke="black" points="129,-620 129,-608 "/>
<path fill="none" stroke="black" d="M129,-608C129,-602 135,-596 141,-596"/>
<polyline fill="none" stroke="black" points="141,-596 171,-596 "/>
<path fill="none" stroke="black" d="M171,-596C177,-596 183,-602 183,-608"/>
<polyline fill="none" stroke="black" points="183,-608 183,-620 "/>
<path fill="none" stroke="black" d="M183,-620C183,-626 177,-632 171,-632"/>
<text text-anchor="middle" x="156" y="-608.4" font-family="Helvetica,sans-Serif" font-size="14.00">Step</text>
</g>
<!-- movement -->
<g id="node15" class="node"><title>movement</title>
<a xlink:href="individual_movement.svg" xlink:title="Movement">
<polygon fill="#ccddff" stroke="#ccddff" points="184.518,-560 127.482,-560 115.482,-548 115.482,-536 127.482,-524 184.518,-524 196.518,-536 196.518,-548 184.518,-560"/>
<path fill="#ccddff" stroke="#ccddff" d="M127.482,-560C121.482,-560 115.482,-554 115.482,-548"/>
<path fill="#ccddff" stroke="#ccddff" d="M115.482,-536C115.482,-530 121.482,-524 127.482,-524"/>
<path fill="#ccddff" stroke="#ccddff" d="M184.518,-524C190.518,-524 196.518,-530 196.518,-536"/>
<path fill="#ccddff" stroke="#ccddff" d="M196.518,-548C196.518,-554 190.518,-560 184.518,-560"/>
<polyline fill="none" stroke="black" points="184.518,-560 127.482,-560 "/>
<path fill="none" stroke="black" d="M127.482,-560C121.482,-560 115.482,-554 115.482,-548"/>
<polyline fill="none" stroke="black" points="115.482,-548 115.482,-536 "/>
<path fill="none" stroke="black" d="M115.482,-536C115.482,-530 121.482,-524 127.482,-524"/>
<polyline fill="none" stroke="black" points="127.482,-524 184.518,-524 "/>
<path fill="none" stroke="black" d="M184.518,-524C190.518,-524 196.518,-530 196.518,-536"/>
<polyline fill="none" stroke="black" points="196.518,-536 196.518,-548 "/>
<path fill="none" stroke="black" d="M196.518,-548C196.518,-554 190.518,-560 184.518,-560"/>
<text text-anchor="middle" x="156" y="-536.4" font-family="Helvetica,sans-Serif" font-size="14.00">Movement</text>
</a>
</g>
<!-- iteration&#45;&gt;movement -->
<g id="edge16" class="edge"><title>iteration&#45;&gt;movement</title>
<path fill="none" stroke="darkslategray" stroke-width="3" d="M156,-595.697C156,-587.983 156,-578.712 156,-570.112"/>
<polygon fill="darkslategray" stroke="darkslategray" points="159.5,-570.104 156,-560.104 152.5,-570.104 159.5,-570.104"/>
</g>
<!-- start -->
<g id="node2" class="node"><title>start</title>
<polygon fill="lightgray" stroke="lightgray" points="250,-860 220,-860 208,-848 208,-836 220,-824 250,-824 262,-836 262,-848 250,-860"/>
<path fill="lightgray" stroke="lightgray" d="M220,-860C214,-860 208,-854 208,-848"/>
<path fill="lightgray" stroke="lightgray" d="M208,-836C208,-830 214,-824 220,-824"/>
<path fill="lightgray" stroke="lightgray" d="M250,-824C256,-824 262,-830 262,-836"/>
<path fill="lightgray" stroke="lightgray" d="M262,-848C262,-854 256,-860 250,-860"/>
<polyline fill="none" stroke="black" points="250,-860 220,-860 "/>
<path fill="none" stroke="black" d="M220,-860C214,-860 208,-854 208,-848"/>
<polyline fill="none" stroke="black" points="208,-848 208,-836 "/>
<path fill="none" stroke="black" d="M208,-836C208,-830 214,-824 220,-824"/>
<polyline fill="none" stroke="black" points="220,-824 250,-824 "/>
<path fill="none" stroke="black" d="M250,-824C256,-824 262,-830 262,-836"/>
<polyline fill="none" stroke="black" points="262,-836 262,-848 "/>
<path fill="none" stroke="black" d="M262,-848C262,-854 256,-860 250,-860"/>
<text text-anchor="middle" x="235" y="-836.4" font-family="Helvetica,sans-Serif" font-size="14.00">Start</text>
</g>
<!-- initialPlacement -->
<g id="node28" class="node"><title>initialPlacement</title>
<a xlink:href="individual_initialPlacement.svg" xlink:title="Initial Placement">
<polygon fill="#ccffff" stroke="#ccffff" points="282.038,-788 187.962,-788 175.962,-776 175.962,-764 187.962,-752 282.038,-752 294.038,-764 294.038,-776 282.038,-788"/>
<path fill="#ccffff" stroke="#ccffff" d="M187.962,-788C181.962,-788 175.962,-782 175.962,-776"/>
<path fill="#ccffff" stroke="#ccffff" d="M175.962,-764C175.962,-758 181.962,-752 187.962,-752"/>
<path fill="#ccffff" stroke="#ccffff" d="M282.038,-752C288.038,-752 294.038,-758 294.038,-764"/>
<path fill="#ccffff" stroke="#ccffff" d="M294.038,-776C294.038,-782 288.038,-788 282.038,-788"/>
<polyline fill="none" stroke="black" points="282.038,-788 187.962,-788 "/>
<path fill="none" stroke="black" d="M187.962,-788C181.962,-788 175.962,-782 175.962,-776"/>
<polyline fill="none" stroke="black" points="175.962,-776 175.962,-764 "/>
<path fill="none" stroke="black" d="M175.962,-764C175.962,-758 181.962,-752 187.962,-752"/>
<polyline fill="none" stroke="black" points="187.962,-752 282.038,-752 "/>
<path fill="none" stroke="black" d="M282.038,-752C288.038,-752 294.038,-758 294.038,-764"/>
<polyline fill="none" stroke="black" points="294.038,-764 294.038,-776 "/>
<path fill="none" stroke="black" d="M294.038,-776C294.038,-782 288.038,-788 282.038,-788"/>
<text text-anchor="middle" x="235" y="-764.4" font-family="Helvetica,sans-Serif" font-size="14.00">Initial Placement</text>
</a>
</g>
<!-- start&#45;&gt;initialPlacement -->
<g id="edge32" class="edge"><title>start&#45;&gt;initialPlacement</title>
<path fill="none" stroke="darkslategray" stroke-width="3" d="M235,-823.697C235,-815.983 235,-806.712 235,-798.112"/>
<polygon fill="darkslategray" stroke="darkslategray" points="238.5,-798.104 235,-788.104 231.5,-798.104 238.5,-798.104"/>
</g>
<!-- watchTBStatus -->
<g id="node4" class="node"><title>watchTBStatus</title>
<a xlink:href="individual_watchTBStatus.svg" xlink:title="Watch TB Status">
<polygon fill="#feccff" stroke="#feccff" points="852.207,-124 755.793,-124 743.793,-112 743.793,-100 755.793,-88 852.207,-88 864.207,-100 864.207,-112 852.207,-124"/>
<path fill="#feccff" stroke="#feccff" d="M755.793,-124C749.793,-124 743.793,-118 743.793,-112"/>
<path fill="#feccff" stroke="#feccff" d="M743.793,-100C743.793,-94 749.793,-88 755.793,-88"/>
<path fill="#feccff" stroke="#feccff" d="M852.207,-88C858.207,-88 864.207,-94 864.207,-100"/>
<path fill="#feccff" stroke="#feccff" d="M864.207,-112C864.207,-118 858.207,-124 852.207,-124"/>
<polyline fill="none" stroke="black" points="852.207,-124 755.793,-124 "/>
<path fill="none" stroke="black" d="M755.793,-124C749.793,-124 743.793,-118 743.793,-112"/>
<polyline fill="none" stroke="black" points="743.793,-112 743.793,-100 "/>
<path fill="none" stroke="black" d="M743.793,-100C743.793,-94 749.793,-88 755.793,-88"/>
<polyline fill="none" stroke="black" points="755.793,-88 852.207,-88 "/>
<path fill="none" stroke="black" d="M852.207,-88C858.207,-88 864.207,-94 864.207,-100"/>
<polyline fill="none" stroke="black" points="864.207,-100 864.207,-112 "/>
<path fill="none" stroke="black" d="M864.207,-112C864.207,-118 858.207,-124 852.207,-124"/>
<text text-anchor="middle" x="804" y="-100.4" font-family="Helvetica,sans-Serif" font-size="14.00">Watch TB Status</text>
</a>
</g>
<!-- watchTreatmentStatus -->
<g id="node6" class="node"><title>watchTreatmentStatus</title>
<a xlink:href="individual_watchTreatmentStatus.svg" xlink:title="Watch Treatment Status">
<polygon fill="#ffccee" stroke="#ffccee" points="397.256,-52 256.744,-52 244.744,-40 244.744,-28 256.744,-16 397.256,-16 409.256,-28 409.256,-40 397.256,-52"/>
<path fill="#ffccee" stroke="#ffccee" d="M256.744,-52C250.744,-52 244.744,-46 244.744,-40"/>
<path fill="#ffccee" stroke="#ffccee" d="M244.744,-28C244.744,-22 250.744,-16 256.744,-16"/>
<path fill="#ffccee" stroke="#ffccee" d="M397.256,-16C403.256,-16 409.256,-22 409.256,-28"/>
<path fill="#ffccee" stroke="#ffccee" d="M409.256,-40C409.256,-46 403.256,-52 397.256,-52"/>
<polyline fill="none" stroke="black" points="397.256,-52 256.744,-52 "/>
<path fill="none" stroke="black" d="M256.744,-52C250.744,-52 244.744,-46 244.744,-40"/>
<polyline fill="none" stroke="black" points="244.744,-40 244.744,-28 "/>
<path fill="none" stroke="black" d="M244.744,-28C244.744,-22 250.744,-16 256.744,-16"/>
<polyline fill="none" stroke="black" points="256.744,-16 397.256,-16 "/>
<path fill="none" stroke="black" d="M397.256,-16C403.256,-16 409.256,-22 409.256,-28"/>
<polyline fill="none" stroke="black" points="409.256,-28 409.256,-40 "/>
<path fill="none" stroke="black" d="M409.256,-40C409.256,-46 403.256,-52 397.256,-52"/>
<text text-anchor="middle" x="327" y="-28.4" font-family="Helvetica,sans-Serif" font-size="14.00">Watch Treatment Status</text>
</a>
</g>
<!-- watchTBStatus&#45;&gt;watchTreatmentStatus -->
<g id="edge3" class="edge"><title>watchTBStatus&#45;&gt;watchTreatmentStatus:n</title>
<path fill="none" stroke="#cb14cc" stroke-width="3" d="M761.966,-87.8911C752.876,-84.7858 743.221,-81.9256 734,-80 692.835,-71.4041 377.749,-93.6726 332.424,-60.7411"/>
<polygon fill="#cb14cc" stroke="#cb14cc" points="335.247,-58.6514 327,-52 329.299,-62.3424 335.247,-58.6514"/>
</g>
<!-- deriveSuccesfulTreatments -->
<g id="node7" class="node"><title>deriveSuccesfulTreatments</title>
<a xlink:href="individual_deriveSuccesfulTreatments.svg" xlink:title="Derive Succesful Treatments">
<polygon fill="#ddffcc" stroke="#ddffcc" points="1065.23,-124 894.771,-124 882.771,-112 882.771,-100 894.771,-88 1065.23,-88 1077.23,-100 1077.23,-112 1065.23,-124"/>
<path fill="#ddffcc" stroke="#ddffcc" d="M894.771,-124C888.771,-124 882.771,-118 882.771,-112"/>
<path fill="#ddffcc" stroke="#ddffcc" d="M882.771,-100C882.771,-94 888.771,-88 894.771,-88"/>
<path fill="#ddffcc" stroke="#ddffcc" d="M1065.23,-88C1071.23,-88 1077.23,-94 1077.23,-100"/>
<path fill="#ddffcc" stroke="#ddffcc" d="M1077.23,-112C1077.23,-118 1071.23,-124 1065.23,-124"/>
<polyline fill="none" stroke="black" points="1065.23,-124 894.771,-124 "/>
<path fill="none" stroke="black" d="M894.771,-124C888.771,-124 882.771,-118 882.771,-112"/>
<polyline fill="none" stroke="black" points="882.771,-112 882.771,-100 "/>
<path fill="none" stroke="black" d="M882.771,-100C882.771,-94 888.771,-88 894.771,-88"/>
<polyline fill="none" stroke="black" points="894.771,-88 1065.23,-88 "/>
<path fill="none" stroke="black" d="M1065.23,-88C1071.23,-88 1077.23,-94 1077.23,-100"/>
<polyline fill="none" stroke="black" points="1077.23,-100 1077.23,-112 "/>
<path fill="none" stroke="black" d="M1077.23,-112C1077.23,-118 1071.23,-124 1065.23,-124"/>
<text text-anchor="middle" x="980" y="-100.4" font-family="Helvetica,sans-Serif" font-size="14.00">Derive Succesful Treatments</text>
</a>
</g>
<!-- watchGender -->
<g id="node8" class="node"><title>watchGender</title>
<a xlink:href="individual_watchGender.svg" xlink:title="Watch Gender">
<polygon fill="#edccff" stroke="#edccff" points="1188.31,-124 1107.69,-124 1095.69,-112 1095.69,-100 1107.69,-88 1188.31,-88 1200.31,-100 1200.31,-112 1188.31,-124"/>
<path fill="#edccff" stroke="#edccff" d="M1107.69,-124C1101.69,-124 1095.69,-118 1095.69,-112"/>
<path fill="#edccff" stroke="#edccff" d="M1095.69,-100C1095.69,-94 1101.69,-88 1107.69,-88"/>
<path fill="#edccff" stroke="#edccff" d="M1188.31,-88C1194.31,-88 1200.31,-94 1200.31,-100"/>
<path fill="#edccff" stroke="#edccff" d="M1200.31,-112C1200.31,-118 1194.31,-124 1188.31,-124"/>
<polyline fill="none" stroke="black" points="1188.31,-124 1107.69,-124 "/>
<path fill="none" stroke="black" d="M1107.69,-124C1101.69,-124 1095.69,-118 1095.69,-112"/>
<polyline fill="none" stroke="black" points="1095.69,-112 1095.69,-100 "/>
<path fill="none" stroke="black" d="M1095.69,-100C1095.69,-94 1101.69,-88 1107.69,-88"/>
<polyline fill="none" stroke="black" points="1107.69,-88 1188.31,-88 "/>
<path fill="none" stroke="black" d="M1188.31,-88C1194.31,-88 1200.31,-94 1200.31,-100"/>
<polyline fill="none" stroke="black" points="1200.31,-100 1200.31,-112 "/>
<path fill="none" stroke="black" d="M1200.31,-112C1200.31,-118 1194.31,-124 1188.31,-124"/>
<text text-anchor="middle" x="1148" y="-100.4" font-family="Helvetica,sans-Serif" font-size="14.00">Watch Gender</text>
</a>
</g>
<!-- watchAgeIndex -->
<g id="node10" class="node"><title>watchAgeIndex</title>
<a xlink:href="individual_watchAgeIndex.svg" xlink:title="Watch Age Index">
<polygon fill="#dcccff" stroke="#dcccff" points="1188.5,-52 1091.5,-52 1079.5,-40 1079.5,-28 1091.5,-16 1188.5,-16 1200.5,-28 1200.5,-40 1188.5,-52"/>
<path fill="#dcccff" stroke="#dcccff" d="M1091.5,-52C1085.5,-52 1079.5,-46 1079.5,-40"/>
<path fill="#dcccff" stroke="#dcccff" d="M1079.5,-28C1079.5,-22 1085.5,-16 1091.5,-16"/>
<path fill="#dcccff" stroke="#dcccff" d="M1188.5,-16C1194.5,-16 1200.5,-22 1200.5,-28"/>
<path fill="#dcccff" stroke="#dcccff" d="M1200.5,-40C1200.5,-46 1194.5,-52 1188.5,-52"/>
<polyline fill="none" stroke="black" points="1188.5,-52 1091.5,-52 "/>
<path fill="none" stroke="black" d="M1091.5,-52C1085.5,-52 1079.5,-46 1079.5,-40"/>
<polyline fill="none" stroke="black" points="1079.5,-40 1079.5,-28 "/>
<path fill="none" stroke="black" d="M1079.5,-28C1079.5,-22 1085.5,-16 1091.5,-16"/>
<polyline fill="none" stroke="black" points="1091.5,-16 1188.5,-16 "/>
<path fill="none" stroke="black" d="M1188.5,-16C1194.5,-16 1200.5,-22 1200.5,-28"/>
<polyline fill="none" stroke="black" points="1200.5,-28 1200.5,-40 "/>
<path fill="none" stroke="black" d="M1200.5,-40C1200.5,-46 1194.5,-52 1188.5,-52"/>
<text text-anchor="middle" x="1140" y="-28.4" font-family="Helvetica,sans-Serif" font-size="14.00">Watch Age Index</text>
</a>
</g>
<!-- watchGender&#45;&gt;watchAgeIndex -->
<g id="edge5" class="edge"><title>watchGender&#45;&gt;watchAgeIndex:n</title>
<path fill="none" stroke="#8d14cc" stroke-width="3" d="M1144.09,-87.9127C1142.62,-80.4021 1141.13,-71.2334 1140.42,-62.1409"/>
<polygon fill="#8d14cc" stroke="#8d14cc" points="1143.91,-61.8466 1140,-52 1136.92,-62.1363 1143.91,-61.8466"/>
</g>
<!-- deriveAgeRange -->
<g id="node11" class="node"><title>deriveAgeRange</title>
<a xlink:href="individual_deriveAgeRange.svg" xlink:title="Derive Age Range">
<polygon fill="#ffedcc" stroke="#ffedcc" points="713.227,-124 608.773,-124 596.773,-112 596.773,-100 608.773,-88 713.227,-88 725.227,-100 725.227,-112 713.227,-124"/>
<path fill="#ffedcc" stroke="#ffedcc" d="M608.773,-124C602.773,-124 596.773,-118 596.773,-112"/>
<path fill="#ffedcc" stroke="#ffedcc" d="M596.773,-100C596.773,-94 602.773,-88 608.773,-88"/>
<path fill="#ffedcc" stroke="#ffedcc" d="M713.227,-88C719.227,-88 725.227,-94 725.227,-100"/>
<path fill="#ffedcc" stroke="#ffedcc" d="M725.227,-112C725.227,-118 719.227,-124 713.227,-124"/>
<polyline fill="none" stroke="black" points="713.227,-124 608.773,-124 "/>
<path fill="none" stroke="black" d="M608.773,-124C602.773,-124 596.773,-118 596.773,-112"/>
<polyline fill="none" stroke="black" points="596.773,-112 596.773,-100 "/>
<path fill="none" stroke="black" d="M596.773,-100C596.773,-94 602.773,-88 608.773,-88"/>
<polyline fill="none" stroke="black" points="608.773,-88 713.227,-88 "/>
<path fill="none" stroke="black" d="M713.227,-88C719.227,-88 725.227,-94 725.227,-100"/>
<polyline fill="none" stroke="black" points="725.227,-100 725.227,-112 "/>
<path fill="none" stroke="black" d="M725.227,-112C725.227,-118 719.227,-124 713.227,-124"/>
<text text-anchor="middle" x="661" y="-100.4" font-family="Helvetica,sans-Serif" font-size="14.00">Derive Age Range</text>
</a>
</g>
<!-- deriveBacterialClearingRate -->
<g id="node12" class="node"><title>deriveBacterialClearingRate</title>
<a xlink:href="individual_deriveBacterialClearingRate.svg" xlink:title="Derive Bacterial Clearing Rate">
<polygon fill="#fffecc" stroke="#fffecc" points="566.227,-124 385.773,-124 373.773,-112 373.773,-100 385.773,-88 566.227,-88 578.227,-100 578.227,-112 566.227,-124"/>
<path fill="#fffecc" stroke="#fffecc" d="M385.773,-124C379.773,-124 373.773,-118 373.773,-112"/>
<path fill="#fffecc" stroke="#fffecc" d="M373.773,-100C373.773,-94 379.773,-88 385.773,-88"/>
<path fill="#fffecc" stroke="#fffecc" d="M566.227,-88C572.227,-88 578.227,-94 578.227,-100"/>
<path fill="#fffecc" stroke="#fffecc" d="M578.227,-112C578.227,-118 572.227,-124 566.227,-124"/>
<polyline fill="none" stroke="black" points="566.227,-124 385.773,-124 "/>
<path fill="none" stroke="black" d="M385.773,-124C379.773,-124 373.773,-118 373.773,-112"/>
<polyline fill="none" stroke="black" points="373.773,-112 373.773,-100 "/>
<path fill="none" stroke="black" d="M373.773,-100C373.773,-94 379.773,-88 385.773,-88"/>
<polyline fill="none" stroke="black" points="385.773,-88 566.227,-88 "/>
<path fill="none" stroke="black" d="M566.227,-88C572.227,-88 578.227,-94 578.227,-100"/>
<polyline fill="none" stroke="black" points="578.227,-100 578.227,-112 "/>
<path fill="none" stroke="black" d="M578.227,-112C578.227,-118 572.227,-124 566.227,-124"/>
<text text-anchor="middle" x="476" y="-100.4" font-family="Helvetica,sans-Serif" font-size="14.00">Derive Bacterial Clearing Rate</text>
</a>
</g>
<!-- deriveDaytime -->
<g id="node13" class="node"><title>deriveDaytime</title>
<a xlink:href="individual_deriveDaytime.svg" xlink:title="Derive Daytime">
<polygon fill="#eeffcc" stroke="#eeffcc" points="343.269,-124 256.731,-124 244.731,-112 244.731,-100 256.731,-88 343.269,-88 355.269,-100 355.269,-112 343.269,-124"/>
<path fill="#eeffcc" stroke="#eeffcc" d="M256.731,-124C250.731,-124 244.731,-118 244.731,-112"/>
<path fill="#eeffcc" stroke="#eeffcc" d="M244.731,-100C244.731,-94 250.731,-88 256.731,-88"/>
<path fill="#eeffcc" stroke="#eeffcc" d="M343.269,-88C349.269,-88 355.269,-94 355.269,-100"/>
<path fill="#eeffcc" stroke="#eeffcc" d="M355.269,-112C355.269,-118 349.269,-124 343.269,-124"/>
<polyline fill="none" stroke="black" points="343.269,-124 256.731,-124 "/>
<path fill="none" stroke="black" d="M256.731,-124C250.731,-124 244.731,-118 244.731,-112"/>
<polyline fill="none" stroke="black" points="244.731,-112 244.731,-100 "/>
<path fill="none" stroke="black" d="M244.731,-100C244.731,-94 250.731,-88 256.731,-88"/>
<polyline fill="none" stroke="black" points="256.731,-88 343.269,-88 "/>
<path fill="none" stroke="black" d="M343.269,-88C349.269,-88 355.269,-94 355.269,-100"/>
<polyline fill="none" stroke="black" points="355.269,-100 355.269,-112 "/>
<path fill="none" stroke="black" d="M355.269,-112C355.269,-118 349.269,-124 343.269,-124"/>
<text text-anchor="middle" x="300" y="-100.4" font-family="Helvetica,sans-Serif" font-size="14.00">Derive Daytime</text>
</a>
</g>
<!-- placeMovement -->
<g id="node16" class="node"><title>placeMovement</title>
<a xlink:href="individual_placeMovement.svg" xlink:title="Place Movement">
<polygon fill="#ccccff" stroke="#ccccff" points="204.202,-488 107.798,-488 95.7984,-476 95.7984,-464 107.798,-452 204.202,-452 216.202,-464 216.202,-476 204.202,-488"/>
<path fill="#ccccff" stroke="#ccccff" d="M107.798,-488C101.798,-488 95.7984,-482 95.7984,-476"/>
<path fill="#ccccff" stroke="#ccccff" d="M95.7984,-464C95.7984,-458 101.798,-452 107.798,-452"/>
<path fill="#ccccff" stroke="#ccccff" d="M204.202,-452C210.202,-452 216.202,-458 216.202,-464"/>
<path fill="#ccccff" stroke="#ccccff" d="M216.202,-476C216.202,-482 210.202,-488 204.202,-488"/>
<polyline fill="none" stroke="black" points="204.202,-488 107.798,-488 "/>
<path fill="none" stroke="black" d="M107.798,-488C101.798,-488 95.7984,-482 95.7984,-476"/>
<polyline fill="none" stroke="black" points="95.7984,-476 95.7984,-464 "/>
<path fill="none" stroke="black" d="M95.7984,-464C95.7984,-458 101.798,-452 107.798,-452"/>
<polyline fill="none" stroke="black" points="107.798,-452 204.202,-452 "/>
<path fill="none" stroke="black" d="M204.202,-452C210.202,-452 216.202,-458 216.202,-464"/>
<polyline fill="none" stroke="black" points="216.202,-464 216.202,-476 "/>
<path fill="none" stroke="black" d="M216.202,-476C216.202,-482 210.202,-488 204.202,-488"/>
<text text-anchor="middle" x="156" y="-464.4" font-family="Helvetica,sans-Serif" font-size="14.00">Place Movement</text>
</a>
</g>
<!-- movement&#45;&gt;placeMovement -->
<g id="edge17" class="edge"><title>movement&#45;&gt;placeMovement</title>
<path fill="none" stroke="darkslategray" stroke-width="3" d="M156,-523.697C156,-515.983 156,-506.712 156,-498.112"/>
<polygon fill="darkslategray" stroke="darkslategray" points="159.5,-498.104 156,-488.104 152.5,-498.104 159.5,-498.104"/>
</g>
<!-- diseaseProcess -->
<g id="node17" class="node"><title>diseaseProcess</title>
<a xlink:href="individual_diseaseProcess.svg" xlink:title="Disease Process">
<polygon fill="#ccffdc" stroke="#ccffdc" points="204.281,-416 107.719,-416 95.7193,-404 95.7193,-392 107.719,-380 204.281,-380 216.281,-392 216.281,-404 204.281,-416"/>
<path fill="#ccffdc" stroke="#ccffdc" d="M107.719,-416C101.719,-416 95.7193,-410 95.7193,-404"/>
<path fill="#ccffdc" stroke="#ccffdc" d="M95.7193,-392C95.7193,-386 101.719,-380 107.719,-380"/>
<path fill="#ccffdc" stroke="#ccffdc" d="M204.281,-380C210.281,-380 216.281,-386 216.281,-392"/>
<path fill="#ccffdc" stroke="#ccffdc" d="M216.281,-404C216.281,-410 210.281,-416 204.281,-416"/>
<polyline fill="none" stroke="black" points="204.281,-416 107.719,-416 "/>
<path fill="none" stroke="black" d="M107.719,-416C101.719,-416 95.7193,-410 95.7193,-404"/>
<polyline fill="none" stroke="black" points="95.7193,-404 95.7193,-392 "/>
<path fill="none" stroke="black" d="M95.7193,-392C95.7193,-386 101.719,-380 107.719,-380"/>
<polyline fill="none" stroke="black" points="107.719,-380 204.281,-380 "/>
<path fill="none" stroke="black" d="M204.281,-380C210.281,-380 216.281,-386 216.281,-392"/>
<polyline fill="none" stroke="black" points="216.281,-392 216.281,-404 "/>
<path fill="none" stroke="black" d="M216.281,-404C216.281,-410 210.281,-416 204.281,-416"/>
<text text-anchor="middle" x="156" y="-392.4" font-family="Helvetica,sans-Serif" font-size="14.00">Disease Process</text>
</a>
</g>
<!-- placeMovement&#45;&gt;diseaseProcess -->
<g id="edge18" class="edge"><title>placeMovement&#45;&gt;diseaseProcess</title>
<path fill="none" stroke="darkslategray" stroke-width="3" d="M156,-451.697C156,-443.983 156,-434.712 156,-426.112"/>
<polygon fill="darkslategray" stroke="darkslategray" points="159.5,-426.104 156,-416.104 152.5,-426.104 159.5,-426.104"/>
</g>
<!-- diseaseProcess&#45;&gt;watchTBStatus -->
<g id="edge8" class="edge"><title>diseaseProcess&#45;&gt;watchTBStatus:n</title>
<path fill="none" stroke="#14cc50" stroke-width="3" d="M183.158,-379.847C255.345,-335.223 459.31,-215.417 647,-164 684.45,-153.741 696.419,-165.768 734,-156 763.072,-148.443 795.369,-156.587 802.539,-135.189"/>
<polygon fill="#14cc50" stroke="#14cc50" points="806.045,-135.396 804,-125 799.116,-134.402 806.045,-135.396"/>
</g>
<!-- detection -->
<g id="node19" class="node"><title>detection</title>
<a xlink:href="individual_detection.svg" xlink:title="Detection">
<polygon fill="#ccffcc" stroke="#ccffcc" points="178.358,-344 127.642,-344 115.642,-332 115.642,-320 127.642,-308 178.358,-308 190.358,-320 190.358,-332 178.358,-344"/>
<path fill="#ccffcc" stroke="#ccffcc" d="M127.642,-344C121.642,-344 115.642,-338 115.642,-332"/>
<path fill="#ccffcc" stroke="#ccffcc" d="M115.642,-320C115.642,-314 121.642,-308 127.642,-308"/>
<path fill="#ccffcc" stroke="#ccffcc" d="M178.358,-308C184.358,-308 190.358,-314 190.358,-320"/>
<path fill="#ccffcc" stroke="#ccffcc" d="M190.358,-332C190.358,-338 184.358,-344 178.358,-344"/>
<polyline fill="none" stroke="black" points="178.358,-344 127.642,-344 "/>
<path fill="none" stroke="black" d="M127.642,-344C121.642,-344 115.642,-338 115.642,-332"/>
<polyline fill="none" stroke="black" points="115.642,-332 115.642,-320 "/>
<path fill="none" stroke="black" d="M115.642,-320C115.642,-314 121.642,-308 127.642,-308"/>
<polyline fill="none" stroke="black" points="127.642,-308 178.358,-308 "/>
<path fill="none" stroke="black" d="M178.358,-308C184.358,-308 190.358,-314 190.358,-320"/>
<polyline fill="none" stroke="black" points="190.358,-320 190.358,-332 "/>
<path fill="none" stroke="black" d="M190.358,-332C190.358,-338 184.358,-344 178.358,-344"/>
<text text-anchor="middle" x="153" y="-320.4" font-family="Helvetica,sans-Serif" font-size="14.00">Detection</text>
</a>
</g>
<!-- diseaseProcess&#45;&gt;detection -->
<g id="edge19" class="edge"><title>diseaseProcess&#45;&gt;detection</title>
<path fill="none" stroke="darkslategray" stroke-width="3" d="M155.258,-379.697C154.928,-371.983 154.531,-362.712 154.162,-354.112"/>
<polygon fill="darkslategray" stroke="darkslategray" points="157.658,-353.945 153.733,-344.104 150.665,-354.245 157.658,-353.945"/>
</g>
<!-- detection&#45;&gt;watchTreatmentStatus -->
<g id="edge10" class="edge"><title>detection&#45;&gt;watchTreatmentStatus:n</title>
<path fill="none" stroke="#14cc14" stroke-width="3" d="M115.424,-308.487C100.645,-299.897 85.2598,-287.83 77,-272 54.1655,-228.237 -4.99853,-175.446 84,-80 118.464,-43.0397 298.876,-97.5836 324.076,-61.7579"/>
<polygon fill="#14cc14" stroke="#14cc14" points="327.482,-62.5839 327,-52 320.777,-60.5745 327.482,-62.5839"/>
</g>
<!-- immuneResponse -->
<g id="node21" class="node"><title>immuneResponse</title>
<a xlink:href="individual_immuneResponse.svg" xlink:title="Immune Response">
<polygon fill="#ccffed" stroke="#ccffed" points="207.13,-272 98.8705,-272 86.8705,-260 86.8705,-248 98.8705,-236 207.13,-236 219.13,-248 219.13,-260 207.13,-272"/>
<path fill="#ccffed" stroke="#ccffed" d="M98.8705,-272C92.8705,-272 86.8705,-266 86.8705,-260"/>
<path fill="#ccffed" stroke="#ccffed" d="M86.8705,-248C86.8705,-242 92.8705,-236 98.8705,-236"/>
<path fill="#ccffed" stroke="#ccffed" d="M207.13,-236C213.13,-236 219.13,-242 219.13,-248"/>
<path fill="#ccffed" stroke="#ccffed" d="M219.13,-260C219.13,-266 213.13,-272 207.13,-272"/>
<polyline fill="none" stroke="black" points="207.13,-272 98.8705,-272 "/>
<path fill="none" stroke="black" d="M98.8705,-272C92.8705,-272 86.8705,-266 86.8705,-260"/>
<polyline fill="none" stroke="black" points="86.8705,-260 86.8705,-248 "/>
<path fill="none" stroke="black" d="M86.8705,-248C86.8705,-242 92.8705,-236 98.8705,-236"/>
<polyline fill="none" stroke="black" points="98.8705,-236 207.13,-236 "/>
<path fill="none" stroke="black" d="M207.13,-236C213.13,-236 219.13,-242 219.13,-248"/>
<polyline fill="none" stroke="black" points="219.13,-248 219.13,-260 "/>
<path fill="none" stroke="black" d="M219.13,-260C219.13,-266 213.13,-272 207.13,-272"/>
<text text-anchor="middle" x="153" y="-248.4" font-family="Helvetica,sans-Serif" font-size="14.00">Immune Response</text>
</a>
</g>
<!-- detection&#45;&gt;immuneResponse -->
<g id="edge20" class="edge"><title>detection&#45;&gt;immuneResponse</title>
<path fill="none" stroke="darkslategray" stroke-width="3" d="M153,-307.697C153,-299.983 153,-290.712 153,-282.112"/>
<polygon fill="darkslategray" stroke="darkslategray" points="156.5,-282.104 153,-272.104 149.5,-282.104 156.5,-282.104"/>
</g>
<!-- immuneResponse&#45;&gt;watchTBStatus -->
<g id="edge12" class="edge"><title>immuneResponse&#45;&gt;watchTBStatus:n</title>
<path fill="none" stroke="#14cc8e" stroke-width="3" d="M190.175,-235.957C239.128,-214.485 328.443,-178.625 409,-164 480.082,-151.095 663.509,-171.819 734,-156 763.439,-149.394 795.709,-156.882 802.642,-134.941"/>
<polygon fill="#14cc8e" stroke="#14cc8e" points="806.114,-135.382 804,-125 799.179,-134.434 806.114,-135.382"/>
</g>
<!-- deathProcess -->
<g id="node23" class="node"><title>deathProcess</title>
<a xlink:href="individual_deathProcess.svg" xlink:title="Death Process">
<polygon fill="#ffdccc" stroke="#ffdccc" points="194.366,-200 111.634,-200 99.6339,-188 99.6339,-176 111.634,-164 194.366,-164 206.366,-176 206.366,-188 194.366,-200"/>
<path fill="#ffdccc" stroke="#ffdccc" d="M111.634,-200C105.634,-200 99.6339,-194 99.6339,-188"/>
<path fill="#ffdccc" stroke="#ffdccc" d="M99.6339,-176C99.6339,-170 105.634,-164 111.634,-164"/>
<path fill="#ffdccc" stroke="#ffdccc" d="M194.366,-164C200.366,-164 206.366,-170 206.366,-176"/>
<path fill="#ffdccc" stroke="#ffdccc" d="M206.366,-188C206.366,-194 200.366,-200 194.366,-200"/>
<polyline fill="none" stroke="black" points="194.366,-200 111.634,-200 "/>
<path fill="none" stroke="black" d="M111.634,-200C105.634,-200 99.6339,-194 99.6339,-188"/>
<polyline fill="none" stroke="black" points="99.6339,-188 99.6339,-176 "/>
<path fill="none" stroke="black" d="M99.6339,-176C99.6339,-170 105.634,-164 111.634,-164"/>
<polyline fill="none" stroke="black" points="111.634,-164 194.366,-164 "/>
<path fill="none" stroke="black" d="M194.366,-164C200.366,-164 206.366,-170 206.366,-176"/>
<polyline fill="none" stroke="black" points="206.366,-176 206.366,-188 "/>
<path fill="none" stroke="black" d="M206.366,-188C206.366,-194 200.366,-200 194.366,-200"/>
<text text-anchor="middle" x="153" y="-176.4" font-family="Helvetica,sans-Serif" font-size="14.00">Death Process</text>
</a>
</g>
<!-- immuneResponse&#45;&gt;deathProcess -->
<g id="edge21" class="edge"><title>immuneResponse&#45;&gt;deathProcess</title>
<path fill="none" stroke="darkslategray" stroke-width="3" d="M153,-235.697C153,-227.983 153,-218.712 153,-210.112"/>
<polygon fill="darkslategray" stroke="darkslategray" points="156.5,-210.104 153,-200.104 149.5,-210.104 156.5,-210.104"/>
</g>
<!-- deathProcess&#45;&gt;watchTBStatus -->
<g id="edge14" class="edge"><title>deathProcess&#45;&gt;watchTBStatus:n</title>
<path fill="none" stroke="#cc5014" stroke-width="3" d="M206.629,-174.449C239.573,-170.704 282.666,-166.307 321,-164 366.815,-161.243 689.19,-165.933 734,-156 763.456,-149.471 795.713,-156.9 802.643,-134.944"/>
<polygon fill="#cc5014" stroke="#cc5014" points="806.115,-135.382 804,-125 799.18,-134.435 806.115,-135.382"/>
</g>
<!-- acquire -->
<g id="node25" class="node"><title>acquire</title>
<a xlink:href="individual_acquire.svg" xlink:title="Acquire">
<polygon fill="#ffcccc" stroke="#ffcccc" points="144.601,-124 105.399,-124 93.3994,-112 93.3994,-100 105.399,-88 144.601,-88 156.601,-100 156.601,-112 144.601,-124"/>
<path fill="#ffcccc" stroke="#ffcccc" d="M105.399,-124C99.3994,-124 93.3994,-118 93.3994,-112"/>
<path fill="#ffcccc" stroke="#ffcccc" d="M93.3994,-100C93.3994,-94 99.3994,-88 105.399,-88"/>
<path fill="#ffcccc" stroke="#ffcccc" d="M144.601,-88C150.601,-88 156.601,-94 156.601,-100"/>
<path fill="#ffcccc" stroke="#ffcccc" d="M156.601,-112C156.601,-118 150.601,-124 144.601,-124"/>
<polyline fill="none" stroke="black" points="144.601,-124 105.399,-124 "/>
<path fill="none" stroke="black" d="M105.399,-124C99.3994,-124 93.3994,-118 93.3994,-112"/>
<polyline fill="none" stroke="black" points="93.3994,-112 93.3994,-100 "/>
<path fill="none" stroke="black" d="M93.3994,-100C93.3994,-94 99.3994,-88 105.399,-88"/>
<polyline fill="none" stroke="black" points="105.399,-88 144.601,-88 "/>
<path fill="none" stroke="black" d="M144.601,-88C150.601,-88 156.601,-94 156.601,-100"/>
<polyline fill="none" stroke="black" points="156.601,-100 156.601,-112 "/>
<path fill="none" stroke="black" d="M156.601,-112C156.601,-118 150.601,-124 144.601,-124"/>
<text text-anchor="middle" x="125" y="-100.4" font-family="Helvetica,sans-Serif" font-size="14.00">Acquire</text>
</a>
</g>
<!-- deathProcess&#45;&gt;acquire -->
<g id="edge22" class="edge"><title>deathProcess&#45;&gt;acquire</title>
<path fill="none" stroke="darkslategray" stroke-width="3" d="M146.506,-163.837C143.113,-154.871 138.886,-143.698 135.079,-133.637"/>
<polygon fill="darkslategray" stroke="darkslategray" points="138.271,-132.184 131.459,-124.07 131.724,-134.662 138.271,-132.184"/>
</g>
<!-- acquire&#45;&gt;iteration -->
<g id="edge23" class="edge"><title>acquire&#45;&gt;iteration</title>
<path fill="none" stroke="darkslategray" stroke-width="3" d="M112.539,-124.235C105.112,-135.179 95.9944,-149.892 90,-164 74.0232,-201.602 67,-212.145 67,-253 67,-471 67,-471 67,-471 67,-518.136 102.644,-562.482 128.817,-588.692"/>
<polygon fill="darkslategray" stroke="darkslategray" points="126.636,-591.453 136.248,-595.909 131.513,-586.431 126.636,-591.453"/>
</g>
<!-- initializeState -->
<g id="node29" class="node"><title>initializeState</title>
<a xlink:href="individual_initializeState.svg" xlink:title="Initialize State">
<polygon fill="#cceeff" stroke="#cceeff" points="274.368,-716 195.632,-716 183.632,-704 183.632,-692 195.632,-680 274.368,-680 286.368,-692 286.368,-704 274.368,-716"/>
<path fill="#cceeff" stroke="#cceeff" d="M195.632,-716C189.632,-716 183.632,-710 183.632,-704"/>
<path fill="#cceeff" stroke="#cceeff" d="M183.632,-692C183.632,-686 189.632,-680 195.632,-680"/>
<path fill="#cceeff" stroke="#cceeff" d="M274.368,-680C280.368,-680 286.368,-686 286.368,-692"/>
<path fill="#cceeff" stroke="#cceeff" d="M286.368,-704C286.368,-710 280.368,-716 274.368,-716"/>
<polyline fill="none" stroke="black" points="274.368,-716 195.632,-716 "/>
<path fill="none" stroke="black" d="M195.632,-716C189.632,-716 183.632,-710 183.632,-704"/>
<polyline fill="none" stroke="black" points="183.632,-704 183.632,-692 "/>
<path fill="none" stroke="black" d="M183.632,-692C183.632,-686 189.632,-680 195.632,-680"/>
<polyline fill="none" stroke="black" points="195.632,-680 274.368,-680 "/>
<path fill="none" stroke="black" d="M274.368,-680C280.368,-680 286.368,-686 286.368,-692"/>
<polyline fill="none" stroke="black" points="286.368,-692 286.368,-704 "/>
<path fill="none" stroke="black" d="M286.368,-704C286.368,-710 280.368,-716 274.368,-716"/>
<text text-anchor="middle" x="235" y="-692.4" font-family="Helvetica,sans-Serif" font-size="14.00">Initialize State</text>
</a>
</g>
<!-- initialPlacement&#45;&gt;initializeState -->
<g id="edge33" class="edge"><title>initialPlacement&#45;&gt;initializeState</title>
<path fill="none" stroke="darkslategray" stroke-width="3" d="M235,-751.697C235,-743.983 235,-734.712 235,-726.112"/>
<polygon fill="darkslategray" stroke="darkslategray" points="238.5,-726.104 235,-716.104 231.5,-726.104 238.5,-726.104"/>
</g>
<!-- initializeState&#45;&gt;iteration -->
<g id="edge34" class="edge"><title>initializeState&#45;&gt;iteration</title>
<path fill="none" stroke="darkslategray" stroke-width="3" d="M218.246,-679.61C206.963,-667.899 191.925,-652.289 179.456,-639.346"/>
<polygon fill="darkslategray" stroke="darkslategray" points="181.918,-636.857 172.459,-632.084 176.876,-641.714 181.918,-636.857"/>
</g>
<!-- initializeState&#45;&gt;watchTBStatus -->
<g id="edge30" class="edge"><title>initializeState&#45;&gt;watchTBStatus:n</title>
<path fill="none" stroke="#148fcc" stroke-width="3" d="M286.386,-689.541C399.689,-671.649 661,-621.839 661,-543 661,-543 661,-543 661,-253 661,-171.368 791.975,-206.873 803.231,-135.307"/>
<polygon fill="#148fcc" stroke="#148fcc" points="806.746,-135.233 804,-125 799.765,-134.712 806.746,-135.233"/>
</g>
<!-- initializeState&#45;&gt;watchTreatmentStatus -->
<g id="edge28" class="edge"><title>initializeState&#45;&gt;watchTreatmentStatus:n</title>
<path fill="none" stroke="#148fcc" stroke-width="3" d="M183.577,-692.959C137.329,-688.389 73.7206,-679.486 54,-664 7.68342,-627.629 0,-601.89 0,-543 0,-543 0,-543 0,-181 0,-130.098 11.7321,-108.363 54,-80 101.574,-48.0767 300.703,-105.246 324.642,-61.721"/>
<polygon fill="#148fcc" stroke="#148fcc" points="328.044,-62.5433 327,-52 321.241,-60.8931 328.044,-62.5433"/>
</g>
<!-- initializeState&#45;&gt;watchGender -->
<g id="edge26" class="edge"><title>initializeState&#45;&gt;watchGender:n</title>
<path fill="none" stroke="#148fcc" stroke-width="3" d="M286.4,-693.311C472.188,-679.299 1098,-625.945 1098,-543 1098,-543 1098,-543 1098,-253 1098,-195.503 1142.31,-186.95 1147.51,-135.189"/>
<polygon fill="#148fcc" stroke="#148fcc" points="1151.01,-135.158 1148,-125 1144.02,-134.818 1151.01,-135.158"/>
</g>
</g>
</svg>
