<?xml version="1.0" encoding="UTF-8" standalone="no"?>
<!DOCTYPE svg PUBLIC "-//W3C//DTD SVG 1.1//EN"
 "http://www.w3.org/Graphics/SVG/1.1/DTD/svg11.dtd">
<!-- Generated by graphviz version 2.29.20110702.0445 (20110702.0445)
 -->
<!-- Title: deriveBacterialClearingRate Pages: 1 -->
<svg width="430pt" height="217pt"
 viewBox="0.00 0.00 430.00 217.00" xmlns="http://www.w3.org/2000/svg" xmlns:xlink="http://www.w3.org/1999/xlink">
<g id="graph1" class="graph" transform="scale(1 1) rotate(0) translate(4 213)">
<title>deriveBacterialClearingRate</title>
<polygon fill="white" stroke="white" points="-4,5 -4,-213 427,-213 427,5 -4,5"/>
<g id="graph2" class="cluster"><title>clustercontextKey</title>
<polygon fill="ghostwhite" stroke="white" points="8,-147 8,-201 96,-201 96,-147 8,-147"/>
<text text-anchor="middle" x="52.1792" y="-183" font-family="Helvetica,sans-Serif" font-size="14.00">Parameters</text>
</g>
<g id="graph3" class="cluster"><title>clusterindividualKey</title>
<polygon fill="ghostwhite" stroke="white" points="104,-147 104,-201 179,-201 179,-147 104,-147"/>
<text text-anchor="middle" x="141.576" y="-183" font-family="Helvetica,sans-Serif" font-size="14.00">Individual</text>
</g>
<!-- contextOverview -->
<g id="node2" class="node"><title>contextOverview</title>
<ellipse fill="black" stroke="black" cx="52" cy="-162" rx="7.2" ry="7.2"/>
</g>
<!-- deriveBacterialClearingRateOverview -->
<g id="node4" class="node"><title>deriveBacterialClearingRateOverview</title>
<a xlink:href="individual__Overview.svg">
<ellipse fill="#cccb14" stroke="#cccb14" cx="140" cy="-162" rx="7.2" ry="7.2"/>
</a>
</g>
<!-- deriveBacterialClearingRate -->
<g id="node5" class="node"><title>deriveBacterialClearingRate</title>
<a xlink:href="individual_deriveBacterialClearingRate.svg" xlink:title="Derive Bacterial Clearing Rate">
<polygon fill="#fffecc" stroke="#fffecc" points="379.227,-180 198.773,-180 186.773,-168 186.773,-156 198.773,-144 379.227,-144 391.227,-156 391.227,-168 379.227,-180"/>
<path fill="#fffecc" stroke="#fffecc" d="M198.773,-180C192.773,-180 186.773,-174 186.773,-168"/>
<path fill="#fffecc" stroke="#fffecc" d="M186.773,-156C186.773,-150 192.773,-144 198.773,-144"/>
<path fill="#fffecc" stroke="#fffecc" d="M379.227,-144C385.227,-144 391.227,-150 391.227,-156"/>
<path fill="#fffecc" stroke="#fffecc" d="M391.227,-168C391.227,-174 385.227,-180 379.227,-180"/>
<polyline fill="none" stroke="black" points="379.227,-180 198.773,-180 "/>
<path fill="none" stroke="black" d="M198.773,-180C192.773,-180 186.773,-174 186.773,-168"/>
<polyline fill="none" stroke="black" points="186.773,-168 186.773,-156 "/>
<path fill="none" stroke="black" d="M186.773,-156C186.773,-150 192.773,-144 198.773,-144"/>
<polyline fill="none" stroke="black" points="198.773,-144 379.227,-144 "/>
<path fill="none" stroke="black" d="M379.227,-144C385.227,-144 391.227,-150 391.227,-156"/>
<polyline fill="none" stroke="black" points="391.227,-156 391.227,-168 "/>
<path fill="none" stroke="black" d="M391.227,-168C391.227,-174 385.227,-180 379.227,-180"/>
<text text-anchor="middle" x="289" y="-156.4" font-family="Helvetica,sans-Serif" font-size="14.00">Derive Bacterial Clearing Rate</text>
</a>
</g>
<!-- immuneClearing -->
<g id="node7" class="node"><title>immuneClearing</title>
<polygon fill="#fffecc" stroke="#fffecc" points="337.951,-108 240.049,-108 228.049,-96 228.049,-84 240.049,-72 337.951,-72 349.951,-84 349.951,-96 337.951,-108"/>
<path fill="#fffecc" stroke="#fffecc" d="M240.049,-108C234.049,-108 228.049,-102 228.049,-96"/>
<path fill="#fffecc" stroke="#fffecc" d="M228.049,-84C228.049,-78 234.049,-72 240.049,-72"/>
<path fill="#fffecc" stroke="#fffecc" d="M337.951,-72C343.951,-72 349.951,-78 349.951,-84"/>
<path fill="#fffecc" stroke="#fffecc" d="M349.951,-96C349.951,-102 343.951,-108 337.951,-108"/>
<polyline fill="none" stroke="#fffecc" points="337.951,-108 240.049,-108 "/>
<path fill="none" stroke="#fffecc" d="M240.049,-108C234.049,-108 228.049,-102 228.049,-96"/>
<polyline fill="none" stroke="#fffecc" points="228.049,-96 228.049,-84 "/>
<path fill="none" stroke="#fffecc" d="M228.049,-84C228.049,-78 234.049,-72 240.049,-72"/>
<polyline fill="none" stroke="#fffecc" points="240.049,-72 337.951,-72 "/>
<path fill="none" stroke="#fffecc" d="M337.951,-72C343.951,-72 349.951,-78 349.951,-84"/>
<polyline fill="none" stroke="#fffecc" points="349.951,-84 349.951,-96 "/>
<path fill="none" stroke="#fffecc" d="M349.951,-96C349.951,-102 343.951,-108 337.951,-108"/>
<text text-anchor="middle" x="289" y="-84.4" font-family="Helvetica,sans-Serif" font-size="14.00">Immune Clearing</text>
</g>
<!-- deriveBacterialClearingRate&#45;&gt;immuneClearing -->
<g id="edge4" class="edge"><title>deriveBacterialClearingRate&#45;&gt;immuneClearing</title>
<path fill="none" stroke="#cccb14" stroke-width="3" d="M289,-143.697C289,-138.95 289,-133.613 289,-128.206"/>
<polygon fill="#cccb14" stroke="#cccb14" points="296,-128.104 289,-108.104 282,-128.104 296,-128.104"/>
</g>
<!-- immuneClearingAddZero -->
<g id="node8" class="node"><title>immuneClearingAddZero</title>
<polygon fill="#fffecc" stroke="#fffecc" points="322,-36 292,-36 280,-24 280,-12 292,-0 322,-0 334,-12 334,-24 322,-36"/>
<path fill="#fffecc" stroke="#fffecc" d="M292,-36C286,-36 280,-30 280,-24"/>
<path fill="#fffecc" stroke="#fffecc" d="M280,-12C280,-6 286,-0 292,-0"/>
<path fill="#fffecc" stroke="#fffecc" d="M322,-0C328,-0 334,-6 334,-12"/>
<path fill="#fffecc" stroke="#fffecc" d="M334,-24C334,-30 328,-36 322,-36"/>
<polyline fill="none" stroke="#fffecc" points="322,-36 292,-36 "/>
<path fill="none" stroke="#fffecc" d="M292,-36C286,-36 280,-30 280,-24"/>
<polyline fill="none" stroke="#fffecc" points="280,-24 280,-12 "/>
<path fill="none" stroke="#fffecc" d="M280,-12C280,-6 286,-0 292,-0"/>
<polyline fill="none" stroke="#fffecc" points="292,-0 322,-0 "/>
<path fill="none" stroke="#fffecc" d="M322,-0C328,-0 334,-6 334,-12"/>
<polyline fill="none" stroke="#fffecc" points="334,-12 334,-24 "/>
<path fill="none" stroke="#fffecc" d="M334,-24C334,-30 328,-36 322,-36"/>
<text text-anchor="middle" x="307" y="-12.4" font-family="Helvetica,sans-Serif" font-size="14.00">Add</text>
</g>
<!-- immuneClearing&#45;&gt;immuneClearingAddZero -->
<g id="edge6" class="edge"><title>immuneClearing&#45;&gt;immuneClearingAddZero</title>
<path fill="none" stroke="#cccb14" stroke-width="3" d="M293.449,-71.6966C294.714,-66.7801 296.141,-61.2313 297.582,-55.6267"/>
<polygon fill="#cccb14" stroke="#cccb14" points="304.4,-57.2175 302.602,-36.1043 290.841,-53.7309 304.4,-57.2175"/>
</g>
<!-- immuneClearing&#45;&gt;immuneClearingAddZero -->
<g id="edge8" class="edge"><title>immuneClearing&#45;&gt;immuneClearingAddZero:nw</title>
<path fill="none" stroke="blue" stroke-width="2" stroke-dasharray="1,5" d="M283.389,-71.8264C281.323,-62.6697 280.35,-51.5133 284.367,-42.727"/>
<ellipse fill="blue" stroke="blue" cx="286.731" cy="-39.2943" rx="4.00002" ry="4.00002"/>
</g>
<!-- importxyximmuneClearingAddZerofunctionszero1 -->
<g id="node11" class="node"><title>importxyximmuneClearingAddZerofunctionszero1</title>
<text text-anchor="middle" x="395" y="-84.4" font-family="Helvetica,sans-Serif" font-size="14.00">0</text>
</g>
<!-- importxyximmuneClearingAddZerofunctionszero1&#45;&gt;immuneClearingAddZero -->
<g id="edge10" class="edge"><title>importxyximmuneClearingAddZerofunctionszero1&#45;&gt;immuneClearingAddZero:ne</title>
<path fill="none" stroke="black" stroke-width="2" stroke-dasharray="1,5" d="M369.02,-71.9186C357.149,-63.5821 343.042,-52.9179 330.827,-41.6008"/>
<ellipse fill="black" stroke="black" cx="327.884" cy="-38.772" rx="4.00002" ry="4.00002"/>
</g>
</g>
</svg>
