<?xml version="1.0" encoding="UTF-8" standalone="no"?>
<!DOCTYPE svg PUBLIC "-//W3C//DTD SVG 1.1//EN"
 "http://www.w3.org/Graphics/SVG/1.1/DTD/svg11.dtd">
<!-- Generated by graphviz version 2.29.20110702.0445 (20110702.0445)
 -->
<!-- Title: deriveDaytime Pages: 1 -->
<svg width="404pt" height="289pt"
 viewBox="0.00 0.00 404.00 289.00" xmlns="http://www.w3.org/2000/svg" xmlns:xlink="http://www.w3.org/1999/xlink">
<g id="graph1" class="graph" transform="scale(1 1) rotate(0) translate(4 285)">
<title>deriveDaytime</title>
<polygon fill="white" stroke="white" points="-4,5 -4,-285 401,-285 401,5 -4,5"/>
<g id="graph2" class="cluster"><title>clustercontextKey</title>
<polygon fill="ghostwhite" stroke="white" points="8,-219 8,-273 96,-273 96,-219 8,-219"/>
<text text-anchor="middle" x="52.1792" y="-255" font-family="Helvetica,sans-Serif" font-size="14.00">Parameters</text>
</g>
<g id="graph3" class="cluster"><title>clusterindividualKey</title>
<polygon fill="ghostwhite" stroke="white" points="104,-219 104,-273 179,-273 179,-219 104,-219"/>
<text text-anchor="middle" x="141.576" y="-255" font-family="Helvetica,sans-Serif" font-size="14.00">Individual</text>
</g>
<!-- contextOverview -->
<g id="node2" class="node"><title>contextOverview</title>
<ellipse fill="black" stroke="black" cx="52" cy="-234" rx="7.2" ry="7.2"/>
</g>
<!-- deriveDaytimeOverview -->
<g id="node4" class="node"><title>deriveDaytimeOverview</title>
<a xlink:href="individual__Overview.svg">
<ellipse fill="#8fcc14" stroke="#8fcc14" cx="140" cy="-234" rx="7.2" ry="7.2"/>
</a>
</g>
<!-- tBmodelperiodsinDay -->
<g id="node5" class="node"><title>tBmodelperiodsinDay</title>
<polygon fill="white" stroke="white" points="396,-180 288,-180 288,-144 396,-144 396,-180"/>
<text text-anchor="start" x="296.5" y="-156.5" font-family="Helvetica,sans-Serif" font-size="14.00">Periods in Day</text>
</g>
<!-- nowModuloPeriodsinDay -->
<g id="node9" class="node"><title>nowModuloPeriodsinDay</title>
<polygon fill="#eeffcc" stroke="#eeffcc" points="279.438,-108 242.562,-108 230.562,-96 230.562,-84 242.562,-72 279.438,-72 291.438,-84 291.438,-96 279.438,-108"/>
<path fill="#eeffcc" stroke="#eeffcc" d="M242.562,-108C236.562,-108 230.562,-102 230.562,-96"/>
<path fill="#eeffcc" stroke="#eeffcc" d="M230.562,-84C230.562,-78 236.562,-72 242.562,-72"/>
<path fill="#eeffcc" stroke="#eeffcc" d="M279.438,-72C285.438,-72 291.438,-78 291.438,-84"/>
<path fill="#eeffcc" stroke="#eeffcc" d="M291.438,-96C291.438,-102 285.438,-108 279.438,-108"/>
<polyline fill="none" stroke="#eeffcc" points="279.438,-108 242.562,-108 "/>
<path fill="none" stroke="#eeffcc" d="M242.562,-108C236.562,-108 230.562,-102 230.562,-96"/>
<polyline fill="none" stroke="#eeffcc" points="230.562,-96 230.562,-84 "/>
<path fill="none" stroke="#eeffcc" d="M230.562,-84C230.562,-78 236.562,-72 242.562,-72"/>
<polyline fill="none" stroke="#eeffcc" points="242.562,-72 279.438,-72 "/>
<path fill="none" stroke="#eeffcc" d="M279.438,-72C285.438,-72 291.438,-78 291.438,-84"/>
<polyline fill="none" stroke="#eeffcc" points="291.438,-84 291.438,-96 "/>
<path fill="none" stroke="#eeffcc" d="M291.438,-96C291.438,-102 285.438,-108 279.438,-108"/>
<text text-anchor="middle" x="261" y="-84.4" font-family="Helvetica,sans-Serif" font-size="14.00">Modulo</text>
</g>
<!-- tBmodelperiodsinDay&#45;&gt;nowModuloPeriodsinDay -->
<g id="edge10" class="edge"><title>tBmodelperiodsinDay&#45;&gt;nowModuloPeriodsinDay:ne</title>
<path fill="none" stroke="black" stroke-width="2" stroke-dasharray="1,5" d="M319.909,-143.967C309.291,-135.462 296.399,-124.668 284.88,-113.725"/>
<ellipse fill="black" stroke="black" cx="281.866" cy="-110.79" rx="4.00002" ry="4.00002"/>
</g>
<!-- deriveDaytime -->
<g id="node6" class="node"><title>deriveDaytime</title>
<a xlink:href="individual_deriveDaytime.svg" xlink:title="Derive Daytime">
<polygon fill="#eeffcc" stroke="#eeffcc" points="286.269,-252 199.731,-252 187.731,-240 187.731,-228 199.731,-216 286.269,-216 298.269,-228 298.269,-240 286.269,-252"/>
<path fill="#eeffcc" stroke="#eeffcc" d="M199.731,-252C193.731,-252 187.731,-246 187.731,-240"/>
<path fill="#eeffcc" stroke="#eeffcc" d="M187.731,-228C187.731,-222 193.731,-216 199.731,-216"/>
<path fill="#eeffcc" stroke="#eeffcc" d="M286.269,-216C292.269,-216 298.269,-222 298.269,-228"/>
<path fill="#eeffcc" stroke="#eeffcc" d="M298.269,-240C298.269,-246 292.269,-252 286.269,-252"/>
<polyline fill="none" stroke="black" points="286.269,-252 199.731,-252 "/>
<path fill="none" stroke="black" d="M199.731,-252C193.731,-252 187.731,-246 187.731,-240"/>
<polyline fill="none" stroke="black" points="187.731,-240 187.731,-228 "/>
<path fill="none" stroke="black" d="M187.731,-228C187.731,-222 193.731,-216 199.731,-216"/>
<polyline fill="none" stroke="black" points="199.731,-216 286.269,-216 "/>
<path fill="none" stroke="black" d="M286.269,-216C292.269,-216 298.269,-222 298.269,-228"/>
<polyline fill="none" stroke="black" points="298.269,-228 298.269,-240 "/>
<path fill="none" stroke="black" d="M298.269,-240C298.269,-246 292.269,-252 286.269,-252"/>
<text text-anchor="middle" x="243" y="-228.4" font-family="Helvetica,sans-Serif" font-size="14.00">Derive Daytime</text>
</a>
</g>
<!-- now -->
<g id="node8" class="node"><title>now</title>
<polygon fill="#eeffcc" stroke="#eeffcc" points="258,-180 228,-180 216,-168 216,-156 228,-144 258,-144 270,-156 270,-168 258,-180"/>
<path fill="#eeffcc" stroke="#eeffcc" d="M228,-180C222,-180 216,-174 216,-168"/>
<path fill="#eeffcc" stroke="#eeffcc" d="M216,-156C216,-150 222,-144 228,-144"/>
<path fill="#eeffcc" stroke="#eeffcc" d="M258,-144C264,-144 270,-150 270,-156"/>
<path fill="#eeffcc" stroke="#eeffcc" d="M270,-168C270,-174 264,-180 258,-180"/>
<polyline fill="none" stroke="#eeffcc" points="258,-180 228,-180 "/>
<path fill="none" stroke="#eeffcc" d="M228,-180C222,-180 216,-174 216,-168"/>
<polyline fill="none" stroke="#eeffcc" points="216,-168 216,-156 "/>
<path fill="none" stroke="#eeffcc" d="M216,-156C216,-150 222,-144 228,-144"/>
<polyline fill="none" stroke="#eeffcc" points="228,-144 258,-144 "/>
<path fill="none" stroke="#eeffcc" d="M258,-144C264,-144 270,-150 270,-156"/>
<polyline fill="none" stroke="#eeffcc" points="270,-156 270,-168 "/>
<path fill="none" stroke="#eeffcc" d="M270,-168C270,-174 264,-180 258,-180"/>
<text text-anchor="middle" x="243" y="-156.4" font-family="Helvetica,sans-Serif" font-size="14.00">Now</text>
</g>
<!-- deriveDaytime&#45;&gt;now -->
<g id="edge4" class="edge"><title>deriveDaytime&#45;&gt;now</title>
<path fill="none" stroke="#8fcc14" stroke-width="3" d="M243,-215.697C243,-210.95 243,-205.613 243,-200.206"/>
<polygon fill="#8fcc14" stroke="#8fcc14" points="250,-200.104 243,-180.104 236,-200.104 250,-200.104"/>
</g>
<!-- now&#45;&gt;nowModuloPeriodsinDay -->
<g id="edge8" class="edge"><title>now&#45;&gt;nowModuloPeriodsinDay</title>
<path fill="none" stroke="#8fcc14" stroke-width="3" d="M247.449,-143.697C248.714,-138.78 250.141,-133.231 251.582,-127.627"/>
<polygon fill="#8fcc14" stroke="#8fcc14" points="258.4,-129.218 256.602,-108.104 244.841,-125.731 258.4,-129.218"/>
</g>
<!-- now&#45;&gt;nowModuloPeriodsinDay -->
<g id="edge12" class="edge"><title>now&#45;&gt;nowModuloPeriodsinDay:nw</title>
<path fill="none" stroke="blue" stroke-width="2" stroke-dasharray="1,5" d="M237.389,-143.826C235.323,-134.67 234.35,-123.513 238.367,-114.727"/>
<ellipse fill="blue" stroke="blue" cx="240.731" cy="-111.294" rx="4.00002" ry="4.00002"/>
</g>
<!-- nowModuloPeriodsinDayIdenticalZero -->
<g id="node11" class="node"><title>nowModuloPeriodsinDayIdenticalZero</title>
<polygon fill="#eeffcc" stroke="#eeffcc" points="304.448,-36 253.552,-36 241.552,-24 241.552,-12 253.552,-0 304.448,-0 316.448,-12 316.448,-24 304.448,-36"/>
<path fill="#eeffcc" stroke="#eeffcc" d="M253.552,-36C247.552,-36 241.552,-30 241.552,-24"/>
<path fill="#eeffcc" stroke="#eeffcc" d="M241.552,-12C241.552,-6 247.552,-0 253.552,-0"/>
<path fill="#eeffcc" stroke="#eeffcc" d="M304.448,-0C310.448,-0 316.448,-6 316.448,-12"/>
<path fill="#eeffcc" stroke="#eeffcc" d="M316.448,-24C316.448,-30 310.448,-36 304.448,-36"/>
<polyline fill="none" stroke="#eeffcc" points="304.448,-36 253.552,-36 "/>
<path fill="none" stroke="#eeffcc" d="M253.552,-36C247.552,-36 241.552,-30 241.552,-24"/>
<polyline fill="none" stroke="#eeffcc" points="241.552,-24 241.552,-12 "/>
<path fill="none" stroke="#eeffcc" d="M241.552,-12C241.552,-6 247.552,-0 253.552,-0"/>
<polyline fill="none" stroke="#eeffcc" points="253.552,-0 304.448,-0 "/>
<path fill="none" stroke="#eeffcc" d="M304.448,-0C310.448,-0 316.448,-6 316.448,-12"/>
<polyline fill="none" stroke="#eeffcc" points="316.448,-12 316.448,-24 "/>
<path fill="none" stroke="#eeffcc" d="M316.448,-24C316.448,-30 310.448,-36 304.448,-36"/>
<text text-anchor="middle" x="279" y="-12.4" font-family="Helvetica,sans-Serif" font-size="14.00">Identical?</text>
</g>
<!-- nowModuloPeriodsinDay&#45;&gt;nowModuloPeriodsinDayIdenticalZero -->
<g id="edge6" class="edge"><title>nowModuloPeriodsinDay&#45;&gt;nowModuloPeriodsinDayIdenticalZero</title>
<path fill="none" stroke="#8fcc14" stroke-width="3" d="M265.449,-71.6966C266.714,-66.7801 268.141,-61.2313 269.582,-55.6267"/>
<polygon fill="#8fcc14" stroke="#8fcc14" points="276.4,-57.2175 274.602,-36.1043 262.841,-53.7309 276.4,-57.2175"/>
</g>
<!-- nowModuloPeriodsinDay&#45;&gt;nowModuloPeriodsinDayIdenticalZero -->
<g id="edge14" class="edge"><title>nowModuloPeriodsinDay&#45;&gt;nowModuloPeriodsinDayIdenticalZero:nw</title>
<path fill="none" stroke="blue" stroke-width="2" stroke-dasharray="1,5" d="M255.389,-71.8264C253.323,-62.6697 252.35,-51.5133 256.367,-42.727"/>
<ellipse fill="blue" stroke="blue" cx="258.731" cy="-39.2943" rx="4.00002" ry="4.00002"/>
</g>
<!-- importxyxnowModuloPeriodsinDayIdenticalZerofunctionszero1 -->
<g id="node16" class="node"><title>importxyxnowModuloPeriodsinDayIdenticalZerofunctionszero1</title>
<text text-anchor="middle" x="337" y="-84.4" font-family="Helvetica,sans-Serif" font-size="14.00">0</text>
</g>
<!-- importxyxnowModuloPeriodsinDayIdenticalZerofunctionszero1&#45;&gt;nowModuloPeriodsinDayIdenticalZero -->
<g id="edge16" class="edge"><title>importxyxnowModuloPeriodsinDayIdenticalZerofunctionszero1&#45;&gt;nowModuloPeriodsinDayIdenticalZero:ne</title>
<path fill="none" stroke="black" stroke-width="2" stroke-dasharray="1,5" d="M325.847,-71.8041C319.655,-62.8008 311.426,-51.6459 302.577,-41.874"/>
<ellipse fill="black" stroke="black" cx="299.754" cy="-38.9008" rx="4.00002" ry="4.00002"/>
</g>
</g>
</svg>
