<?xml version="1.0" encoding="UTF-8" standalone="no"?>
<!DOCTYPE svg PUBLIC "-//W3C//DTD SVG 1.1//EN"
 "http://www.w3.org/Graphics/SVG/1.1/DTD/svg11.dtd">
<!-- Generated by graphviz version 2.29.20110702.0445 (20110702.0445)
 -->
<!-- Title: deriveAgeRange Pages: 1 -->
<svg width="494pt" height="145pt"
 viewBox="0.00 0.00 494.00 145.00" xmlns="http://www.w3.org/2000/svg" xmlns:xlink="http://www.w3.org/1999/xlink">
<g id="graph1" class="graph" transform="scale(1 1) rotate(0) translate(4 141)">
<title>deriveAgeRange</title>
<polygon fill="white" stroke="white" points="-4,5 -4,-141 491,-141 491,5 -4,5"/>
<g id="graph2" class="cluster"><title>clustercontextKey</title>
<polygon fill="ghostwhite" stroke="white" points="8,-75 8,-129 96,-129 96,-75 8,-75"/>
<text text-anchor="middle" x="52.1792" y="-111" font-family="Helvetica,sans-Serif" font-size="14.00">Parameters</text>
</g>
<g id="graph3" class="cluster"><title>clusterindividualKey</title>
<polygon fill="ghostwhite" stroke="white" points="104,-75 104,-129 179,-129 179,-75 104,-75"/>
<text text-anchor="middle" x="141.576" y="-111" font-family="Helvetica,sans-Serif" font-size="14.00">Individual</text>
</g>
<!-- contextOverview -->
<g id="node2" class="node"><title>contextOverview</title>
<ellipse fill="black" stroke="black" cx="52" cy="-90" rx="7.2" ry="7.2"/>
</g>
<!-- deriveAgeRangeOverview -->
<g id="node4" class="node"><title>deriveAgeRangeOverview</title>
<a xlink:href="individual__Overview.svg">
<ellipse fill="#cc8e14" stroke="#cc8e14" cx="140" cy="-90" rx="7.2" ry="7.2"/>
</a>
</g>
<!-- individualageIndex -->
<g id="node5" class="node"><title>individualageIndex</title>
<polygon fill="white" stroke="white" points="266.286,-108 187.714,-108 187.714,-72 266.286,-72 266.286,-108"/>
<text text-anchor="middle" x="227" y="-84.4" font-family="Helvetica,sans-Serif" font-size="14.00">Age Index</text>
</g>
<!-- ageIndexMultiplyLiteral5 -->
<g id="node8" class="node"><title>ageIndexMultiplyLiteral5</title>
<polygon fill="#ffedcc" stroke="#ffedcc" points="414.59,-36 375.41,-36 363.41,-24 363.41,-12 375.41,-0 414.59,-0 426.59,-12 426.59,-24 414.59,-36"/>
<path fill="#ffedcc" stroke="#ffedcc" d="M375.41,-36C369.41,-36 363.41,-30 363.41,-24"/>
<path fill="#ffedcc" stroke="#ffedcc" d="M363.41,-12C363.41,-6 369.41,-0 375.41,-0"/>
<path fill="#ffedcc" stroke="#ffedcc" d="M414.59,-0C420.59,-0 426.59,-6 426.59,-12"/>
<path fill="#ffedcc" stroke="#ffedcc" d="M426.59,-24C426.59,-30 420.59,-36 414.59,-36"/>
<polyline fill="none" stroke="#ffedcc" points="414.59,-36 375.41,-36 "/>
<path fill="none" stroke="#ffedcc" d="M375.41,-36C369.41,-36 363.41,-30 363.41,-24"/>
<polyline fill="none" stroke="#ffedcc" points="363.41,-24 363.41,-12 "/>
<path fill="none" stroke="#ffedcc" d="M363.41,-12C363.41,-6 369.41,-0 375.41,-0"/>
<polyline fill="none" stroke="#ffedcc" points="375.41,-0 414.59,-0 "/>
<path fill="none" stroke="#ffedcc" d="M414.59,-0C420.59,-0 426.59,-6 426.59,-12"/>
<polyline fill="none" stroke="#ffedcc" points="426.59,-12 426.59,-24 "/>
<path fill="none" stroke="#ffedcc" d="M426.59,-24C426.59,-30 420.59,-36 414.59,-36"/>
<text text-anchor="middle" x="395" y="-12.4" font-family="Helvetica,sans-Serif" font-size="14.00">Multiply</text>
</g>
<!-- individualageIndex&#45;&gt;ageIndexMultiplyLiteral5 -->
<g id="edge6" class="edge"><title>individualageIndex&#45;&gt;ageIndexMultiplyLiteral5:nw</title>
<path fill="none" stroke="#cc8e14" stroke-width="2" stroke-dasharray="1,5" d="M266.292,-75.0803C269.238,-74.0376 272.166,-73.0019 275,-72 317.669,-56.9143 340.271,-68.4539 371.134,-41.4966"/>
<ellipse fill="#cc8e14" stroke="#cc8e14" cx="374.081" cy="-38.7351" rx="4.00002" ry="4.00002"/>
</g>
<!-- deriveAgeRange -->
<g id="node6" class="node"><title>deriveAgeRange</title>
<a xlink:href="individual_deriveAgeRange.svg" xlink:title="Derive Age Range">
<polygon fill="#ffedcc" stroke="#ffedcc" points="401.227,-108 296.773,-108 284.773,-96 284.773,-84 296.773,-72 401.227,-72 413.227,-84 413.227,-96 401.227,-108"/>
<path fill="#ffedcc" stroke="#ffedcc" d="M296.773,-108C290.773,-108 284.773,-102 284.773,-96"/>
<path fill="#ffedcc" stroke="#ffedcc" d="M284.773,-84C284.773,-78 290.773,-72 296.773,-72"/>
<path fill="#ffedcc" stroke="#ffedcc" d="M401.227,-72C407.227,-72 413.227,-78 413.227,-84"/>
<path fill="#ffedcc" stroke="#ffedcc" d="M413.227,-96C413.227,-102 407.227,-108 401.227,-108"/>
<polyline fill="none" stroke="black" points="401.227,-108 296.773,-108 "/>
<path fill="none" stroke="black" d="M296.773,-108C290.773,-108 284.773,-102 284.773,-96"/>
<polyline fill="none" stroke="black" points="284.773,-96 284.773,-84 "/>
<path fill="none" stroke="black" d="M284.773,-84C284.773,-78 290.773,-72 296.773,-72"/>
<polyline fill="none" stroke="black" points="296.773,-72 401.227,-72 "/>
<path fill="none" stroke="black" d="M401.227,-72C407.227,-72 413.227,-78 413.227,-84"/>
<polyline fill="none" stroke="black" points="413.227,-84 413.227,-96 "/>
<path fill="none" stroke="black" d="M413.227,-96C413.227,-102 407.227,-108 401.227,-108"/>
<text text-anchor="middle" x="349" y="-84.4" font-family="Helvetica,sans-Serif" font-size="14.00">Derive Age Range</text>
</a>
</g>
<!-- deriveAgeRange&#45;&gt;ageIndexMultiplyLiteral5 -->
<g id="edge4" class="edge"><title>deriveAgeRange&#45;&gt;ageIndexMultiplyLiteral5</title>
<path fill="none" stroke="#cc8e14" stroke-width="3" d="M360.371,-71.6966C364.103,-66.0172 368.39,-59.494 372.647,-53.0159"/>
<polygon fill="#cc8e14" stroke="#cc8e14" points="378.626,-56.6627 383.76,-36.1043 366.926,-48.9742 378.626,-56.6627"/>
</g>
<!-- literal5 -->
<g id="node10" class="node"><title>literal5</title>
<text text-anchor="middle" x="459" y="-84.4" font-family="Helvetica,sans-Serif" font-size="14.00">5</text>
</g>
<!-- literal5&#45;&gt;ageIndexMultiplyLiteral5 -->
<g id="edge8" class="edge"><title>literal5&#45;&gt;ageIndexMultiplyLiteral5:ne</title>
<path fill="none" stroke="#cc8e14" stroke-width="2" stroke-dasharray="1,5" d="M438.339,-71.7461C431.112,-63.1856 423.467,-52.6194 417.249,-42.8931"/>
<ellipse fill="#cc8e14" stroke="#cc8e14" cx="415.099" cy="-39.405" rx="4.00002" ry="4.00002"/>
</g>
<!-- literal5&#45;&gt;ageIndexMultiplyLiteral5 -->
<g id="edge10" class="edge"><title>literal5&#45;&gt;ageIndexMultiplyLiteral5:ne</title>
<path fill="none" stroke="blue" stroke-width="2" stroke-dasharray="1,5" d="M451.825,-71.7461C444.357,-62.6038 432.877,-51.174 419.633,-40.9226"/>
<ellipse fill="blue" stroke="blue" cx="416.212" cy="-38.3838" rx="4.00002" ry="4.00002"/>
</g>
</g>
</svg>
