<?xml version="1.0" encoding="UTF-8" standalone="no"?>
<!DOCTYPE svg PUBLIC "-//W3C//DTD SVG 1.1//EN"
 "http://www.w3.org/Graphics/SVG/1.1/DTD/svg11.dtd">
<!-- Generated by graphviz version 2.29.20110702.0445 (20110702.0445)
 -->
<!-- Title: mapLocation Pages: 1 -->
<svg width="228pt" height="100pt"
 viewBox="0.00 0.00 228.00 100.00" xmlns="http://www.w3.org/2000/svg" xmlns:xlink="http://www.w3.org/1999/xlink">
<g id="graph1" class="graph" transform="scale(1 1) rotate(0) translate(4 96)">
<title>mapLocation</title>
<polygon fill="white" stroke="white" points="-4,5 -4,-96 225,-96 225,5 -4,5"/>
<g id="graph2" class="cluster"><title>clusterWatch</title>
<polygon fill="ghostwhite" stroke="white" points="136,-8 136,-84 212,-84 212,-8 136,-8"/>
<text text-anchor="middle" x="163.582" y="-66" font-family="Helvetica,sans-Serif" font-size="14.00">Watch</text>
</g>
<!-- iteration -->
<g id="node1" class="node"><title>iteration</title>
<polygon fill="lightgray" stroke="lightgray" points="42,-52 12,-52 0,-40 0,-28 12,-16 42,-16 54,-28 54,-40 42,-52"/>
<path fill="lightgray" stroke="lightgray" d="M12,-52C6,-52 0,-46 0,-40"/>
<path fill="lightgray" stroke="lightgray" d="M0,-28C0,-22 6,-16 12,-16"/>
<path fill="lightgray" stroke="lightgray" d="M42,-16C48,-16 54,-22 54,-28"/>
<path fill="lightgray" stroke="lightgray" d="M54,-40C54,-46 48,-52 42,-52"/>
<polyline fill="none" stroke="black" points="42,-52 12,-52 "/>
<path fill="none" stroke="black" d="M12,-52C6,-52 0,-46 0,-40"/>
<polyline fill="none" stroke="black" points="0,-40 0,-28 "/>
<path fill="none" stroke="black" d="M0,-28C0,-22 6,-16 12,-16"/>
<polyline fill="none" stroke="black" points="12,-16 42,-16 "/>
<path fill="none" stroke="black" d="M42,-16C48,-16 54,-22 54,-28"/>
<polyline fill="none" stroke="black" points="54,-28 54,-40 "/>
<path fill="none" stroke="black" d="M54,-40C54,-46 48,-52 42,-52"/>
<text text-anchor="middle" x="27" y="-28.4" font-family="Helvetica,sans-Serif" font-size="14.00">Step</text>
</g>
<!-- start -->
<g id="node2" class="node"><title>start</title>
<polygon fill="lightgray" stroke="lightgray" points="114,-52 84,-52 72,-40 72,-28 84,-16 114,-16 126,-28 126,-40 114,-52"/>
<path fill="lightgray" stroke="lightgray" d="M84,-52C78,-52 72,-46 72,-40"/>
<path fill="lightgray" stroke="lightgray" d="M72,-28C72,-22 78,-16 84,-16"/>
<path fill="lightgray" stroke="lightgray" d="M114,-16C120,-16 126,-22 126,-28"/>
<path fill="lightgray" stroke="lightgray" d="M126,-40C126,-46 120,-52 114,-52"/>
<polyline fill="none" stroke="black" points="114,-52 84,-52 "/>
<path fill="none" stroke="black" d="M84,-52C78,-52 72,-46 72,-40"/>
<polyline fill="none" stroke="black" points="72,-40 72,-28 "/>
<path fill="none" stroke="black" d="M72,-28C72,-22 78,-16 84,-16"/>
<polyline fill="none" stroke="black" points="84,-16 114,-16 "/>
<path fill="none" stroke="black" d="M114,-16C120,-16 126,-22 126,-28"/>
<polyline fill="none" stroke="black" points="126,-28 126,-40 "/>
<path fill="none" stroke="black" d="M126,-40C126,-46 120,-52 114,-52"/>
<text text-anchor="middle" x="99" y="-28.4" font-family="Helvetica,sans-Serif" font-size="14.00">Start</text>
</g>
<!-- diffuse -->
<g id="node4" class="node"><title>diffuse</title>
<a xlink:href="mapLocation_diffuse.svg" xlink:title="Diffuse">
<polygon fill="#ffcccc" stroke="#ffcccc" points="191.494,-52 156.506,-52 144.506,-40 144.506,-28 156.506,-16 191.494,-16 203.494,-28 203.494,-40 191.494,-52"/>
<path fill="#ffcccc" stroke="#ffcccc" d="M156.506,-52C150.506,-52 144.506,-46 144.506,-40"/>
<path fill="#ffcccc" stroke="#ffcccc" d="M144.506,-28C144.506,-22 150.506,-16 156.506,-16"/>
<path fill="#ffcccc" stroke="#ffcccc" d="M191.494,-16C197.494,-16 203.494,-22 203.494,-28"/>
<path fill="#ffcccc" stroke="#ffcccc" d="M203.494,-40C203.494,-46 197.494,-52 191.494,-52"/>
<polyline fill="none" stroke="black" points="191.494,-52 156.506,-52 "/>
<path fill="none" stroke="black" d="M156.506,-52C150.506,-52 144.506,-46 144.506,-40"/>
<polyline fill="none" stroke="black" points="144.506,-40 144.506,-28 "/>
<path fill="none" stroke="black" d="M144.506,-28C144.506,-22 150.506,-16 156.506,-16"/>
<polyline fill="none" stroke="black" points="156.506,-16 191.494,-16 "/>
<path fill="none" stroke="black" d="M191.494,-16C197.494,-16 203.494,-22 203.494,-28"/>
<polyline fill="none" stroke="black" points="203.494,-28 203.494,-40 "/>
<path fill="none" stroke="black" d="M203.494,-40C203.494,-46 197.494,-52 191.494,-52"/>
<text text-anchor="middle" x="174" y="-28.4" font-family="Helvetica,sans-Serif" font-size="14.00">Diffuse</text>
</a>
</g>
</g>
</svg>
