<?xml version="1.0" encoding="UTF-8" standalone="no"?>
<!DOCTYPE svg PUBLIC "-//W3C//DTD SVG 1.1//EN"
 "http://www.w3.org/Graphics/SVG/1.1/DTD/svg11.dtd">
<!-- Generated by graphviz version 2.29.20110702.0445 (20110702.0445)
 -->
<!-- Title: diffuse Pages: 1 -->
<svg width="279pt" height="78pt"
 viewBox="0.00 0.00 279.00 78.00" xmlns="http://www.w3.org/2000/svg" xmlns:xlink="http://www.w3.org/1999/xlink">
<g id="graph1" class="graph" transform="scale(1 1) rotate(0) translate(4 74)">
<title>diffuse</title>
<polygon fill="white" stroke="white" points="-4,5 -4,-74 276,-74 276,5 -4,5"/>
<g id="graph2" class="cluster"><title>clustercontextKey</title>
<polygon fill="ghostwhite" stroke="white" points="8,-8 8,-62 96,-62 96,-8 8,-8"/>
<text text-anchor="middle" x="52.1792" y="-44" font-family="Helvetica,sans-Serif" font-size="14.00">Parameters</text>
</g>
<g id="graph3" class="cluster"><title>clustermapLocationKey</title>
<polygon fill="ghostwhite" stroke="white" points="104,-8 104,-62 204,-62 204,-8 104,-8"/>
<text text-anchor="middle" x="154.027" y="-44" font-family="Helvetica,sans-Serif" font-size="14.00">Map Location</text>
</g>
<!-- contextOverview -->
<g id="node2" class="node"><title>contextOverview</title>
<ellipse fill="black" stroke="black" cx="52" cy="-23" rx="7.2" ry="7.2"/>
</g>
<!-- diffuseOverview -->
<g id="node4" class="node"><title>diffuseOverview</title>
<a xlink:href="mapLocation__Overview.svg">
<ellipse fill="#cc1414" stroke="#cc1414" cx="153" cy="-23" rx="7.2" ry="7.2"/>
</a>
</g>
<!-- diffuse -->
<g id="node5" class="node"><title>diffuse</title>
<a xlink:href="mapLocation_diffuse.svg" xlink:title="Diffuse">
<polygon fill="#ffcccc" stroke="#ffcccc" points="259.494,-41 224.506,-41 212.506,-29 212.506,-17 224.506,-5 259.494,-5 271.494,-17 271.494,-29 259.494,-41"/>
<path fill="#ffcccc" stroke="#ffcccc" d="M224.506,-41C218.506,-41 212.506,-35 212.506,-29"/>
<path fill="#ffcccc" stroke="#ffcccc" d="M212.506,-17C212.506,-11 218.506,-5 224.506,-5"/>
<path fill="#ffcccc" stroke="#ffcccc" d="M259.494,-5C265.494,-5 271.494,-11 271.494,-17"/>
<path fill="#ffcccc" stroke="#ffcccc" d="M271.494,-29C271.494,-35 265.494,-41 259.494,-41"/>
<polyline fill="none" stroke="black" points="259.494,-41 224.506,-41 "/>
<path fill="none" stroke="black" d="M224.506,-41C218.506,-41 212.506,-35 212.506,-29"/>
<polyline fill="none" stroke="black" points="212.506,-29 212.506,-17 "/>
<path fill="none" stroke="black" d="M212.506,-17C212.506,-11 218.506,-5 224.506,-5"/>
<polyline fill="none" stroke="black" points="224.506,-5 259.494,-5 "/>
<path fill="none" stroke="black" d="M259.494,-5C265.494,-5 271.494,-11 271.494,-17"/>
<polyline fill="none" stroke="black" points="271.494,-17 271.494,-29 "/>
<path fill="none" stroke="black" d="M271.494,-29C271.494,-35 265.494,-41 259.494,-41"/>
<text text-anchor="middle" x="242" y="-17.4" font-family="Helvetica,sans-Serif" font-size="14.00">Diffuse</text>
</a>
</g>
</g>
</svg>
