<?xml version="1.0" encoding="UTF-8" standalone="no"?>
<!DOCTYPE svg PUBLIC "-//W3C//DTD SVG 1.1//EN"
 "http://www.w3.org/Graphics/SVG/1.1/DTD/svg11.dtd">
<!-- Generated by graphviz version 2.29.20110702.0445 (20110702.0445)
 -->
<!-- Title: workLocation Pages: 1 -->
<svg width="351pt" height="289pt"
 viewBox="0.00 0.00 351.00 289.00" xmlns="http://www.w3.org/2000/svg" xmlns:xlink="http://www.w3.org/1999/xlink">
<g id="graph1" class="graph" transform="scale(1 1) rotate(0) translate(4 285)">
<title>workLocation</title>
<polygon fill="white" stroke="white" points="-4,5 -4,-285 348,-285 348,5 -4,5"/>
<g id="graph2" class="cluster"><title>clustercontextKey</title>
<polygon fill="ghostwhite" stroke="white" points="8,-219 8,-273 96,-273 96,-219 8,-219"/>
<text text-anchor="middle" x="52.1792" y="-255" font-family="Helvetica,sans-Serif" font-size="14.00">Parameters</text>
</g>
<g id="graph3" class="cluster"><title>clusterworkLocationKey</title>
<polygon fill="ghostwhite" stroke="white" points="104,-219 104,-273 209,-273 209,-219 104,-219"/>
<text text-anchor="middle" x="156.618" y="-255" font-family="Helvetica,sans-Serif" font-size="14.00">Work Location</text>
</g>
<!-- contextOverview -->
<g id="node2" class="node"><title>contextOverview</title>
<ellipse fill="black" stroke="black" cx="52" cy="-234" rx="7.2" ry="7.2"/>
</g>
<!-- intializeNonFrameworkOverview -->
<g id="node4" class="node"><title>intializeNonFrameworkOverview</title>
<a xlink:href="workLocation__Overview.svg">
<ellipse fill="#cc1414" stroke="#cc1414" cx="155" cy="-234" rx="7.2" ry="7.2"/>
</a>
</g>
<!-- intializeNonFramework -->
<g id="node5" class="node"><title>intializeNonFramework</title>
<a xlink:href="workLocation_intializeNonFramework.svg" xlink:title="Initialize">
<polygon fill="#ffcccc" stroke="#ffcccc" points="270.937,-252 229.063,-252 217.063,-240 217.063,-228 229.063,-216 270.937,-216 282.937,-228 282.937,-240 270.937,-252"/>
<path fill="#ffcccc" stroke="#ffcccc" d="M229.063,-252C223.063,-252 217.063,-246 217.063,-240"/>
<path fill="#ffcccc" stroke="#ffcccc" d="M217.063,-228C217.063,-222 223.063,-216 229.063,-216"/>
<path fill="#ffcccc" stroke="#ffcccc" d="M270.937,-216C276.937,-216 282.937,-222 282.937,-228"/>
<path fill="#ffcccc" stroke="#ffcccc" d="M282.937,-240C282.937,-246 276.937,-252 270.937,-252"/>
<polyline fill="none" stroke="black" points="270.937,-252 229.063,-252 "/>
<path fill="none" stroke="black" d="M229.063,-252C223.063,-252 217.063,-246 217.063,-240"/>
<polyline fill="none" stroke="black" points="217.063,-240 217.063,-228 "/>
<path fill="none" stroke="black" d="M217.063,-228C217.063,-222 223.063,-216 229.063,-216"/>
<polyline fill="none" stroke="black" points="229.063,-216 270.937,-216 "/>
<path fill="none" stroke="black" d="M270.937,-216C276.937,-216 282.937,-222 282.937,-228"/>
<polyline fill="none" stroke="black" points="282.937,-228 282.937,-240 "/>
<path fill="none" stroke="black" d="M282.937,-240C282.937,-246 276.937,-252 270.937,-252"/>
<text text-anchor="middle" x="250" y="-228.4" font-family="Helvetica,sans-Serif" font-size="14.00">Initialize</text>
</a>
</g>
<!-- workLocation -->
<g id="node7" class="node"><title>workLocation</title>
<polygon fill="#ffe2cc" stroke="#ffe2cc" points="331.427,-180 250.573,-180 238.573,-168 238.573,-156 250.573,-144 331.427,-144 343.427,-156 343.427,-168 331.427,-180"/>
<path fill="#ffe2cc" stroke="#ffe2cc" d="M250.573,-180C244.573,-180 238.573,-174 238.573,-168"/>
<path fill="#ffe2cc" stroke="#ffe2cc" d="M238.573,-156C238.573,-150 244.573,-144 250.573,-144"/>
<path fill="#ffe2cc" stroke="#ffe2cc" d="M331.427,-144C337.427,-144 343.427,-150 343.427,-156"/>
<path fill="#ffe2cc" stroke="#ffe2cc" d="M343.427,-168C343.427,-174 337.427,-180 331.427,-180"/>
<polyline fill="none" stroke="gray" points="331.427,-180 250.573,-180 "/>
<path fill="none" stroke="gray" d="M250.573,-180C244.573,-180 238.573,-174 238.573,-168"/>
<polyline fill="none" stroke="gray" points="238.573,-168 238.573,-156 "/>
<path fill="none" stroke="gray" d="M238.573,-156C238.573,-150 244.573,-144 250.573,-144"/>
<polyline fill="none" stroke="gray" points="250.573,-144 331.427,-144 "/>
<path fill="none" stroke="gray" d="M331.427,-144C337.427,-144 343.427,-150 343.427,-156"/>
<polyline fill="none" stroke="gray" points="343.427,-156 343.427,-168 "/>
<path fill="none" stroke="gray" d="M343.427,-168C343.427,-174 337.427,-180 331.427,-180"/>
<text text-anchor="middle" x="291" y="-156.4" font-family="Helvetica,sans-Serif" font-size="14.00">Work Location</text>
</g>
<!-- intializeNonFramework&#45;&gt;workLocation -->
<g id="edge4" class="edge"><title>intializeNonFramework&#45;&gt;workLocation</title>
<path fill="none" stroke="#cc1414" stroke-width="3" d="M260.135,-215.697C263.362,-210.187 267.054,-203.883 270.737,-197.596"/>
<polygon fill="#cc1414" stroke="#cc1414" points="276.914,-200.9 280.982,-180.104 264.833,-193.824 276.914,-200.9"/>
</g>
<!-- moveWorkLocation -->
<g id="node8" class="node"><title>moveWorkLocation</title>
<polygon fill="#ffcccc" stroke="#ffcccc" points="289,-36 259,-36 247,-24 247,-12 259,-0 289,-0 301,-12 301,-24 289,-36"/>
<path fill="#ffcccc" stroke="#ffcccc" d="M259,-36C253,-36 247,-30 247,-24"/>
<path fill="#ffcccc" stroke="#ffcccc" d="M247,-12C247,-6 253,-0 259,-0"/>
<path fill="#ffcccc" stroke="#ffcccc" d="M289,-0C295,-0 301,-6 301,-12"/>
<path fill="#ffcccc" stroke="#ffcccc" d="M301,-24C301,-30 295,-36 289,-36"/>
<polyline fill="none" stroke="#ffcccc" points="289,-36 259,-36 "/>
<path fill="none" stroke="#ffcccc" d="M259,-36C253,-36 247,-30 247,-24"/>
<polyline fill="none" stroke="#ffcccc" points="247,-24 247,-12 "/>
<path fill="none" stroke="#ffcccc" d="M247,-12C247,-6 253,-0 259,-0"/>
<polyline fill="none" stroke="#ffcccc" points="259,-0 289,-0 "/>
<path fill="none" stroke="#ffcccc" d="M289,-0C295,-0 301,-6 301,-12"/>
<polyline fill="none" stroke="#ffcccc" points="301,-12 301,-24 "/>
<path fill="none" stroke="#ffcccc" d="M301,-24C301,-30 295,-36 289,-36"/>
<text text-anchor="middle" x="274" y="-12.4" font-family="Helvetica,sans-Serif" font-size="14.00">Move</text>
</g>
<!-- intializeNonFramework&#45;&gt;moveWorkLocation -->
<g id="edge6" class="edge"><title>intializeNonFramework&#45;&gt;moveWorkLocation:nw</title>
<path fill="none" stroke="#cc1414" stroke-width="3" stroke-dasharray="5,2" d="M241.282,-215.833C236.625,-205.694 231.375,-192.444 229,-180 220,-132.851 213.821,-117.537 229,-72 232.656,-61.0308 236.383,-55.4393 241.608,-49.941"/>
<polygon fill="#cc1414" stroke="#cc1414" points="246.505,-54.9433 256,-36 236.764,-44.8876 246.505,-54.9433"/>
</g>
<!-- workLocation&#45;&gt;moveWorkLocation -->
<g id="edge8" class="edge"><title>workLocation&#45;&gt;moveWorkLocation:ne</title>
<path fill="none" stroke="#cc6514" stroke-width="3" stroke-dasharray="5,2" d="M302.887,-143.725C309.013,-133.765 315.845,-120.727 319,-108 322.85,-92.4701 324.06,-87.1789 319,-72 315.344,-61.0308 311.617,-55.4393 306.392,-49.941"/>
<polygon fill="#cc6514" stroke="#cc6514" points="311.236,-44.8876 292,-36 301.495,-54.9433 311.236,-44.8876"/>
</g>
<!-- availableQuery -->
<g id="node12" class="node"><title>availableQuery</title>
<polygon fill="#ffe2cc" stroke="#ffe2cc" points="297.928,-108 250.072,-108 238.072,-96 238.072,-84 250.072,-72 297.928,-72 309.928,-84 309.928,-96 297.928,-108"/>
<path fill="#ffe2cc" stroke="#ffe2cc" d="M250.072,-108C244.072,-108 238.072,-102 238.072,-96"/>
<path fill="#ffe2cc" stroke="#ffe2cc" d="M238.072,-84C238.072,-78 244.072,-72 250.072,-72"/>
<path fill="#ffe2cc" stroke="#ffe2cc" d="M297.928,-72C303.928,-72 309.928,-78 309.928,-84"/>
<path fill="#ffe2cc" stroke="#ffe2cc" d="M309.928,-96C309.928,-102 303.928,-108 297.928,-108"/>
<polyline fill="none" stroke="#ffe2cc" points="297.928,-108 250.072,-108 "/>
<path fill="none" stroke="#ffe2cc" d="M250.072,-108C244.072,-108 238.072,-102 238.072,-96"/>
<polyline fill="none" stroke="#ffe2cc" points="238.072,-96 238.072,-84 "/>
<path fill="none" stroke="#ffe2cc" d="M238.072,-84C238.072,-78 244.072,-72 250.072,-72"/>
<polyline fill="none" stroke="#ffe2cc" points="250.072,-72 297.928,-72 "/>
<path fill="none" stroke="#ffe2cc" d="M297.928,-72C303.928,-72 309.928,-78 309.928,-84"/>
<polyline fill="none" stroke="#ffe2cc" points="309.928,-84 309.928,-96 "/>
<path fill="none" stroke="#ffe2cc" d="M309.928,-96C309.928,-102 303.928,-108 297.928,-108"/>
<text text-anchor="middle" x="274" y="-84.4" font-family="Helvetica,sans-Serif" font-size="14.00">Available</text>
</g>
<!-- workLocation&#45;&gt;availableQuery -->
<g id="edge10" class="edge"><title>workLocation&#45;&gt;availableQuery</title>
<path fill="none" stroke="#cc6514" stroke-width="3" d="M286.798,-143.697C285.604,-138.78 284.256,-133.231 282.895,-127.627"/>
<polygon fill="#cc6514" stroke="#cc6514" points="289.676,-125.887 278.154,-108.104 276.072,-129.191 289.676,-125.887"/>
</g>
<!-- availableQuery&#45;&gt;moveWorkLocation -->
<g id="edge12" class="edge"><title>availableQuery&#45;&gt;moveWorkLocation</title>
<path fill="none" stroke="#cc6514" stroke-width="3" d="M274,-71.6966C274,-66.9496 274,-61.6132 274,-56.2063"/>
<polygon fill="#cc6514" stroke="#cc6514" points="281,-56.1043 274,-36.1043 267,-56.1044 281,-56.1043"/>
</g>
</g>
</svg>
