<?xml version="1.0" encoding="UTF-8" standalone="no"?>
<!DOCTYPE svg PUBLIC "-//W3C//DTD SVG 1.1//EN"
 "http://www.w3.org/Graphics/SVG/1.1/DTD/svg11.dtd">
<!-- Generated by graphviz version 2.29.20110702.0445 (20110702.0445)
 -->
<!-- Title: house Pages: 1 -->
<svg width="106pt" height="244pt"
 viewBox="0.00 0.00 106.00 244.00" xmlns="http://www.w3.org/2000/svg" xmlns:xlink="http://www.w3.org/1999/xlink">
<g id="graph1" class="graph" transform="scale(1 1) rotate(0) translate(4 240)">
<title>house</title>
<polygon fill="white" stroke="white" points="-4,5 -4,-240 103,-240 103,5 -4,5"/>
<g id="graph4" class="cluster"><title>clusterInit</title>
<polygon fill="ghostwhite" stroke="white" points="8,-8 8,-228 90,-228 90,-8 8,-8"/>
<text text-anchor="middle" x="41.2896" y="-210" font-family="Helvetica,sans-Serif" font-size="14.00">Initialize</text>
</g>
<!-- iteration -->
<g id="node1" class="node"><title>iteration</title>
<polygon fill="lightgray" stroke="lightgray" points="64,-52 34,-52 22,-40 22,-28 34,-16 64,-16 76,-28 76,-40 64,-52"/>
<path fill="lightgray" stroke="lightgray" d="M34,-52C28,-52 22,-46 22,-40"/>
<path fill="lightgray" stroke="lightgray" d="M22,-28C22,-22 28,-16 34,-16"/>
<path fill="lightgray" stroke="lightgray" d="M64,-16C70,-16 76,-22 76,-28"/>
<path fill="lightgray" stroke="lightgray" d="M76,-40C76,-46 70,-52 64,-52"/>
<polyline fill="none" stroke="black" points="64,-52 34,-52 "/>
<path fill="none" stroke="black" d="M34,-52C28,-52 22,-46 22,-40"/>
<polyline fill="none" stroke="black" points="22,-40 22,-28 "/>
<path fill="none" stroke="black" d="M22,-28C22,-22 28,-16 34,-16"/>
<polyline fill="none" stroke="black" points="34,-16 64,-16 "/>
<path fill="none" stroke="black" d="M64,-16C70,-16 76,-22 76,-28"/>
<polyline fill="none" stroke="black" points="76,-28 76,-40 "/>
<path fill="none" stroke="black" d="M76,-40C76,-46 70,-52 64,-52"/>
<text text-anchor="middle" x="49" y="-28.4" font-family="Helvetica,sans-Serif" font-size="14.00">Step</text>
</g>
<!-- start -->
<g id="node2" class="node"><title>start</title>
<polygon fill="lightgray" stroke="lightgray" points="64,-196 34,-196 22,-184 22,-172 34,-160 64,-160 76,-172 76,-184 64,-196"/>
<path fill="lightgray" stroke="lightgray" d="M34,-196C28,-196 22,-190 22,-184"/>
<path fill="lightgray" stroke="lightgray" d="M22,-172C22,-166 28,-160 34,-160"/>
<path fill="lightgray" stroke="lightgray" d="M64,-160C70,-160 76,-166 76,-172"/>
<path fill="lightgray" stroke="lightgray" d="M76,-184C76,-190 70,-196 64,-196"/>
<polyline fill="none" stroke="black" points="64,-196 34,-196 "/>
<path fill="none" stroke="black" d="M34,-196C28,-196 22,-190 22,-184"/>
<polyline fill="none" stroke="black" points="22,-184 22,-172 "/>
<path fill="none" stroke="black" d="M22,-172C22,-166 28,-160 34,-160"/>
<polyline fill="none" stroke="black" points="34,-160 64,-160 "/>
<path fill="none" stroke="black" d="M64,-160C70,-160 76,-166 76,-172"/>
<polyline fill="none" stroke="black" points="76,-172 76,-184 "/>
<path fill="none" stroke="black" d="M76,-184C76,-190 70,-196 64,-196"/>
<text text-anchor="middle" x="49" y="-172.4" font-family="Helvetica,sans-Serif" font-size="14.00">Start</text>
</g>
<!-- intializeNonFramework -->
<g id="node6" class="node"><title>intializeNonFramework</title>
<a xlink:href="house_intializeNonFramework.svg" xlink:title="Initialize">
<polygon fill="#ffcccc" stroke="#ffcccc" points="69.9366,-124 28.0634,-124 16.0634,-112 16.0634,-100 28.0634,-88 69.9366,-88 81.9366,-100 81.9366,-112 69.9366,-124"/>
<path fill="#ffcccc" stroke="#ffcccc" d="M28.0634,-124C22.0634,-124 16.0634,-118 16.0634,-112"/>
<path fill="#ffcccc" stroke="#ffcccc" d="M16.0634,-100C16.0634,-94 22.0634,-88 28.0634,-88"/>
<path fill="#ffcccc" stroke="#ffcccc" d="M69.9366,-88C75.9366,-88 81.9366,-94 81.9366,-100"/>
<path fill="#ffcccc" stroke="#ffcccc" d="M81.9366,-112C81.9366,-118 75.9366,-124 69.9366,-124"/>
<polyline fill="none" stroke="black" points="69.9366,-124 28.0634,-124 "/>
<path fill="none" stroke="black" d="M28.0634,-124C22.0634,-124 16.0634,-118 16.0634,-112"/>
<polyline fill="none" stroke="black" points="16.0634,-112 16.0634,-100 "/>
<path fill="none" stroke="black" d="M16.0634,-100C16.0634,-94 22.0634,-88 28.0634,-88"/>
<polyline fill="none" stroke="black" points="28.0634,-88 69.9366,-88 "/>
<path fill="none" stroke="black" d="M69.9366,-88C75.9366,-88 81.9366,-94 81.9366,-100"/>
<polyline fill="none" stroke="black" points="81.9366,-100 81.9366,-112 "/>
<path fill="none" stroke="black" d="M81.9366,-112C81.9366,-118 75.9366,-124 69.9366,-124"/>
<text text-anchor="middle" x="49" y="-100.4" font-family="Helvetica,sans-Serif" font-size="14.00">Initialize</text>
</a>
</g>
<!-- start&#45;&gt;intializeNonFramework -->
<g id="edge5" class="edge"><title>start&#45;&gt;intializeNonFramework</title>
<path fill="none" stroke="darkslategray" stroke-width="3" d="M49,-159.697C49,-151.983 49,-142.712 49,-134.112"/>
<polygon fill="darkslategray" stroke="darkslategray" points="52.5001,-134.104 49,-124.104 45.5001,-134.104 52.5001,-134.104"/>
</g>
<!-- intializeNonFramework&#45;&gt;iteration -->
<g id="edge6" class="edge"><title>intializeNonFramework&#45;&gt;iteration</title>
<path fill="none" stroke="darkslategray" stroke-width="3" d="M49,-87.6966C49,-79.9827 49,-70.7125 49,-62.1124"/>
<polygon fill="darkslategray" stroke="darkslategray" points="52.5001,-62.1043 49,-52.1043 45.5001,-62.1044 52.5001,-62.1043"/>
</g>
</g>
</svg>
