<?xml version="1.0" encoding="UTF-8" standalone="no"?>
<!DOCTYPE svg PUBLIC "-//W3C//DTD SVG 1.1//EN"
 "http://www.w3.org/Graphics/SVG/1.1/DTD/svg11.dtd">
<!-- Generated by graphviz version 2.29.20110702.0445 (20110702.0445)
 -->
<!-- Title: detection Pages: 1 -->
<svg width="1236pt" height="529pt"
 viewBox="0.00 0.00 1236.00 529.00" xmlns="http://www.w3.org/2000/svg" xmlns:xlink="http://www.w3.org/1999/xlink">
<g id="graph1" class="graph" transform="scale(1 1) rotate(0) translate(4 525)">
<title>detection</title>
<polygon fill="white" stroke="white" points="-4,5 -4,-525 1233,-525 1233,5 -4,5"/>
<g id="graph2" class="cluster"><title>clustercontextKey</title>
<polygon fill="ghostwhite" stroke="white" points="8,-459 8,-513 96,-513 96,-459 8,-459"/>
<text text-anchor="middle" x="52.1792" y="-495" font-family="Helvetica,sans-Serif" font-size="14.00">Parameters</text>
</g>
<g id="graph3" class="cluster"><title>clusterindividualKey</title>
<polygon fill="ghostwhite" stroke="white" points="104,-459 104,-513 179,-513 179,-459 104,-459"/>
<text text-anchor="middle" x="141.576" y="-495" font-family="Helvetica,sans-Serif" font-size="14.00">Individual</text>
</g>
<!-- contextOverview -->
<g id="node2" class="node"><title>contextOverview</title>
<ellipse fill="black" stroke="black" cx="52" cy="-474" rx="7.2" ry="7.2"/>
</g>
<!-- detectionOverview -->
<g id="node4" class="node"><title>detectionOverview</title>
<a xlink:href="individual__Overview.svg">
<ellipse fill="#52cc14" stroke="#52cc14" cx="140" cy="-474" rx="7.2" ry="7.2"/>
</a>
</g>
<!-- watchTreatmentStatus -->
<g id="node5" class="node"><title>watchTreatmentStatus</title>
<a xlink:href="individual_watchTreatmentStatus.svg" xlink:title="Watch Treatment Status">
<polygon fill="#ffccee" stroke="#ffccee" points="722.256,-412 581.744,-412 569.744,-400 569.744,-388 581.744,-376 722.256,-376 734.256,-388 734.256,-400 722.256,-412"/>
<path fill="#ffccee" stroke="#ffccee" d="M581.744,-412C575.744,-412 569.744,-406 569.744,-400"/>
<path fill="#ffccee" stroke="#ffccee" d="M569.744,-388C569.744,-382 575.744,-376 581.744,-376"/>
<path fill="#ffccee" stroke="#ffccee" d="M722.256,-376C728.256,-376 734.256,-382 734.256,-388"/>
<path fill="#ffccee" stroke="#ffccee" d="M734.256,-400C734.256,-406 728.256,-412 722.256,-412"/>
<polyline fill="none" stroke="black" points="722.256,-412 581.744,-412 "/>
<path fill="none" stroke="black" d="M581.744,-412C575.744,-412 569.744,-406 569.744,-400"/>
<polyline fill="none" stroke="black" points="569.744,-400 569.744,-388 "/>
<path fill="none" stroke="black" d="M569.744,-388C569.744,-382 575.744,-376 581.744,-376"/>
<polyline fill="none" stroke="black" points="581.744,-376 722.256,-376 "/>
<path fill="none" stroke="black" d="M722.256,-376C728.256,-376 734.256,-382 734.256,-388"/>
<polyline fill="none" stroke="black" points="734.256,-388 734.256,-400 "/>
<path fill="none" stroke="black" d="M734.256,-400C734.256,-406 728.256,-412 722.256,-412"/>
<text text-anchor="middle" x="652" y="-388.4" font-family="Helvetica,sans-Serif" font-size="14.00">Watch Treatment Status</text>
</a>
</g>
<!-- individualtreatmentStatusRecord -->
<g id="node6" class="node"><title>individualtreatmentStatusRecord</title>
<polygon fill="white" stroke="none" points="401.287,-449.2 401.287,-498.8 854.713,-498.8 854.713,-449.2 401.287,-449.2"/>
<text text-anchor="middle" x="628" y="-480.8" font-family="Helvetica,sans-Serif" font-size="14.00">Treatment Status</text>
<polyline fill="none" stroke="none" points="401.287,-474 854.713,-474 "/>
<text text-anchor="middle" x="451.701" y="-456" font-family="Helvetica,sans-Serif" font-size="14.00">No Treatment</text>
<polyline fill="none" stroke="none" points="502.114,-449.2 502.114,-474 "/>
<text text-anchor="middle" x="566.142" y="-456" font-family="Helvetica,sans-Serif" font-size="14.00">Clinical Treatment</text>
<polyline fill="none" stroke="none" points="630.169,-449.2 630.169,-474 "/>
<text text-anchor="middle" x="742.441" y="-456" font-family="Helvetica,sans-Serif" font-size="14.00">Non Compliant Clinical Treatment</text>
</g>
<!-- individualtreatmentStatusRecord&#45;&gt;watchTreatmentStatus -->
<g id="edge4" class="edge"><title>individualtreatmentStatusRecord:individualtreatmentStatus&#45;&gt;watchTreatmentStatus</title>
<path fill="none" stroke="#cc148f" stroke-width="2" d="M628,-500C628,-525.111 836.283,-516.796 854,-499 869.992,-482.937 867.845,-465.947 854,-448 840.018,-429.876 790.686,-416.737 744.277,-408.075"/>
<polygon fill="#cc148f" stroke="#cc148f" points="734.432,-406.294 745.073,-403.646 739.441,-406.692 744.361,-407.582 744.272,-408.074 744.183,-408.566 739.263,-407.676 743.471,-412.502 734.432,-406.294 734.432,-406.294"/>
</g>
<!-- treatmentStatusIdenticalNoTreatmentQuery -->
<g id="node13" class="node"><title>treatmentStatusIdenticalNoTreatmentQuery</title>
<polygon fill="#ddffcc" stroke="#ddffcc" points="240,-412 210,-412 198,-400 198,-388 210,-376 240,-376 252,-388 252,-400 240,-412"/>
<path fill="#ddffcc" stroke="#ddffcc" d="M210,-412C204,-412 198,-406 198,-400"/>
<path fill="#ddffcc" stroke="#ddffcc" d="M198,-388C198,-382 204,-376 210,-376"/>
<path fill="#ddffcc" stroke="#ddffcc" d="M240,-376C246,-376 252,-382 252,-388"/>
<path fill="#ddffcc" stroke="#ddffcc" d="M252,-400C252,-406 246,-412 240,-412"/>
<polyline fill="none" stroke="#ddffcc" points="240,-412 210,-412 "/>
<path fill="none" stroke="#ddffcc" d="M210,-412C204,-412 198,-406 198,-400"/>
<polyline fill="none" stroke="#ddffcc" points="198,-400 198,-388 "/>
<path fill="none" stroke="#ddffcc" d="M198,-388C198,-382 204,-376 210,-376"/>
<polyline fill="none" stroke="#ddffcc" points="210,-376 240,-376 "/>
<path fill="none" stroke="#ddffcc" d="M240,-376C246,-376 252,-382 252,-388"/>
<polyline fill="none" stroke="#ddffcc" points="252,-388 252,-400 "/>
<path fill="none" stroke="#ddffcc" d="M252,-400C252,-406 246,-412 240,-412"/>
<text text-anchor="middle" x="225" y="-388.4" font-family="Helvetica,sans-Serif" font-size="14.00">Is?</text>
</g>
<!-- individualtreatmentStatusRecord&#45;&gt;treatmentStatusIdenticalNoTreatmentQuery -->
<g id="edge44" class="edge"><title>individualtreatmentStatusRecord:individualtreatmentStatusnoTreatment&#45;&gt;treatmentStatusIdenticalNoTreatmentQuery:ne</title>
<path fill="none" stroke="#52cc14" stroke-width="2" stroke-dasharray="1,5" d="M400,-462C365.959,-462 281.893,-441.162 249.435,-417.427"/>
<ellipse fill="#52cc14" stroke="#52cc14" cx="246.058" cy="-414.579" rx="4.00002" ry="4.00002"/>
</g>
<!-- individualcomplianceBehaviorRecord -->
<g id="node8" class="node"><title>individualcomplianceBehaviorRecord</title>
<polygon fill="white" stroke="none" points="500.77,-217.2 500.77,-266.8 901.23,-266.8 901.23,-217.2 500.77,-217.2"/>
<text text-anchor="middle" x="701" y="-248.8" font-family="Helvetica,sans-Serif" font-size="14.00">Compliance Behavior</text>
<polyline fill="none" stroke="none" points="500.77,-242 901.23,-242 "/>
<text text-anchor="middle" x="560.9" y="-224" font-family="Helvetica,sans-Serif" font-size="14.00">Never Compliant</text>
<polyline fill="none" stroke="none" points="621.031,-217.2 621.031,-242 "/>
<text text-anchor="middle" x="697.5" y="-224" font-family="Helvetica,sans-Serif" font-size="14.00">Sometimes Compliant</text>
<polyline fill="none" stroke="none" points="773.969,-217.2 773.969,-242 "/>
<text text-anchor="middle" x="837.6" y="-224" font-family="Helvetica,sans-Serif" font-size="14.00">Always Compliant</text>
</g>
<!-- complianceBehaviorIdenticalAlwaysCompliantQuery -->
<g id="node14" class="node"><title>complianceBehaviorIdenticalAlwaysCompliantQuery</title>
<polygon fill="#ddffcc" stroke="#ddffcc" points="499,-180 469,-180 457,-168 457,-156 469,-144 499,-144 511,-156 511,-168 499,-180"/>
<path fill="#ddffcc" stroke="#ddffcc" d="M469,-180C463,-180 457,-174 457,-168"/>
<path fill="#ddffcc" stroke="#ddffcc" d="M457,-156C457,-150 463,-144 469,-144"/>
<path fill="#ddffcc" stroke="#ddffcc" d="M499,-144C505,-144 511,-150 511,-156"/>
<path fill="#ddffcc" stroke="#ddffcc" d="M511,-168C511,-174 505,-180 499,-180"/>
<polyline fill="none" stroke="#ddffcc" points="499,-180 469,-180 "/>
<path fill="none" stroke="#ddffcc" d="M469,-180C463,-180 457,-174 457,-168"/>
<polyline fill="none" stroke="#ddffcc" points="457,-168 457,-156 "/>
<path fill="none" stroke="#ddffcc" d="M457,-156C457,-150 463,-144 469,-144"/>
<polyline fill="none" stroke="#ddffcc" points="469,-144 499,-144 "/>
<path fill="none" stroke="#ddffcc" d="M499,-144C505,-144 511,-150 511,-156"/>
<polyline fill="none" stroke="#ddffcc" points="511,-156 511,-168 "/>
<path fill="none" stroke="#ddffcc" d="M511,-168C511,-174 505,-180 499,-180"/>
<text text-anchor="middle" x="484" y="-156.4" font-family="Helvetica,sans-Serif" font-size="14.00">Is?</text>
</g>
<!-- individualcomplianceBehaviorRecord&#45;&gt;complianceBehaviorIdenticalAlwaysCompliantQuery -->
<g id="edge32" class="edge"><title>individualcomplianceBehaviorRecord:individualcomplianceBehavioralwaysCompliant&#45;&gt;complianceBehaviorIdenticalAlwaysCompliantQuery:ne</title>
<path fill="none" stroke="#52cc14" stroke-width="2" stroke-dasharray="1,5" d="M838,-216C838,-143.546 574.641,-226.824 508.43,-185.075"/>
<ellipse fill="#52cc14" stroke="#52cc14" cx="505.14" cy="-182.478" rx="4.00002" ry="4.00002"/>
</g>
<!-- complianceBehaviorIdenticalNeverCompliantQuery -->
<g id="node18" class="node"><title>complianceBehaviorIdenticalNeverCompliantQuery</title>
<polygon fill="#ddffcc" stroke="#ddffcc" points="571,-180 541,-180 529,-168 529,-156 541,-144 571,-144 583,-156 583,-168 571,-180"/>
<path fill="#ddffcc" stroke="#ddffcc" d="M541,-180C535,-180 529,-174 529,-168"/>
<path fill="#ddffcc" stroke="#ddffcc" d="M529,-156C529,-150 535,-144 541,-144"/>
<path fill="#ddffcc" stroke="#ddffcc" d="M571,-144C577,-144 583,-150 583,-156"/>
<path fill="#ddffcc" stroke="#ddffcc" d="M583,-168C583,-174 577,-180 571,-180"/>
<polyline fill="none" stroke="#ddffcc" points="571,-180 541,-180 "/>
<path fill="none" stroke="#ddffcc" d="M541,-180C535,-180 529,-174 529,-168"/>
<polyline fill="none" stroke="#ddffcc" points="529,-168 529,-156 "/>
<path fill="none" stroke="#ddffcc" d="M529,-156C529,-150 535,-144 541,-144"/>
<polyline fill="none" stroke="#ddffcc" points="541,-144 571,-144 "/>
<path fill="none" stroke="#ddffcc" d="M571,-144C577,-144 583,-150 583,-156"/>
<polyline fill="none" stroke="#ddffcc" points="583,-156 583,-168 "/>
<path fill="none" stroke="#ddffcc" d="M583,-168C583,-174 577,-180 571,-180"/>
<text text-anchor="middle" x="556" y="-156.4" font-family="Helvetica,sans-Serif" font-size="14.00">Is?</text>
</g>
<!-- individualcomplianceBehaviorRecord&#45;&gt;complianceBehaviorIdenticalNeverCompliantQuery -->
<g id="edge38" class="edge"><title>individualcomplianceBehaviorRecord:individualcomplianceBehaviorneverCompliant&#45;&gt;complianceBehaviorIdenticalNeverCompliantQuery:ne</title>
<path fill="none" stroke="#52cc14" stroke-width="2" stroke-dasharray="1,5" d="M561,-216C561,-202.71 576.276,-195.555 577.224,-187.325"/>
<ellipse fill="#52cc14" stroke="#52cc14" cx="575.611" cy="-183.661" rx="4.00002" ry="4.00002"/>
</g>
<!-- complianceBehaviorIdenticalSometimesCompliantQuery -->
<g id="node26" class="node"><title>complianceBehaviorIdenticalSometimesCompliantQuery</title>
<polygon fill="#ddffcc" stroke="#ddffcc" points="427,-180 397,-180 385,-168 385,-156 397,-144 427,-144 439,-156 439,-168 427,-180"/>
<path fill="#ddffcc" stroke="#ddffcc" d="M397,-180C391,-180 385,-174 385,-168"/>
<path fill="#ddffcc" stroke="#ddffcc" d="M385,-156C385,-150 391,-144 397,-144"/>
<path fill="#ddffcc" stroke="#ddffcc" d="M427,-144C433,-144 439,-150 439,-156"/>
<path fill="#ddffcc" stroke="#ddffcc" d="M439,-168C439,-174 433,-180 427,-180"/>
<polyline fill="none" stroke="#ddffcc" points="427,-180 397,-180 "/>
<path fill="none" stroke="#ddffcc" d="M397,-180C391,-180 385,-174 385,-168"/>
<polyline fill="none" stroke="#ddffcc" points="385,-168 385,-156 "/>
<path fill="none" stroke="#ddffcc" d="M385,-156C385,-150 391,-144 397,-144"/>
<polyline fill="none" stroke="#ddffcc" points="397,-144 427,-144 "/>
<path fill="none" stroke="#ddffcc" d="M427,-144C433,-144 439,-150 439,-156"/>
<polyline fill="none" stroke="#ddffcc" points="439,-156 439,-168 "/>
<path fill="none" stroke="#ddffcc" d="M439,-168C439,-174 433,-180 427,-180"/>
<text text-anchor="middle" x="412" y="-156.4" font-family="Helvetica,sans-Serif" font-size="14.00">Is?</text>
</g>
<!-- individualcomplianceBehaviorRecord&#45;&gt;complianceBehaviorIdenticalSometimesCompliantQuery -->
<g id="edge46" class="edge"><title>individualcomplianceBehaviorRecord:individualcomplianceBehaviorsometimesCompliant&#45;&gt;complianceBehaviorIdenticalSometimesCompliantQuery:ne</title>
<path fill="none" stroke="#52cc14" stroke-width="2" stroke-dasharray="1,5" d="M697,-216C697,-158.702 491.227,-216.878 436.435,-184.875"/>
<ellipse fill="#52cc14" stroke="#52cc14" cx="433.188" cy="-182.415" rx="4.00002" ry="4.00002"/>
</g>
<!-- tBmodelpSomtimesCompliantwillComply -->
<g id="node9" class="node"><title>tBmodelpSomtimesCompliantwillComply</title>
<polygon fill="white" stroke="white" points="1228.25,-108 995.75,-108 995.75,-72 1228.25,-72 1228.25,-108"/>
<text text-anchor="start" x="1004" y="-84.5" font-family="Helvetica,sans-Serif" font-size="14.00">P Somtimes Compliant will Comply</text>
</g>
<!-- complianceDrawGreaterorEqualPSomtimesCompliantwillComplyQuery -->
<g id="node16" class="node"><title>complianceDrawGreaterorEqualPSomtimesCompliantwillComplyQuery</title>
<polygon fill="#ddffcc" stroke="#ddffcc" points="1018.46,-36 915.539,-36 903.539,-24 903.539,-12 915.539,-0 1018.46,-0 1030.46,-12 1030.46,-24 1018.46,-36"/>
<path fill="#ddffcc" stroke="#ddffcc" d="M915.539,-36C909.539,-36 903.539,-30 903.539,-24"/>
<path fill="#ddffcc" stroke="#ddffcc" d="M903.539,-12C903.539,-6 909.539,-0 915.539,-0"/>
<path fill="#ddffcc" stroke="#ddffcc" d="M1018.46,-0C1024.46,-0 1030.46,-6 1030.46,-12"/>
<path fill="#ddffcc" stroke="#ddffcc" d="M1030.46,-24C1030.46,-30 1024.46,-36 1018.46,-36"/>
<polyline fill="none" stroke="#ddffcc" points="1018.46,-36 915.539,-36 "/>
<path fill="none" stroke="#ddffcc" d="M915.539,-36C909.539,-36 903.539,-30 903.539,-24"/>
<polyline fill="none" stroke="#ddffcc" points="903.539,-24 903.539,-12 "/>
<path fill="none" stroke="#ddffcc" d="M903.539,-12C903.539,-6 909.539,-0 915.539,-0"/>
<polyline fill="none" stroke="#ddffcc" points="915.539,-0 1018.46,-0 "/>
<path fill="none" stroke="#ddffcc" d="M1018.46,-0C1024.46,-0 1030.46,-6 1030.46,-12"/>
<polyline fill="none" stroke="#ddffcc" points="1030.46,-12 1030.46,-24 "/>
<path fill="none" stroke="#ddffcc" d="M1030.46,-24C1030.46,-30 1024.46,-36 1018.46,-36"/>
<text text-anchor="middle" x="967" y="-12.4" font-family="Helvetica,sans-Serif" font-size="14.00">Greater or Equal?</text>
</g>
<!-- tBmodelpSomtimesCompliantwillComply&#45;&gt;complianceDrawGreaterorEqualPSomtimesCompliantwillComplyQuery -->
<g id="edge34" class="edge"><title>tBmodelpSomtimesCompliantwillComply&#45;&gt;complianceDrawGreaterorEqualPSomtimesCompliantwillComplyQuery:ne</title>
<path fill="none" stroke="black" stroke-width="2" stroke-dasharray="1,5" d="M1044.52,-71.9006C1025.84,-64.7895 1006.46,-54.9601 990.958,-41.5373"/>
<ellipse fill="black" stroke="black" cx="987.93" cy="-38.7232" rx="4.00002" ry="4.00002"/>
</g>
<!-- complianceDrawLesserPSomtimesCompliantwillComplyQuery -->
<g id="node20" class="node"><title>complianceDrawLesserPSomtimesCompliantwillComplyQuery</title>
<polygon fill="#ddffcc" stroke="#ddffcc" points="872.357,-36 831.643,-36 819.643,-24 819.643,-12 831.643,-0 872.357,-0 884.357,-12 884.357,-24 872.357,-36"/>
<path fill="#ddffcc" stroke="#ddffcc" d="M831.643,-36C825.643,-36 819.643,-30 819.643,-24"/>
<path fill="#ddffcc" stroke="#ddffcc" d="M819.643,-12C819.643,-6 825.643,-0 831.643,-0"/>
<path fill="#ddffcc" stroke="#ddffcc" d="M872.357,-0C878.357,-0 884.357,-6 884.357,-12"/>
<path fill="#ddffcc" stroke="#ddffcc" d="M884.357,-24C884.357,-30 878.357,-36 872.357,-36"/>
<polyline fill="none" stroke="#ddffcc" points="872.357,-36 831.643,-36 "/>
<path fill="none" stroke="#ddffcc" d="M831.643,-36C825.643,-36 819.643,-30 819.643,-24"/>
<polyline fill="none" stroke="#ddffcc" points="819.643,-24 819.643,-12 "/>
<path fill="none" stroke="#ddffcc" d="M819.643,-12C819.643,-6 825.643,-0 831.643,-0"/>
<polyline fill="none" stroke="#ddffcc" points="831.643,-0 872.357,-0 "/>
<path fill="none" stroke="#ddffcc" d="M872.357,-0C878.357,-0 884.357,-6 884.357,-12"/>
<polyline fill="none" stroke="#ddffcc" points="884.357,-12 884.357,-24 "/>
<path fill="none" stroke="#ddffcc" d="M884.357,-24C884.357,-30 878.357,-36 872.357,-36"/>
<text text-anchor="middle" x="852" y="-12.4" font-family="Helvetica,sans-Serif" font-size="14.00">Lesser?</text>
</g>
<!-- tBmodelpSomtimesCompliantwillComply&#45;&gt;complianceDrawLesserPSomtimesCompliantwillComplyQuery -->
<g id="edge40" class="edge"><title>tBmodelpSomtimesCompliantwillComply&#45;&gt;complianceDrawLesserPSomtimesCompliantwillComplyQuery:ne</title>
<path fill="none" stroke="black" stroke-width="2" stroke-dasharray="1,5" d="M995.449,-75.5213C947.931,-67.9104 898.913,-56.7441 876.358,-41.2012"/>
<ellipse fill="black" stroke="black" cx="873.096" cy="-38.5328" rx="4.00002" ry="4.00002"/>
</g>
<!-- tBmodelpDetection -->
<g id="node10" class="node"><title>tBmodelpDetection</title>
<polygon fill="white" stroke="white" points="512.25,-340 423.75,-340 423.75,-304 512.25,-304 512.25,-340"/>
<text text-anchor="start" x="432" y="-316.5" font-family="Helvetica,sans-Serif" font-size="14.00">P Detection</text>
</g>
<!-- detectionDrawLesserPDetectionQuery -->
<g id="node24" class="node"><title>detectionDrawLesserPDetectionQuery</title>
<polygon fill="#ddffcc" stroke="#ddffcc" points="432.357,-260 391.643,-260 379.643,-248 379.643,-236 391.643,-224 432.357,-224 444.357,-236 444.357,-248 432.357,-260"/>
<path fill="#ddffcc" stroke="#ddffcc" d="M391.643,-260C385.643,-260 379.643,-254 379.643,-248"/>
<path fill="#ddffcc" stroke="#ddffcc" d="M379.643,-236C379.643,-230 385.643,-224 391.643,-224"/>
<path fill="#ddffcc" stroke="#ddffcc" d="M432.357,-224C438.357,-224 444.357,-230 444.357,-236"/>
<path fill="#ddffcc" stroke="#ddffcc" d="M444.357,-248C444.357,-254 438.357,-260 432.357,-260"/>
<polyline fill="none" stroke="#ddffcc" points="432.357,-260 391.643,-260 "/>
<path fill="none" stroke="#ddffcc" d="M391.643,-260C385.643,-260 379.643,-254 379.643,-248"/>
<polyline fill="none" stroke="#ddffcc" points="379.643,-248 379.643,-236 "/>
<path fill="none" stroke="#ddffcc" d="M379.643,-236C379.643,-230 385.643,-224 391.643,-224"/>
<polyline fill="none" stroke="#ddffcc" points="391.643,-224 432.357,-224 "/>
<path fill="none" stroke="#ddffcc" d="M432.357,-224C438.357,-224 444.357,-230 444.357,-236"/>
<polyline fill="none" stroke="#ddffcc" points="444.357,-236 444.357,-248 "/>
<path fill="none" stroke="#ddffcc" d="M444.357,-248C444.357,-254 438.357,-260 432.357,-260"/>
<text text-anchor="middle" x="412" y="-236.4" font-family="Helvetica,sans-Serif" font-size="14.00">Lesser?</text>
</g>
<!-- tBmodelpDetection&#45;&gt;detectionDrawLesserPDetectionQuery -->
<g id="edge48" class="edge"><title>tBmodelpDetection&#45;&gt;detectionDrawLesserPDetectionQuery:ne</title>
<path fill="none" stroke="black" stroke-width="2" stroke-dasharray="1,5" d="M459.753,-303.805C454.01,-292.875 445.577,-278.624 435.447,-266.881"/>
<ellipse fill="black" stroke="black" cx="432.718" cy="-263.935" rx="4.00002" ry="4.00002"/>
</g>
<!-- detection -->
<g id="node11" class="node"><title>detection</title>
<a xlink:href="individual_detection.svg" xlink:title="Detection">
<polygon fill="#ddffcc" stroke="#ddffcc" points="250.358,-492 199.642,-492 187.642,-480 187.642,-468 199.642,-456 250.358,-456 262.358,-468 262.358,-480 250.358,-492"/>
<path fill="#ddffcc" stroke="#ddffcc" d="M199.642,-492C193.642,-492 187.642,-486 187.642,-480"/>
<path fill="#ddffcc" stroke="#ddffcc" d="M187.642,-468C187.642,-462 193.642,-456 199.642,-456"/>
<path fill="#ddffcc" stroke="#ddffcc" d="M250.358,-456C256.358,-456 262.358,-462 262.358,-468"/>
<path fill="#ddffcc" stroke="#ddffcc" d="M262.358,-480C262.358,-486 256.358,-492 250.358,-492"/>
<polyline fill="none" stroke="black" points="250.358,-492 199.642,-492 "/>
<path fill="none" stroke="black" d="M199.642,-492C193.642,-492 187.642,-486 187.642,-480"/>
<polyline fill="none" stroke="black" points="187.642,-480 187.642,-468 "/>
<path fill="none" stroke="black" d="M187.642,-468C187.642,-462 193.642,-456 199.642,-456"/>
<polyline fill="none" stroke="black" points="199.642,-456 250.358,-456 "/>
<path fill="none" stroke="black" d="M250.358,-456C256.358,-456 262.358,-462 262.358,-468"/>
<polyline fill="none" stroke="black" points="262.358,-468 262.358,-480 "/>
<path fill="none" stroke="black" d="M262.358,-480C262.358,-486 256.358,-492 250.358,-492"/>
<text text-anchor="middle" x="225" y="-468.4" font-family="Helvetica,sans-Serif" font-size="14.00">Detection</text>
</a>
</g>
<!-- detection&#45;&gt;treatmentStatusIdenticalNoTreatmentQuery -->
<g id="edge6" class="edge"><title>detection&#45;&gt;treatmentStatusIdenticalNoTreatmentQuery</title>
<path fill="none" stroke="#52cc14" stroke-width="3" d="M225,-455.689C225,-448.822 225,-440.64 225,-432.542"/>
<polygon fill="#52cc14" stroke="#52cc14" points="232,-432.262 225,-412.262 218,-432.262 232,-432.262"/>
</g>
<!-- detectionDraw -->
<g id="node22" class="node"><title>detectionDraw</title>
<polygon fill="#ddffcc" stroke="#ddffcc" points="393.279,-340 320.721,-340 308.721,-328 308.721,-316 320.721,-304 393.279,-304 405.279,-316 405.279,-328 393.279,-340"/>
<path fill="#ddffcc" stroke="#ddffcc" d="M320.721,-340C314.721,-340 308.721,-334 308.721,-328"/>
<path fill="#ddffcc" stroke="#ddffcc" d="M308.721,-316C308.721,-310 314.721,-304 320.721,-304"/>
<path fill="#ddffcc" stroke="#ddffcc" d="M393.279,-304C399.279,-304 405.279,-310 405.279,-316"/>
<path fill="#ddffcc" stroke="#ddffcc" d="M405.279,-328C405.279,-334 399.279,-340 393.279,-340"/>
<polyline fill="none" stroke="#ddffcc" points="393.279,-340 320.721,-340 "/>
<path fill="none" stroke="#ddffcc" d="M320.721,-340C314.721,-340 308.721,-334 308.721,-328"/>
<polyline fill="none" stroke="#ddffcc" points="308.721,-328 308.721,-316 "/>
<path fill="none" stroke="#ddffcc" d="M308.721,-316C308.721,-310 314.721,-304 320.721,-304"/>
<polyline fill="none" stroke="#ddffcc" points="320.721,-304 393.279,-304 "/>
<path fill="none" stroke="#ddffcc" d="M393.279,-304C399.279,-304 405.279,-310 405.279,-316"/>
<polyline fill="none" stroke="#ddffcc" points="405.279,-316 405.279,-328 "/>
<path fill="none" stroke="#ddffcc" d="M405.279,-328C405.279,-334 399.279,-340 393.279,-340"/>
<text text-anchor="middle" x="357" y="-316.4" font-family="Helvetica,sans-Serif" font-size="14.00">Random Unit</text>
</g>
<!-- treatmentStatusIdenticalNoTreatmentQuery&#45;&gt;detectionDraw -->
<g id="edge18" class="edge"><title>treatmentStatusIdenticalNoTreatmentQuery&#45;&gt;detectionDraw</title>
<path fill="none" stroke="#52cc14" stroke-width="3" d="M252.031,-378.666C267.87,-370.266 288.375,-359.392 307.054,-349.487"/>
<polygon fill="#52cc14" stroke="#52cc14" points="310.494,-355.586 324.883,-340.032 303.934,-343.217 310.494,-355.586"/>
</g>
<!-- complianceBehaviorIdenticalAlwaysCompliantQuery&#45;&gt;individualtreatmentStatusRecord -->
<g id="edge8" class="edge"><title>complianceBehaviorIdenticalAlwaysCompliantQuery&#45;&gt;individualtreatmentStatusRecord:individualtreatmentStatusclinicalTreatment</title>
<path fill="none" stroke="#52cc14" stroke-width="3" d="M482.279,-180.053C480.79,-201.415 480.422,-238.764 492,-268 499.565,-287.102 511.322,-285.877 521,-304 527.323,-315.841 552.376,-390.309 562.107,-428.117"/>
<polygon fill="#52cc14" stroke="#52cc14" points="555.287,-429.718 566,-448 569.026,-427.028 555.287,-429.718"/>
</g>
<!-- complianceDrawGreaterorEqualPSomtimesCompliantwillComplyQuery&#45;&gt;individualtreatmentStatusRecord -->
<g id="edge10" class="edge"><title>complianceDrawGreaterorEqualPSomtimesCompliantwillComplyQuery&#45;&gt;individualtreatmentStatusRecord:individualtreatmentStatusnonCompliantClinicalTreatment</title>
<path fill="none" stroke="#52cc14" stroke-width="3" d="M967,-36.0493C967,-62.7084 967,-115.885 967,-161 967,-323 967,-323 967,-323 967,-394.956 940.54,-451.075 876.179,-460.578"/>
<polygon fill="#52cc14" stroke="#52cc14" points="875.458,-453.611 856,-462 876.443,-467.577 875.458,-453.611"/>
</g>
<!-- complianceBehaviorIdenticalNeverCompliantQuery&#45;&gt;individualtreatmentStatusRecord -->
<g id="edge12" class="edge"><title>complianceBehaviorIdenticalNeverCompliantQuery&#45;&gt;individualtreatmentStatusRecord:individualtreatmentStatusnonCompliantClinicalTreatment</title>
<path fill="none" stroke="#52cc14" stroke-width="3" d="M583.129,-162.728C658.489,-162.608 867.616,-166.798 910,-216 942.248,-253.435 919.092,-416.496 874.714,-454.199"/>
<polygon fill="#52cc14" stroke="#52cc14" points="871.767,-447.844 856,-462 877.154,-460.766 871.767,-447.844"/>
</g>
<!-- complianceDrawLesserPSomtimesCompliantwillComplyQuery&#45;&gt;individualtreatmentStatusRecord -->
<g id="edge14" class="edge"><title>complianceDrawLesserPSomtimesCompliantwillComplyQuery&#45;&gt;individualtreatmentStatusRecord:individualtreatmentStatusclinicalTreatment</title>
<path fill="none" stroke="#52cc14" stroke-width="3" d="M819.608,-20.0201C698.605,-24.694 280,-48.9598 280,-161 280,-323 280,-323 280,-323 280,-385.452 511.861,-380.548 558.052,-429.582"/>
<polygon fill="#52cc14" stroke="#52cc14" points="551.649,-432.41 566,-448 564.503,-426.863 551.649,-432.41"/>
</g>
<!-- detectionDraw&#45;&gt;detectionDrawLesserPDetectionQuery -->
<g id="edge50" class="edge"><title>detectionDraw&#45;&gt;detectionDrawLesserPDetectionQuery:nw</title>
<path fill="none" stroke="blue" stroke-width="2" stroke-dasharray="1,5" d="M364.894,-303.751C370.374,-292.898 378.456,-278.796 388.333,-267.169"/>
<ellipse fill="blue" stroke="blue" cx="391.294" cy="-263.946" rx="4.00002" ry="4.00002"/>
</g>
<!-- detectionDraw&#45;&gt;detectionDrawLesserPDetectionQuery -->
<g id="edge16" class="edge"><title>detectionDraw&#45;&gt;detectionDrawLesserPDetectionQuery</title>
<path fill="none" stroke="#52cc14" stroke-width="3" d="M369.206,-303.689C374.832,-295.712 381.709,-285.958 388.291,-276.624"/>
<polygon fill="#52cc14" stroke="#52cc14" points="394.023,-280.641 399.828,-260.262 382.582,-272.574 394.023,-280.641"/>
</g>
<!-- detectionDrawLesserPDetectionQuery&#45;&gt;complianceBehaviorIdenticalAlwaysCompliantQuery -->
<g id="edge26" class="edge"><title>detectionDrawLesserPDetectionQuery&#45;&gt;complianceBehaviorIdenticalAlwaysCompliantQuery</title>
<path fill="none" stroke="#52cc14" stroke-width="3" d="M427.979,-223.689C435.716,-215.308 445.262,-204.966 454.268,-195.21"/>
<polygon fill="#52cc14" stroke="#52cc14" points="459.644,-199.706 468.066,-180.262 449.356,-190.21 459.644,-199.706"/>
</g>
<!-- detectionDrawLesserPDetectionQuery&#45;&gt;complianceBehaviorIdenticalNeverCompliantQuery -->
<g id="edge28" class="edge"><title>detectionDrawLesserPDetectionQuery&#45;&gt;complianceBehaviorIdenticalNeverCompliantQuery</title>
<path fill="none" stroke="#52cc14" stroke-width="3" d="M443.601,-223.883C463.423,-213.146 489.285,-199.137 511.203,-187.265"/>
<polygon fill="#52cc14" stroke="#52cc14" points="514.581,-193.396 528.833,-177.716 507.913,-181.086 514.581,-193.396"/>
</g>
<!-- detectionDrawLesserPDetectionQuery&#45;&gt;complianceBehaviorIdenticalSometimesCompliantQuery -->
<g id="edge30" class="edge"><title>detectionDrawLesserPDetectionQuery&#45;&gt;complianceBehaviorIdenticalSometimesCompliantQuery</title>
<path fill="none" stroke="#52cc14" stroke-width="3" d="M412,-223.689C412,-216.822 412,-208.64 412,-200.542"/>
<polygon fill="#52cc14" stroke="#52cc14" points="419,-200.262 412,-180.262 405,-200.262 419,-200.262"/>
</g>
<!-- complianceDraw -->
<g id="node28" class="node"><title>complianceDraw</title>
<polygon fill="#ddffcc" stroke="#ddffcc" points="888.279,-108 815.721,-108 803.721,-96 803.721,-84 815.721,-72 888.279,-72 900.279,-84 900.279,-96 888.279,-108"/>
<path fill="#ddffcc" stroke="#ddffcc" d="M815.721,-108C809.721,-108 803.721,-102 803.721,-96"/>
<path fill="#ddffcc" stroke="#ddffcc" d="M803.721,-84C803.721,-78 809.721,-72 815.721,-72"/>
<path fill="#ddffcc" stroke="#ddffcc" d="M888.279,-72C894.279,-72 900.279,-78 900.279,-84"/>
<path fill="#ddffcc" stroke="#ddffcc" d="M900.279,-96C900.279,-102 894.279,-108 888.279,-108"/>
<polyline fill="none" stroke="#ddffcc" points="888.279,-108 815.721,-108 "/>
<path fill="none" stroke="#ddffcc" d="M815.721,-108C809.721,-108 803.721,-102 803.721,-96"/>
<polyline fill="none" stroke="#ddffcc" points="803.721,-96 803.721,-84 "/>
<path fill="none" stroke="#ddffcc" d="M803.721,-84C803.721,-78 809.721,-72 815.721,-72"/>
<polyline fill="none" stroke="#ddffcc" points="815.721,-72 888.279,-72 "/>
<path fill="none" stroke="#ddffcc" d="M888.279,-72C894.279,-72 900.279,-78 900.279,-84"/>
<polyline fill="none" stroke="#ddffcc" points="900.279,-84 900.279,-96 "/>
<path fill="none" stroke="#ddffcc" d="M900.279,-96C900.279,-102 894.279,-108 888.279,-108"/>
<text text-anchor="middle" x="852" y="-84.4" font-family="Helvetica,sans-Serif" font-size="14.00">Random Unit</text>
</g>
<!-- complianceBehaviorIdenticalSometimesCompliantQuery&#45;&gt;complianceDraw -->
<g id="edge20" class="edge"><title>complianceBehaviorIdenticalSometimesCompliantQuery&#45;&gt;complianceDraw</title>
<path fill="none" stroke="#52cc14" stroke-width="3" d="M439.172,-147.098C442.104,-145.922 445.082,-144.857 448,-144 562.603,-110.323 701.789,-98.014 783.269,-93.5361"/>
<polygon fill="#52cc14" stroke="#52cc14" points="783.802,-100.518 803.426,-92.5247 783.101,-86.5358 783.802,-100.518"/>
</g>
<!-- complianceDraw&#45;&gt;complianceDrawGreaterorEqualPSomtimesCompliantwillComplyQuery -->
<g id="edge36" class="edge"><title>complianceDraw&#45;&gt;complianceDrawGreaterorEqualPSomtimesCompliantwillComplyQuery:nw</title>
<path fill="none" stroke="blue" stroke-width="2" stroke-dasharray="1,5" d="M895.12,-71.9832C911.059,-64.3347 928.721,-54.1572 943.069,-41.5511"/>
<ellipse fill="blue" stroke="blue" cx="946.079" cy="-38.7332" rx="4.00002" ry="4.00002"/>
</g>
<!-- complianceDraw&#45;&gt;complianceDrawGreaterorEqualPSomtimesCompliantwillComplyQuery -->
<g id="edge22" class="edge"><title>complianceDraw&#45;&gt;complianceDrawGreaterorEqualPSomtimesCompliantwillComplyQuery</title>
<path fill="none" stroke="#52cc14" stroke-width="3" d="M880.132,-71.8761C892.523,-64.3337 907.401,-55.2775 921.315,-46.8083"/>
<polygon fill="#52cc14" stroke="#52cc14" points="925.315,-52.5681 938.76,-36.1898 918.036,-40.6093 925.315,-52.5681"/>
</g>
<!-- complianceDraw&#45;&gt;complianceDrawLesserPSomtimesCompliantwillComplyQuery -->
<g id="edge24" class="edge"><title>complianceDraw&#45;&gt;complianceDrawLesserPSomtimesCompliantwillComplyQuery</title>
<path fill="none" stroke="#52cc14" stroke-width="3" d="M852,-71.6966C852,-66.9496 852,-61.6132 852,-56.2063"/>
<polygon fill="#52cc14" stroke="#52cc14" points="859,-56.1043 852,-36.1043 845,-56.1044 859,-56.1043"/>
</g>
<!-- complianceDraw&#45;&gt;complianceDrawLesserPSomtimesCompliantwillComplyQuery -->
<g id="edge42" class="edge"><title>complianceDraw&#45;&gt;complianceDrawLesserPSomtimesCompliantwillComplyQuery:nw</title>
<path fill="none" stroke="blue" stroke-width="2" stroke-dasharray="1,5" d="M838.009,-71.6432C832.134,-62.6585 827.204,-51.7452 829.85,-42.8789"/>
<ellipse fill="blue" stroke="blue" cx="831.934" cy="-39.425" rx="4.00002" ry="4.00002"/>
</g>
</g>
</svg>
