<?xml version="1.0" encoding="UTF-8" standalone="no"?>
<!DOCTYPE svg PUBLIC "-//W3C//DTD SVG 1.1//EN"
 "http://www.w3.org/Graphics/SVG/1.1/DTD/svg11.dtd">
<!-- Generated by graphviz version 2.29.20110702.0445 (20110702.0445)
 -->
<!-- Title: movement Pages: 1 -->
<svg width="1065pt" height="601pt"
 viewBox="0.00 0.00 1065.00 601.00" xmlns="http://www.w3.org/2000/svg" xmlns:xlink="http://www.w3.org/1999/xlink">
<g id="graph1" class="graph" transform="scale(1 1) rotate(0) translate(4 597)">
<title>movement</title>
<polygon fill="white" stroke="white" points="-4,5 -4,-597 1062,-597 1062,5 -4,5"/>
<g id="graph2" class="cluster"><title>clustercontextKey</title>
<polygon fill="ghostwhite" stroke="white" points="8,-531 8,-585 96,-585 96,-531 8,-531"/>
<text text-anchor="middle" x="52.1792" y="-567" font-family="Helvetica,sans-Serif" font-size="14.00">Parameters</text>
</g>
<g id="graph3" class="cluster"><title>clusterindividualKey</title>
<polygon fill="ghostwhite" stroke="white" points="104,-531 104,-585 179,-585 179,-531 104,-531"/>
<text text-anchor="middle" x="141.576" y="-567" font-family="Helvetica,sans-Serif" font-size="14.00">Individual</text>
</g>
<g id="graph4" class="cluster"><title>clustermapLocationKey</title>
<polygon fill="ghostwhite" stroke="white" points="187,-531 187,-585 287,-585 287,-531 187,-531"/>
<text text-anchor="middle" x="237.027" y="-567" font-family="Helvetica,sans-Serif" font-size="14.00">Map Location</text>
</g>
<!-- contextOverview -->
<g id="node2" class="node"><title>contextOverview</title>
<ellipse fill="black" stroke="black" cx="52" cy="-546" rx="7.2" ry="7.2"/>
</g>
<!-- movementOverview -->
<g id="node4" class="node"><title>movementOverview</title>
<a xlink:href="individual__Overview.svg">
<ellipse fill="#1451cc" stroke="#1451cc" cx="141" cy="-546" rx="7.2" ry="7.2"/>
</a>
</g>
<!-- nearestTBPositiveOverview -->
<g id="node6" class="node"><title>nearestTBPositiveOverview</title>
<a xlink:href="mapLocation__Overview.svg">
<ellipse fill="#4414cc" stroke="#4414cc" cx="236" cy="-546" rx="7.2" ry="7.2"/>
</a>
</g>
<!-- individualtBStatusRecord -->
<g id="node7" class="node"><title>individualtBStatusRecord</title>
<polygon fill="white" stroke="none" points="443.204,-521.2 443.204,-570.8 546.796,-570.8 546.796,-521.2 443.204,-521.2"/>
<text text-anchor="middle" x="495" y="-552.8" font-family="Helvetica,sans-Serif" font-size="14.00">TB Status</text>
<polyline fill="none" stroke="none" points="443.204,-546 546.796,-546 "/>
<text text-anchor="middle" x="470.266" y="-528" font-family="Helvetica,sans-Serif" font-size="14.00">Active</text>
<polyline fill="none" stroke="none" points="497.328,-521.2 497.328,-546 "/>
<text text-anchor="middle" x="522.062" y="-528" font-family="Helvetica,sans-Serif" font-size="14.00">Dead</text>
</g>
<!-- tBStatusDifferentDeadQuery -->
<g id="node13" class="node"><title>tBStatusDifferentDeadQuery</title>
<polygon fill="#ccddff" stroke="#ccddff" points="417.264,-484 380.736,-484 368.736,-472 368.736,-460 380.736,-448 417.264,-448 429.264,-460 429.264,-472 417.264,-484"/>
<path fill="#ccddff" stroke="#ccddff" d="M380.736,-484C374.736,-484 368.736,-478 368.736,-472"/>
<path fill="#ccddff" stroke="#ccddff" d="M368.736,-460C368.736,-454 374.736,-448 380.736,-448"/>
<path fill="#ccddff" stroke="#ccddff" d="M417.264,-448C423.264,-448 429.264,-454 429.264,-460"/>
<path fill="#ccddff" stroke="#ccddff" d="M429.264,-472C429.264,-478 423.264,-484 417.264,-484"/>
<polyline fill="none" stroke="#ccddff" points="417.264,-484 380.736,-484 "/>
<path fill="none" stroke="#ccddff" d="M380.736,-484C374.736,-484 368.736,-478 368.736,-472"/>
<polyline fill="none" stroke="#ccddff" points="368.736,-472 368.736,-460 "/>
<path fill="none" stroke="#ccddff" d="M368.736,-460C368.736,-454 374.736,-448 380.736,-448"/>
<polyline fill="none" stroke="#ccddff" points="380.736,-448 417.264,-448 "/>
<path fill="none" stroke="#ccddff" d="M417.264,-448C423.264,-448 429.264,-454 429.264,-460"/>
<polyline fill="none" stroke="#ccddff" points="429.264,-460 429.264,-472 "/>
<path fill="none" stroke="#ccddff" d="M429.264,-472C429.264,-478 423.264,-484 417.264,-484"/>
<text text-anchor="middle" x="399" y="-460.4" font-family="Helvetica,sans-Serif" font-size="14.00">Is Not?</text>
</g>
<!-- individualtBStatusRecord&#45;&gt;tBStatusDifferentDeadQuery -->
<g id="edge53" class="edge"><title>individualtBStatusRecord:individualtBStatusdead&#45;&gt;tBStatusDifferentDeadQuery:ne</title>
<path fill="none" stroke="#1451cc" stroke-width="2" stroke-dasharray="1,5" d="M522,-520C522,-473.557 459.86,-513.568 423.474,-489.312"/>
<ellipse fill="#1451cc" stroke="#1451cc" cx="420.092" cy="-486.537" rx="4.00002" ry="4.00002"/>
</g>
<!-- tBStatusDifferentActiveQuery -->
<g id="node15" class="node"><title>tBStatusDifferentActiveQuery</title>
<polygon fill="#ccddff" stroke="#ccddff" points="495.264,-484 458.736,-484 446.736,-472 446.736,-460 458.736,-448 495.264,-448 507.264,-460 507.264,-472 495.264,-484"/>
<path fill="#ccddff" stroke="#ccddff" d="M458.736,-484C452.736,-484 446.736,-478 446.736,-472"/>
<path fill="#ccddff" stroke="#ccddff" d="M446.736,-460C446.736,-454 452.736,-448 458.736,-448"/>
<path fill="#ccddff" stroke="#ccddff" d="M495.264,-448C501.264,-448 507.264,-454 507.264,-460"/>
<path fill="#ccddff" stroke="#ccddff" d="M507.264,-472C507.264,-478 501.264,-484 495.264,-484"/>
<polyline fill="none" stroke="#ccddff" points="495.264,-484 458.736,-484 "/>
<path fill="none" stroke="#ccddff" d="M458.736,-484C452.736,-484 446.736,-478 446.736,-472"/>
<polyline fill="none" stroke="#ccddff" points="446.736,-472 446.736,-460 "/>
<path fill="none" stroke="#ccddff" d="M446.736,-460C446.736,-454 452.736,-448 458.736,-448"/>
<polyline fill="none" stroke="#ccddff" points="458.736,-448 495.264,-448 "/>
<path fill="none" stroke="#ccddff" d="M495.264,-448C501.264,-448 507.264,-454 507.264,-460"/>
<polyline fill="none" stroke="#ccddff" points="507.264,-460 507.264,-472 "/>
<path fill="none" stroke="#ccddff" d="M507.264,-472C507.264,-478 501.264,-484 495.264,-484"/>
<text text-anchor="middle" x="477" y="-460.4" font-family="Helvetica,sans-Serif" font-size="14.00">Is Not?</text>
</g>
<!-- individualtBStatusRecord&#45;&gt;tBStatusDifferentActiveQuery -->
<g id="edge51" class="edge"><title>individualtBStatusRecord:individualtBStatusactive&#45;&gt;tBStatusDifferentActiveQuery:ne</title>
<path fill="none" stroke="#1451cc" stroke-width="2" stroke-dasharray="1,5" d="M470,-520C470,-504.782 493.666,-499.776 497.452,-491.747"/>
<ellipse fill="#1451cc" stroke="#1451cc" cx="496.207" cy="-487.814" rx="4.00001" ry="4.00001"/>
</g>
<!-- tBmodelavoidTBLocationsRecord -->
<g id="node8" class="node"><title>tBmodelavoidTBLocationsRecord</title>
<polygon fill="white" stroke="none" points="476.936,-361.2 476.936,-410.8 613.064,-410.8 613.064,-361.2 476.936,-361.2"/>
<text text-anchor="middle" x="545" y="-392.8" font-family="Helvetica,sans-Serif" font-size="14.00">Avoid TB Locations</text>
<polyline fill="none" stroke="none" points="476.936,-386 613.064,-386 "/>
<text text-anchor="middle" x="509.073" y="-368" font-family="Helvetica,sans-Serif" font-size="14.00">True</text>
<polyline fill="none" stroke="none" points="541.209,-361.2 541.209,-386 "/>
<text text-anchor="middle" x="576.827" y="-368" font-family="Helvetica,sans-Serif" font-size="14.00">False</text>
</g>
<!-- identityAvoidTBLocationsQuery -->
<g id="node44" class="node"><title>identityAvoidTBLocationsQuery</title>
<polygon fill="#ccddff" stroke="#ccddff" points="643,-324 613,-324 601,-312 601,-300 613,-288 643,-288 655,-300 655,-312 643,-324"/>
<path fill="#ccddff" stroke="#ccddff" d="M613,-324C607,-324 601,-318 601,-312"/>
<path fill="#ccddff" stroke="#ccddff" d="M601,-300C601,-294 607,-288 613,-288"/>
<path fill="#ccddff" stroke="#ccddff" d="M643,-288C649,-288 655,-294 655,-300"/>
<path fill="#ccddff" stroke="#ccddff" d="M655,-312C655,-318 649,-324 643,-324"/>
<polyline fill="none" stroke="#ccddff" points="643,-324 613,-324 "/>
<path fill="none" stroke="#ccddff" d="M613,-324C607,-324 601,-318 601,-312"/>
<polyline fill="none" stroke="#ccddff" points="601,-312 601,-300 "/>
<path fill="none" stroke="#ccddff" d="M601,-300C601,-294 607,-288 613,-288"/>
<polyline fill="none" stroke="#ccddff" points="613,-288 643,-288 "/>
<path fill="none" stroke="#ccddff" d="M643,-288C649,-288 655,-294 655,-300"/>
<polyline fill="none" stroke="#ccddff" points="655,-300 655,-312 "/>
<path fill="none" stroke="#ccddff" d="M655,-312C655,-318 649,-324 643,-324"/>
<text text-anchor="middle" x="628" y="-300.4" font-family="Helvetica,sans-Serif" font-size="14.00">Is?</text>
</g>
<!-- tBmodelavoidTBLocationsRecord&#45;&gt;identityAvoidTBLocationsQuery -->
<g id="edge55" class="edge"><title>tBmodelavoidTBLocationsRecord&#45;&gt;identityAvoidTBLocationsQuery:nw</title>
<path fill="none" stroke="black" stroke-width="2" stroke-dasharray="1,5" d="M571.296,-361.031C581.4,-351.67 593.126,-340.624 604.038,-329.907"/>
<ellipse fill="black" stroke="black" cx="607.158" cy="-326.815" rx="4.00002" ry="4.00002"/>
</g>
<!-- mapLocationtBBacterialPresense -->
<g id="node9" class="node"><title>mapLocationtBBacterialPresense</title>
<polygon fill="white" stroke="white" points="870.461,-252 715.539,-252 715.539,-216 870.461,-216 870.461,-252"/>
<text text-anchor="middle" x="793" y="-228.4" font-family="Helvetica,sans-Serif" font-size="14.00">TB Bacterial Presense</text>
</g>
<!-- tBBacterialPresenseGreaterTBAvoidanceThresholdQuery -->
<g id="node20" class="node"><title>tBBacterialPresenseGreaterTBAvoidanceThresholdQuery</title>
<polygon fill="#d9ccff" stroke="#d9ccff" points="802.435,-180 755.565,-180 743.565,-168 743.565,-156 755.565,-144 802.435,-144 814.435,-156 814.435,-168 802.435,-180"/>
<path fill="#d9ccff" stroke="#d9ccff" d="M755.565,-180C749.565,-180 743.565,-174 743.565,-168"/>
<path fill="#d9ccff" stroke="#d9ccff" d="M743.565,-156C743.565,-150 749.565,-144 755.565,-144"/>
<path fill="#d9ccff" stroke="#d9ccff" d="M802.435,-144C808.435,-144 814.435,-150 814.435,-156"/>
<path fill="#d9ccff" stroke="#d9ccff" d="M814.435,-168C814.435,-174 808.435,-180 802.435,-180"/>
<polyline fill="none" stroke="#d9ccff" points="802.435,-180 755.565,-180 "/>
<path fill="none" stroke="#d9ccff" d="M755.565,-180C749.565,-180 743.565,-174 743.565,-168"/>
<polyline fill="none" stroke="#d9ccff" points="743.565,-168 743.565,-156 "/>
<path fill="none" stroke="#d9ccff" d="M743.565,-156C743.565,-150 749.565,-144 755.565,-144"/>
<polyline fill="none" stroke="#d9ccff" points="755.565,-144 802.435,-144 "/>
<path fill="none" stroke="#d9ccff" d="M802.435,-144C808.435,-144 814.435,-150 814.435,-156"/>
<polyline fill="none" stroke="#d9ccff" points="814.435,-156 814.435,-168 "/>
<path fill="none" stroke="#d9ccff" d="M814.435,-168C814.435,-174 808.435,-180 802.435,-180"/>
<text text-anchor="middle" x="779" y="-156.4" font-family="Helvetica,sans-Serif" font-size="14.00">Greater?</text>
</g>
<!-- mapLocationtBBacterialPresense&#45;&gt;tBBacterialPresenseGreaterTBAvoidanceThresholdQuery -->
<g id="edge57" class="edge"><title>mapLocationtBBacterialPresense&#45;&gt;tBBacterialPresenseGreaterTBAvoidanceThresholdQuery:nw</title>
<path fill="none" stroke="#4414cc" stroke-width="2" stroke-dasharray="1,5" d="M771.684,-215.795C762.734,-207 754.82,-196.233 756.958,-187.005"/>
<ellipse fill="#4414cc" stroke="#4414cc" cx="759.001" cy="-183.465" rx="4.00002" ry="4.00002"/>
</g>
<!-- tBmodeltBAvoidanceThreshold -->
<g id="node10" class="node"><title>tBmodeltBAvoidanceThreshold</title>
<polygon fill="white" stroke="white" points="1057.25,-252 888.75,-252 888.75,-216 1057.25,-216 1057.25,-252"/>
<text text-anchor="start" x="897" y="-228.5" font-family="Helvetica,sans-Serif" font-size="14.00">TB Avoidance Threshold</text>
</g>
<!-- tBmodeltBAvoidanceThreshold&#45;&gt;tBBacterialPresenseGreaterTBAvoidanceThresholdQuery -->
<g id="edge59" class="edge"><title>tBmodeltBAvoidanceThreshold&#45;&gt;tBBacterialPresenseGreaterTBAvoidanceThresholdQuery:ne</title>
<path fill="none" stroke="black" stroke-width="2" stroke-dasharray="1,5" d="M890.131,-215.952C856.225,-207.635 820.889,-196.885 803.364,-185.107"/>
<ellipse fill="black" stroke="black" cx="800.12" cy="-182.503" rx="4.00002" ry="4.00002"/>
</g>
<!-- movement -->
<g id="node11" class="node"><title>movement</title>
<a xlink:href="individual_movement.svg" xlink:title="Movement">
<polygon fill="#ccddff" stroke="#ccddff" points="364.518,-564 307.482,-564 295.482,-552 295.482,-540 307.482,-528 364.518,-528 376.518,-540 376.518,-552 364.518,-564"/>
<path fill="#ccddff" stroke="#ccddff" d="M307.482,-564C301.482,-564 295.482,-558 295.482,-552"/>
<path fill="#ccddff" stroke="#ccddff" d="M295.482,-540C295.482,-534 301.482,-528 307.482,-528"/>
<path fill="#ccddff" stroke="#ccddff" d="M364.518,-528C370.518,-528 376.518,-534 376.518,-540"/>
<path fill="#ccddff" stroke="#ccddff" d="M376.518,-552C376.518,-558 370.518,-564 364.518,-564"/>
<polyline fill="none" stroke="black" points="364.518,-564 307.482,-564 "/>
<path fill="none" stroke="black" d="M307.482,-564C301.482,-564 295.482,-558 295.482,-552"/>
<polyline fill="none" stroke="black" points="295.482,-552 295.482,-540 "/>
<path fill="none" stroke="black" d="M295.482,-540C295.482,-534 301.482,-528 307.482,-528"/>
<polyline fill="none" stroke="black" points="307.482,-528 364.518,-528 "/>
<path fill="none" stroke="black" d="M364.518,-528C370.518,-528 376.518,-534 376.518,-540"/>
<polyline fill="none" stroke="black" points="376.518,-540 376.518,-552 "/>
<path fill="none" stroke="black" d="M376.518,-552C376.518,-558 370.518,-564 364.518,-564"/>
<text text-anchor="middle" x="336" y="-540.4" font-family="Helvetica,sans-Serif" font-size="14.00">Movement</text>
</a>
</g>
<!-- movement&#45;&gt;tBStatusDifferentDeadQuery -->
<g id="edge5" class="edge"><title>movement&#45;&gt;tBStatusDifferentDeadQuery</title>
<path fill="none" stroke="#1451cc" stroke-width="3" d="M349.982,-527.689C356.588,-519.51 364.703,-509.463 372.414,-499.916"/>
<polygon fill="#1451cc" stroke="#1451cc" points="377.936,-504.22 385.057,-484.262 367.045,-495.423 377.936,-504.22"/>
</g>
<!-- movement&#45;&gt;tBStatusDifferentActiveQuery -->
<g id="edge7" class="edge"><title>movement&#45;&gt;tBStatusDifferentActiveQuery</title>
<path fill="none" stroke="#1451cc" stroke-width="3" d="M366.943,-527.883C385.066,-517.857 408.346,-504.979 428.824,-493.651"/>
<polygon fill="#1451cc" stroke="#1451cc" points="432.502,-499.616 446.614,-483.809 425.725,-487.365 432.502,-499.616"/>
</g>
<!-- moveIndividualCopyCopyCopy -->
<g id="node25" class="node"><title>moveIndividualCopyCopyCopy</title>
<polygon fill="#ccddff" stroke="#ccddff" points="436,-180 406,-180 394,-168 394,-156 406,-144 436,-144 448,-156 448,-168 436,-180"/>
<path fill="#ccddff" stroke="#ccddff" d="M406,-180C400,-180 394,-174 394,-168"/>
<path fill="#ccddff" stroke="#ccddff" d="M394,-156C394,-150 400,-144 406,-144"/>
<path fill="#ccddff" stroke="#ccddff" d="M436,-144C442,-144 448,-150 448,-156"/>
<path fill="#ccddff" stroke="#ccddff" d="M448,-168C448,-174 442,-180 436,-180"/>
<polyline fill="none" stroke="#ccddff" points="436,-180 406,-180 "/>
<path fill="none" stroke="#ccddff" d="M406,-180C400,-180 394,-174 394,-168"/>
<polyline fill="none" stroke="#ccddff" points="394,-168 394,-156 "/>
<path fill="none" stroke="#ccddff" d="M394,-156C394,-150 400,-144 406,-144"/>
<polyline fill="none" stroke="#ccddff" points="406,-144 436,-144 "/>
<path fill="none" stroke="#ccddff" d="M436,-144C442,-144 448,-150 448,-156"/>
<polyline fill="none" stroke="#ccddff" points="448,-156 448,-168 "/>
<path fill="none" stroke="#ccddff" d="M448,-168C448,-174 442,-180 436,-180"/>
<text text-anchor="middle" x="421" y="-156.4" font-family="Helvetica,sans-Serif" font-size="14.00">Move</text>
</g>
<!-- movement&#45;&gt;moveIndividualCopyCopyCopy -->
<g id="edge33" class="edge"><title>movement&#45;&gt;moveIndividualCopyCopyCopy:nw</title>
<path fill="none" stroke="#1451cc" stroke-width="3" stroke-dasharray="5,2" d="M331.415,-527.607C324.197,-498.656 311,-438.656 311,-387 311,-387 311,-387 311,-305 311,-243.025 345.889,-230.885 388.35,-193.685"/>
<polygon fill="#1451cc" stroke="#1451cc" points="393.163,-198.768 403,-180 383.606,-188.537 393.163,-198.768"/>
</g>
<!-- moveIndividualCopy -->
<g id="node37" class="node"><title>moveIndividualCopy</title>
<polygon fill="#ccddff" stroke="#ccddff" points="643,-36 613,-36 601,-24 601,-12 613,-0 643,-0 655,-12 655,-24 643,-36"/>
<path fill="#ccddff" stroke="#ccddff" d="M613,-36C607,-36 601,-30 601,-24"/>
<path fill="#ccddff" stroke="#ccddff" d="M601,-12C601,-6 607,-0 613,-0"/>
<path fill="#ccddff" stroke="#ccddff" d="M643,-0C649,-0 655,-6 655,-12"/>
<path fill="#ccddff" stroke="#ccddff" d="M655,-24C655,-30 649,-36 643,-36"/>
<polyline fill="none" stroke="#ccddff" points="643,-36 613,-36 "/>
<path fill="none" stroke="#ccddff" d="M613,-36C607,-36 601,-30 601,-24"/>
<polyline fill="none" stroke="#ccddff" points="601,-24 601,-12 "/>
<path fill="none" stroke="#ccddff" d="M601,-12C601,-6 607,-0 613,-0"/>
<polyline fill="none" stroke="#ccddff" points="613,-0 643,-0 "/>
<path fill="none" stroke="#ccddff" d="M643,-0C649,-0 655,-6 655,-12"/>
<polyline fill="none" stroke="#ccddff" points="655,-12 655,-24 "/>
<path fill="none" stroke="#ccddff" d="M655,-24C655,-30 649,-36 643,-36"/>
<text text-anchor="middle" x="628" y="-12.4" font-family="Helvetica,sans-Serif" font-size="14.00">Move</text>
</g>
<!-- movement&#45;&gt;moveIndividualCopy -->
<g id="edge37" class="edge"><title>movement&#45;&gt;moveIndividualCopy:nw</title>
<path fill="none" stroke="#1451cc" stroke-width="3" stroke-dasharray="5,2" d="M324.15,-527.888C305.901,-499.816 273,-441.632 273,-387 273,-387 273,-387 273,-161 273,-8.11504 478.2,-136.834 594.85,-49.1625"/>
<polygon fill="#1451cc" stroke="#1451cc" points="599.493,-54.4014 610,-36 590.311,-43.8329 599.493,-54.4014"/>
</g>
<!-- neighboringCell -->
<g id="node26" class="node"><title>neighboringCell</title>
<polygon fill="#ccceff" stroke="#ccceff" points="446.13,-404 351.87,-404 339.87,-392 339.87,-380 351.87,-368 446.13,-368 458.13,-380 458.13,-392 446.13,-404"/>
<path fill="#ccceff" stroke="#ccceff" d="M351.87,-404C345.87,-404 339.87,-398 339.87,-392"/>
<path fill="#ccceff" stroke="#ccceff" d="M339.87,-380C339.87,-374 345.87,-368 351.87,-368"/>
<path fill="#ccceff" stroke="#ccceff" d="M446.13,-368C452.13,-368 458.13,-374 458.13,-380"/>
<path fill="#ccceff" stroke="#ccceff" d="M458.13,-392C458.13,-398 452.13,-404 446.13,-404"/>
<polyline fill="none" stroke="gray" points="446.13,-404 351.87,-404 "/>
<path fill="none" stroke="gray" d="M351.87,-404C345.87,-404 339.87,-398 339.87,-392"/>
<polyline fill="none" stroke="gray" points="339.87,-392 339.87,-380 "/>
<path fill="none" stroke="gray" d="M339.87,-380C339.87,-374 345.87,-368 351.87,-368"/>
<polyline fill="none" stroke="gray" points="351.87,-368 446.13,-368 "/>
<path fill="none" stroke="gray" d="M446.13,-368C452.13,-368 458.13,-374 458.13,-380"/>
<polyline fill="none" stroke="gray" points="458.13,-380 458.13,-392 "/>
<path fill="none" stroke="gray" d="M458.13,-392C458.13,-398 452.13,-404 446.13,-404"/>
<text text-anchor="middle" x="399" y="-380.4" font-family="Helvetica,sans-Serif" font-size="14.00">Neighboring Cell</text>
</g>
<!-- tBStatusDifferentDeadQuery&#45;&gt;neighboringCell -->
<g id="edge29" class="edge"><title>tBStatusDifferentDeadQuery&#45;&gt;neighboringCell</title>
<path fill="none" stroke="#1451cc" stroke-width="3" d="M399,-447.689C399,-440.822 399,-432.64 399,-424.542"/>
<polygon fill="#1451cc" stroke="#1451cc" points="406,-424.262 399,-404.262 392,-424.262 406,-424.262"/>
</g>
<!-- _TBStatusDifferentActiveQueryAndTBStatusDifferentDeadQuery_ -->
<g id="node32" class="node"><title>_TBStatusDifferentActiveQueryAndTBStatusDifferentDeadQuery_</title>
<polygon fill="#ccddff" stroke="#ccddff" points="673,-404 643,-404 631,-392 631,-380 643,-368 673,-368 685,-380 685,-392 673,-404"/>
<path fill="#ccddff" stroke="#ccddff" d="M643,-404C637,-404 631,-398 631,-392"/>
<path fill="#ccddff" stroke="#ccddff" d="M631,-380C631,-374 637,-368 643,-368"/>
<path fill="#ccddff" stroke="#ccddff" d="M673,-368C679,-368 685,-374 685,-380"/>
<path fill="#ccddff" stroke="#ccddff" d="M685,-392C685,-398 679,-404 673,-404"/>
<polyline fill="none" stroke="#ccddff" points="673,-404 643,-404 "/>
<path fill="none" stroke="#ccddff" d="M643,-404C637,-404 631,-398 631,-392"/>
<polyline fill="none" stroke="#ccddff" points="631,-392 631,-380 "/>
<path fill="none" stroke="#ccddff" d="M631,-380C631,-374 637,-368 643,-368"/>
<polyline fill="none" stroke="#ccddff" points="643,-368 673,-368 "/>
<path fill="none" stroke="#ccddff" d="M673,-368C679,-368 685,-374 685,-380"/>
<polyline fill="none" stroke="#ccddff" points="685,-380 685,-392 "/>
<path fill="none" stroke="#ccddff" d="M685,-392C685,-398 679,-404 673,-404"/>
<text text-anchor="middle" x="658" y="-380.4" font-family="Helvetica,sans-Serif" font-size="14.00">And</text>
</g>
<!-- tBStatusDifferentDeadQuery&#45;&gt;_TBStatusDifferentActiveQueryAndTBStatusDifferentDeadQuery_ -->
<g id="edge31" class="edge"><title>tBStatusDifferentDeadQuery&#45;&gt;_TBStatusDifferentActiveQueryAndTBStatusDifferentDeadQuery_</title>
<path fill="none" stroke="#1451cc" stroke-width="3" d="M429.417,-450.993C432.288,-449.899 435.179,-448.879 438,-448 511.805,-424.997 540.979,-441.626 617.568,-411.948"/>
<polygon fill="#1451cc" stroke="#1451cc" points="620.593,-418.271 636.372,-404.129 615.217,-405.344 620.593,-418.271"/>
</g>
<!-- tBStatusDifferentActiveQuery&#45;&gt;_TBStatusDifferentActiveQueryAndTBStatusDifferentDeadQuery_ -->
<g id="edge21" class="edge"><title>tBStatusDifferentActiveQuery&#45;&gt;_TBStatusDifferentActiveQueryAndTBStatusDifferentDeadQuery_</title>
<path fill="none" stroke="#1451cc" stroke-width="3" d="M507.103,-456.479C533.59,-448.482 573.284,-435.287 617.489,-413.285"/>
<polygon fill="#1451cc" stroke="#1451cc" points="620.775,-419.466 635.311,-404.049 614.333,-407.036 620.775,-419.466"/>
</g>
<!-- nearestTBPositive -->
<g id="node16" class="node"><title>nearestTBPositive</title>
<polygon fill="#d9ccff" stroke="#d9ccff" points="685.597,-252 570.403,-252 558.403,-240 558.403,-228 570.403,-216 685.597,-216 697.597,-228 697.597,-240 685.597,-252"/>
<path fill="#d9ccff" stroke="#d9ccff" d="M570.403,-252C564.403,-252 558.403,-246 558.403,-240"/>
<path fill="#d9ccff" stroke="#d9ccff" d="M558.403,-228C558.403,-222 564.403,-216 570.403,-216"/>
<path fill="#d9ccff" stroke="#d9ccff" d="M685.597,-216C691.597,-216 697.597,-222 697.597,-228"/>
<path fill="#d9ccff" stroke="#d9ccff" d="M697.597,-240C697.597,-246 691.597,-252 685.597,-252"/>
<polyline fill="none" stroke="gray" points="685.597,-252 570.403,-252 "/>
<path fill="none" stroke="gray" d="M570.403,-252C564.403,-252 558.403,-246 558.403,-240"/>
<polyline fill="none" stroke="gray" points="558.403,-240 558.403,-228 "/>
<path fill="none" stroke="gray" d="M558.403,-228C558.403,-222 564.403,-216 570.403,-216"/>
<polyline fill="none" stroke="gray" points="570.403,-216 685.597,-216 "/>
<path fill="none" stroke="gray" d="M685.597,-216C691.597,-216 697.597,-222 697.597,-228"/>
<polyline fill="none" stroke="gray" points="697.597,-228 697.597,-240 "/>
<path fill="none" stroke="gray" d="M697.597,-240C697.597,-246 691.597,-252 685.597,-252"/>
<text text-anchor="middle" x="628" y="-228.4" font-family="Helvetica,sans-Serif" font-size="14.00">Nearest TB Positive</text>
</g>
<!-- moveAvailable -->
<g id="node18" class="node"><title>moveAvailable</title>
<polygon fill="#d9ccff" stroke="#d9ccff" points="571.183,-180 526.817,-180 514.817,-168 514.817,-156 526.817,-144 571.183,-144 583.183,-156 583.183,-168 571.183,-180"/>
<path fill="#d9ccff" stroke="#d9ccff" d="M526.817,-180C520.817,-180 514.817,-174 514.817,-168"/>
<path fill="#d9ccff" stroke="#d9ccff" d="M514.817,-156C514.817,-150 520.817,-144 526.817,-144"/>
<path fill="#d9ccff" stroke="#d9ccff" d="M571.183,-144C577.183,-144 583.183,-150 583.183,-156"/>
<path fill="#d9ccff" stroke="#d9ccff" d="M583.183,-168C583.183,-174 577.183,-180 571.183,-180"/>
<polyline fill="none" stroke="#d9ccff" points="571.183,-180 526.817,-180 "/>
<path fill="none" stroke="#d9ccff" d="M526.817,-180C520.817,-180 514.817,-174 514.817,-168"/>
<polyline fill="none" stroke="#d9ccff" points="514.817,-168 514.817,-156 "/>
<path fill="none" stroke="#d9ccff" d="M514.817,-156C514.817,-150 520.817,-144 526.817,-144"/>
<polyline fill="none" stroke="#d9ccff" points="526.817,-144 571.183,-144 "/>
<path fill="none" stroke="#d9ccff" d="M571.183,-144C577.183,-144 583.183,-150 583.183,-156"/>
<polyline fill="none" stroke="#d9ccff" points="583.183,-156 583.183,-168 "/>
<path fill="none" stroke="#d9ccff" d="M583.183,-168C583.183,-174 577.183,-180 571.183,-180"/>
<text text-anchor="middle" x="549" y="-156.4" font-family="Helvetica,sans-Serif" font-size="14.00">Nearest </text>
</g>
<!-- nearestTBPositive&#45;&gt;moveAvailable -->
<g id="edge9" class="edge"><title>nearestTBPositive&#45;&gt;moveAvailable</title>
<path fill="none" stroke="#4414cc" stroke-width="3" d="M608.472,-215.697C600.914,-209 592.033,-201.13 583.472,-193.544"/>
<polygon fill="#4414cc" stroke="#4414cc" points="587.915,-188.129 568.303,-180.104 578.63,-198.607 587.915,-188.129"/>
</g>
<!-- nearestTBPositive&#45;&gt;tBBacterialPresenseGreaterTBAvoidanceThresholdQuery -->
<g id="edge11" class="edge"><title>nearestTBPositive&#45;&gt;tBBacterialPresenseGreaterTBAvoidanceThresholdQuery</title>
<path fill="none" stroke="#4414cc" stroke-width="3" d="M664.939,-215.876C683.068,-207.472 705.252,-197.188 725.221,-187.931"/>
<polygon fill="#4414cc" stroke="#4414cc" points="728.281,-194.228 743.482,-179.465 722.393,-181.526 728.281,-194.228"/>
</g>
<!-- awayQuery -->
<g id="node22" class="node"><title>awayQuery</title>
<polygon fill="#d9ccff" stroke="#d9ccff" points="643,-180 613,-180 601,-168 601,-156 613,-144 643,-144 655,-156 655,-168 643,-180"/>
<path fill="#d9ccff" stroke="#d9ccff" d="M613,-180C607,-180 601,-174 601,-168"/>
<path fill="#d9ccff" stroke="#d9ccff" d="M601,-156C601,-150 607,-144 613,-144"/>
<path fill="#d9ccff" stroke="#d9ccff" d="M643,-144C649,-144 655,-150 655,-156"/>
<path fill="#d9ccff" stroke="#d9ccff" d="M655,-168C655,-174 649,-180 643,-180"/>
<polyline fill="none" stroke="#d9ccff" points="643,-180 613,-180 "/>
<path fill="none" stroke="#d9ccff" d="M613,-180C607,-180 601,-174 601,-168"/>
<polyline fill="none" stroke="#d9ccff" points="601,-168 601,-156 "/>
<path fill="none" stroke="#d9ccff" d="M601,-156C601,-150 607,-144 613,-144"/>
<polyline fill="none" stroke="#d9ccff" points="613,-144 643,-144 "/>
<path fill="none" stroke="#d9ccff" d="M643,-144C649,-144 655,-150 655,-156"/>
<polyline fill="none" stroke="#d9ccff" points="655,-156 655,-168 "/>
<path fill="none" stroke="#d9ccff" d="M655,-168C655,-174 649,-180 643,-180"/>
<text text-anchor="middle" x="628" y="-156.4" font-family="Helvetica,sans-Serif" font-size="14.00">Away</text>
</g>
<!-- nearestTBPositive&#45;&gt;awayQuery -->
<g id="edge13" class="edge"><title>nearestTBPositive&#45;&gt;awayQuery</title>
<path fill="none" stroke="#4414cc" stroke-width="3" d="M628,-215.697C628,-210.95 628,-205.613 628,-200.206"/>
<polygon fill="#4414cc" stroke="#4414cc" points="635,-200.104 628,-180.104 621,-200.104 635,-200.104"/>
</g>
<!-- nearestTBPositive&#45;&gt;moveIndividualCopy -->
<g id="edge39" class="edge"><title>nearestTBPositive&#45;&gt;moveIndividualCopy:ne</title>
<path fill="none" stroke="#4414cc" stroke-width="3" stroke-dasharray="5,2" d="M643.61,-215.774C651.373,-206.03 659.946,-193.184 664,-180 680.81,-125.335 689.515,-90.2514 659.474,-51.2071"/>
<polygon fill="#4414cc" stroke="#4414cc" points="664.503,-46.327 646,-36 654.024,-55.6115 664.503,-46.327"/>
</g>
<!-- avoidedTBLocation -->
<g id="node35" class="node"><title>avoidedTBLocation</title>
<polygon fill="#d9ccff" stroke="#d9ccff" points="643,-108 613,-108 601,-96 601,-84 613,-72 643,-72 655,-84 655,-96 643,-108"/>
<path fill="#d9ccff" stroke="#d9ccff" d="M613,-108C607,-108 601,-102 601,-96"/>
<path fill="#d9ccff" stroke="#d9ccff" d="M601,-84C601,-78 607,-72 613,-72"/>
<path fill="#d9ccff" stroke="#d9ccff" d="M643,-72C649,-72 655,-78 655,-84"/>
<path fill="#d9ccff" stroke="#d9ccff" d="M655,-96C655,-102 649,-108 643,-108"/>
<polyline fill="none" stroke="#d9ccff" points="643,-108 613,-108 "/>
<path fill="none" stroke="#d9ccff" d="M613,-108C607,-108 601,-102 601,-96"/>
<polyline fill="none" stroke="#d9ccff" points="601,-96 601,-84 "/>
<path fill="none" stroke="#d9ccff" d="M601,-84C601,-78 607,-72 613,-72"/>
<polyline fill="none" stroke="#d9ccff" points="613,-72 643,-72 "/>
<path fill="none" stroke="#d9ccff" d="M643,-72C649,-72 655,-78 655,-84"/>
<polyline fill="none" stroke="#d9ccff" points="655,-84 655,-96 "/>
<path fill="none" stroke="#d9ccff" d="M655,-96C655,-102 649,-108 643,-108"/>
<text text-anchor="middle" x="628" y="-84.4" font-family="Helvetica,sans-Serif" font-size="14.00">And</text>
</g>
<!-- moveAvailable&#45;&gt;avoidedTBLocation -->
<g id="edge43" class="edge"><title>moveAvailable&#45;&gt;avoidedTBLocation</title>
<path fill="none" stroke="#4414cc" stroke-width="3" d="M568.528,-143.697C576.086,-137 584.967,-129.13 593.528,-121.544"/>
<polygon fill="#4414cc" stroke="#4414cc" points="598.37,-126.607 608.697,-108.104 589.085,-116.129 598.37,-126.607"/>
</g>
<!-- tBBacterialPresenseGreaterTBAvoidanceThresholdQuery&#45;&gt;avoidedTBLocation -->
<g id="edge49" class="edge"><title>tBBacterialPresenseGreaterTBAvoidanceThresholdQuery&#45;&gt;avoidedTBLocation</title>
<path fill="none" stroke="#4414cc" stroke-width="3" d="M743.597,-144.588C722.697,-134.899 696.021,-122.533 673.563,-112.122"/>
<polygon fill="#4414cc" stroke="#4414cc" points="676.253,-105.653 655.163,-103.592 670.364,-118.355 676.253,-105.653"/>
</g>
<!-- awayQuery&#45;&gt;avoidedTBLocation -->
<g id="edge45" class="edge"><title>awayQuery&#45;&gt;avoidedTBLocation</title>
<path fill="none" stroke="#4414cc" stroke-width="3" d="M628,-143.697C628,-138.95 628,-133.613 628,-128.206"/>
<polygon fill="#4414cc" stroke="#4414cc" points="635,-128.104 628,-108.104 621,-128.104 635,-128.104"/>
</g>
<!-- _And_NeighborQueryCopyCopy -->
<g id="node23" class="node"><title>_And_NeighborQueryCopyCopy</title>
<polygon fill="#ccceff" stroke="#ccceff" points="436,-252 406,-252 394,-240 394,-228 406,-216 436,-216 448,-228 448,-240 436,-252"/>
<path fill="#ccceff" stroke="#ccceff" d="M406,-252C400,-252 394,-246 394,-240"/>
<path fill="#ccceff" stroke="#ccceff" d="M394,-228C394,-222 400,-216 406,-216"/>
<path fill="#ccceff" stroke="#ccceff" d="M436,-216C442,-216 448,-222 448,-228"/>
<path fill="#ccceff" stroke="#ccceff" d="M448,-240C448,-246 442,-252 436,-252"/>
<polyline fill="none" stroke="#ccceff" points="436,-252 406,-252 "/>
<path fill="none" stroke="#ccceff" d="M406,-252C400,-252 394,-246 394,-240"/>
<polyline fill="none" stroke="#ccceff" points="394,-240 394,-228 "/>
<path fill="none" stroke="#ccceff" d="M394,-228C394,-222 400,-216 406,-216"/>
<polyline fill="none" stroke="#ccceff" points="406,-216 436,-216 "/>
<path fill="none" stroke="#ccceff" d="M436,-216C442,-216 448,-222 448,-228"/>
<polyline fill="none" stroke="#ccceff" points="448,-228 448,-240 "/>
<path fill="none" stroke="#ccceff" d="M448,-240C448,-246 442,-252 436,-252"/>
<text text-anchor="middle" x="421" y="-228.4" font-family="Helvetica,sans-Serif" font-size="14.00">And</text>
</g>
<!-- _And_NeighborQueryCopyCopy&#45;&gt;moveIndividualCopyCopyCopy -->
<g id="edge15" class="edge"><title>_And_NeighborQueryCopyCopy&#45;&gt;moveIndividualCopyCopyCopy</title>
<path fill="none" stroke="#141bcc" stroke-width="3" d="M421,-215.697C421,-210.95 421,-205.613 421,-200.206"/>
<polygon fill="#141bcc" stroke="#141bcc" points="428,-200.104 421,-180.104 414,-200.104 428,-200.104"/>
</g>
<!-- neighboringCell&#45;&gt;moveIndividualCopyCopyCopy -->
<g id="edge35" class="edge"><title>neighboringCell&#45;&gt;moveIndividualCopyCopyCopy:ne</title>
<path fill="none" stroke="#141bcc" stroke-width="3" stroke-dasharray="5,2" d="M440.177,-367.926C468.677,-355.171 502.886,-337.658 511,-324 538.996,-276.873 483.883,-221.56 453.79,-193.719"/>
<polygon fill="#141bcc" stroke="#141bcc" points="458.424,-188.469 439,-180 448.903,-198.733 458.424,-188.469"/>
</g>
<!-- availableQueryCopy -->
<g id="node28" class="node"><title>availableQueryCopy</title>
<polygon fill="#ccceff" stroke="#ccceff" points="489.928,-324 442.072,-324 430.072,-312 430.072,-300 442.072,-288 489.928,-288 501.928,-300 501.928,-312 489.928,-324"/>
<path fill="#ccceff" stroke="#ccceff" d="M442.072,-324C436.072,-324 430.072,-318 430.072,-312"/>
<path fill="#ccceff" stroke="#ccceff" d="M430.072,-300C430.072,-294 436.072,-288 442.072,-288"/>
<path fill="#ccceff" stroke="#ccceff" d="M489.928,-288C495.928,-288 501.928,-294 501.928,-300"/>
<path fill="#ccceff" stroke="#ccceff" d="M501.928,-312C501.928,-318 495.928,-324 489.928,-324"/>
<polyline fill="none" stroke="#ccceff" points="489.928,-324 442.072,-324 "/>
<path fill="none" stroke="#ccceff" d="M442.072,-324C436.072,-324 430.072,-318 430.072,-312"/>
<polyline fill="none" stroke="#ccceff" points="430.072,-312 430.072,-300 "/>
<path fill="none" stroke="#ccceff" d="M430.072,-300C430.072,-294 436.072,-288 442.072,-288"/>
<polyline fill="none" stroke="#ccceff" points="442.072,-288 489.928,-288 "/>
<path fill="none" stroke="#ccceff" d="M489.928,-288C495.928,-288 501.928,-294 501.928,-300"/>
<polyline fill="none" stroke="#ccceff" points="501.928,-300 501.928,-312 "/>
<path fill="none" stroke="#ccceff" d="M501.928,-312C501.928,-318 495.928,-324 489.928,-324"/>
<text text-anchor="middle" x="466" y="-300.4" font-family="Helvetica,sans-Serif" font-size="14.00">Available</text>
</g>
<!-- neighboringCell&#45;&gt;availableQueryCopy -->
<g id="edge17" class="edge"><title>neighboringCell&#45;&gt;availableQueryCopy</title>
<path fill="none" stroke="#141bcc" stroke-width="3" d="M413.869,-367.689C420.982,-359.409 429.738,-349.215 438.029,-339.563"/>
<polygon fill="#141bcc" stroke="#141bcc" points="443.45,-343.995 451.172,-324.262 432.83,-334.873 443.45,-343.995"/>
</g>
<!-- neighborQueryCopyCopy -->
<g id="node30" class="node"><title>neighborQueryCopyCopy</title>
<polygon fill="#ccceff" stroke="#ccceff" points="399.111,-324 350.889,-324 338.889,-312 338.889,-300 350.889,-288 399.111,-288 411.111,-300 411.111,-312 399.111,-324"/>
<path fill="#ccceff" stroke="#ccceff" d="M350.889,-324C344.889,-324 338.889,-318 338.889,-312"/>
<path fill="#ccceff" stroke="#ccceff" d="M338.889,-300C338.889,-294 344.889,-288 350.889,-288"/>
<path fill="#ccceff" stroke="#ccceff" d="M399.111,-288C405.111,-288 411.111,-294 411.111,-300"/>
<path fill="#ccceff" stroke="#ccceff" d="M411.111,-312C411.111,-318 405.111,-324 399.111,-324"/>
<polyline fill="none" stroke="#ccceff" points="399.111,-324 350.889,-324 "/>
<path fill="none" stroke="#ccceff" d="M350.889,-324C344.889,-324 338.889,-318 338.889,-312"/>
<polyline fill="none" stroke="#ccceff" points="338.889,-312 338.889,-300 "/>
<path fill="none" stroke="#ccceff" d="M338.889,-300C338.889,-294 344.889,-288 350.889,-288"/>
<polyline fill="none" stroke="#ccceff" points="350.889,-288 399.111,-288 "/>
<path fill="none" stroke="#ccceff" d="M399.111,-288C405.111,-288 411.111,-294 411.111,-300"/>
<polyline fill="none" stroke="#ccceff" points="411.111,-300 411.111,-312 "/>
<path fill="none" stroke="#ccceff" d="M411.111,-312C411.111,-318 405.111,-324 399.111,-324"/>
<text text-anchor="middle" x="375" y="-300.4" font-family="Helvetica,sans-Serif" font-size="14.00">Neighbor</text>
</g>
<!-- neighboringCell&#45;&gt;neighborQueryCopyCopy -->
<g id="edge19" class="edge"><title>neighboringCell&#45;&gt;neighborQueryCopyCopy</title>
<path fill="none" stroke="#141bcc" stroke-width="3" d="M393.674,-367.689C391.468,-360.519 388.82,-351.916 386.222,-343.471"/>
<polygon fill="#141bcc" stroke="#141bcc" points="392.884,-341.319 380.311,-324.262 379.503,-345.437 392.884,-341.319"/>
</g>
<!-- availableQueryCopy&#45;&gt;_And_NeighborQueryCopyCopy -->
<g id="edge25" class="edge"><title>availableQueryCopy&#45;&gt;_And_NeighborQueryCopyCopy</title>
<path fill="none" stroke="#141bcc" stroke-width="3" d="M454.876,-287.697C451.225,-282.017 447.032,-275.494 442.867,-269.016"/>
<polygon fill="#141bcc" stroke="#141bcc" points="448.699,-265.143 431.996,-252.104 436.923,-272.713 448.699,-265.143"/>
</g>
<!-- neighborQueryCopyCopy&#45;&gt;_And_NeighborQueryCopyCopy -->
<g id="edge23" class="edge"><title>neighborQueryCopyCopy&#45;&gt;_And_NeighborQueryCopyCopy</title>
<path fill="none" stroke="#141bcc" stroke-width="3" d="M386.371,-287.697C390.103,-282.017 394.39,-275.494 398.647,-269.016"/>
<polygon fill="#141bcc" stroke="#141bcc" points="404.626,-272.663 409.76,-252.104 392.926,-264.974 404.626,-272.663"/>
</g>
<!-- _TBStatusDifferentActiveQueryAndTBStatusDifferentDeadQuery_&#45;&gt;identityAvoidTBLocationsQuery -->
<g id="edge47" class="edge"><title>_TBStatusDifferentActiveQueryAndTBStatusDifferentDeadQuery_&#45;&gt;identityAvoidTBLocationsQuery</title>
<path fill="none" stroke="#1451cc" stroke-width="3" d="M651.342,-367.689C648.546,-360.418 645.182,-351.673 641.89,-343.114"/>
<polygon fill="#1451cc" stroke="#1451cc" points="648.352,-340.416 634.639,-324.262 635.286,-345.442 648.352,-340.416"/>
</g>
<!-- avoidedTBLocation&#45;&gt;moveIndividualCopy -->
<g id="edge27" class="edge"><title>avoidedTBLocation&#45;&gt;moveIndividualCopy</title>
<path fill="none" stroke="#4414cc" stroke-width="3" d="M628,-71.6966C628,-66.9496 628,-61.6132 628,-56.2063"/>
<polygon fill="#4414cc" stroke="#4414cc" points="635,-56.1043 628,-36.1043 621,-56.1044 635,-56.1043"/>
</g>
<!-- identityAvoidTBLocationsQuery&#45;&gt;nearestTBPositive -->
<g id="edge41" class="edge"><title>identityAvoidTBLocationsQuery&#45;&gt;nearestTBPositive</title>
<path fill="none" stroke="#1451cc" stroke-width="3" d="M628,-287.697C628,-282.95 628,-277.613 628,-272.206"/>
<polygon fill="#1451cc" stroke="#1451cc" points="635,-272.104 628,-252.104 621,-272.104 635,-272.104"/>
</g>
</g>
</svg>
