<?xml version="1.0" encoding="UTF-8" standalone="no"?>
<!DOCTYPE svg PUBLIC "-//W3C//DTD SVG 1.1//EN"
 "http://www.w3.org/Graphics/SVG/1.1/DTD/svg11.dtd">
<!-- Generated by graphviz version 2.29.20110702.0445 (20110702.0445)
 -->
<!-- Title: watchTreatmentStatus Pages: 1 -->
<svg width="1020pt" height="457pt"
 viewBox="0.00 0.00 1020.00 457.00" xmlns="http://www.w3.org/2000/svg" xmlns:xlink="http://www.w3.org/1999/xlink">
<g id="graph1" class="graph" transform="scale(1 1) rotate(0) translate(4 453)">
<title>watchTreatmentStatus</title>
<polygon fill="white" stroke="white" points="-4,5 -4,-453 1017,-453 1017,5 -4,5"/>
<g id="graph2" class="cluster"><title>clustercontextKey</title>
<polygon fill="ghostwhite" stroke="white" points="450,-387 450,-441 538,-441 538,-387 450,-387"/>
<text text-anchor="middle" x="494.179" y="-423" font-family="Helvetica,sans-Serif" font-size="14.00">Parameters</text>
</g>
<g id="graph3" class="cluster"><title>clusterindividualKey</title>
<polygon fill="ghostwhite" stroke="white" points="546,-387 546,-441 621,-441 621,-387 546,-387"/>
<text text-anchor="middle" x="583.576" y="-423" font-family="Helvetica,sans-Serif" font-size="14.00">Individual</text>
</g>
<!-- contextOverview -->
<g id="node2" class="node"><title>contextOverview</title>
<ellipse fill="black" stroke="black" cx="494" cy="-402" rx="7.2" ry="7.2"/>
</g>
<!-- watchTreatmentStatusOverview -->
<g id="node4" class="node"><title>watchTreatmentStatusOverview</title>
<a xlink:href="individual__Overview.svg">
<ellipse fill="#cc148f" stroke="#cc148f" cx="582" cy="-402" rx="7.2" ry="7.2"/>
</a>
</g>
<!-- individualtreatmentStatusRecord -->
<g id="node5" class="node"><title>individualtreatmentStatusRecord</title>
<polygon fill="white" stroke="none" points="628.973,-377.2 628.973,-426.8 757.027,-426.8 757.027,-377.2 628.973,-377.2"/>
<text text-anchor="middle" x="693" y="-408.8" font-family="Helvetica,sans-Serif" font-size="14.00">Treatment Status</text>
<polyline fill="none" stroke="none" points="628.973,-402 757.027,-402 "/>
<text text-anchor="middle" x="693" y="-384" font-family="Helvetica,sans-Serif" font-size="14.00">Clinical Treatment</text>
</g>
<!-- watchTreatmentStatus -->
<g id="node13" class="node"><title>watchTreatmentStatus</title>
<a xlink:href="individual_watchTreatmentStatus.svg" xlink:title="Watch Treatment Status">
<polygon fill="#ffccee" stroke="#ffccee" points="708.256,-340 567.744,-340 555.744,-328 555.744,-316 567.744,-304 708.256,-304 720.256,-316 720.256,-328 708.256,-340"/>
<path fill="#ffccee" stroke="#ffccee" d="M567.744,-340C561.744,-340 555.744,-334 555.744,-328"/>
<path fill="#ffccee" stroke="#ffccee" d="M555.744,-316C555.744,-310 561.744,-304 567.744,-304"/>
<path fill="#ffccee" stroke="#ffccee" d="M708.256,-304C714.256,-304 720.256,-310 720.256,-316"/>
<path fill="#ffccee" stroke="#ffccee" d="M720.256,-328C720.256,-334 714.256,-340 708.256,-340"/>
<polyline fill="none" stroke="black" points="708.256,-340 567.744,-340 "/>
<path fill="none" stroke="black" d="M567.744,-340C561.744,-340 555.744,-334 555.744,-328"/>
<polyline fill="none" stroke="black" points="555.744,-328 555.744,-316 "/>
<path fill="none" stroke="black" d="M555.744,-316C555.744,-310 561.744,-304 567.744,-304"/>
<polyline fill="none" stroke="black" points="567.744,-304 708.256,-304 "/>
<path fill="none" stroke="black" d="M708.256,-304C714.256,-304 720.256,-310 720.256,-316"/>
<polyline fill="none" stroke="black" points="720.256,-316 720.256,-328 "/>
<path fill="none" stroke="black" d="M720.256,-328C720.256,-334 714.256,-340 708.256,-340"/>
<text text-anchor="middle" x="638" y="-316.4" font-family="Helvetica,sans-Serif" font-size="14.00">Watch Treatment Status</text>
</a>
</g>
<!-- individualtreatmentStatusRecord&#45;&gt;watchTreatmentStatus -->
<g id="edge4" class="edge"><title>individualtreatmentStatusRecord:individualtreatmentStatus&#45;&gt;watchTreatmentStatus</title>
<path fill="none" stroke="#cc148f" stroke-width="2" d="M628,-414C621.511,-414 627.371,-376.962 632.465,-350.145"/>
<polygon fill="#cc148f" stroke="#cc148f" points="634.423,-340.116 636.924,-350.793 633.956,-345.12 632.998,-350.027 632.507,-349.931 632.016,-349.835 632.974,-344.928 628.09,-349.069 634.423,-340.116 634.423,-340.116"/>
</g>
<!-- treatmentStatusIdenticalClinicalTreatmentQuery -->
<g id="node16" class="node"><title>treatmentStatusIdenticalClinicalTreatmentQuery</title>
<polygon fill="#ffccee" stroke="#ffccee" points="700,-260 670,-260 658,-248 658,-236 670,-224 700,-224 712,-236 712,-248 700,-260"/>
<path fill="#ffccee" stroke="#ffccee" d="M670,-260C664,-260 658,-254 658,-248"/>
<path fill="#ffccee" stroke="#ffccee" d="M658,-236C658,-230 664,-224 670,-224"/>
<path fill="#ffccee" stroke="#ffccee" d="M700,-224C706,-224 712,-230 712,-236"/>
<path fill="#ffccee" stroke="#ffccee" d="M712,-248C712,-254 706,-260 700,-260"/>
<polyline fill="none" stroke="#ffccee" points="700,-260 670,-260 "/>
<path fill="none" stroke="#ffccee" d="M670,-260C664,-260 658,-254 658,-248"/>
<polyline fill="none" stroke="#ffccee" points="658,-248 658,-236 "/>
<path fill="none" stroke="#ffccee" d="M658,-236C658,-230 664,-224 670,-224"/>
<polyline fill="none" stroke="#ffccee" points="670,-224 700,-224 "/>
<path fill="none" stroke="#ffccee" d="M700,-224C706,-224 712,-230 712,-236"/>
<polyline fill="none" stroke="#ffccee" points="712,-236 712,-248 "/>
<path fill="none" stroke="#ffccee" d="M712,-248C712,-254 706,-260 700,-260"/>
<text text-anchor="middle" x="685" y="-236.4" font-family="Helvetica,sans-Serif" font-size="14.00">Is?</text>
</g>
<!-- individualtreatmentStatusRecord&#45;&gt;treatmentStatusIdenticalClinicalTreatmentQuery -->
<g id="edge18" class="edge"><title>individualtreatmentStatusRecord:individualtreatmentStatusclinicalTreatment&#45;&gt;treatmentStatusIdenticalClinicalTreatmentQuery:ne</title>
<path fill="none" stroke="#cc148f" stroke-width="2" stroke-dasharray="1,5" d="M758,-390C817.649,-390 753.117,-312.213 708.83,-266.897"/>
<ellipse fill="#cc148f" stroke="#cc148f" cx="705.812" cy="-263.845" rx="4.00002" ry="4.00002"/>
</g>
<!-- individualtBStatusRecord -->
<g id="node6" class="node"><title>individualtBStatusRecord</title>
<polygon fill="white" stroke="none" points="266.266,-217.2 266.266,-266.8 343.734,-266.8 343.734,-217.2 266.266,-217.2"/>
<text text-anchor="middle" x="305" y="-248.8" font-family="Helvetica,sans-Serif" font-size="14.00">TB Status</text>
<polyline fill="none" stroke="none" points="266.266,-242 343.734,-242 "/>
<text text-anchor="middle" x="304.828" y="-224" font-family="Helvetica,sans-Serif" font-size="14.00">Active</text>
</g>
<!-- tBStatusIdenticalActiveQueryCopyCopy -->
<g id="node18" class="node"><title>tBStatusIdenticalActiveQueryCopyCopy</title>
<polygon fill="#ffccee" stroke="#ffccee" points="309,-180 279,-180 267,-168 267,-156 279,-144 309,-144 321,-156 321,-168 309,-180"/>
<path fill="#ffccee" stroke="#ffccee" d="M279,-180C273,-180 267,-174 267,-168"/>
<path fill="#ffccee" stroke="#ffccee" d="M267,-156C267,-150 273,-144 279,-144"/>
<path fill="#ffccee" stroke="#ffccee" d="M309,-144C315,-144 321,-150 321,-156"/>
<path fill="#ffccee" stroke="#ffccee" d="M321,-168C321,-174 315,-180 309,-180"/>
<polyline fill="none" stroke="#ffccee" points="309,-180 279,-180 "/>
<path fill="none" stroke="#ffccee" d="M279,-180C273,-180 267,-174 267,-168"/>
<polyline fill="none" stroke="#ffccee" points="267,-168 267,-156 "/>
<path fill="none" stroke="#ffccee" d="M267,-156C267,-150 273,-144 279,-144"/>
<polyline fill="none" stroke="#ffccee" points="279,-144 309,-144 "/>
<path fill="none" stroke="#ffccee" d="M309,-144C315,-144 321,-150 321,-156"/>
<polyline fill="none" stroke="#ffccee" points="321,-156 321,-168 "/>
<path fill="none" stroke="#ffccee" d="M321,-168C321,-174 315,-180 309,-180"/>
<text text-anchor="middle" x="294" y="-156.4" font-family="Helvetica,sans-Serif" font-size="14.00">Is?</text>
</g>
<!-- individualtBStatusRecord&#45;&gt;tBStatusIdenticalActiveQueryCopyCopy -->
<g id="edge28" class="edge"><title>individualtBStatusRecord:individualtBStatusactive&#45;&gt;tBStatusIdenticalActiveQueryCopyCopy:ne</title>
<path fill="none" stroke="#cc148f" stroke-width="2" stroke-dasharray="1,5" d="M305,-216C305,-203.266 316.307,-195.491 315.758,-187.203"/>
<ellipse fill="#cc148f" stroke="#cc148f" cx="313.85" cy="-183.546" rx="4.00002" ry="4.00002"/>
</g>
<!-- individualdaysUntilRecovered -->
<g id="node7" class="node"><title>individualdaysUntilRecovered</title>
<polygon fill="white" stroke="white" points="760.539,-108 609.461,-108 609.461,-72 760.539,-72 760.539,-108"/>
<text text-anchor="middle" x="685" y="-84.4" font-family="Helvetica,sans-Serif" font-size="14.00">Days Until Recovered</text>
</g>
<!-- tBmodelminDaysClinicalTreatmenttoRecovered -->
<g id="node8" class="node"><title>tBmodelminDaysClinicalTreatmenttoRecovered</title>
<polygon fill="white" stroke="white" points="640,-260 362,-260 362,-224 640,-224 640,-260"/>
<text text-anchor="start" x="370.5" y="-236.5" font-family="Helvetica,sans-Serif" font-size="14.00">Min Days Clinical Treatment to Recovered</text>
</g>
<!-- drawDaysuntilRecovered -->
<g id="node20" class="node"><title>drawDaysuntilRecovered</title>
<polygon fill="#ffccee" stroke="#ffccee" points="741.559,-180 628.441,-180 616.441,-168 616.441,-156 628.441,-144 741.559,-144 753.559,-156 753.559,-168 741.559,-180"/>
<path fill="#ffccee" stroke="#ffccee" d="M628.441,-180C622.441,-180 616.441,-174 616.441,-168"/>
<path fill="#ffccee" stroke="#ffccee" d="M616.441,-156C616.441,-150 622.441,-144 628.441,-144"/>
<path fill="#ffccee" stroke="#ffccee" d="M741.559,-144C747.559,-144 753.559,-150 753.559,-156"/>
<path fill="#ffccee" stroke="#ffccee" d="M753.559,-168C753.559,-174 747.559,-180 741.559,-180"/>
<polyline fill="none" stroke="#ffccee" points="741.559,-180 628.441,-180 "/>
<path fill="none" stroke="#ffccee" d="M628.441,-180C622.441,-180 616.441,-174 616.441,-168"/>
<polyline fill="none" stroke="#ffccee" points="616.441,-168 616.441,-156 "/>
<path fill="none" stroke="#ffccee" d="M616.441,-156C616.441,-150 622.441,-144 628.441,-144"/>
<polyline fill="none" stroke="#ffccee" points="628.441,-144 741.559,-144 "/>
<path fill="none" stroke="#ffccee" d="M741.559,-144C747.559,-144 753.559,-150 753.559,-156"/>
<polyline fill="none" stroke="#ffccee" points="753.559,-156 753.559,-168 "/>
<path fill="none" stroke="#ffccee" d="M753.559,-168C753.559,-174 747.559,-180 741.559,-180"/>
<text text-anchor="middle" x="685" y="-156.4" font-family="Helvetica,sans-Serif" font-size="14.00">Random In Range?</text>
</g>
<!-- tBmodelminDaysClinicalTreatmenttoRecovered&#45;&gt;drawDaysuntilRecovered -->
<g id="edge20" class="edge"><title>tBmodelminDaysClinicalTreatmenttoRecovered&#45;&gt;drawDaysuntilRecovered:nw</title>
<path fill="none" stroke="black" stroke-width="2" stroke-dasharray="1,5" d="M589.622,-223.867C614.71,-215.627 640.669,-203.501 660.909,-185.706"/>
<ellipse fill="black" stroke="black" cx="664.081" cy="-182.735" rx="4.00002" ry="4.00002"/>
</g>
<!-- tBmodelmaxDaysClinicalTreatmenttoRecovered -->
<g id="node9" class="node"><title>tBmodelmaxDaysClinicalTreatmenttoRecovered</title>
<polygon fill="white" stroke="white" points="1012,-260 730,-260 730,-224 1012,-224 1012,-260"/>
<text text-anchor="start" x="738.5" y="-236.5" font-family="Helvetica,sans-Serif" font-size="14.00">Max Days Clinical Treatment to Recovered</text>
</g>
<!-- tBmodelmaxDaysClinicalTreatmenttoRecovered&#45;&gt;drawDaysuntilRecovered -->
<g id="edge22" class="edge"><title>tBmodelmaxDaysClinicalTreatmenttoRecovered&#45;&gt;drawDaysuntilRecovered:ne</title>
<path fill="none" stroke="black" stroke-width="2" stroke-dasharray="1,5" d="M780.84,-223.985C755.46,-215.723 729.247,-203.513 708.86,-185.504"/>
<ellipse fill="black" stroke="black" cx="705.916" cy="-182.738" rx="4.00002" ry="4.00002"/>
</g>
<!-- individualdaysUntilLatent -->
<g id="node10" class="node"><title>individualdaysUntilLatent</title>
<polygon fill="white" stroke="white" points="354.956,-36 233.044,-36 233.044,-0 354.956,-0 354.956,-36"/>
<text text-anchor="middle" x="294" y="-12.4" font-family="Helvetica,sans-Serif" font-size="14.00">Days Until Latent</text>
</g>
<!-- tBmodelminDaysClinicalTreatmenttoLatent -->
<g id="node11" class="node"><title>tBmodelminDaysClinicalTreatmenttoLatent</title>
<polygon fill="white" stroke="white" points="248.25,-180 -0.25,-180 -0.25,-144 248.25,-144 248.25,-180"/>
<text text-anchor="start" x="8" y="-156.5" font-family="Helvetica,sans-Serif" font-size="14.00">Min Days Clinical Treatment to Latent</text>
</g>
<!-- drawDaysuntilLatent -->
<g id="node22" class="node"><title>drawDaysuntilLatent</title>
<polygon fill="#ffccee" stroke="#ffccee" points="350.559,-108 237.441,-108 225.441,-96 225.441,-84 237.441,-72 350.559,-72 362.559,-84 362.559,-96 350.559,-108"/>
<path fill="#ffccee" stroke="#ffccee" d="M237.441,-108C231.441,-108 225.441,-102 225.441,-96"/>
<path fill="#ffccee" stroke="#ffccee" d="M225.441,-84C225.441,-78 231.441,-72 237.441,-72"/>
<path fill="#ffccee" stroke="#ffccee" d="M350.559,-72C356.559,-72 362.559,-78 362.559,-84"/>
<path fill="#ffccee" stroke="#ffccee" d="M362.559,-96C362.559,-102 356.559,-108 350.559,-108"/>
<polyline fill="none" stroke="#ffccee" points="350.559,-108 237.441,-108 "/>
<path fill="none" stroke="#ffccee" d="M237.441,-108C231.441,-108 225.441,-102 225.441,-96"/>
<polyline fill="none" stroke="#ffccee" points="225.441,-96 225.441,-84 "/>
<path fill="none" stroke="#ffccee" d="M225.441,-84C225.441,-78 231.441,-72 237.441,-72"/>
<polyline fill="none" stroke="#ffccee" points="237.441,-72 350.559,-72 "/>
<path fill="none" stroke="#ffccee" d="M350.559,-72C356.559,-72 362.559,-78 362.559,-84"/>
<polyline fill="none" stroke="#ffccee" points="362.559,-84 362.559,-96 "/>
<path fill="none" stroke="#ffccee" d="M362.559,-96C362.559,-102 356.559,-108 350.559,-108"/>
<text text-anchor="middle" x="294" y="-84.4" font-family="Helvetica,sans-Serif" font-size="14.00">Random In Range?</text>
</g>
<!-- tBmodelminDaysClinicalTreatmenttoLatent&#45;&gt;drawDaysuntilLatent -->
<g id="edge24" class="edge"><title>tBmodelminDaysClinicalTreatmenttoLatent&#45;&gt;drawDaysuntilLatent:nw</title>
<path fill="none" stroke="black" stroke-width="2" stroke-dasharray="1,5" d="M214.768,-143.994C234.453,-137.067 254.089,-127.332 269.91,-113.657"/>
<ellipse fill="black" stroke="black" cx="273.069" cy="-110.722" rx="4.00002" ry="4.00002"/>
</g>
<!-- tBmodelmaxDaysClinicalTreatmenttoLatent -->
<g id="node12" class="node"><title>tBmodelmaxDaysClinicalTreatmenttoLatent</title>
<polygon fill="white" stroke="white" points="592.25,-180 339.75,-180 339.75,-144 592.25,-144 592.25,-180"/>
<text text-anchor="start" x="348" y="-156.5" font-family="Helvetica,sans-Serif" font-size="14.00">Max Days Clinical Treatment to Latent</text>
</g>
<!-- tBmodelmaxDaysClinicalTreatmenttoLatent&#45;&gt;drawDaysuntilLatent -->
<g id="edge26" class="edge"><title>tBmodelmaxDaysClinicalTreatmenttoLatent&#45;&gt;drawDaysuntilLatent:ne</title>
<path fill="none" stroke="black" stroke-width="2" stroke-dasharray="1,5" d="M373.204,-143.978C353.498,-137.056 333.897,-127.327 318.087,-113.655"/>
<ellipse fill="black" stroke="black" cx="314.93" cy="-110.723" rx="4.00002" ry="4.00002"/>
</g>
<!-- watchTreatmentStatus&#45;&gt;treatmentStatusIdenticalClinicalTreatmentQuery -->
<g id="edge6" class="edge"><title>watchTreatmentStatus&#45;&gt;treatmentStatusIdenticalClinicalTreatmentQuery</title>
<path fill="none" stroke="#cc148f" stroke-width="3" d="M648.431,-303.689C653.055,-296.015 658.67,-286.697 664.097,-277.689"/>
<polygon fill="#cc148f" stroke="#cc148f" points="670.272,-281.006 674.598,-260.262 658.28,-273.78 670.272,-281.006"/>
</g>
<!-- treatmentStatusIdenticalClinicalTreatmentQuery&#45;&gt;tBStatusIdenticalActiveQueryCopyCopy -->
<g id="edge8" class="edge"><title>treatmentStatusIdenticalClinicalTreatmentQuery&#45;&gt;tBStatusIdenticalActiveQueryCopyCopy</title>
<path fill="none" stroke="#cc148f" stroke-width="3" d="M663.889,-223.809C659.219,-220.75 654.128,-217.928 649,-216 521.582,-168.086 471.852,-214.321 340.672,-182.161"/>
<polygon fill="#cc148f" stroke="#cc148f" points="342.285,-175.347 321.156,-176.956 338.677,-188.874 342.285,-175.347"/>
</g>
<!-- treatmentStatusIdenticalClinicalTreatmentQuery&#45;&gt;drawDaysuntilRecovered -->
<g id="edge10" class="edge"><title>treatmentStatusIdenticalClinicalTreatmentQuery&#45;&gt;drawDaysuntilRecovered</title>
<path fill="none" stroke="#cc148f" stroke-width="3" d="M685,-223.689C685,-216.822 685,-208.64 685,-200.542"/>
<polygon fill="#cc148f" stroke="#cc148f" points="692,-200.262 685,-180.262 678,-200.262 692,-200.262"/>
</g>
<!-- tBStatusIdenticalActiveQueryCopyCopy&#45;&gt;drawDaysuntilLatent -->
<g id="edge16" class="edge"><title>tBStatusIdenticalActiveQueryCopyCopy&#45;&gt;drawDaysuntilLatent</title>
<path fill="none" stroke="#cc148f" stroke-width="3" d="M294,-143.697C294,-138.95 294,-133.613 294,-128.206"/>
<polygon fill="#cc148f" stroke="#cc148f" points="301,-128.104 294,-108.104 287,-128.104 301,-128.104"/>
</g>
<!-- drawDaysuntilRecovered&#45;&gt;individualdaysUntilRecovered -->
<g id="edge12" class="edge"><title>drawDaysuntilRecovered&#45;&gt;individualdaysUntilRecovered</title>
<path fill="none" stroke="#cc148f" stroke-width="3" d="M685,-143.697C685,-138.95 685,-133.613 685,-128.206"/>
<polygon fill="#cc148f" stroke="#cc148f" points="692,-128.104 685,-108.104 678,-128.104 692,-128.104"/>
</g>
<!-- drawDaysuntilLatent&#45;&gt;individualdaysUntilLatent -->
<g id="edge14" class="edge"><title>drawDaysuntilLatent&#45;&gt;individualdaysUntilLatent</title>
<path fill="none" stroke="#cc148f" stroke-width="3" d="M294,-71.6966C294,-66.9496 294,-61.6132 294,-56.2063"/>
<polygon fill="#cc148f" stroke="#cc148f" points="301,-56.1043 294,-36.1043 287,-56.1044 301,-56.1043"/>
</g>
</g>
</svg>
