<?xml version="1.0" encoding="UTF-8" standalone="no"?>
<!DOCTYPE svg PUBLIC "-//W3C//DTD SVG 1.1//EN"
 "http://www.w3.org/Graphics/SVG/1.1/DTD/svg11.dtd">
<!-- Generated by graphviz version 2.29.20110702.0445 (20110702.0445)
 -->
<!-- Title: houseMovement Pages: 1 -->
<svg width="681pt" height="441pt"
 viewBox="0.00 0.00 681.00 441.00" xmlns="http://www.w3.org/2000/svg" xmlns:xlink="http://www.w3.org/1999/xlink">
<g id="graph1" class="graph" transform="scale(1 1) rotate(0) translate(4 437)">
<title>houseMovement</title>
<polygon fill="white" stroke="white" points="-4,5 -4,-437 678,-437 678,5 -4,5"/>
<g id="graph2" class="cluster"><title>clustercontextKey</title>
<polygon fill="ghostwhite" stroke="white" points="8,-371 8,-425 96,-425 96,-371 8,-371"/>
<text text-anchor="middle" x="52.1792" y="-407" font-family="Helvetica,sans-Serif" font-size="14.00">Parameters</text>
</g>
<g id="graph3" class="cluster"><title>clusterindividualKey</title>
<polygon fill="ghostwhite" stroke="white" points="104,-371 104,-425 179,-425 179,-371 104,-371"/>
<text text-anchor="middle" x="141.576" y="-407" font-family="Helvetica,sans-Serif" font-size="14.00">Individual</text>
</g>
<g id="graph4" class="cluster"><title>clusterhouseKey</title>
<polygon fill="ghostwhite" stroke="white" points="187,-291 187,-425 243,-425 243,-291 187,-291"/>
<text text-anchor="middle" x="215.234" y="-407" font-family="Helvetica,sans-Serif" font-size="14.00">House</text>
</g>
<!-- contextOverview -->
<g id="node2" class="node"><title>contextOverview</title>
<ellipse fill="black" stroke="black" cx="52" cy="-386" rx="7.2" ry="7.2"/>
</g>
<!-- houseMovementOverview -->
<g id="node4" class="node"><title>houseMovementOverview</title>
<a xlink:href="individual__Overview.svg">
<ellipse fill="#14cc50" stroke="#14cc50" cx="141" cy="-386" rx="7.2" ry="7.2"/>
</a>
</g>
<!-- foundHouseOverview -->
<g id="node6" class="node"><title>foundHouseOverview</title>
<a xlink:href="house__Overview.svg">
<ellipse fill="#14cc87" stroke="#14cc87" cx="214" cy="-386" rx="7.2" ry="7.2"/>
</a>
</g>
<!-- targetHouseOverview -->
<g id="node7" class="node"><title>targetHouseOverview</title>
<a xlink:href="house__Overview.svg">
<ellipse fill="#14ccbd" stroke="#14ccbd" cx="214" cy="-306" rx="7.2" ry="7.2"/>
</a>
</g>
<!-- foundHouseOverview&#45;&gt;targetHouseOverview -->
<!-- individualhomeSearchRecord -->
<g id="node9" class="node"><title>individualhomeSearchRecord</title>
<polygon fill="white" stroke="none" points="502.249,-361.2 502.249,-410.8 665.751,-410.8 665.751,-361.2 502.249,-361.2"/>
<text text-anchor="middle" x="584" y="-392.8" font-family="Helvetica,sans-Serif" font-size="14.00">Home Search</text>
<polyline fill="none" stroke="none" points="502.249,-386 665.751,-386 "/>
<text text-anchor="middle" x="540.207" y="-368" font-family="Helvetica,sans-Serif" font-size="14.00">Complete</text>
<polyline fill="none" stroke="none" points="578.166,-361.2 578.166,-386 "/>
<text text-anchor="middle" x="621.958" y="-368" font-family="Helvetica,sans-Serif" font-size="14.00">In Progress</text>
</g>
<!-- homeSearchIdenticalInProgressQuery -->
<g id="node12" class="node"><title>homeSearchIdenticalInProgressQuery</title>
<polygon fill="#ccffdc" stroke="#ccffdc" points="619,-324 589,-324 577,-312 577,-300 589,-288 619,-288 631,-300 631,-312 619,-324"/>
<path fill="#ccffdc" stroke="#ccffdc" d="M589,-324C583,-324 577,-318 577,-312"/>
<path fill="#ccffdc" stroke="#ccffdc" d="M577,-300C577,-294 583,-288 589,-288"/>
<path fill="#ccffdc" stroke="#ccffdc" d="M619,-288C625,-288 631,-294 631,-300"/>
<path fill="#ccffdc" stroke="#ccffdc" d="M631,-312C631,-318 625,-324 619,-324"/>
<polyline fill="none" stroke="#ccffdc" points="619,-324 589,-324 "/>
<path fill="none" stroke="#ccffdc" d="M589,-324C583,-324 577,-318 577,-312"/>
<polyline fill="none" stroke="#ccffdc" points="577,-312 577,-300 "/>
<path fill="none" stroke="#ccffdc" d="M577,-300C577,-294 583,-288 589,-288"/>
<polyline fill="none" stroke="#ccffdc" points="589,-288 619,-288 "/>
<path fill="none" stroke="#ccffdc" d="M619,-288C625,-288 631,-294 631,-300"/>
<polyline fill="none" stroke="#ccffdc" points="631,-300 631,-312 "/>
<path fill="none" stroke="#ccffdc" d="M631,-312C631,-318 625,-324 619,-324"/>
<text text-anchor="middle" x="604" y="-300.4" font-family="Helvetica,sans-Serif" font-size="14.00">Is?</text>
</g>
<!-- individualhomeSearchRecord&#45;&gt;homeSearchIdenticalInProgressQuery -->
<g id="edge41" class="edge"><title>individualhomeSearchRecord:individualhomeSearchinProgress&#45;&gt;homeSearchIdenticalInProgressQuery:ne</title>
<path fill="none" stroke="#14cc50" stroke-width="2" stroke-dasharray="1,5" d="M622,-360C622,-347.5 628.905,-339.464 626.532,-331.152"/>
<ellipse fill="#14cc50" stroke="#14cc50" cx="624.141" cy="-327.379" rx="4.00002" ry="4.00002"/>
</g>
<!-- homeSearchIdenticalCompleteQuery -->
<g id="node14" class="node"><title>homeSearchIdenticalCompleteQuery</title>
<polygon fill="#ccffdc" stroke="#ccffdc" points="463,-324 433,-324 421,-312 421,-300 433,-288 463,-288 475,-300 475,-312 463,-324"/>
<path fill="#ccffdc" stroke="#ccffdc" d="M433,-324C427,-324 421,-318 421,-312"/>
<path fill="#ccffdc" stroke="#ccffdc" d="M421,-300C421,-294 427,-288 433,-288"/>
<path fill="#ccffdc" stroke="#ccffdc" d="M463,-288C469,-288 475,-294 475,-300"/>
<path fill="#ccffdc" stroke="#ccffdc" d="M475,-312C475,-318 469,-324 463,-324"/>
<polyline fill="none" stroke="#ccffdc" points="463,-324 433,-324 "/>
<path fill="none" stroke="#ccffdc" d="M433,-324C427,-324 421,-318 421,-312"/>
<polyline fill="none" stroke="#ccffdc" points="421,-312 421,-300 "/>
<path fill="none" stroke="#ccffdc" d="M421,-300C421,-294 427,-288 433,-288"/>
<polyline fill="none" stroke="#ccffdc" points="433,-288 463,-288 "/>
<path fill="none" stroke="#ccffdc" d="M463,-288C469,-288 475,-294 475,-300"/>
<polyline fill="none" stroke="#ccffdc" points="475,-300 475,-312 "/>
<path fill="none" stroke="#ccffdc" d="M475,-312C475,-318 469,-324 463,-324"/>
<text text-anchor="middle" x="448" y="-300.4" font-family="Helvetica,sans-Serif" font-size="14.00">Is?</text>
</g>
<!-- individualhomeSearchRecord&#45;&gt;homeSearchIdenticalCompleteQuery -->
<g id="edge39" class="edge"><title>individualhomeSearchRecord:individualhomeSearchcomplete&#45;&gt;homeSearchIdenticalCompleteQuery:ne</title>
<path fill="none" stroke="#14cc50" stroke-width="2" stroke-dasharray="1,5" d="M501,-374C476.841,-374 483.167,-349.554 471.29,-330.656"/>
<ellipse fill="#14cc50" stroke="#14cc50" cx="468.489" cy="-327.131" rx="4.00002" ry="4.00002"/>
</g>
<!-- houseMovement -->
<g id="node10" class="node"><title>houseMovement</title>
<a xlink:href="individual_houseMovement.svg" xlink:title="House Movement">
<polygon fill="#ccffdc" stroke="#ccffdc" points="420.289,-404 319.711,-404 307.711,-392 307.711,-380 319.711,-368 420.289,-368 432.289,-380 432.289,-392 420.289,-404"/>
<path fill="#ccffdc" stroke="#ccffdc" d="M319.711,-404C313.711,-404 307.711,-398 307.711,-392"/>
<path fill="#ccffdc" stroke="#ccffdc" d="M307.711,-380C307.711,-374 313.711,-368 319.711,-368"/>
<path fill="#ccffdc" stroke="#ccffdc" d="M420.289,-368C426.289,-368 432.289,-374 432.289,-380"/>
<path fill="#ccffdc" stroke="#ccffdc" d="M432.289,-392C432.289,-398 426.289,-404 420.289,-404"/>
<polyline fill="none" stroke="black" points="420.289,-404 319.711,-404 "/>
<path fill="none" stroke="black" d="M319.711,-404C313.711,-404 307.711,-398 307.711,-392"/>
<polyline fill="none" stroke="black" points="307.711,-392 307.711,-380 "/>
<path fill="none" stroke="black" d="M307.711,-380C307.711,-374 313.711,-368 319.711,-368"/>
<polyline fill="none" stroke="black" points="319.711,-368 420.289,-368 "/>
<path fill="none" stroke="black" d="M420.289,-368C426.289,-368 432.289,-374 432.289,-380"/>
<polyline fill="none" stroke="black" points="432.289,-380 432.289,-392 "/>
<path fill="none" stroke="black" d="M432.289,-392C432.289,-398 426.289,-404 420.289,-404"/>
<text text-anchor="middle" x="370" y="-380.4" font-family="Helvetica,sans-Serif" font-size="14.00">House Movement</text>
</a>
</g>
<!-- houseMovement&#45;&gt;homeSearchIdenticalInProgressQuery -->
<g id="edge7" class="edge"><title>houseMovement&#45;&gt;homeSearchIdenticalInProgressQuery</title>
<path fill="none" stroke="#14cc50" stroke-width="3" d="M421.063,-367.979C461.737,-354.421 518.196,-335.601 557.596,-322.468"/>
<polygon fill="#14cc50" stroke="#14cc50" points="559.973,-329.054 576.733,-316.089 555.546,-315.773 559.973,-329.054"/>
</g>
<!-- houseMovement&#45;&gt;homeSearchIdenticalCompleteQuery -->
<g id="edge9" class="edge"><title>houseMovement&#45;&gt;homeSearchIdenticalCompleteQuery</title>
<path fill="none" stroke="#14cc50" stroke-width="3" d="M387.311,-367.689C395.894,-359.106 406.533,-348.467 416.494,-338.506"/>
<polygon fill="#14cc50" stroke="#14cc50" points="421.545,-343.354 430.738,-324.262 411.646,-333.455 421.545,-343.354"/>
</g>
<!-- connectIndividual -->
<g id="node17" class="node"><title>connectIndividual</title>
<polygon fill="#ccffdc" stroke="#ccffdc" points="610.108,-108 565.892,-108 553.892,-96 553.892,-84 565.892,-72 610.108,-72 622.108,-84 622.108,-96 610.108,-108"/>
<path fill="#ccffdc" stroke="#ccffdc" d="M565.892,-108C559.892,-108 553.892,-102 553.892,-96"/>
<path fill="#ccffdc" stroke="#ccffdc" d="M553.892,-84C553.892,-78 559.892,-72 565.892,-72"/>
<path fill="#ccffdc" stroke="#ccffdc" d="M610.108,-72C616.108,-72 622.108,-78 622.108,-84"/>
<path fill="#ccffdc" stroke="#ccffdc" d="M622.108,-96C622.108,-102 616.108,-108 610.108,-108"/>
<polyline fill="none" stroke="#ccffdc" points="610.108,-108 565.892,-108 "/>
<path fill="none" stroke="#ccffdc" d="M565.892,-108C559.892,-108 553.892,-102 553.892,-96"/>
<polyline fill="none" stroke="#ccffdc" points="553.892,-96 553.892,-84 "/>
<path fill="none" stroke="#ccffdc" d="M553.892,-84C553.892,-78 559.892,-72 565.892,-72"/>
<polyline fill="none" stroke="#ccffdc" points="565.892,-72 610.108,-72 "/>
<path fill="none" stroke="#ccffdc" d="M610.108,-72C616.108,-72 622.108,-78 622.108,-84"/>
<polyline fill="none" stroke="#ccffdc" points="622.108,-84 622.108,-96 "/>
<path fill="none" stroke="#ccffdc" d="M622.108,-96C622.108,-102 616.108,-108 610.108,-108"/>
<text text-anchor="middle" x="588" y="-84.4" font-family="Helvetica,sans-Serif" font-size="14.00">Connect</text>
</g>
<!-- houseMovement&#45;&gt;connectIndividual -->
<g id="edge31" class="edge"><title>houseMovement&#45;&gt;connectIndividual:nw</title>
<path fill="none" stroke="#14cc50" stroke-width="3" stroke-dasharray="5,2" d="M357.57,-367.693C328.108,-324.394 260.649,-210.127 318,-144 387.35,-64.0389 477.482,-172.203 554.32,-120.972"/>
<polygon fill="#14cc50" stroke="#14cc50" points="559.052,-126.142 570,-108 550.128,-115.355 559.052,-126.142"/>
</g>
<!-- moveIndividualCopyCopy -->
<g id="node18" class="node"><title>moveIndividualCopyCopy</title>
<polygon fill="#ccffdc" stroke="#ccffdc" points="420,-36 390,-36 378,-24 378,-12 390,-0 420,-0 432,-12 432,-24 420,-36"/>
<path fill="#ccffdc" stroke="#ccffdc" d="M390,-36C384,-36 378,-30 378,-24"/>
<path fill="#ccffdc" stroke="#ccffdc" d="M378,-12C378,-6 384,-0 390,-0"/>
<path fill="#ccffdc" stroke="#ccffdc" d="M420,-0C426,-0 432,-6 432,-12"/>
<path fill="#ccffdc" stroke="#ccffdc" d="M432,-24C432,-30 426,-36 420,-36"/>
<polyline fill="none" stroke="#ccffdc" points="420,-36 390,-36 "/>
<path fill="none" stroke="#ccffdc" d="M390,-36C384,-36 378,-30 378,-24"/>
<polyline fill="none" stroke="#ccffdc" points="378,-24 378,-12 "/>
<path fill="none" stroke="#ccffdc" d="M378,-12C378,-6 384,-0 390,-0"/>
<polyline fill="none" stroke="#ccffdc" points="390,-0 420,-0 "/>
<path fill="none" stroke="#ccffdc" d="M420,-0C426,-0 432,-6 432,-12"/>
<polyline fill="none" stroke="#ccffdc" points="432,-12 432,-24 "/>
<path fill="none" stroke="#ccffdc" d="M432,-24C432,-30 426,-36 420,-36"/>
<text text-anchor="middle" x="405" y="-12.4" font-family="Helvetica,sans-Serif" font-size="14.00">Move</text>
</g>
<!-- houseMovement&#45;&gt;moveIndividualCopyCopy -->
<g id="edge13" class="edge"><title>houseMovement&#45;&gt;moveIndividualCopyCopy:nw</title>
<path fill="none" stroke="#14cc50" stroke-width="3" stroke-dasharray="5,2" d="M346.079,-367.881C313.994,-342.718 261,-292.461 261,-235 261,-235 261,-235 261,-161 261,-89.0507 319.421,-90.7641 372.016,-49.2952"/>
<polygon fill="#14cc50" stroke="#14cc50" points="376.686,-54.5099 387,-36 367.394,-44.0377 376.686,-54.5099"/>
</g>
<!-- foundHouse -->
<g id="node26" class="node"><title>foundHouse</title>
<polygon fill="#ccffec" stroke="#ccffec" points="661.041,-252 584.959,-252 572.959,-240 572.959,-228 584.959,-216 661.041,-216 673.041,-228 673.041,-240 661.041,-252"/>
<path fill="#ccffec" stroke="#ccffec" d="M584.959,-252C578.959,-252 572.959,-246 572.959,-240"/>
<path fill="#ccffec" stroke="#ccffec" d="M572.959,-228C572.959,-222 578.959,-216 584.959,-216"/>
<path fill="#ccffec" stroke="#ccffec" d="M661.041,-216C667.041,-216 673.041,-222 673.041,-228"/>
<path fill="#ccffec" stroke="#ccffec" d="M673.041,-240C673.041,-246 667.041,-252 661.041,-252"/>
<polyline fill="none" stroke="gray" points="661.041,-252 584.959,-252 "/>
<path fill="none" stroke="gray" d="M584.959,-252C578.959,-252 572.959,-246 572.959,-240"/>
<polyline fill="none" stroke="gray" points="572.959,-240 572.959,-228 "/>
<path fill="none" stroke="gray" d="M572.959,-228C572.959,-222 578.959,-216 584.959,-216"/>
<polyline fill="none" stroke="gray" points="584.959,-216 661.041,-216 "/>
<path fill="none" stroke="gray" d="M661.041,-216C667.041,-216 673.041,-222 673.041,-228"/>
<polyline fill="none" stroke="gray" points="673.041,-228 673.041,-240 "/>
<path fill="none" stroke="gray" d="M673.041,-240C673.041,-246 667.041,-252 661.041,-252"/>
<text text-anchor="middle" x="623" y="-228.4" font-family="Helvetica,sans-Serif" font-size="14.00">Found House</text>
</g>
<!-- homeSearchIdenticalInProgressQuery&#45;&gt;foundHouse -->
<g id="edge35" class="edge"><title>homeSearchIdenticalInProgressQuery&#45;&gt;foundHouse</title>
<path fill="none" stroke="#14cc50" stroke-width="3" d="M608.697,-287.697C610.031,-282.78 611.537,-277.231 613.058,-271.627"/>
<polygon fill="#14cc50" stroke="#14cc50" points="619.874,-273.24 618.357,-252.104 606.363,-269.572 619.874,-273.24"/>
</g>
<!-- targetHouse -->
<g id="node20" class="node"><title>targetHouse</title>
<polygon fill="#ccfffb" stroke="#ccfffb" points="485.451,-252 410.549,-252 398.549,-240 398.549,-228 410.549,-216 485.451,-216 497.451,-228 497.451,-240 485.451,-252"/>
<path fill="#ccfffb" stroke="#ccfffb" d="M410.549,-252C404.549,-252 398.549,-246 398.549,-240"/>
<path fill="#ccfffb" stroke="#ccfffb" d="M398.549,-228C398.549,-222 404.549,-216 410.549,-216"/>
<path fill="#ccfffb" stroke="#ccfffb" d="M485.451,-216C491.451,-216 497.451,-222 497.451,-228"/>
<path fill="#ccfffb" stroke="#ccfffb" d="M497.451,-240C497.451,-246 491.451,-252 485.451,-252"/>
<polyline fill="none" stroke="gray" points="485.451,-252 410.549,-252 "/>
<path fill="none" stroke="gray" d="M410.549,-252C404.549,-252 398.549,-246 398.549,-240"/>
<polyline fill="none" stroke="gray" points="398.549,-240 398.549,-228 "/>
<path fill="none" stroke="gray" d="M398.549,-228C398.549,-222 404.549,-216 410.549,-216"/>
<polyline fill="none" stroke="gray" points="410.549,-216 485.451,-216 "/>
<path fill="none" stroke="gray" d="M485.451,-216C491.451,-216 497.451,-222 497.451,-228"/>
<polyline fill="none" stroke="gray" points="497.451,-228 497.451,-240 "/>
<path fill="none" stroke="gray" d="M497.451,-240C497.451,-246 491.451,-252 485.451,-252"/>
<text text-anchor="middle" x="448" y="-228.4" font-family="Helvetica,sans-Serif" font-size="14.00">Target House</text>
</g>
<!-- homeSearchIdenticalCompleteQuery&#45;&gt;targetHouse -->
<g id="edge19" class="edge"><title>homeSearchIdenticalCompleteQuery&#45;&gt;targetHouse</title>
<path fill="none" stroke="#14cc50" stroke-width="3" d="M448,-287.697C448,-282.95 448,-277.613 448,-272.206"/>
<polygon fill="#14cc50" stroke="#14cc50" points="455,-272.104 448,-252.104 441,-272.104 455,-272.104"/>
</g>
<!-- nearestQuery -->
<g id="node15" class="node"><title>nearestQuery</title>
<polygon fill="#ccffec" stroke="#ccffec" points="629.183,-180 584.817,-180 572.817,-168 572.817,-156 584.817,-144 629.183,-144 641.183,-156 641.183,-168 629.183,-180"/>
<path fill="#ccffec" stroke="#ccffec" d="M584.817,-180C578.817,-180 572.817,-174 572.817,-168"/>
<path fill="#ccffec" stroke="#ccffec" d="M572.817,-156C572.817,-150 578.817,-144 584.817,-144"/>
<path fill="#ccffec" stroke="#ccffec" d="M629.183,-144C635.183,-144 641.183,-150 641.183,-156"/>
<path fill="#ccffec" stroke="#ccffec" d="M641.183,-168C641.183,-174 635.183,-180 629.183,-180"/>
<polyline fill="none" stroke="#ccffec" points="629.183,-180 584.817,-180 "/>
<path fill="none" stroke="#ccffec" d="M584.817,-180C578.817,-180 572.817,-174 572.817,-168"/>
<polyline fill="none" stroke="#ccffec" points="572.817,-168 572.817,-156 "/>
<path fill="none" stroke="#ccffec" d="M572.817,-156C572.817,-150 578.817,-144 584.817,-144"/>
<polyline fill="none" stroke="#ccffec" points="584.817,-144 629.183,-144 "/>
<path fill="none" stroke="#ccffec" d="M629.183,-144C635.183,-144 641.183,-150 641.183,-156"/>
<polyline fill="none" stroke="#ccffec" points="641.183,-156 641.183,-168 "/>
<path fill="none" stroke="#ccffec" d="M641.183,-168C641.183,-174 635.183,-180 629.183,-180"/>
<text text-anchor="middle" x="607" y="-156.4" font-family="Helvetica,sans-Serif" font-size="14.00">Nearest </text>
</g>
<!-- nearestQuery&#45;&gt;connectIndividual -->
<g id="edge11" class="edge"><title>nearestQuery&#45;&gt;connectIndividual</title>
<path fill="none" stroke="#14cc87" stroke-width="3" d="M602.303,-143.697C600.969,-138.78 599.463,-133.231 597.942,-127.627"/>
<polygon fill="#14cc87" stroke="#14cc87" points="604.637,-125.572 592.643,-108.104 591.126,-129.24 604.637,-125.572"/>
</g>
<!-- connectIndividual&#45;&gt;individualhomeSearchRecord -->
<g id="edge29" class="edge"><title>connectIndividual&#45;&gt;individualhomeSearchRecord:individualhomeSearchcomplete</title>
<path fill="none" stroke="#14cc50" stroke-width="3" d="M578.567,-108.149C573.423,-118.282 567.423,-131.532 564,-144 540.302,-230.322 539.915,-259.203 539.986,-339.854"/>
<polygon fill="#14cc50" stroke="#14cc50" points="532.986,-340.005 540,-360 546.986,-339.995 532.986,-340.005"/>
</g>
<!-- targetHouse&#45;&gt;moveIndividualCopyCopy -->
<g id="edge15" class="edge"><title>targetHouse&#45;&gt;moveIndividualCopyCopy:ne</title>
<path fill="none" stroke="#14ccbd" stroke-width="3" stroke-dasharray="5,2" d="M464.89,-215.993C473.293,-206.315 482.582,-193.459 487,-180 491.99,-164.798 491.229,-159.431 487,-144 474.212,-97.3358 465.144,-80.0565 437.231,-50.5611"/>
<polygon fill="#14ccbd" stroke="#14ccbd" points="441.985,-45.4103 423,-36 431.973,-55.1959 441.985,-45.4103"/>
</g>
<!-- towardQuery -->
<g id="node22" class="node"><title>towardQuery</title>
<polygon fill="#ccfffb" stroke="#ccfffb" points="466.348,-180 429.652,-180 417.652,-168 417.652,-156 429.652,-144 466.348,-144 478.348,-156 478.348,-168 466.348,-180"/>
<path fill="#ccfffb" stroke="#ccfffb" d="M429.652,-180C423.652,-180 417.652,-174 417.652,-168"/>
<path fill="#ccfffb" stroke="#ccfffb" d="M417.652,-156C417.652,-150 423.652,-144 429.652,-144"/>
<path fill="#ccfffb" stroke="#ccfffb" d="M466.348,-144C472.348,-144 478.348,-150 478.348,-156"/>
<path fill="#ccfffb" stroke="#ccfffb" d="M478.348,-168C478.348,-174 472.348,-180 466.348,-180"/>
<polyline fill="none" stroke="#ccfffb" points="466.348,-180 429.652,-180 "/>
<path fill="none" stroke="#ccfffb" d="M429.652,-180C423.652,-180 417.652,-174 417.652,-168"/>
<polyline fill="none" stroke="#ccfffb" points="417.652,-168 417.652,-156 "/>
<path fill="none" stroke="#ccfffb" d="M417.652,-156C417.652,-150 423.652,-144 429.652,-144"/>
<polyline fill="none" stroke="#ccfffb" points="429.652,-144 466.348,-144 "/>
<path fill="none" stroke="#ccfffb" d="M466.348,-144C472.348,-144 478.348,-150 478.348,-156"/>
<polyline fill="none" stroke="#ccfffb" points="478.348,-156 478.348,-168 "/>
<path fill="none" stroke="#ccfffb" d="M478.348,-168C478.348,-174 472.348,-180 466.348,-180"/>
<text text-anchor="middle" x="448" y="-156.4" font-family="Helvetica,sans-Serif" font-size="14.00">Toward</text>
</g>
<!-- targetHouse&#45;&gt;towardQuery -->
<g id="edge25" class="edge"><title>targetHouse&#45;&gt;towardQuery</title>
<path fill="none" stroke="#14ccbd" stroke-width="3" d="M448,-215.697C448,-210.95 448,-205.613 448,-200.206"/>
<polygon fill="#14ccbd" stroke="#14ccbd" points="455,-200.104 448,-180.104 441,-200.104 455,-200.104"/>
</g>
<!-- neighborQueryCopy -->
<g id="node29" class="node"><title>neighborQueryCopy</title>
<polygon fill="#ccfffb" stroke="#ccfffb" points="387.111,-180 338.889,-180 326.889,-168 326.889,-156 338.889,-144 387.111,-144 399.111,-156 399.111,-168 387.111,-180"/>
<path fill="#ccfffb" stroke="#ccfffb" d="M338.889,-180C332.889,-180 326.889,-174 326.889,-168"/>
<path fill="#ccfffb" stroke="#ccfffb" d="M326.889,-156C326.889,-150 332.889,-144 338.889,-144"/>
<path fill="#ccfffb" stroke="#ccfffb" d="M387.111,-144C393.111,-144 399.111,-150 399.111,-156"/>
<path fill="#ccfffb" stroke="#ccfffb" d="M399.111,-168C399.111,-174 393.111,-180 387.111,-180"/>
<polyline fill="none" stroke="#ccfffb" points="387.111,-180 338.889,-180 "/>
<path fill="none" stroke="#ccfffb" d="M338.889,-180C332.889,-180 326.889,-174 326.889,-168"/>
<polyline fill="none" stroke="#ccfffb" points="326.889,-168 326.889,-156 "/>
<path fill="none" stroke="#ccfffb" d="M326.889,-156C326.889,-150 332.889,-144 338.889,-144"/>
<polyline fill="none" stroke="#ccfffb" points="338.889,-144 387.111,-144 "/>
<path fill="none" stroke="#ccfffb" d="M387.111,-144C393.111,-144 399.111,-150 399.111,-156"/>
<polyline fill="none" stroke="#ccfffb" points="399.111,-156 399.111,-168 "/>
<path fill="none" stroke="#ccfffb" d="M399.111,-168C399.111,-174 393.111,-180 387.111,-180"/>
<text text-anchor="middle" x="363" y="-156.4" font-family="Helvetica,sans-Serif" font-size="14.00">Neighbor</text>
</g>
<!-- targetHouse&#45;&gt;neighborQueryCopy -->
<g id="edge23" class="edge"><title>targetHouse&#45;&gt;neighborQueryCopy</title>
<path fill="none" stroke="#14ccbd" stroke-width="3" d="M426.989,-215.697C418.651,-208.83 408.816,-200.731 399.391,-192.969"/>
<polygon fill="#14ccbd" stroke="#14ccbd" points="403.658,-187.415 383.77,-180.104 394.758,-198.222 403.658,-187.415"/>
</g>
<!-- _And_NeighborQueryCopy -->
<g id="node24" class="node"><title>_And_NeighborQueryCopy</title>
<polygon fill="#ccfffb" stroke="#ccfffb" points="420,-108 390,-108 378,-96 378,-84 390,-72 420,-72 432,-84 432,-96 420,-108"/>
<path fill="#ccfffb" stroke="#ccfffb" d="M390,-108C384,-108 378,-102 378,-96"/>
<path fill="#ccfffb" stroke="#ccfffb" d="M378,-84C378,-78 384,-72 390,-72"/>
<path fill="#ccfffb" stroke="#ccfffb" d="M420,-72C426,-72 432,-78 432,-84"/>
<path fill="#ccfffb" stroke="#ccfffb" d="M432,-96C432,-102 426,-108 420,-108"/>
<polyline fill="none" stroke="#ccfffb" points="420,-108 390,-108 "/>
<path fill="none" stroke="#ccfffb" d="M390,-108C384,-108 378,-102 378,-96"/>
<polyline fill="none" stroke="#ccfffb" points="378,-96 378,-84 "/>
<path fill="none" stroke="#ccfffb" d="M378,-84C378,-78 384,-72 390,-72"/>
<polyline fill="none" stroke="#ccfffb" points="390,-72 420,-72 "/>
<path fill="none" stroke="#ccfffb" d="M420,-72C426,-72 432,-78 432,-84"/>
<polyline fill="none" stroke="#ccfffb" points="432,-84 432,-96 "/>
<path fill="none" stroke="#ccfffb" d="M432,-96C432,-102 426,-108 420,-108"/>
<text text-anchor="middle" x="405" y="-84.4" font-family="Helvetica,sans-Serif" font-size="14.00">And</text>
</g>
<!-- towardQuery&#45;&gt;_And_NeighborQueryCopy -->
<g id="edge17" class="edge"><title>towardQuery&#45;&gt;_And_NeighborQueryCopy</title>
<path fill="none" stroke="#14ccbd" stroke-width="3" d="M437.371,-143.697C433.934,-138.102 429.994,-131.689 426.074,-125.306"/>
<polygon fill="#14ccbd" stroke="#14ccbd" points="431.94,-121.482 415.507,-108.104 420.011,-128.81 431.94,-121.482"/>
</g>
<!-- _And_NeighborQueryCopy&#45;&gt;moveIndividualCopyCopy -->
<g id="edge37" class="edge"><title>_And_NeighborQueryCopy&#45;&gt;moveIndividualCopyCopy</title>
<path fill="none" stroke="#14ccbd" stroke-width="3" d="M405,-71.6966C405,-66.9496 405,-61.6132 405,-56.2063"/>
<polygon fill="#14ccbd" stroke="#14ccbd" points="412,-56.1043 405,-36.1043 398,-56.1044 412,-56.1043"/>
</g>
<!-- foundHouse&#45;&gt;nearestQuery -->
<g id="edge21" class="edge"><title>foundHouse&#45;&gt;nearestQuery</title>
<path fill="none" stroke="#14cc87" stroke-width="3" d="M619.045,-215.697C617.921,-210.78 616.653,-205.231 615.372,-199.627"/>
<polygon fill="#14cc87" stroke="#14cc87" points="622.19,-198.042 610.91,-180.104 608.542,-201.161 622.19,-198.042"/>
</g>
<!-- foundHouse&#45;&gt;connectIndividual -->
<g id="edge33" class="edge"><title>foundHouse&#45;&gt;connectIndividual:ne</title>
<path fill="none" stroke="#14cc87" stroke-width="3" stroke-dasharray="5,2" d="M635.563,-215.714C647.243,-197.362 661.271,-167.784 650,-144 642.646,-128.481 633.216,-125.681 622.319,-119.869"/>
<polygon fill="#14cc87" stroke="#14cc87" points="626.292,-114.103 606,-108 618.057,-125.425 626.292,-114.103"/>
</g>
<!-- neighborQueryCopy&#45;&gt;_And_NeighborQueryCopy -->
<g id="edge27" class="edge"><title>neighborQueryCopy&#45;&gt;_And_NeighborQueryCopy</title>
<path fill="none" stroke="#14ccbd" stroke-width="3" d="M373.382,-143.697C376.739,-138.102 380.587,-131.689 384.416,-125.306"/>
<polygon fill="#14ccbd" stroke="#14ccbd" points="390.45,-128.856 394.737,-108.104 378.445,-121.653 390.45,-128.856"/>
</g>
</g>
</svg>
