<?xml version="1.0" encoding="UTF-8" standalone="no"?>
<!DOCTYPE svg PUBLIC "-//W3C//DTD SVG 1.1//EN"
 "http://www.w3.org/Graphics/SVG/1.1/DTD/svg11.dtd">
<!-- Generated by graphviz version 2.29.20110702.0445 (20110702.0445)
 -->
<!-- Title: individual Pages: 1 -->
<svg width="1095pt" height="908pt"
 viewBox="0.00 0.00 1095.00 908.00" xmlns="http://www.w3.org/2000/svg" xmlns:xlink="http://www.w3.org/1999/xlink">
<g id="graph1" class="graph" transform="scale(1 1) rotate(0) translate(4 904)">
<title>individual</title>
<polygon fill="white" stroke="white" points="-4,5 -4,-904 1092,-904 1092,5 -4,5"/>
<g id="graph2" class="cluster"><title>clusterWatch</title>
<polygon fill="ghostwhite" stroke="white" points="186,-8 186,-156 1029,-156 1029,-8 186,-8"/>
<text text-anchor="middle" x="213.582" y="-138" font-family="Helvetica,sans-Serif" font-size="14.00">Watch</text>
</g>
<g id="graph3" class="cluster"><title>clusterRule</title>
<polygon fill="ghostwhite" stroke="white" points="8,-8 8,-664 178,-664 178,-8 8,-8"/>
<text text-anchor="middle" x="33.8965" y="-646" font-family="Helvetica,sans-Serif" font-size="14.00">Rules</text>
</g>
<g id="graph4" class="cluster"><title>clusterInit</title>
<polygon fill="ghostwhite" stroke="white" points="735,-672 735,-892 869,-892 869,-672 735,-672"/>
<text text-anchor="middle" x="768.29" y="-874" font-family="Helvetica,sans-Serif" font-size="14.00">Initialize</text>
</g>
<!-- iteration -->
<g id="node1" class="node"><title>iteration</title>
<polygon fill="lightgray" stroke="lightgray" points="124,-632 94,-632 82,-620 82,-608 94,-596 124,-596 136,-608 136,-620 124,-632"/>
<path fill="lightgray" stroke="lightgray" d="M94,-632C88,-632 82,-626 82,-620"/>
<path fill="lightgray" stroke="lightgray" d="M82,-608C82,-602 88,-596 94,-596"/>
<path fill="lightgray" stroke="lightgray" d="M124,-596C130,-596 136,-602 136,-608"/>
<path fill="lightgray" stroke="lightgray" d="M136,-620C136,-626 130,-632 124,-632"/>
<polyline fill="none" stroke="black" points="124,-632 94,-632 "/>
<path fill="none" stroke="black" d="M94,-632C88,-632 82,-626 82,-620"/>
<polyline fill="none" stroke="black" points="82,-620 82,-608 "/>
<path fill="none" stroke="black" d="M82,-608C82,-602 88,-596 94,-596"/>
<polyline fill="none" stroke="black" points="94,-596 124,-596 "/>
<path fill="none" stroke="black" d="M124,-596C130,-596 136,-602 136,-608"/>
<polyline fill="none" stroke="black" points="136,-608 136,-620 "/>
<path fill="none" stroke="black" d="M136,-620C136,-626 130,-632 124,-632"/>
<text text-anchor="middle" x="109" y="-608.4" font-family="Helvetica,sans-Serif" font-size="14.00">Step</text>
</g>
<!-- movement -->
<g id="node14" class="node"><title>movement</title>
<a xlink:href="individual_movement.svg" xlink:title="Movement">
<polygon fill="#ccddff" stroke="#ccddff" points="137.518,-560 80.4819,-560 68.4819,-548 68.4819,-536 80.4819,-524 137.518,-524 149.518,-536 149.518,-548 137.518,-560"/>
<path fill="#ccddff" stroke="#ccddff" d="M80.4819,-560C74.4819,-560 68.4819,-554 68.4819,-548"/>
<path fill="#ccddff" stroke="#ccddff" d="M68.4819,-536C68.4819,-530 74.4819,-524 80.4819,-524"/>
<path fill="#ccddff" stroke="#ccddff" d="M137.518,-524C143.518,-524 149.518,-530 149.518,-536"/>
<path fill="#ccddff" stroke="#ccddff" d="M149.518,-548C149.518,-554 143.518,-560 137.518,-560"/>
<polyline fill="none" stroke="black" points="137.518,-560 80.4819,-560 "/>
<path fill="none" stroke="black" d="M80.4819,-560C74.4819,-560 68.4819,-554 68.4819,-548"/>
<polyline fill="none" stroke="black" points="68.4819,-548 68.4819,-536 "/>
<path fill="none" stroke="black" d="M68.4819,-536C68.4819,-530 74.4819,-524 80.4819,-524"/>
<polyline fill="none" stroke="black" points="80.4819,-524 137.518,-524 "/>
<path fill="none" stroke="black" d="M137.518,-524C143.518,-524 149.518,-530 149.518,-536"/>
<polyline fill="none" stroke="black" points="149.518,-536 149.518,-548 "/>
<path fill="none" stroke="black" d="M149.518,-548C149.518,-554 143.518,-560 137.518,-560"/>
<text text-anchor="middle" x="109" y="-536.4" font-family="Helvetica,sans-Serif" font-size="14.00">Movement</text>
</a>
</g>
<!-- iteration&#45;&gt;movement -->
<g id="edge16" class="edge"><title>iteration&#45;&gt;movement</title>
<path fill="none" stroke="darkslategray" stroke-width="3" d="M109,-595.697C109,-587.983 109,-578.712 109,-570.112"/>
<polygon fill="darkslategray" stroke="darkslategray" points="112.5,-570.104 109,-560.104 105.5,-570.104 112.5,-570.104"/>
</g>
<!-- start -->
<g id="node2" class="node"><title>start</title>
<polygon fill="lightgray" stroke="lightgray" points="817,-860 787,-860 775,-848 775,-836 787,-824 817,-824 829,-836 829,-848 817,-860"/>
<path fill="lightgray" stroke="lightgray" d="M787,-860C781,-860 775,-854 775,-848"/>
<path fill="lightgray" stroke="lightgray" d="M775,-836C775,-830 781,-824 787,-824"/>
<path fill="lightgray" stroke="lightgray" d="M817,-824C823,-824 829,-830 829,-836"/>
<path fill="lightgray" stroke="lightgray" d="M829,-848C829,-854 823,-860 817,-860"/>
<polyline fill="none" stroke="black" points="817,-860 787,-860 "/>
<path fill="none" stroke="black" d="M787,-860C781,-860 775,-854 775,-848"/>
<polyline fill="none" stroke="black" points="775,-848 775,-836 "/>
<path fill="none" stroke="black" d="M775,-836C775,-830 781,-824 787,-824"/>
<polyline fill="none" stroke="black" points="787,-824 817,-824 "/>
<path fill="none" stroke="black" d="M817,-824C823,-824 829,-830 829,-836"/>
<polyline fill="none" stroke="black" points="829,-836 829,-848 "/>
<path fill="none" stroke="black" d="M829,-848C829,-854 823,-860 817,-860"/>
<text text-anchor="middle" x="802" y="-836.4" font-family="Helvetica,sans-Serif" font-size="14.00">Start</text>
</g>
<!-- initialPlacement -->
<g id="node28" class="node"><title>initialPlacement</title>
<a xlink:href="individual_initialPlacement.svg" xlink:title="Initial Placement">
<polygon fill="#ccffff" stroke="#ccffff" points="849.038,-788 754.962,-788 742.962,-776 742.962,-764 754.962,-752 849.038,-752 861.038,-764 861.038,-776 849.038,-788"/>
<path fill="#ccffff" stroke="#ccffff" d="M754.962,-788C748.962,-788 742.962,-782 742.962,-776"/>
<path fill="#ccffff" stroke="#ccffff" d="M742.962,-764C742.962,-758 748.962,-752 754.962,-752"/>
<path fill="#ccffff" stroke="#ccffff" d="M849.038,-752C855.038,-752 861.038,-758 861.038,-764"/>
<path fill="#ccffff" stroke="#ccffff" d="M861.038,-776C861.038,-782 855.038,-788 849.038,-788"/>
<polyline fill="none" stroke="black" points="849.038,-788 754.962,-788 "/>
<path fill="none" stroke="black" d="M754.962,-788C748.962,-788 742.962,-782 742.962,-776"/>
<polyline fill="none" stroke="black" points="742.962,-776 742.962,-764 "/>
<path fill="none" stroke="black" d="M742.962,-764C742.962,-758 748.962,-752 754.962,-752"/>
<polyline fill="none" stroke="black" points="754.962,-752 849.038,-752 "/>
<path fill="none" stroke="black" d="M849.038,-752C855.038,-752 861.038,-758 861.038,-764"/>
<polyline fill="none" stroke="black" points="861.038,-764 861.038,-776 "/>
<path fill="none" stroke="black" d="M861.038,-776C861.038,-782 855.038,-788 849.038,-788"/>
<text text-anchor="middle" x="802" y="-764.4" font-family="Helvetica,sans-Serif" font-size="14.00">Initial Placement</text>
</a>
</g>
<!-- start&#45;&gt;initialPlacement -->
<g id="edge33" class="edge"><title>start&#45;&gt;initialPlacement</title>
<path fill="none" stroke="darkslategray" stroke-width="3" d="M802,-823.697C802,-815.983 802,-806.712 802,-798.112"/>
<polygon fill="darkslategray" stroke="darkslategray" points="805.5,-798.104 802,-788.104 798.5,-798.104 805.5,-798.104"/>
</g>
<!-- watchTBStatus -->
<g id="node4" class="node"><title>watchTBStatus</title>
<a xlink:href="individual_watchTBStatus.svg" xlink:title="Watch TB Status">
<polygon fill="#feccff" stroke="#feccff" points="672.207,-124 575.793,-124 563.793,-112 563.793,-100 575.793,-88 672.207,-88 684.207,-100 684.207,-112 672.207,-124"/>
<path fill="#feccff" stroke="#feccff" d="M575.793,-124C569.793,-124 563.793,-118 563.793,-112"/>
<path fill="#feccff" stroke="#feccff" d="M563.793,-100C563.793,-94 569.793,-88 575.793,-88"/>
<path fill="#feccff" stroke="#feccff" d="M672.207,-88C678.207,-88 684.207,-94 684.207,-100"/>
<path fill="#feccff" stroke="#feccff" d="M684.207,-112C684.207,-118 678.207,-124 672.207,-124"/>
<polyline fill="none" stroke="black" points="672.207,-124 575.793,-124 "/>
<path fill="none" stroke="black" d="M575.793,-124C569.793,-124 563.793,-118 563.793,-112"/>
<polyline fill="none" stroke="black" points="563.793,-112 563.793,-100 "/>
<path fill="none" stroke="black" d="M563.793,-100C563.793,-94 569.793,-88 575.793,-88"/>
<polyline fill="none" stroke="black" points="575.793,-88 672.207,-88 "/>
<path fill="none" stroke="black" d="M672.207,-88C678.207,-88 684.207,-94 684.207,-100"/>
<polyline fill="none" stroke="black" points="684.207,-100 684.207,-112 "/>
<path fill="none" stroke="black" d="M684.207,-112C684.207,-118 678.207,-124 672.207,-124"/>
<text text-anchor="middle" x="624" y="-100.4" font-family="Helvetica,sans-Serif" font-size="14.00">Watch TB Status</text>
</a>
</g>
<!-- watchTreatmentStatus -->
<g id="node6" class="node"><title>watchTreatmentStatus</title>
<a xlink:href="individual_watchTreatmentStatus.svg" xlink:title="Watch Treatment Status">
<polygon fill="#ffccee" stroke="#ffccee" points="1008.26,-52 867.744,-52 855.744,-40 855.744,-28 867.744,-16 1008.26,-16 1020.26,-28 1020.26,-40 1008.26,-52"/>
<path fill="#ffccee" stroke="#ffccee" d="M867.744,-52C861.744,-52 855.744,-46 855.744,-40"/>
<path fill="#ffccee" stroke="#ffccee" d="M855.744,-28C855.744,-22 861.744,-16 867.744,-16"/>
<path fill="#ffccee" stroke="#ffccee" d="M1008.26,-16C1014.26,-16 1020.26,-22 1020.26,-28"/>
<path fill="#ffccee" stroke="#ffccee" d="M1020.26,-40C1020.26,-46 1014.26,-52 1008.26,-52"/>
<polyline fill="none" stroke="black" points="1008.26,-52 867.744,-52 "/>
<path fill="none" stroke="black" d="M867.744,-52C861.744,-52 855.744,-46 855.744,-40"/>
<polyline fill="none" stroke="black" points="855.744,-40 855.744,-28 "/>
<path fill="none" stroke="black" d="M855.744,-28C855.744,-22 861.744,-16 867.744,-16"/>
<polyline fill="none" stroke="black" points="867.744,-16 1008.26,-16 "/>
<path fill="none" stroke="black" d="M1008.26,-16C1014.26,-16 1020.26,-22 1020.26,-28"/>
<polyline fill="none" stroke="black" points="1020.26,-28 1020.26,-40 "/>
<path fill="none" stroke="black" d="M1020.26,-40C1020.26,-46 1014.26,-52 1008.26,-52"/>
<text text-anchor="middle" x="938" y="-28.4" font-family="Helvetica,sans-Serif" font-size="14.00">Watch Treatment Status</text>
</a>
</g>
<!-- watchTBStatus&#45;&gt;watchTreatmentStatus -->
<g id="edge3" class="edge"><title>watchTBStatus&#45;&gt;watchTreatmentStatus:n</title>
<path fill="none" stroke="#cb14cc" stroke-width="3" d="M684.252,-89.9958C687.543,-89.2924 690.808,-88.6216 694,-88 744.226,-78.2174 913.34,-103.095 935.579,-61.8427"/>
<polygon fill="#cb14cc" stroke="#cb14cc" points="939.011,-62.5465 938,-52 932.213,-60.8748 939.011,-62.5465"/>
</g>
<!-- deriveSuccesfulTreatments -->
<g id="node7" class="node"><title>deriveSuccesfulTreatments</title>
<a xlink:href="individual_deriveSuccesfulTreatments.svg" xlink:title="Derive Succesful Treatments">
<polygon fill="#eeffcc" stroke="#eeffcc" points="885.229,-124 714.771,-124 702.771,-112 702.771,-100 714.771,-88 885.229,-88 897.229,-100 897.229,-112 885.229,-124"/>
<path fill="#eeffcc" stroke="#eeffcc" d="M714.771,-124C708.771,-124 702.771,-118 702.771,-112"/>
<path fill="#eeffcc" stroke="#eeffcc" d="M702.771,-100C702.771,-94 708.771,-88 714.771,-88"/>
<path fill="#eeffcc" stroke="#eeffcc" d="M885.229,-88C891.229,-88 897.229,-94 897.229,-100"/>
<path fill="#eeffcc" stroke="#eeffcc" d="M897.229,-112C897.229,-118 891.229,-124 885.229,-124"/>
<polyline fill="none" stroke="black" points="885.229,-124 714.771,-124 "/>
<path fill="none" stroke="black" d="M714.771,-124C708.771,-124 702.771,-118 702.771,-112"/>
<polyline fill="none" stroke="black" points="702.771,-112 702.771,-100 "/>
<path fill="none" stroke="black" d="M702.771,-100C702.771,-94 708.771,-88 714.771,-88"/>
<polyline fill="none" stroke="black" points="714.771,-88 885.229,-88 "/>
<path fill="none" stroke="black" d="M885.229,-88C891.229,-88 897.229,-94 897.229,-100"/>
<polyline fill="none" stroke="black" points="897.229,-100 897.229,-112 "/>
<path fill="none" stroke="black" d="M897.229,-112C897.229,-118 891.229,-124 885.229,-124"/>
<text text-anchor="middle" x="800" y="-100.4" font-family="Helvetica,sans-Serif" font-size="14.00">Derive Succesful Treatments</text>
</a>
</g>
<!-- watchGender -->
<g id="node8" class="node"><title>watchGender</title>
<a xlink:href="individual_watchGender.svg" xlink:title="Watch Gender">
<polygon fill="#edccff" stroke="#edccff" points="1008.31,-124 927.687,-124 915.687,-112 915.687,-100 927.687,-88 1008.31,-88 1020.31,-100 1020.31,-112 1008.31,-124"/>
<path fill="#edccff" stroke="#edccff" d="M927.687,-124C921.687,-124 915.687,-118 915.687,-112"/>
<path fill="#edccff" stroke="#edccff" d="M915.687,-100C915.687,-94 921.687,-88 927.687,-88"/>
<path fill="#edccff" stroke="#edccff" d="M1008.31,-88C1014.31,-88 1020.31,-94 1020.31,-100"/>
<path fill="#edccff" stroke="#edccff" d="M1020.31,-112C1020.31,-118 1014.31,-124 1008.31,-124"/>
<polyline fill="none" stroke="black" points="1008.31,-124 927.687,-124 "/>
<path fill="none" stroke="black" d="M927.687,-124C921.687,-124 915.687,-118 915.687,-112"/>
<polyline fill="none" stroke="black" points="915.687,-112 915.687,-100 "/>
<path fill="none" stroke="black" d="M915.687,-100C915.687,-94 921.687,-88 927.687,-88"/>
<polyline fill="none" stroke="black" points="927.687,-88 1008.31,-88 "/>
<path fill="none" stroke="black" d="M1008.31,-88C1014.31,-88 1020.31,-94 1020.31,-100"/>
<polyline fill="none" stroke="black" points="1020.31,-100 1020.31,-112 "/>
<path fill="none" stroke="black" d="M1020.31,-112C1020.31,-118 1014.31,-124 1008.31,-124"/>
<text text-anchor="middle" x="968" y="-100.4" font-family="Helvetica,sans-Serif" font-size="14.00">Watch Gender</text>
</a>
</g>
<!-- watchAgeIndex -->
<g id="node10" class="node"><title>watchAgeIndex</title>
<a xlink:href="individual_watchAgeIndex.svg" xlink:title="Watch Age Index">
<polygon fill="#dcccff" stroke="#dcccff" points="824.501,-52 727.499,-52 715.499,-40 715.499,-28 727.499,-16 824.501,-16 836.501,-28 836.501,-40 824.501,-52"/>
<path fill="#dcccff" stroke="#dcccff" d="M727.499,-52C721.499,-52 715.499,-46 715.499,-40"/>
<path fill="#dcccff" stroke="#dcccff" d="M715.499,-28C715.499,-22 721.499,-16 727.499,-16"/>
<path fill="#dcccff" stroke="#dcccff" d="M824.501,-16C830.501,-16 836.501,-22 836.501,-28"/>
<path fill="#dcccff" stroke="#dcccff" d="M836.501,-40C836.501,-46 830.501,-52 824.501,-52"/>
<polyline fill="none" stroke="black" points="824.501,-52 727.499,-52 "/>
<path fill="none" stroke="black" d="M727.499,-52C721.499,-52 715.499,-46 715.499,-40"/>
<polyline fill="none" stroke="black" points="715.499,-40 715.499,-28 "/>
<path fill="none" stroke="black" d="M715.499,-28C715.499,-22 721.499,-16 727.499,-16"/>
<polyline fill="none" stroke="black" points="727.499,-16 824.501,-16 "/>
<path fill="none" stroke="black" d="M824.501,-16C830.501,-16 836.501,-22 836.501,-28"/>
<polyline fill="none" stroke="black" points="836.501,-28 836.501,-40 "/>
<path fill="none" stroke="black" d="M836.501,-40C836.501,-46 830.501,-52 824.501,-52"/>
<text text-anchor="middle" x="776" y="-28.4" font-family="Helvetica,sans-Serif" font-size="14.00">Watch Age Index</text>
</a>
</g>
<!-- watchGender&#45;&gt;watchAgeIndex -->
<g id="edge5" class="edge"><title>watchGender&#45;&gt;watchAgeIndex:n</title>
<path fill="none" stroke="#8d14cc" stroke-width="3" d="M915.535,-90.598C870.457,-78.2144 809.13,-61.3427 785.669,-54.7744"/>
<polygon fill="#8d14cc" stroke="#8d14cc" points="786.577,-51.3938 776,-52 784.647,-58.1223 786.577,-51.3938"/>
</g>
<!-- deriveAgeRange -->
<g id="node11" class="node"><title>deriveAgeRange</title>
<a xlink:href="individual_deriveAgeRange.svg" xlink:title="Derive Age Range">
<polygon fill="#ffedcc" stroke="#ffedcc" points="533.227,-124 428.773,-124 416.773,-112 416.773,-100 428.773,-88 533.227,-88 545.227,-100 545.227,-112 533.227,-124"/>
<path fill="#ffedcc" stroke="#ffedcc" d="M428.773,-124C422.773,-124 416.773,-118 416.773,-112"/>
<path fill="#ffedcc" stroke="#ffedcc" d="M416.773,-100C416.773,-94 422.773,-88 428.773,-88"/>
<path fill="#ffedcc" stroke="#ffedcc" d="M533.227,-88C539.227,-88 545.227,-94 545.227,-100"/>
<path fill="#ffedcc" stroke="#ffedcc" d="M545.227,-112C545.227,-118 539.227,-124 533.227,-124"/>
<polyline fill="none" stroke="black" points="533.227,-124 428.773,-124 "/>
<path fill="none" stroke="black" d="M428.773,-124C422.773,-124 416.773,-118 416.773,-112"/>
<polyline fill="none" stroke="black" points="416.773,-112 416.773,-100 "/>
<path fill="none" stroke="black" d="M416.773,-100C416.773,-94 422.773,-88 428.773,-88"/>
<polyline fill="none" stroke="black" points="428.773,-88 533.227,-88 "/>
<path fill="none" stroke="black" d="M533.227,-88C539.227,-88 545.227,-94 545.227,-100"/>
<polyline fill="none" stroke="black" points="545.227,-100 545.227,-112 "/>
<path fill="none" stroke="black" d="M545.227,-112C545.227,-118 539.227,-124 533.227,-124"/>
<text text-anchor="middle" x="481" y="-100.4" font-family="Helvetica,sans-Serif" font-size="14.00">Derive Age Range</text>
</a>
</g>
<!-- deriveBacterialClearingRate -->
<g id="node12" class="node"><title>deriveBacterialClearingRate</title>
<a xlink:href="individual_deriveBacterialClearingRate.svg" xlink:title="Derive Bacterial Clearing Rate">
<polygon fill="#fffecc" stroke="#fffecc" points="386.227,-124 205.773,-124 193.773,-112 193.773,-100 205.773,-88 386.227,-88 398.227,-100 398.227,-112 386.227,-124"/>
<path fill="#fffecc" stroke="#fffecc" d="M205.773,-124C199.773,-124 193.773,-118 193.773,-112"/>
<path fill="#fffecc" stroke="#fffecc" d="M193.773,-100C193.773,-94 199.773,-88 205.773,-88"/>
<path fill="#fffecc" stroke="#fffecc" d="M386.227,-88C392.227,-88 398.227,-94 398.227,-100"/>
<path fill="#fffecc" stroke="#fffecc" d="M398.227,-112C398.227,-118 392.227,-124 386.227,-124"/>
<polyline fill="none" stroke="black" points="386.227,-124 205.773,-124 "/>
<path fill="none" stroke="black" d="M205.773,-124C199.773,-124 193.773,-118 193.773,-112"/>
<polyline fill="none" stroke="black" points="193.773,-112 193.773,-100 "/>
<path fill="none" stroke="black" d="M193.773,-100C193.773,-94 199.773,-88 205.773,-88"/>
<polyline fill="none" stroke="black" points="205.773,-88 386.227,-88 "/>
<path fill="none" stroke="black" d="M386.227,-88C392.227,-88 398.227,-94 398.227,-100"/>
<polyline fill="none" stroke="black" points="398.227,-100 398.227,-112 "/>
<path fill="none" stroke="black" d="M398.227,-112C398.227,-118 392.227,-124 386.227,-124"/>
<text text-anchor="middle" x="296" y="-100.4" font-family="Helvetica,sans-Serif" font-size="14.00">Derive Bacterial Clearing Rate</text>
</a>
</g>
<!-- transmission -->
<g id="node15" class="node"><title>transmission</title>
<a xlink:href="individual_transmission.svg" xlink:title="Transmission">
<polygon fill="#ccccff" stroke="#ccccff" points="146.047,-488 71.9527,-488 59.9527,-476 59.9527,-464 71.9527,-452 146.047,-452 158.047,-464 158.047,-476 146.047,-488"/>
<path fill="#ccccff" stroke="#ccccff" d="M71.9527,-488C65.9527,-488 59.9527,-482 59.9527,-476"/>
<path fill="#ccccff" stroke="#ccccff" d="M59.9527,-464C59.9527,-458 65.9527,-452 71.9527,-452"/>
<path fill="#ccccff" stroke="#ccccff" d="M146.047,-452C152.047,-452 158.047,-458 158.047,-464"/>
<path fill="#ccccff" stroke="#ccccff" d="M158.047,-476C158.047,-482 152.047,-488 146.047,-488"/>
<polyline fill="none" stroke="black" points="146.047,-488 71.9527,-488 "/>
<path fill="none" stroke="black" d="M71.9527,-488C65.9527,-488 59.9527,-482 59.9527,-476"/>
<polyline fill="none" stroke="black" points="59.9527,-476 59.9527,-464 "/>
<path fill="none" stroke="black" d="M59.9527,-464C59.9527,-458 65.9527,-452 71.9527,-452"/>
<polyline fill="none" stroke="black" points="71.9527,-452 146.047,-452 "/>
<path fill="none" stroke="black" d="M146.047,-452C152.047,-452 158.047,-458 158.047,-464"/>
<polyline fill="none" stroke="black" points="158.047,-464 158.047,-476 "/>
<path fill="none" stroke="black" d="M158.047,-476C158.047,-482 152.047,-488 146.047,-488"/>
<text text-anchor="middle" x="109" y="-464.4" font-family="Helvetica,sans-Serif" font-size="14.00">Transmission</text>
</a>
</g>
<!-- movement&#45;&gt;transmission -->
<g id="edge17" class="edge"><title>movement&#45;&gt;transmission</title>
<path fill="none" stroke="darkslategray" stroke-width="3" d="M109,-523.697C109,-515.983 109,-506.712 109,-498.112"/>
<polygon fill="darkslategray" stroke="darkslategray" points="112.5,-498.104 109,-488.104 105.5,-498.104 112.5,-498.104"/>
</g>
<!-- diseaseProcess -->
<g id="node16" class="node"><title>diseaseProcess</title>
<a xlink:href="individual_diseaseProcess.svg" xlink:title="Disease Process">
<polygon fill="#ccffcc" stroke="#ccffcc" points="157.281,-416 60.7193,-416 48.7193,-404 48.7193,-392 60.7193,-380 157.281,-380 169.281,-392 169.281,-404 157.281,-416"/>
<path fill="#ccffcc" stroke="#ccffcc" d="M60.7193,-416C54.7193,-416 48.7193,-410 48.7193,-404"/>
<path fill="#ccffcc" stroke="#ccffcc" d="M48.7193,-392C48.7193,-386 54.7193,-380 60.7193,-380"/>
<path fill="#ccffcc" stroke="#ccffcc" d="M157.281,-380C163.281,-380 169.281,-386 169.281,-392"/>
<path fill="#ccffcc" stroke="#ccffcc" d="M169.281,-404C169.281,-410 163.281,-416 157.281,-416"/>
<polyline fill="none" stroke="black" points="157.281,-416 60.7193,-416 "/>
<path fill="none" stroke="black" d="M60.7193,-416C54.7193,-416 48.7193,-410 48.7193,-404"/>
<polyline fill="none" stroke="black" points="48.7193,-404 48.7193,-392 "/>
<path fill="none" stroke="black" d="M48.7193,-392C48.7193,-386 54.7193,-380 60.7193,-380"/>
<polyline fill="none" stroke="black" points="60.7193,-380 157.281,-380 "/>
<path fill="none" stroke="black" d="M157.281,-380C163.281,-380 169.281,-386 169.281,-392"/>
<polyline fill="none" stroke="black" points="169.281,-392 169.281,-404 "/>
<path fill="none" stroke="black" d="M169.281,-404C169.281,-410 163.281,-416 157.281,-416"/>
<text text-anchor="middle" x="109" y="-392.4" font-family="Helvetica,sans-Serif" font-size="14.00">Disease Process</text>
</a>
</g>
<!-- transmission&#45;&gt;diseaseProcess -->
<g id="edge18" class="edge"><title>transmission&#45;&gt;diseaseProcess</title>
<path fill="none" stroke="darkslategray" stroke-width="3" d="M109,-451.697C109,-443.983 109,-434.712 109,-426.112"/>
<polygon fill="darkslategray" stroke="darkslategray" points="112.5,-426.104 109,-416.104 105.5,-426.104 112.5,-426.104"/>
</g>
<!-- diseaseProcess&#45;&gt;watchTBStatus -->
<g id="edge8" class="edge"><title>diseaseProcess&#45;&gt;watchTBStatus:n</title>
<path fill="none" stroke="#14cc14" stroke-width="3" d="M169.338,-392.945C303.074,-380.413 613.47,-330.32 623.739,-135.016"/>
<polygon fill="#14cc14" stroke="#14cc14" points="627.238,-135.088 624,-125 620.24,-134.905 627.238,-135.088"/>
</g>
<!-- detection -->
<g id="node18" class="node"><title>detection</title>
<a xlink:href="individual_detection.svg" xlink:title="Detection">
<polygon fill="#ddffcc" stroke="#ddffcc" points="134.358,-344 83.642,-344 71.642,-332 71.642,-320 83.642,-308 134.358,-308 146.358,-320 146.358,-332 134.358,-344"/>
<path fill="#ddffcc" stroke="#ddffcc" d="M83.642,-344C77.642,-344 71.642,-338 71.642,-332"/>
<path fill="#ddffcc" stroke="#ddffcc" d="M71.642,-320C71.642,-314 77.642,-308 83.642,-308"/>
<path fill="#ddffcc" stroke="#ddffcc" d="M134.358,-308C140.358,-308 146.358,-314 146.358,-320"/>
<path fill="#ddffcc" stroke="#ddffcc" d="M146.358,-332C146.358,-338 140.358,-344 134.358,-344"/>
<polyline fill="none" stroke="black" points="134.358,-344 83.642,-344 "/>
<path fill="none" stroke="black" d="M83.642,-344C77.642,-344 71.642,-338 71.642,-332"/>
<polyline fill="none" stroke="black" points="71.642,-332 71.642,-320 "/>
<path fill="none" stroke="black" d="M71.642,-320C71.642,-314 77.642,-308 83.642,-308"/>
<polyline fill="none" stroke="black" points="83.642,-308 134.358,-308 "/>
<path fill="none" stroke="black" d="M134.358,-308C140.358,-308 146.358,-314 146.358,-320"/>
<polyline fill="none" stroke="black" points="146.358,-320 146.358,-332 "/>
<path fill="none" stroke="black" d="M146.358,-332C146.358,-338 140.358,-344 134.358,-344"/>
<text text-anchor="middle" x="109" y="-320.4" font-family="Helvetica,sans-Serif" font-size="14.00">Detection</text>
</a>
</g>
<!-- diseaseProcess&#45;&gt;detection -->
<g id="edge19" class="edge"><title>diseaseProcess&#45;&gt;detection</title>
<path fill="none" stroke="darkslategray" stroke-width="3" d="M109,-379.697C109,-371.983 109,-362.712 109,-354.112"/>
<polygon fill="darkslategray" stroke="darkslategray" points="112.5,-354.104 109,-344.104 105.5,-354.104 112.5,-354.104"/>
</g>
<!-- detection&#45;&gt;watchTreatmentStatus -->
<g id="edge10" class="edge"><title>detection&#45;&gt;watchTreatmentStatus:n</title>
<path fill="none" stroke="#52cc14" stroke-width="3" d="M146.465,-324.199C304.448,-319.964 913.431,-294.732 1029,-156 1048.34,-132.779 1045.99,-112.994 1029,-88 1006.84,-55.4023 950.108,-88.0429 939.665,-62.077"/>
<polygon fill="#52cc14" stroke="#52cc14" points="943.084,-61.2956 938,-52 936.177,-62.4368 943.084,-61.2956"/>
</g>
<!-- immuneResponse -->
<g id="node20" class="node"><title>immuneResponse</title>
<a xlink:href="individual_immuneResponse.svg" xlink:title="Immune Response">
<polygon fill="#ccffed" stroke="#ccffed" points="157.13,-272 48.8705,-272 36.8705,-260 36.8705,-248 48.8705,-236 157.13,-236 169.13,-248 169.13,-260 157.13,-272"/>
<path fill="#ccffed" stroke="#ccffed" d="M48.8705,-272C42.8705,-272 36.8705,-266 36.8705,-260"/>
<path fill="#ccffed" stroke="#ccffed" d="M36.8705,-248C36.8705,-242 42.8705,-236 48.8705,-236"/>
<path fill="#ccffed" stroke="#ccffed" d="M157.13,-236C163.13,-236 169.13,-242 169.13,-248"/>
<path fill="#ccffed" stroke="#ccffed" d="M169.13,-260C169.13,-266 163.13,-272 157.13,-272"/>
<polyline fill="none" stroke="black" points="157.13,-272 48.8705,-272 "/>
<path fill="none" stroke="black" d="M48.8705,-272C42.8705,-272 36.8705,-266 36.8705,-260"/>
<polyline fill="none" stroke="black" points="36.8705,-260 36.8705,-248 "/>
<path fill="none" stroke="black" d="M36.8705,-248C36.8705,-242 42.8705,-236 48.8705,-236"/>
<polyline fill="none" stroke="black" points="48.8705,-236 157.13,-236 "/>
<path fill="none" stroke="black" d="M157.13,-236C163.13,-236 169.13,-242 169.13,-248"/>
<polyline fill="none" stroke="black" points="169.13,-248 169.13,-260 "/>
<path fill="none" stroke="black" d="M169.13,-260C169.13,-266 163.13,-272 157.13,-272"/>
<text text-anchor="middle" x="103" y="-248.4" font-family="Helvetica,sans-Serif" font-size="14.00">Immune Response</text>
</a>
</g>
<!-- detection&#45;&gt;immuneResponse -->
<g id="edge20" class="edge"><title>detection&#45;&gt;immuneResponse</title>
<path fill="none" stroke="darkslategray" stroke-width="3" d="M107.517,-307.697C106.856,-299.983 106.061,-290.712 105.324,-282.112"/>
<polygon fill="darkslategray" stroke="darkslategray" points="108.807,-281.769 104.466,-272.104 101.833,-282.367 108.807,-281.769"/>
</g>
<!-- immuneResponse&#45;&gt;watchTBStatus -->
<g id="edge12" class="edge"><title>immuneResponse&#45;&gt;watchTBStatus:n</title>
<path fill="none" stroke="#14cc8e" stroke-width="3" d="M168.157,-235.97C244.92,-216.392 376.516,-184.347 491,-164 547.977,-153.873 615.282,-182.72 623.223,-135.175"/>
<polygon fill="#14cc8e" stroke="#14cc8e" points="626.728,-135.238 624,-125 619.749,-134.704 626.728,-135.238"/>
</g>
<!-- deathProcess -->
<g id="node22" class="node"><title>deathProcess</title>
<a xlink:href="individual_deathProcess.svg" xlink:title="Death Process">
<polygon fill="#ffdccc" stroke="#ffdccc" points="144.366,-200 61.6339,-200 49.6339,-188 49.6339,-176 61.6339,-164 144.366,-164 156.366,-176 156.366,-188 144.366,-200"/>
<path fill="#ffdccc" stroke="#ffdccc" d="M61.6339,-200C55.6339,-200 49.6339,-194 49.6339,-188"/>
<path fill="#ffdccc" stroke="#ffdccc" d="M49.6339,-176C49.6339,-170 55.6339,-164 61.6339,-164"/>
<path fill="#ffdccc" stroke="#ffdccc" d="M144.366,-164C150.366,-164 156.366,-170 156.366,-176"/>
<path fill="#ffdccc" stroke="#ffdccc" d="M156.366,-188C156.366,-194 150.366,-200 144.366,-200"/>
<polyline fill="none" stroke="black" points="144.366,-200 61.6339,-200 "/>
<path fill="none" stroke="black" d="M61.6339,-200C55.6339,-200 49.6339,-194 49.6339,-188"/>
<polyline fill="none" stroke="black" points="49.6339,-188 49.6339,-176 "/>
<path fill="none" stroke="black" d="M49.6339,-176C49.6339,-170 55.6339,-164 61.6339,-164"/>
<polyline fill="none" stroke="black" points="61.6339,-164 144.366,-164 "/>
<path fill="none" stroke="black" d="M144.366,-164C150.366,-164 156.366,-170 156.366,-176"/>
<polyline fill="none" stroke="black" points="156.366,-176 156.366,-188 "/>
<path fill="none" stroke="black" d="M156.366,-188C156.366,-194 150.366,-200 144.366,-200"/>
<text text-anchor="middle" x="103" y="-176.4" font-family="Helvetica,sans-Serif" font-size="14.00">Death Process</text>
</a>
</g>
<!-- immuneResponse&#45;&gt;deathProcess -->
<g id="edge21" class="edge"><title>immuneResponse&#45;&gt;deathProcess</title>
<path fill="none" stroke="darkslategray" stroke-width="3" d="M103,-235.697C103,-227.983 103,-218.712 103,-210.112"/>
<polygon fill="darkslategray" stroke="darkslategray" points="106.5,-210.104 103,-200.104 99.5001,-210.104 106.5,-210.104"/>
</g>
<!-- deathProcess&#45;&gt;watchTBStatus -->
<g id="edge14" class="edge"><title>deathProcess&#45;&gt;watchTBStatus:n</title>
<path fill="none" stroke="#cc5014" stroke-width="3" d="M156.578,-174.617C189.769,-170.909 233.303,-166.492 272,-164 334.562,-159.971 492.855,-169.842 554,-156 583.426,-149.338 615.706,-156.87 622.642,-134.939"/>
<polygon fill="#cc5014" stroke="#cc5014" points="626.113,-135.382 624,-125 619.178,-134.434 626.113,-135.382"/>
</g>
<!-- houseMovement -->
<g id="node24" class="node"><title>houseMovement</title>
<a xlink:href="individual_houseMovement.svg" xlink:title="House Movement">
<polygon fill="#ccffdc" stroke="#ccffdc" points="151.289,-124 50.7111,-124 38.7111,-112 38.7111,-100 50.7111,-88 151.289,-88 163.289,-100 163.289,-112 151.289,-124"/>
<path fill="#ccffdc" stroke="#ccffdc" d="M50.7111,-124C44.7111,-124 38.7111,-118 38.7111,-112"/>
<path fill="#ccffdc" stroke="#ccffdc" d="M38.7111,-100C38.7111,-94 44.7111,-88 50.7111,-88"/>
<path fill="#ccffdc" stroke="#ccffdc" d="M151.289,-88C157.289,-88 163.289,-94 163.289,-100"/>
<path fill="#ccffdc" stroke="#ccffdc" d="M163.289,-112C163.289,-118 157.289,-124 151.289,-124"/>
<polyline fill="none" stroke="black" points="151.289,-124 50.7111,-124 "/>
<path fill="none" stroke="black" d="M50.7111,-124C44.7111,-124 38.7111,-118 38.7111,-112"/>
<polyline fill="none" stroke="black" points="38.7111,-112 38.7111,-100 "/>
<path fill="none" stroke="black" d="M38.7111,-100C38.7111,-94 44.7111,-88 50.7111,-88"/>
<polyline fill="none" stroke="black" points="50.7111,-88 151.289,-88 "/>
<path fill="none" stroke="black" d="M151.289,-88C157.289,-88 163.289,-94 163.289,-100"/>
<polyline fill="none" stroke="black" points="163.289,-100 163.289,-112 "/>
<path fill="none" stroke="black" d="M163.289,-112C163.289,-118 157.289,-124 151.289,-124"/>
<text text-anchor="middle" x="101" y="-100.4" font-family="Helvetica,sans-Serif" font-size="14.00">House Movement</text>
</a>
</g>
<!-- deathProcess&#45;&gt;houseMovement -->
<g id="edge22" class="edge"><title>deathProcess&#45;&gt;houseMovement</title>
<path fill="none" stroke="darkslategray" stroke-width="3" d="M102.536,-163.837C102.299,-155.058 102.004,-144.163 101.737,-134.267"/>
<polygon fill="darkslategray" stroke="darkslategray" points="105.23,-133.972 101.461,-124.07 98.2329,-134.161 105.23,-133.972"/>
</g>
<!-- acquire -->
<g id="node25" class="node"><title>acquire</title>
<a xlink:href="individual_acquire.svg" xlink:title="Acquire">
<polygon fill="#ffcccc" stroke="#ffcccc" points="93.6006,-52 54.3994,-52 42.3994,-40 42.3994,-28 54.3994,-16 93.6006,-16 105.601,-28 105.601,-40 93.6006,-52"/>
<path fill="#ffcccc" stroke="#ffcccc" d="M54.3994,-52C48.3994,-52 42.3994,-46 42.3994,-40"/>
<path fill="#ffcccc" stroke="#ffcccc" d="M42.3994,-28C42.3994,-22 48.3994,-16 54.3994,-16"/>
<path fill="#ffcccc" stroke="#ffcccc" d="M93.6006,-16C99.6006,-16 105.601,-22 105.601,-28"/>
<path fill="#ffcccc" stroke="#ffcccc" d="M105.601,-40C105.601,-46 99.6006,-52 93.6006,-52"/>
<polyline fill="none" stroke="black" points="93.6006,-52 54.3994,-52 "/>
<path fill="none" stroke="black" d="M54.3994,-52C48.3994,-52 42.3994,-46 42.3994,-40"/>
<polyline fill="none" stroke="black" points="42.3994,-40 42.3994,-28 "/>
<path fill="none" stroke="black" d="M42.3994,-28C42.3994,-22 48.3994,-16 54.3994,-16"/>
<polyline fill="none" stroke="black" points="54.3994,-16 93.6006,-16 "/>
<path fill="none" stroke="black" d="M93.6006,-16C99.6006,-16 105.601,-22 105.601,-28"/>
<polyline fill="none" stroke="black" points="105.601,-28 105.601,-40 "/>
<path fill="none" stroke="black" d="M105.601,-40C105.601,-46 99.6006,-52 93.6006,-52"/>
<text text-anchor="middle" x="74" y="-28.4" font-family="Helvetica,sans-Serif" font-size="14.00">Acquire</text>
</a>
</g>
<!-- houseMovement&#45;&gt;acquire -->
<g id="edge23" class="edge"><title>houseMovement&#45;&gt;acquire</title>
<path fill="none" stroke="darkslategray" stroke-width="3" d="M94.3258,-87.6966C91.2851,-79.8132 87.6173,-70.3042 84.2393,-61.5464"/>
<polygon fill="darkslategray" stroke="darkslategray" points="87.4617,-60.1748 80.5974,-52.1043 80.9307,-62.6939 87.4617,-60.1748"/>
</g>
<!-- acquire&#45;&gt;iteration -->
<g id="edge24" class="edge"><title>acquire&#45;&gt;iteration</title>
<path fill="none" stroke="darkslategray" stroke-width="3" d="M54.812,-52.2906C45.4518,-61.8623 34.9527,-74.5306 29,-88 12.1534,-126.119 17,-139.324 17,-181 17,-471 17,-471 17,-471 17,-518.525 53.7457,-562.696 80.7913,-588.77"/>
<polygon fill="darkslategray" stroke="darkslategray" points="78.4308,-591.354 88.1238,-595.632 83.214,-586.243 78.4308,-591.354"/>
</g>
<!-- initializeState -->
<g id="node29" class="node"><title>initializeState</title>
<a xlink:href="individual_initializeState.svg" xlink:title="Initialize State">
<polygon fill="#cceeff" stroke="#cceeff" points="841.368,-716 762.632,-716 750.632,-704 750.632,-692 762.632,-680 841.368,-680 853.368,-692 853.368,-704 841.368,-716"/>
<path fill="#cceeff" stroke="#cceeff" d="M762.632,-716C756.632,-716 750.632,-710 750.632,-704"/>
<path fill="#cceeff" stroke="#cceeff" d="M750.632,-692C750.632,-686 756.632,-680 762.632,-680"/>
<path fill="#cceeff" stroke="#cceeff" d="M841.368,-680C847.368,-680 853.368,-686 853.368,-692"/>
<path fill="#cceeff" stroke="#cceeff" d="M853.368,-704C853.368,-710 847.368,-716 841.368,-716"/>
<polyline fill="none" stroke="black" points="841.368,-716 762.632,-716 "/>
<path fill="none" stroke="black" d="M762.632,-716C756.632,-716 750.632,-710 750.632,-704"/>
<polyline fill="none" stroke="black" points="750.632,-704 750.632,-692 "/>
<path fill="none" stroke="black" d="M750.632,-692C750.632,-686 756.632,-680 762.632,-680"/>
<polyline fill="none" stroke="black" points="762.632,-680 841.368,-680 "/>
<path fill="none" stroke="black" d="M841.368,-680C847.368,-680 853.368,-686 853.368,-692"/>
<polyline fill="none" stroke="black" points="853.368,-692 853.368,-704 "/>
<path fill="none" stroke="black" d="M853.368,-704C853.368,-710 847.368,-716 841.368,-716"/>
<text text-anchor="middle" x="802" y="-692.4" font-family="Helvetica,sans-Serif" font-size="14.00">Initialize State</text>
</a>
</g>
<!-- initialPlacement&#45;&gt;initializeState -->
<g id="edge34" class="edge"><title>initialPlacement&#45;&gt;initializeState</title>
<path fill="none" stroke="darkslategray" stroke-width="3" d="M802,-751.697C802,-743.983 802,-734.712 802,-726.112"/>
<polygon fill="darkslategray" stroke="darkslategray" points="805.5,-726.104 802,-716.104 798.5,-726.104 805.5,-726.104"/>
</g>
<!-- initializeState&#45;&gt;iteration -->
<g id="edge35" class="edge"><title>initializeState&#45;&gt;iteration</title>
<path fill="none" stroke="darkslategray" stroke-width="3" d="M750.479,-690.904C616.942,-675.103 261.991,-633.103 146.141,-619.395"/>
<polygon fill="darkslategray" stroke="darkslategray" points="146.346,-615.895 136.004,-618.195 145.524,-622.846 146.346,-615.895"/>
</g>
<!-- initializeState&#45;&gt;watchTBStatus -->
<g id="edge31" class="edge"><title>initializeState&#45;&gt;watchTBStatus:n</title>
<path fill="none" stroke="#148fcc" stroke-width="3" d="M762.697,-679.898C715.612,-656.439 643,-609.483 643,-543 643,-543 643,-543 643,-253 643,-227.277 627.796,-168.16 624.589,-135.393"/>
<polygon fill="#148fcc" stroke="#148fcc" points="628.061,-134.786 624,-125 621.072,-135.182 628.061,-134.786"/>
</g>
<!-- initializeState&#45;&gt;watchTreatmentStatus -->
<g id="edge29" class="edge"><title>initializeState&#45;&gt;watchTreatmentStatus:n</title>
<path fill="none" stroke="#148fcc" stroke-width="3" d="M853.721,-692.859C904.005,-688.047 976.176,-678.813 1000,-664 1056.25,-629.025 1087,-609.236 1087,-543 1087,-543 1087,-543 1087,-181 1087,-136.349 1081.72,-118.379 1049,-88 1013.96,-55.471 949.191,-96.3986 939.285,-62.3595"/>
<polygon fill="#148fcc" stroke="#148fcc" points="942.704,-61.4931 938,-52 935.758,-62.3548 942.704,-61.4931"/>
</g>
<!-- initializeState&#45;&gt;watchGender -->
<g id="edge27" class="edge"><title>initializeState&#45;&gt;watchGender:n</title>
<path fill="none" stroke="#148fcc" stroke-width="3" d="M853.479,-688.58C925.867,-673.469 1049,-634.34 1049,-543 1049,-543 1049,-543 1049,-253 1049,-189.228 976.318,-191.828 968.652,-135.055"/>
<polygon fill="#148fcc" stroke="#148fcc" points="972.14,-134.753 968,-125 965.154,-135.206 972.14,-134.753"/>
</g>
</g>
</svg>
