<?xml version="1.0" encoding="UTF-8" standalone="no"?>
<!DOCTYPE svg PUBLIC "-//W3C//DTD SVG 1.1//EN"
 "http://www.w3.org/Graphics/SVG/1.1/DTD/svg11.dtd">
<!-- Generated by graphviz version 2.29.20110702.0445 (20110702.0445)
 -->
<!-- Title: watchAgeIndex Pages: 1 -->
<svg width="978pt" height="537pt"
 viewBox="0.00 0.00 978.08 537.00" xmlns="http://www.w3.org/2000/svg" xmlns:xlink="http://www.w3.org/1999/xlink">
<g id="graph1" class="graph" transform="scale(1 1) rotate(0) translate(4 533)">
<title>watchAgeIndex</title>
<polygon fill="white" stroke="white" points="-4,5 -4,-533 975.076,-533 975.076,5 -4,5"/>
<g id="graph2" class="cluster"><title>clustercontextKey</title>
<polygon fill="ghostwhite" stroke="white" points="366,-467 366,-521 454,-521 454,-467 366,-467"/>
<text text-anchor="middle" x="410.179" y="-503" font-family="Helvetica,sans-Serif" font-size="14.00">Parameters</text>
</g>
<g id="graph3" class="cluster"><title>clusterindividualKey</title>
<polygon fill="ghostwhite" stroke="white" points="462,-467 462,-521 537,-521 537,-467 462,-467"/>
<text text-anchor="middle" x="499.576" y="-503" font-family="Helvetica,sans-Serif" font-size="14.00">Individual</text>
</g>
<!-- contextOverview -->
<g id="node2" class="node"><title>contextOverview</title>
<ellipse fill="black" stroke="black" cx="410" cy="-482" rx="7.2" ry="7.2"/>
</g>
<!-- watchAgeIndexOverview -->
<g id="node4" class="node"><title>watchAgeIndexOverview</title>
<a xlink:href="individual__Overview.svg">
<ellipse fill="#5114cc" stroke="#5114cc" cx="498" cy="-482" rx="7.2" ry="7.2"/>
</a>
</g>
<!-- individualgenderRecord -->
<g id="node5" class="node"><title>individualgenderRecord</title>
<polygon fill="white" stroke="none" points="555.486,-377.2 555.486,-426.8 664.514,-426.8 664.514,-377.2 555.486,-377.2"/>
<text text-anchor="middle" x="610" y="-408.8" font-family="Helvetica,sans-Serif" font-size="14.00">Gender</text>
<polyline fill="none" stroke="none" points="555.486,-402 664.514,-402 "/>
<text text-anchor="middle" x="586.828" y="-384" font-family="Helvetica,sans-Serif" font-size="14.00">Female</text>
<polyline fill="none" stroke="none" points="618.169,-377.2 618.169,-402 "/>
<text text-anchor="middle" x="641.341" y="-384" font-family="Helvetica,sans-Serif" font-size="14.00">Male</text>
</g>
<!-- genderIdenticalMaleQueryCopy -->
<g id="node17" class="node"><title>genderIdenticalMaleQueryCopy</title>
<polygon fill="#dcccff" stroke="#dcccff" points="440,-340 410,-340 398,-328 398,-316 410,-304 440,-304 452,-316 452,-328 440,-340"/>
<path fill="#dcccff" stroke="#dcccff" d="M410,-340C404,-340 398,-334 398,-328"/>
<path fill="#dcccff" stroke="#dcccff" d="M398,-316C398,-310 404,-304 410,-304"/>
<path fill="#dcccff" stroke="#dcccff" d="M440,-304C446,-304 452,-310 452,-316"/>
<path fill="#dcccff" stroke="#dcccff" d="M452,-328C452,-334 446,-340 440,-340"/>
<polyline fill="none" stroke="#dcccff" points="440,-340 410,-340 "/>
<path fill="none" stroke="#dcccff" d="M410,-340C404,-340 398,-334 398,-328"/>
<polyline fill="none" stroke="#dcccff" points="398,-328 398,-316 "/>
<path fill="none" stroke="#dcccff" d="M398,-316C398,-310 404,-304 410,-304"/>
<polyline fill="none" stroke="#dcccff" points="410,-304 440,-304 "/>
<path fill="none" stroke="#dcccff" d="M440,-304C446,-304 452,-310 452,-316"/>
<polyline fill="none" stroke="#dcccff" points="452,-316 452,-328 "/>
<path fill="none" stroke="#dcccff" d="M452,-328C452,-334 446,-340 440,-340"/>
<text text-anchor="middle" x="425" y="-316.4" font-family="Helvetica,sans-Serif" font-size="14.00">Is?</text>
</g>
<!-- individualgenderRecord&#45;&gt;genderIdenticalMaleQueryCopy -->
<g id="edge54" class="edge"><title>individualgenderRecord:individualgendermale&#45;&gt;genderIdenticalMaleQueryCopy:ne</title>
<path fill="none" stroke="#5114cc" stroke-width="2" stroke-dasharray="1,5" d="M641,-376C641,-289.352 514.536,-396.154 449.132,-345.414"/>
<ellipse fill="#5114cc" stroke="#5114cc" cx="445.999" cy="-342.647" rx="4.00002" ry="4.00002"/>
</g>
<!-- genderIdenticalMale -->
<g id="node21" class="node"><title>genderIdenticalMale</title>
<polygon fill="#dcccff" stroke="#dcccff" points="653,-268 623,-268 611,-256 611,-244 623,-232 653,-232 665,-244 665,-256 653,-268"/>
<path fill="#dcccff" stroke="#dcccff" d="M623,-268C617,-268 611,-262 611,-256"/>
<path fill="#dcccff" stroke="#dcccff" d="M611,-244C611,-238 617,-232 623,-232"/>
<path fill="#dcccff" stroke="#dcccff" d="M653,-232C659,-232 665,-238 665,-244"/>
<path fill="#dcccff" stroke="#dcccff" d="M665,-256C665,-262 659,-268 653,-268"/>
<polyline fill="none" stroke="#dcccff" points="653,-268 623,-268 "/>
<path fill="none" stroke="#dcccff" d="M623,-268C617,-268 611,-262 611,-256"/>
<polyline fill="none" stroke="#dcccff" points="611,-256 611,-244 "/>
<path fill="none" stroke="#dcccff" d="M611,-244C611,-238 617,-232 623,-232"/>
<polyline fill="none" stroke="#dcccff" points="623,-232 653,-232 "/>
<path fill="none" stroke="#dcccff" d="M653,-232C659,-232 665,-238 665,-244"/>
<polyline fill="none" stroke="#dcccff" points="665,-244 665,-256 "/>
<path fill="none" stroke="#dcccff" d="M665,-256C665,-262 659,-268 653,-268"/>
<text text-anchor="middle" x="638" y="-244.4" font-family="Helvetica,sans-Serif" font-size="14.00">Is?</text>
</g>
<!-- individualgenderRecord&#45;&gt;genderIdenticalMale -->
<g id="edge34" class="edge"><title>individualgenderRecord:individualgendermale&#45;&gt;genderIdenticalMale:ne</title>
<path fill="none" stroke="#5114cc" stroke-width="2" stroke-dasharray="1,5" d="M641,-376C641,-330.568 684.301,-305.517 661.479,-274.328"/>
<ellipse fill="#5114cc" stroke="#5114cc" cx="658.618" cy="-271.024" rx="4.00002" ry="4.00002"/>
</g>
<!-- genderIdenticalFemaleQueryCopy -->
<g id="node30" class="node"><title>genderIdenticalFemaleQueryCopy</title>
<polygon fill="#dcccff" stroke="#dcccff" points="543,-268 513,-268 501,-256 501,-244 513,-232 543,-232 555,-244 555,-256 543,-268"/>
<path fill="#dcccff" stroke="#dcccff" d="M513,-268C507,-268 501,-262 501,-256"/>
<path fill="#dcccff" stroke="#dcccff" d="M501,-244C501,-238 507,-232 513,-232"/>
<path fill="#dcccff" stroke="#dcccff" d="M543,-232C549,-232 555,-238 555,-244"/>
<path fill="#dcccff" stroke="#dcccff" d="M555,-256C555,-262 549,-268 543,-268"/>
<polyline fill="none" stroke="#dcccff" points="543,-268 513,-268 "/>
<path fill="none" stroke="#dcccff" d="M513,-268C507,-268 501,-262 501,-256"/>
<polyline fill="none" stroke="#dcccff" points="501,-256 501,-244 "/>
<path fill="none" stroke="#dcccff" d="M501,-244C501,-238 507,-232 513,-232"/>
<polyline fill="none" stroke="#dcccff" points="513,-232 543,-232 "/>
<path fill="none" stroke="#dcccff" d="M543,-232C549,-232 555,-238 555,-244"/>
<polyline fill="none" stroke="#dcccff" points="555,-244 555,-256 "/>
<path fill="none" stroke="#dcccff" d="M555,-256C555,-262 549,-268 543,-268"/>
<text text-anchor="middle" x="528" y="-244.4" font-family="Helvetica,sans-Serif" font-size="14.00">Is?</text>
</g>
<!-- individualgenderRecord&#45;&gt;genderIdenticalFemaleQueryCopy -->
<g id="edge44" class="edge"><title>individualgenderRecord:individualgenderfemale&#45;&gt;genderIdenticalFemaleQueryCopy:ne</title>
<path fill="none" stroke="#5114cc" stroke-width="2" stroke-dasharray="1,5" d="M587,-376C587,-343.629 589.293,-333.516 576,-304 568.65,-287.68 562.653,-283.7 551.765,-273.556"/>
<ellipse fill="#5114cc" stroke="#5114cc" cx="548.88" cy="-270.776" rx="4.00002" ry="4.00002"/>
</g>
<!-- individualsmokingRecord -->
<g id="node6" class="node"><title>individualsmokingRecord</title>
<polygon fill="white" stroke="none" points="64.7656,-1.2 64.7656,-50.8 135.234,-50.8 135.234,-1.2 64.7656,-1.2"/>
<text text-anchor="middle" x="100" y="-32.8" font-family="Helvetica,sans-Serif" font-size="14.00">Smoking</text>
<polyline fill="none" stroke="none" points="64.7656,-26 135.234,-26 "/>
<text text-anchor="middle" x="99.8828" y="-8" font-family="Helvetica,sans-Serif" font-size="14.00">Smoker</text>
</g>
<!-- individualhIVStatusRecord -->
<g id="node7" class="node"><title>individualhIVStatusRecord</title>
<polygon fill="white" stroke="none" points="516.876,-1.2 516.876,-50.8 609.124,-50.8 609.124,-1.2 516.876,-1.2"/>
<text text-anchor="middle" x="563" y="-32.8" font-family="Helvetica,sans-Serif" font-size="14.00">HIV Status</text>
<polyline fill="none" stroke="none" points="516.876,-26 609.124,-26 "/>
<text text-anchor="middle" x="563" y="-8" font-family="Helvetica,sans-Serif" font-size="14.00">HIV Positive</text>
</g>
<!-- individualageIndex -->
<g id="node8" class="node"><title>individualageIndex</title>
<polygon fill="white" stroke="white" points="624.286,-500 545.714,-500 545.714,-464 624.286,-464 624.286,-500"/>
<text text-anchor="middle" x="585" y="-476.4" font-family="Helvetica,sans-Serif" font-size="14.00">Age Index</text>
</g>
<!-- watchAgeIndex -->
<g id="node12" class="node"><title>watchAgeIndex</title>
<a xlink:href="individual_watchAgeIndex.svg" xlink:title="Watch Age Index">
<polygon fill="#dcccff" stroke="#dcccff" points="525.501,-420 428.499,-420 416.499,-408 416.499,-396 428.499,-384 525.501,-384 537.501,-396 537.501,-408 525.501,-420"/>
<path fill="#dcccff" stroke="#dcccff" d="M428.499,-420C422.499,-420 416.499,-414 416.499,-408"/>
<path fill="#dcccff" stroke="#dcccff" d="M416.499,-396C416.499,-390 422.499,-384 428.499,-384"/>
<path fill="#dcccff" stroke="#dcccff" d="M525.501,-384C531.501,-384 537.501,-390 537.501,-396"/>
<path fill="#dcccff" stroke="#dcccff" d="M537.501,-408C537.501,-414 531.501,-420 525.501,-420"/>
<polyline fill="none" stroke="black" points="525.501,-420 428.499,-420 "/>
<path fill="none" stroke="black" d="M428.499,-420C422.499,-420 416.499,-414 416.499,-408"/>
<polyline fill="none" stroke="black" points="416.499,-408 416.499,-396 "/>
<path fill="none" stroke="black" d="M416.499,-396C416.499,-390 422.499,-384 428.499,-384"/>
<polyline fill="none" stroke="black" points="428.499,-384 525.501,-384 "/>
<path fill="none" stroke="black" d="M525.501,-384C531.501,-384 537.501,-390 537.501,-396"/>
<polyline fill="none" stroke="black" points="537.501,-396 537.501,-408 "/>
<path fill="none" stroke="black" d="M537.501,-408C537.501,-414 531.501,-420 525.501,-420"/>
<text text-anchor="middle" x="477" y="-396.4" font-family="Helvetica,sans-Serif" font-size="14.00">Watch Age Index</text>
</a>
</g>
<!-- individualageIndex&#45;&gt;watchAgeIndex -->
<g id="edge4" class="edge"><title>individualageIndex&#45;&gt;watchAgeIndex</title>
<path fill="none" stroke="#5114cc" stroke-width="2" d="M561.299,-463.883C545.965,-452.808 525.811,-438.253 509.055,-426.151"/>
<polygon fill="#5114cc" stroke="#5114cc" points="500.646,-420.078 511.387,-422.284 504.992,-422.6 509.045,-425.527 508.753,-425.932 508.46,-426.338 504.406,-423.41 506.118,-429.581 500.646,-420.078 500.646,-420.078"/>
</g>
<!-- item_HIVPrevalenceMalebyAgeIndexAgeIndex_ -->
<g id="node23" class="node"><title>item_HIVPrevalenceMalebyAgeIndexAgeIndex_</title>
<polygon fill="#dcccff" stroke="#dcccff" points="653,-196 623,-196 611,-184 611,-172 623,-160 653,-160 665,-172 665,-184 653,-196"/>
<path fill="#dcccff" stroke="#dcccff" d="M623,-196C617,-196 611,-190 611,-184"/>
<path fill="#dcccff" stroke="#dcccff" d="M611,-172C611,-166 617,-160 623,-160"/>
<path fill="#dcccff" stroke="#dcccff" d="M653,-160C659,-160 665,-166 665,-172"/>
<path fill="#dcccff" stroke="#dcccff" d="M665,-184C665,-190 659,-196 653,-196"/>
<polyline fill="none" stroke="#dcccff" points="653,-196 623,-196 "/>
<path fill="none" stroke="#dcccff" d="M623,-196C617,-196 611,-190 611,-184"/>
<polyline fill="none" stroke="#dcccff" points="611,-184 611,-172 "/>
<path fill="none" stroke="#dcccff" d="M611,-172C611,-166 617,-160 623,-160"/>
<polyline fill="none" stroke="#dcccff" points="623,-160 653,-160 "/>
<path fill="none" stroke="#dcccff" d="M653,-160C659,-160 665,-166 665,-172"/>
<polyline fill="none" stroke="#dcccff" points="665,-172 665,-184 "/>
<path fill="none" stroke="#dcccff" d="M665,-184C665,-190 659,-196 653,-196"/>
<text text-anchor="middle" x="638" y="-172.4" font-family="Helvetica,sans-Serif" font-size="14.00">Item?</text>
</g>
<!-- individualageIndex&#45;&gt;item_HIVPrevalenceMalebyAgeIndexAgeIndex_ -->
<g id="edge38" class="edge"><title>individualageIndex&#45;&gt;item_HIVPrevalenceMalebyAgeIndexAgeIndex_:ne</title>
<path fill="none" stroke="#5114cc" stroke-width="2" stroke-dasharray="1,5" d="M624.516,-472.956C705.998,-453.96 891.064,-397.791 963,-268 970.756,-254.006 973.634,-243.954 963,-232 873.563,-131.462 757.993,-286.536 662.003,-201.652"/>
<ellipse fill="#5114cc" stroke="#5114cc" cx="658.912" cy="-198.742" rx="4.00002" ry="4.00002"/>
</g>
<!-- item_HIVPrevalenceFemalebyAgeIndexAgeIndex_ -->
<g id="node26" class="node"><title>item_HIVPrevalenceFemalebyAgeIndexAgeIndex_</title>
<polygon fill="#dcccff" stroke="#dcccff" points="543,-196 513,-196 501,-184 501,-172 513,-160 543,-160 555,-172 555,-184 543,-196"/>
<path fill="#dcccff" stroke="#dcccff" d="M513,-196C507,-196 501,-190 501,-184"/>
<path fill="#dcccff" stroke="#dcccff" d="M501,-172C501,-166 507,-160 513,-160"/>
<path fill="#dcccff" stroke="#dcccff" d="M543,-160C549,-160 555,-166 555,-172"/>
<path fill="#dcccff" stroke="#dcccff" d="M555,-184C555,-190 549,-196 543,-196"/>
<polyline fill="none" stroke="#dcccff" points="543,-196 513,-196 "/>
<path fill="none" stroke="#dcccff" d="M513,-196C507,-196 501,-190 501,-184"/>
<polyline fill="none" stroke="#dcccff" points="501,-184 501,-172 "/>
<path fill="none" stroke="#dcccff" d="M501,-172C501,-166 507,-160 513,-160"/>
<polyline fill="none" stroke="#dcccff" points="513,-160 543,-160 "/>
<path fill="none" stroke="#dcccff" d="M543,-160C549,-160 555,-166 555,-172"/>
<polyline fill="none" stroke="#dcccff" points="555,-172 555,-184 "/>
<path fill="none" stroke="#dcccff" d="M555,-184C555,-190 549,-196 543,-196"/>
<text text-anchor="middle" x="528" y="-172.4" font-family="Helvetica,sans-Serif" font-size="14.00">Item?</text>
</g>
<!-- individualageIndex&#45;&gt;item_HIVPrevalenceFemalebyAgeIndexAgeIndex_ -->
<g id="edge42" class="edge"><title>individualageIndex&#45;&gt;item_HIVPrevalenceFemalebyAgeIndexAgeIndex_:ne</title>
<path fill="none" stroke="#5114cc" stroke-width="2" stroke-dasharray="1,5" d="M624.613,-467.557C642.748,-459.194 662.501,-446.444 673,-428 716.094,-352.293 726.602,-301.437 674,-232 640.127,-187.286 592.881,-232.673 552.431,-201.659"/>
<ellipse fill="#5114cc" stroke="#5114cc" cx="549.003" cy="-198.643" rx="4.00002" ry="4.00002"/>
</g>
<!-- item_SmokingPrevelanceMalebyAgeIndexAgeIndex_ -->
<g id="node34" class="node"><title>item_SmokingPrevelanceMalebyAgeIndexAgeIndex_</title>
<polygon fill="#dcccff" stroke="#dcccff" points="165,-268 135,-268 123,-256 123,-244 135,-232 165,-232 177,-244 177,-256 165,-268"/>
<path fill="#dcccff" stroke="#dcccff" d="M135,-268C129,-268 123,-262 123,-256"/>
<path fill="#dcccff" stroke="#dcccff" d="M123,-244C123,-238 129,-232 135,-232"/>
<path fill="#dcccff" stroke="#dcccff" d="M165,-232C171,-232 177,-238 177,-244"/>
<path fill="#dcccff" stroke="#dcccff" d="M177,-256C177,-262 171,-268 165,-268"/>
<polyline fill="none" stroke="#dcccff" points="165,-268 135,-268 "/>
<path fill="none" stroke="#dcccff" d="M135,-268C129,-268 123,-262 123,-256"/>
<polyline fill="none" stroke="#dcccff" points="123,-256 123,-244 "/>
<path fill="none" stroke="#dcccff" d="M123,-244C123,-238 129,-232 135,-232"/>
<polyline fill="none" stroke="#dcccff" points="135,-232 165,-232 "/>
<path fill="none" stroke="#dcccff" d="M165,-232C171,-232 177,-238 177,-244"/>
<polyline fill="none" stroke="#dcccff" points="177,-244 177,-256 "/>
<path fill="none" stroke="#dcccff" d="M177,-256C177,-262 171,-268 165,-268"/>
<text text-anchor="middle" x="150" y="-244.4" font-family="Helvetica,sans-Serif" font-size="14.00">Item?</text>
</g>
<!-- individualageIndex&#45;&gt;item_SmokingPrevelanceMalebyAgeIndexAgeIndex_ -->
<g id="edge52" class="edge"><title>individualageIndex&#45;&gt;item_SmokingPrevelanceMalebyAgeIndexAgeIndex_:ne</title>
<path fill="none" stroke="#5114cc" stroke-width="2" stroke-dasharray="1,5" d="M545.733,-465.591C544.139,-465.041 542.557,-464.508 541,-464 482.378,-444.861 460.983,-457.811 407,-428 335.969,-388.774 342.66,-345.612 273,-304 233.129,-280.183 206.188,-300.22 174.063,-273.545"/>
<ellipse fill="#5114cc" stroke="#5114cc" cx="170.952" cy="-270.7" rx="4.00002" ry="4.00002"/>
</g>
<!-- tBmodelhIVPrevalenceMalebyAgeIndex -->
<g id="node9" class="node"><title>tBmodelhIVPrevalenceMalebyAgeIndex</title>
<polygon fill="white" stroke="white" points="954.25,-268 721.75,-268 721.75,-232 954.25,-232 954.25,-268"/>
<text text-anchor="start" x="730" y="-244.5" font-family="Helvetica,sans-Serif" font-size="14.00">HIV Prevalence Male by Age Index</text>
</g>
<!-- tBmodelhIVPrevalenceMalebyAgeIndex&#45;&gt;item_HIVPrevalenceMalebyAgeIndexAgeIndex_ -->
<g id="edge36" class="edge"><title>tBmodelhIVPrevalenceMalebyAgeIndex&#45;&gt;item_HIVPrevalenceMalebyAgeIndexAgeIndex_:nw</title>
<path fill="none" stroke="#5114cc" stroke-width="2" stroke-dasharray="1,5" d="M737.351,-231.967C689.711,-223.041 639.829,-212.142 624.107,-203.226"/>
<ellipse fill="#5114cc" stroke="#5114cc" cx="621.977" cy="-199.478" rx="4.00002" ry="4.00002"/>
</g>
<!-- tBmodelhIVPrevalenceFemalebyAgeIndex -->
<g id="node10" class="node"><title>tBmodelhIVPrevalenceFemalebyAgeIndex</title>
<polygon fill="white" stroke="white" points="482.25,-268 233.75,-268 233.75,-232 482.25,-232 482.25,-268"/>
<text text-anchor="start" x="242" y="-244.5" font-family="Helvetica,sans-Serif" font-size="14.00">HIV Prevalence Female by Age Index</text>
</g>
<!-- tBmodelhIVPrevalenceFemalebyAgeIndex&#45;&gt;item_HIVPrevalenceFemalebyAgeIndexAgeIndex_ -->
<g id="edge40" class="edge"><title>tBmodelhIVPrevalenceFemalebyAgeIndex&#45;&gt;item_HIVPrevalenceFemalebyAgeIndexAgeIndex_:nw</title>
<path fill="none" stroke="#5114cc" stroke-width="2" stroke-dasharray="1,5" d="M448.768,-231.994C468.453,-225.067 488.089,-215.332 503.91,-201.657"/>
<ellipse fill="#5114cc" stroke="#5114cc" cx="507.069" cy="-198.722" rx="4.00002" ry="4.00002"/>
</g>
<!-- tBmodelsmokingPrevelanceMalebyAgeIndex -->
<g id="node11" class="node"><title>tBmodelsmokingPrevelanceMalebyAgeIndex</title>
<polygon fill="white" stroke="white" points="264,-340 0,-340 0,-304 264,-304 264,-340"/>
<text text-anchor="start" x="8.5" y="-316.5" font-family="Helvetica,sans-Serif" font-size="14.00">Smoking Prevelance Male by Age Index</text>
</g>
<!-- tBmodelsmokingPrevelanceMalebyAgeIndex&#45;&gt;item_SmokingPrevelanceMalebyAgeIndexAgeIndex_ -->
<g id="edge50" class="edge"><title>tBmodelsmokingPrevelanceMalebyAgeIndex&#45;&gt;item_SmokingPrevelanceMalebyAgeIndexAgeIndex_:nw</title>
<path fill="none" stroke="#5114cc" stroke-width="2" stroke-dasharray="1,5" d="M126.389,-303.826C124.323,-294.67 123.35,-283.513 127.367,-274.727"/>
<ellipse fill="#5114cc" stroke="#5114cc" cx="129.731" cy="-271.294" rx="4.00002" ry="4.00002"/>
</g>
<!-- hIVDraw -->
<g id="node15" class="node"><title>hIVDraw</title>
<polygon fill="#dcccff" stroke="#dcccff" points="555.279,-340 482.721,-340 470.721,-328 470.721,-316 482.721,-304 555.279,-304 567.279,-316 567.279,-328 555.279,-340"/>
<path fill="#dcccff" stroke="#dcccff" d="M482.721,-340C476.721,-340 470.721,-334 470.721,-328"/>
<path fill="#dcccff" stroke="#dcccff" d="M470.721,-316C470.721,-310 476.721,-304 482.721,-304"/>
<path fill="#dcccff" stroke="#dcccff" d="M555.279,-304C561.279,-304 567.279,-310 567.279,-316"/>
<path fill="#dcccff" stroke="#dcccff" d="M567.279,-328C567.279,-334 561.279,-340 555.279,-340"/>
<polyline fill="none" stroke="#dcccff" points="555.279,-340 482.721,-340 "/>
<path fill="none" stroke="#dcccff" d="M482.721,-340C476.721,-340 470.721,-334 470.721,-328"/>
<polyline fill="none" stroke="#dcccff" points="470.721,-328 470.721,-316 "/>
<path fill="none" stroke="#dcccff" d="M470.721,-316C470.721,-310 476.721,-304 482.721,-304"/>
<polyline fill="none" stroke="#dcccff" points="482.721,-304 555.279,-304 "/>
<path fill="none" stroke="#dcccff" d="M555.279,-304C561.279,-304 567.279,-310 567.279,-316"/>
<polyline fill="none" stroke="#dcccff" points="567.279,-316 567.279,-328 "/>
<path fill="none" stroke="#dcccff" d="M567.279,-328C567.279,-334 561.279,-340 555.279,-340"/>
<text text-anchor="middle" x="519" y="-316.4" font-family="Helvetica,sans-Serif" font-size="14.00">Random Unit</text>
</g>
<!-- watchAgeIndex&#45;&gt;hIVDraw -->
<g id="edge6" class="edge"><title>watchAgeIndex&#45;&gt;hIVDraw</title>
<path fill="none" stroke="#5114cc" stroke-width="3" d="M486.321,-383.689C490.399,-376.115 495.339,-366.942 500.13,-358.045"/>
<polygon fill="#5114cc" stroke="#5114cc" points="506.386,-361.19 509.705,-340.262 494.06,-354.553 506.386,-361.19"/>
</g>
<!-- watchAgeIndex&#45;&gt;genderIdenticalMaleQueryCopy -->
<g id="edge8" class="edge"><title>watchAgeIndex&#45;&gt;genderIdenticalMaleQueryCopy</title>
<path fill="none" stroke="#5114cc" stroke-width="3" d="M465.46,-383.689C460.208,-375.813 453.803,-366.205 447.653,-356.979"/>
<polygon fill="#5114cc" stroke="#5114cc" points="453.427,-353.02 436.508,-340.262 441.778,-360.786 453.427,-353.02"/>
</g>
<!-- hIVDraw&#45;&gt;genderIdenticalMale -->
<g id="edge20" class="edge"><title>hIVDraw&#45;&gt;genderIdenticalMale</title>
<path fill="none" stroke="#5114cc" stroke-width="3" d="M548.111,-303.876C561.71,-295.876 578.204,-286.174 593.333,-277.275"/>
<polygon fill="#5114cc" stroke="#5114cc" points="597.132,-283.161 610.821,-266.987 590.034,-271.094 597.132,-283.161"/>
</g>
<!-- hIVDrawLesserItem_HIVPrevalenceMalebyAgeIndexAgeIndex_Query -->
<g id="node25" class="node"><title>hIVDrawLesserItem_HIVPrevalenceMalebyAgeIndexAgeIndex_Query</title>
<polygon fill="#dcccff" stroke="#dcccff" points="630.357,-124 589.643,-124 577.643,-112 577.643,-100 589.643,-88 630.357,-88 642.357,-100 642.357,-112 630.357,-124"/>
<path fill="#dcccff" stroke="#dcccff" d="M589.643,-124C583.643,-124 577.643,-118 577.643,-112"/>
<path fill="#dcccff" stroke="#dcccff" d="M577.643,-100C577.643,-94 583.643,-88 589.643,-88"/>
<path fill="#dcccff" stroke="#dcccff" d="M630.357,-88C636.357,-88 642.357,-94 642.357,-100"/>
<path fill="#dcccff" stroke="#dcccff" d="M642.357,-112C642.357,-118 636.357,-124 630.357,-124"/>
<polyline fill="none" stroke="#dcccff" points="630.357,-124 589.643,-124 "/>
<path fill="none" stroke="#dcccff" d="M589.643,-124C583.643,-124 577.643,-118 577.643,-112"/>
<polyline fill="none" stroke="#dcccff" points="577.643,-112 577.643,-100 "/>
<path fill="none" stroke="#dcccff" d="M577.643,-100C577.643,-94 583.643,-88 589.643,-88"/>
<polyline fill="none" stroke="#dcccff" points="589.643,-88 630.357,-88 "/>
<path fill="none" stroke="#dcccff" d="M630.357,-88C636.357,-88 642.357,-94 642.357,-100"/>
<polyline fill="none" stroke="#dcccff" points="642.357,-100 642.357,-112 "/>
<path fill="none" stroke="#dcccff" d="M642.357,-112C642.357,-118 636.357,-124 630.357,-124"/>
<text text-anchor="middle" x="610" y="-100.4" font-family="Helvetica,sans-Serif" font-size="14.00">Lesser?</text>
</g>
<!-- hIVDraw&#45;&gt;hIVDrawLesserItem_HIVPrevalenceMalebyAgeIndexAgeIndex_Query -->
<g id="edge56" class="edge"><title>hIVDraw&#45;&gt;hIVDrawLesserItem_HIVPrevalenceMalebyAgeIndexAgeIndex_Query:nw</title>
<path fill="none" stroke="blue" stroke-width="2" stroke-dasharray="1,5" d="M537.838,-303.548C547.102,-293.932 557.621,-281.273 564,-268 591.028,-211.76 549.743,-173.502 586.556,-129.906"/>
<ellipse fill="blue" stroke="blue" cx="589.289" cy="-126.941" rx="4.00002" ry="4.00002"/>
</g>
<!-- hIVDrawLesserItem_HIVPrevalenceFemalebyAgeIndexAgeIndex_Query -->
<g id="node28" class="node"><title>hIVDrawLesserItem_HIVPrevalenceFemalebyAgeIndexAgeIndex_Query</title>
<polygon fill="#dcccff" stroke="#dcccff" points="538.357,-124 497.643,-124 485.643,-112 485.643,-100 497.643,-88 538.357,-88 550.357,-100 550.357,-112 538.357,-124"/>
<path fill="#dcccff" stroke="#dcccff" d="M497.643,-124C491.643,-124 485.643,-118 485.643,-112"/>
<path fill="#dcccff" stroke="#dcccff" d="M485.643,-100C485.643,-94 491.643,-88 497.643,-88"/>
<path fill="#dcccff" stroke="#dcccff" d="M538.357,-88C544.357,-88 550.357,-94 550.357,-100"/>
<path fill="#dcccff" stroke="#dcccff" d="M550.357,-112C550.357,-118 544.357,-124 538.357,-124"/>
<polyline fill="none" stroke="#dcccff" points="538.357,-124 497.643,-124 "/>
<path fill="none" stroke="#dcccff" d="M497.643,-124C491.643,-124 485.643,-118 485.643,-112"/>
<polyline fill="none" stroke="#dcccff" points="485.643,-112 485.643,-100 "/>
<path fill="none" stroke="#dcccff" d="M485.643,-100C485.643,-94 491.643,-88 497.643,-88"/>
<polyline fill="none" stroke="#dcccff" points="497.643,-88 538.357,-88 "/>
<path fill="none" stroke="#dcccff" d="M538.357,-88C544.357,-88 550.357,-94 550.357,-100"/>
<polyline fill="none" stroke="#dcccff" points="550.357,-100 550.357,-112 "/>
<path fill="none" stroke="#dcccff" d="M550.357,-112C550.357,-118 544.357,-124 538.357,-124"/>
<text text-anchor="middle" x="518" y="-100.4" font-family="Helvetica,sans-Serif" font-size="14.00">Lesser?</text>
</g>
<!-- hIVDraw&#45;&gt;hIVDrawLesserItem_HIVPrevalenceFemalebyAgeIndexAgeIndex_Query -->
<g id="edge60" class="edge"><title>hIVDraw&#45;&gt;hIVDrawLesserItem_HIVPrevalenceFemalebyAgeIndexAgeIndex_Query:nw</title>
<path fill="none" stroke="blue" stroke-width="2" stroke-dasharray="1,5" d="M470.705,-306.317C467.433,-305.486 464.176,-304.703 461,-304 408.989,-292.482 258.725,-308.398 224,-268 213.57,-255.866 214.98,-245.215 224,-232 296.662,-125.54 402.207,-213.2 493.976,-129.748"/>
<ellipse fill="blue" stroke="blue" cx="497.106" cy="-126.761" rx="4.00002" ry="4.00002"/>
</g>
<!-- hIVDraw&#45;&gt;genderIdenticalFemaleQueryCopy -->
<g id="edge18" class="edge"><title>hIVDraw&#45;&gt;genderIdenticalFemaleQueryCopy</title>
<path fill="none" stroke="#5114cc" stroke-width="3" d="M521.225,-303.697C521.835,-298.95 522.521,-293.613 523.216,-288.206"/>
<polygon fill="#5114cc" stroke="#5114cc" points="530.193,-288.834 525.801,-268.104 516.307,-287.048 530.193,-288.834"/>
</g>
<!-- genderIdenticalMaleQueryCopy&#45;&gt;item_SmokingPrevelanceMalebyAgeIndexAgeIndex_ -->
<g id="edge28" class="edge"><title>genderIdenticalMaleQueryCopy&#45;&gt;item_SmokingPrevelanceMalebyAgeIndexAgeIndex_</title>
<path fill="none" stroke="#5114cc" stroke-width="3" d="M397.658,-315.419C350.424,-305.687 254.022,-285.415 196.413,-268.889"/>
<polygon fill="#5114cc" stroke="#5114cc" points="198.279,-262.14 177.106,-262.997 194.192,-275.53 198.279,-262.14"/>
</g>
<!-- smokingDraw -->
<g id="node18" class="node"><title>smokingDraw</title>
<polygon fill="#dcccff" stroke="#dcccff" points="118.279,-196 45.7209,-196 33.7209,-184 33.7209,-172 45.7209,-160 118.279,-160 130.279,-172 130.279,-184 118.279,-196"/>
<path fill="#dcccff" stroke="#dcccff" d="M45.7209,-196C39.7209,-196 33.7209,-190 33.7209,-184"/>
<path fill="#dcccff" stroke="#dcccff" d="M33.7209,-172C33.7209,-166 39.7209,-160 45.7209,-160"/>
<path fill="#dcccff" stroke="#dcccff" d="M118.279,-160C124.279,-160 130.279,-166 130.279,-172"/>
<path fill="#dcccff" stroke="#dcccff" d="M130.279,-184C130.279,-190 124.279,-196 118.279,-196"/>
<polyline fill="none" stroke="#dcccff" points="118.279,-196 45.7209,-196 "/>
<path fill="none" stroke="#dcccff" d="M45.7209,-196C39.7209,-196 33.7209,-190 33.7209,-184"/>
<polyline fill="none" stroke="#dcccff" points="33.7209,-184 33.7209,-172 "/>
<path fill="none" stroke="#dcccff" d="M33.7209,-172C33.7209,-166 39.7209,-160 45.7209,-160"/>
<polyline fill="none" stroke="#dcccff" points="45.7209,-160 118.279,-160 "/>
<path fill="none" stroke="#dcccff" d="M118.279,-160C124.279,-160 130.279,-166 130.279,-172"/>
<polyline fill="none" stroke="#dcccff" points="130.279,-172 130.279,-184 "/>
<path fill="none" stroke="#dcccff" d="M130.279,-184C130.279,-190 124.279,-196 118.279,-196"/>
<text text-anchor="middle" x="82" y="-172.4" font-family="Helvetica,sans-Serif" font-size="14.00">Random Unit</text>
</g>
<!-- smokingDrawLesserItem_SmokingPrevelanceMalebyAgeIndexAgeIndex_Query -->
<g id="node20" class="node"><title>smokingDrawLesserItem_SmokingPrevelanceMalebyAgeIndexAgeIndex_Query</title>
<polygon fill="#dcccff" stroke="#dcccff" points="120.357,-124 79.6434,-124 67.6434,-112 67.6434,-100 79.6434,-88 120.357,-88 132.357,-100 132.357,-112 120.357,-124"/>
<path fill="#dcccff" stroke="#dcccff" d="M79.6434,-124C73.6434,-124 67.6434,-118 67.6434,-112"/>
<path fill="#dcccff" stroke="#dcccff" d="M67.6434,-100C67.6434,-94 73.6434,-88 79.6434,-88"/>
<path fill="#dcccff" stroke="#dcccff" d="M120.357,-88C126.357,-88 132.357,-94 132.357,-100"/>
<path fill="#dcccff" stroke="#dcccff" d="M132.357,-112C132.357,-118 126.357,-124 120.357,-124"/>
<polyline fill="none" stroke="#dcccff" points="120.357,-124 79.6434,-124 "/>
<path fill="none" stroke="#dcccff" d="M79.6434,-124C73.6434,-124 67.6434,-118 67.6434,-112"/>
<polyline fill="none" stroke="#dcccff" points="67.6434,-112 67.6434,-100 "/>
<path fill="none" stroke="#dcccff" d="M67.6434,-100C67.6434,-94 73.6434,-88 79.6434,-88"/>
<polyline fill="none" stroke="#dcccff" points="79.6434,-88 120.357,-88 "/>
<path fill="none" stroke="#dcccff" d="M120.357,-88C126.357,-88 132.357,-94 132.357,-100"/>
<polyline fill="none" stroke="#dcccff" points="132.357,-100 132.357,-112 "/>
<path fill="none" stroke="#dcccff" d="M132.357,-112C132.357,-118 126.357,-124 120.357,-124"/>
<text text-anchor="middle" x="100" y="-100.4" font-family="Helvetica,sans-Serif" font-size="14.00">Lesser?</text>
</g>
<!-- smokingDraw&#45;&gt;smokingDrawLesserItem_SmokingPrevelanceMalebyAgeIndexAgeIndex_Query -->
<g id="edge46" class="edge"><title>smokingDraw&#45;&gt;smokingDrawLesserItem_SmokingPrevelanceMalebyAgeIndexAgeIndex_Query:nw</title>
<path fill="none" stroke="blue" stroke-width="2" stroke-dasharray="1,5" d="M76.3892,-159.826C74.3235,-150.67 73.3504,-139.513 77.3669,-130.727"/>
<ellipse fill="blue" stroke="blue" cx="79.7311" cy="-127.294" rx="4.00002" ry="4.00002"/>
</g>
<!-- smokingDraw&#45;&gt;smokingDrawLesserItem_SmokingPrevelanceMalebyAgeIndexAgeIndex_Query -->
<g id="edge10" class="edge"><title>smokingDraw&#45;&gt;smokingDrawLesserItem_SmokingPrevelanceMalebyAgeIndexAgeIndex_Query</title>
<path fill="none" stroke="#5114cc" stroke-width="3" d="M86.4494,-159.697C87.7137,-154.78 89.1405,-149.231 90.5817,-143.627"/>
<polygon fill="#5114cc" stroke="#5114cc" points="97.4003,-145.218 95.6017,-124.104 83.8414,-141.731 97.4003,-145.218"/>
</g>
<!-- smokingDrawLesserItem_SmokingPrevelanceMalebyAgeIndexAgeIndex_Query&#45;&gt;individualsmokingRecord -->
<g id="edge24" class="edge"><title>smokingDrawLesserItem_SmokingPrevelanceMalebyAgeIndexAgeIndex_Query&#45;&gt;individualsmokingRecord:individualsmokingsmoker</title>
<path fill="none" stroke="#5114cc" stroke-width="3" d="M114.024,-87.8836C127.067,-71.2024 144.989,-46.0465 148.428,-29.8217"/>
<polygon fill="#5114cc" stroke="#5114cc" points="153.859,-25.4043 136,-14 142.849,-34.0522 153.859,-25.4043"/>
</g>
<!-- genderIdenticalMale&#45;&gt;item_HIVPrevalenceMalebyAgeIndexAgeIndex_ -->
<g id="edge12" class="edge"><title>genderIdenticalMale&#45;&gt;item_HIVPrevalenceMalebyAgeIndexAgeIndex_</title>
<path fill="none" stroke="#5114cc" stroke-width="3" d="M638,-231.697C638,-226.95 638,-221.613 638,-216.206"/>
<polygon fill="#5114cc" stroke="#5114cc" points="645,-216.104 638,-196.104 631,-216.104 645,-216.104"/>
</g>
<!-- item_HIVPrevalenceMalebyAgeIndexAgeIndex_&#45;&gt;hIVDrawLesserItem_HIVPrevalenceMalebyAgeIndexAgeIndex_Query -->
<g id="edge58" class="edge"><title>item_HIVPrevalenceMalebyAgeIndexAgeIndex_&#45;&gt;hIVDrawLesserItem_HIVPrevalenceMalebyAgeIndexAgeIndex_Query:ne</title>
<path fill="none" stroke="blue" stroke-width="2" stroke-dasharray="1,5" d="M639.411,-159.925C639.395,-150.714 638.071,-139.443 632.959,-130.544"/>
<ellipse fill="blue" stroke="blue" cx="630.416" cy="-127.188" rx="4.00002" ry="4.00002"/>
</g>
<!-- item_HIVPrevalenceMalebyAgeIndexAgeIndex_&#45;&gt;hIVDrawLesserItem_HIVPrevalenceMalebyAgeIndexAgeIndex_Query -->
<g id="edge14" class="edge"><title>item_HIVPrevalenceMalebyAgeIndexAgeIndex_&#45;&gt;hIVDrawLesserItem_HIVPrevalenceMalebyAgeIndexAgeIndex_Query</title>
<path fill="none" stroke="#5114cc" stroke-width="3" d="M631.079,-159.697C629.01,-154.526 626.662,-148.656 624.303,-142.757"/>
<polygon fill="#5114cc" stroke="#5114cc" points="630.769,-140.074 616.842,-124.104 617.77,-145.274 630.769,-140.074"/>
</g>
<!-- hIVDrawLesserItem_HIVPrevalenceMalebyAgeIndexAgeIndex_Query&#45;&gt;individualhIVStatusRecord -->
<g id="edge30" class="edge"><title>hIVDrawLesserItem_HIVPrevalenceMalebyAgeIndexAgeIndex_Query&#45;&gt;individualhIVStatusRecord:individualhIVStatushIVPositive</title>
<path fill="none" stroke="#5114cc" stroke-width="3" d="M616.744,-87.8836C623.29,-69.6578 631.532,-41.3154 626.336,-25.5584"/>
<polygon fill="#5114cc" stroke="#5114cc" points="630.37,-19.8377 610,-14 622.283,-31.2663 630.37,-19.8377"/>
</g>
<!-- item_HIVPrevalenceFemalebyAgeIndexAgeIndex_&#45;&gt;hIVDrawLesserItem_HIVPrevalenceFemalebyAgeIndexAgeIndex_Query -->
<g id="edge62" class="edge"><title>item_HIVPrevalenceFemalebyAgeIndexAgeIndex_&#45;&gt;hIVDrawLesserItem_HIVPrevalenceFemalebyAgeIndexAgeIndex_Query:ne</title>
<path fill="none" stroke="blue" stroke-width="2" stroke-dasharray="1,5" d="M537.113,-159.89C540.897,-150.757 543.712,-139.611 540.369,-130.78"/>
<ellipse fill="blue" stroke="blue" cx="538.167" cy="-127.362" rx="4.00002" ry="4.00002"/>
</g>
<!-- item_HIVPrevalenceFemalebyAgeIndexAgeIndex_&#45;&gt;hIVDrawLesserItem_HIVPrevalenceFemalebyAgeIndexAgeIndex_Query -->
<g id="edge16" class="edge"><title>item_HIVPrevalenceFemalebyAgeIndexAgeIndex_&#45;&gt;hIVDrawLesserItem_HIVPrevalenceFemalebyAgeIndexAgeIndex_Query</title>
<path fill="none" stroke="#5114cc" stroke-width="3" d="M525.528,-159.697C524.838,-154.865 524.06,-149.422 523.274,-143.917"/>
<polygon fill="#5114cc" stroke="#5114cc" points="530.202,-142.913 520.443,-124.104 516.342,-144.893 530.202,-142.913"/>
</g>
<!-- hIVDrawLesserItem_HIVPrevalenceFemalebyAgeIndexAgeIndex_Query&#45;&gt;individualhIVStatusRecord -->
<g id="edge32" class="edge"><title>hIVDrawLesserItem_HIVPrevalenceFemalebyAgeIndexAgeIndex_Query&#45;&gt;individualhIVStatusRecord:individualhIVStatushIVPositive</title>
<path fill="none" stroke="#5114cc" stroke-width="3" d="M510.878,-87.8836C503.969,-69.7608 495.163,-41.6353 499.834,-25.8267"/>
<polygon fill="#5114cc" stroke="#5114cc" points="503.991,-31.4583 516,-14 495.725,-20.1591 503.991,-31.4583"/>
</g>
<!-- genderIdenticalFemaleQueryCopy&#45;&gt;item_HIVPrevalenceFemalebyAgeIndexAgeIndex_ -->
<g id="edge22" class="edge"><title>genderIdenticalFemaleQueryCopy&#45;&gt;item_HIVPrevalenceFemalebyAgeIndexAgeIndex_</title>
<path fill="none" stroke="#5114cc" stroke-width="3" d="M528,-231.697C528,-226.95 528,-221.613 528,-216.206"/>
<polygon fill="#5114cc" stroke="#5114cc" points="535,-216.104 528,-196.104 521,-216.104 535,-216.104"/>
</g>
<!-- item_SmokingPrevelanceMalebyAgeIndexAgeIndex_&#45;&gt;smokingDraw -->
<g id="edge26" class="edge"><title>item_SmokingPrevelanceMalebyAgeIndexAgeIndex_&#45;&gt;smokingDraw</title>
<path fill="none" stroke="#5114cc" stroke-width="3" d="M133.191,-231.697C127.015,-225.339 119.812,-217.924 112.793,-210.699"/>
<polygon fill="#5114cc" stroke="#5114cc" points="117.572,-205.572 98.6156,-196.104 107.53,-215.327 117.572,-205.572"/>
</g>
<!-- item_SmokingPrevelanceMalebyAgeIndexAgeIndex_&#45;&gt;smokingDrawLesserItem_SmokingPrevelanceMalebyAgeIndexAgeIndex_Query -->
<g id="edge48" class="edge"><title>item_SmokingPrevelanceMalebyAgeIndexAgeIndex_&#45;&gt;smokingDrawLesserItem_SmokingPrevelanceMalebyAgeIndexAgeIndex_Query:ne</title>
<path fill="none" stroke="blue" stroke-width="2" stroke-dasharray="1,5" d="M150.746,-231.815C150.914,-206.752 147.63,-159.918 123.477,-130.092"/>
<ellipse fill="blue" stroke="blue" cx="120.674" cy="-126.975" rx="4.00002" ry="4.00002"/>
</g>
</g>
</svg>
