<?xml version="1.0" encoding="UTF-8" standalone="no"?>
<!DOCTYPE svg PUBLIC "-//W3C//DTD SVG 1.1//EN"
 "http://www.w3.org/Graphics/SVG/1.1/DTD/svg11.dtd">
<!-- Generated by graphviz version 2.29.20110702.0445 (20110702.0445)
 -->
<!-- Title: acquire Pages: 1 -->
<svg width="535pt" height="289pt"
 viewBox="0.00 0.00 535.00 289.00" xmlns="http://www.w3.org/2000/svg" xmlns:xlink="http://www.w3.org/1999/xlink">
<g id="graph1" class="graph" transform="scale(1 1) rotate(0) translate(4 285)">
<title>acquire</title>
<polygon fill="white" stroke="white" points="-4,5 -4,-285 532,-285 532,5 -4,5"/>
<g id="graph2" class="cluster"><title>clustercontextKey</title>
<polygon fill="ghostwhite" stroke="white" points="8,-219 8,-273 96,-273 96,-219 8,-219"/>
<text text-anchor="middle" x="52.1792" y="-255" font-family="Helvetica,sans-Serif" font-size="14.00">Parameters</text>
</g>
<g id="graph3" class="cluster"><title>clusterindividualKey</title>
<polygon fill="ghostwhite" stroke="white" points="104,-219 104,-273 179,-273 179,-219 104,-219"/>
<text text-anchor="middle" x="141.576" y="-255" font-family="Helvetica,sans-Serif" font-size="14.00">Individual</text>
</g>
<g id="graph4" class="cluster"><title>clustermapLocationKey</title>
<polygon fill="ghostwhite" stroke="white" points="187,-219 187,-273 287,-273 287,-219 187,-219"/>
<text text-anchor="middle" x="237.027" y="-255" font-family="Helvetica,sans-Serif" font-size="14.00">Map Location</text>
</g>
<!-- contextOverview -->
<g id="node2" class="node"><title>contextOverview</title>
<ellipse fill="black" stroke="black" cx="52" cy="-234" rx="7.2" ry="7.2"/>
</g>
<!-- acquireOverview -->
<g id="node4" class="node"><title>acquireOverview</title>
<a xlink:href="individual__Overview.svg">
<ellipse fill="#cc1414" stroke="#cc1414" cx="141" cy="-234" rx="7.2" ry="7.2"/>
</a>
</g>
<!-- potentialDiseaseLocationOverview -->
<g id="node6" class="node"><title>potentialDiseaseLocationOverview</title>
<a xlink:href="mapLocation__Overview.svg">
<ellipse fill="#cc6514" stroke="#cc6514" cx="236" cy="-234" rx="7.2" ry="7.2"/>
</a>
</g>
<!-- individualbacterialLoad -->
<g id="node7" class="node"><title>individualbacterialLoad</title>
<polygon fill="white" stroke="white" points="281.13,-108 176.87,-108 176.87,-72 281.13,-72 281.13,-108"/>
<text text-anchor="middle" x="229" y="-84.4" font-family="Helvetica,sans-Serif" font-size="14.00">Bacterial Load</text>
</g>
<!-- bacterialLoadAddTBBacterialPresense -->
<g id="node12" class="node"><title>bacterialLoadAddTBBacterialPresense</title>
<polygon fill="#ffcccc" stroke="#ffcccc" points="302,-36 272,-36 260,-24 260,-12 272,-0 302,-0 314,-12 314,-24 302,-36"/>
<path fill="#ffcccc" stroke="#ffcccc" d="M272,-36C266,-36 260,-30 260,-24"/>
<path fill="#ffcccc" stroke="#ffcccc" d="M260,-12C260,-6 266,-0 272,-0"/>
<path fill="#ffcccc" stroke="#ffcccc" d="M302,-0C308,-0 314,-6 314,-12"/>
<path fill="#ffcccc" stroke="#ffcccc" d="M314,-24C314,-30 308,-36 302,-36"/>
<polyline fill="none" stroke="#ffcccc" points="302,-36 272,-36 "/>
<path fill="none" stroke="#ffcccc" d="M272,-36C266,-36 260,-30 260,-24"/>
<polyline fill="none" stroke="#ffcccc" points="260,-24 260,-12 "/>
<path fill="none" stroke="#ffcccc" d="M260,-12C260,-6 266,-0 272,-0"/>
<polyline fill="none" stroke="#ffcccc" points="272,-0 302,-0 "/>
<path fill="none" stroke="#ffcccc" d="M302,-0C308,-0 314,-6 314,-12"/>
<polyline fill="none" stroke="#ffcccc" points="314,-12 314,-24 "/>
<path fill="none" stroke="#ffcccc" d="M314,-24C314,-30 308,-36 302,-36"/>
<text text-anchor="middle" x="287" y="-12.4" font-family="Helvetica,sans-Serif" font-size="14.00">Add</text>
</g>
<!-- individualbacterialLoad&#45;&gt;bacterialLoadAddTBBacterialPresense -->
<g id="edge13" class="edge"><title>individualbacterialLoad&#45;&gt;bacterialLoadAddTBBacterialPresense:nw</title>
<path fill="none" stroke="#cc1414" stroke-width="2" stroke-dasharray="1,5" d="M240.153,-71.8041C246.345,-62.8008 254.574,-51.6459 263.423,-41.874"/>
<ellipse fill="#cc1414" stroke="#cc1414" cx="266.246" cy="-38.9008" rx="4.00002" ry="4.00002"/>
</g>
<!-- mapLocationtBBacterialPresense -->
<g id="node8" class="node"><title>mapLocationtBBacterialPresense</title>
<polygon fill="white" stroke="white" points="527.461,-108 372.539,-108 372.539,-72 527.461,-72 527.461,-108"/>
<text text-anchor="middle" x="450" y="-84.4" font-family="Helvetica,sans-Serif" font-size="14.00">TB Bacterial Presense</text>
</g>
<!-- mapLocationtBBacterialPresense&#45;&gt;bacterialLoadAddTBBacterialPresense -->
<g id="edge15" class="edge"><title>mapLocationtBBacterialPresense&#45;&gt;bacterialLoadAddTBBacterialPresense:ne</title>
<path fill="none" stroke="#cc6514" stroke-width="2" stroke-dasharray="1,5" d="M372.576,-74.2138C351.038,-67.184 328.769,-56.8714 311.236,-41.7793"/>
<ellipse fill="#cc6514" stroke="#cc6514" cx="307.934" cy="-38.7191" rx="4.00002" ry="4.00002"/>
</g>
<!-- acquire -->
<g id="node9" class="node"><title>acquire</title>
<a xlink:href="individual_acquire.svg" xlink:title="Acquire">
<polygon fill="#ffcccc" stroke="#ffcccc" points="346.601,-252 307.399,-252 295.399,-240 295.399,-228 307.399,-216 346.601,-216 358.601,-228 358.601,-240 346.601,-252"/>
<path fill="#ffcccc" stroke="#ffcccc" d="M307.399,-252C301.399,-252 295.399,-246 295.399,-240"/>
<path fill="#ffcccc" stroke="#ffcccc" d="M295.399,-228C295.399,-222 301.399,-216 307.399,-216"/>
<path fill="#ffcccc" stroke="#ffcccc" d="M346.601,-216C352.601,-216 358.601,-222 358.601,-228"/>
<path fill="#ffcccc" stroke="#ffcccc" d="M358.601,-240C358.601,-246 352.601,-252 346.601,-252"/>
<polyline fill="none" stroke="black" points="346.601,-252 307.399,-252 "/>
<path fill="none" stroke="black" d="M307.399,-252C301.399,-252 295.399,-246 295.399,-240"/>
<polyline fill="none" stroke="black" points="295.399,-240 295.399,-228 "/>
<path fill="none" stroke="black" d="M295.399,-228C295.399,-222 301.399,-216 307.399,-216"/>
<polyline fill="none" stroke="black" points="307.399,-216 346.601,-216 "/>
<path fill="none" stroke="black" d="M346.601,-216C352.601,-216 358.601,-222 358.601,-228"/>
<polyline fill="none" stroke="black" points="358.601,-228 358.601,-240 "/>
<path fill="none" stroke="black" d="M358.601,-240C358.601,-246 352.601,-252 346.601,-252"/>
<text text-anchor="middle" x="327" y="-228.4" font-family="Helvetica,sans-Serif" font-size="14.00">Acquire</text>
</a>
</g>
<!-- potentialDiseaseLocation -->
<g id="node11" class="node"><title>potentialDiseaseLocation</title>
<polygon fill="#ffe2cc" stroke="#ffe2cc" points="405.329,-180 248.671,-180 236.671,-168 236.671,-156 248.671,-144 405.329,-144 417.329,-156 417.329,-168 405.329,-180"/>
<path fill="#ffe2cc" stroke="#ffe2cc" d="M248.671,-180C242.671,-180 236.671,-174 236.671,-168"/>
<path fill="#ffe2cc" stroke="#ffe2cc" d="M236.671,-156C236.671,-150 242.671,-144 248.671,-144"/>
<path fill="#ffe2cc" stroke="#ffe2cc" d="M405.329,-144C411.329,-144 417.329,-150 417.329,-156"/>
<path fill="#ffe2cc" stroke="#ffe2cc" d="M417.329,-168C417.329,-174 411.329,-180 405.329,-180"/>
<polyline fill="none" stroke="gray" points="405.329,-180 248.671,-180 "/>
<path fill="none" stroke="gray" d="M248.671,-180C242.671,-180 236.671,-174 236.671,-168"/>
<polyline fill="none" stroke="gray" points="236.671,-168 236.671,-156 "/>
<path fill="none" stroke="gray" d="M236.671,-156C236.671,-150 242.671,-144 248.671,-144"/>
<polyline fill="none" stroke="gray" points="248.671,-144 405.329,-144 "/>
<path fill="none" stroke="gray" d="M405.329,-144C411.329,-144 417.329,-150 417.329,-156"/>
<polyline fill="none" stroke="gray" points="417.329,-156 417.329,-168 "/>
<path fill="none" stroke="gray" d="M417.329,-168C417.329,-174 411.329,-180 405.329,-180"/>
<text text-anchor="middle" x="327" y="-156.4" font-family="Helvetica,sans-Serif" font-size="14.00">Potential Disease Location</text>
</g>
<!-- acquire&#45;&gt;potentialDiseaseLocation -->
<g id="edge5" class="edge"><title>acquire&#45;&gt;potentialDiseaseLocation</title>
<path fill="none" stroke="#cc1414" stroke-width="3" d="M327,-215.697C327,-210.95 327,-205.613 327,-200.206"/>
<polygon fill="#cc1414" stroke="#cc1414" points="334,-200.104 327,-180.104 320,-200.104 334,-200.104"/>
</g>
<!-- hereQueryCopy -->
<g id="node14" class="node"><title>hereQueryCopy</title>
<polygon fill="#ffe2cc" stroke="#ffe2cc" points="342,-108 312,-108 300,-96 300,-84 312,-72 342,-72 354,-84 354,-96 342,-108"/>
<path fill="#ffe2cc" stroke="#ffe2cc" d="M312,-108C306,-108 300,-102 300,-96"/>
<path fill="#ffe2cc" stroke="#ffe2cc" d="M300,-84C300,-78 306,-72 312,-72"/>
<path fill="#ffe2cc" stroke="#ffe2cc" d="M342,-72C348,-72 354,-78 354,-84"/>
<path fill="#ffe2cc" stroke="#ffe2cc" d="M354,-96C354,-102 348,-108 342,-108"/>
<polyline fill="none" stroke="#ffe2cc" points="342,-108 312,-108 "/>
<path fill="none" stroke="#ffe2cc" d="M312,-108C306,-108 300,-102 300,-96"/>
<polyline fill="none" stroke="#ffe2cc" points="300,-96 300,-84 "/>
<path fill="none" stroke="#ffe2cc" d="M300,-84C300,-78 306,-72 312,-72"/>
<polyline fill="none" stroke="#ffe2cc" points="312,-72 342,-72 "/>
<path fill="none" stroke="#ffe2cc" d="M342,-72C348,-72 354,-78 354,-84"/>
<polyline fill="none" stroke="#ffe2cc" points="354,-84 354,-96 "/>
<path fill="none" stroke="#ffe2cc" d="M354,-96C354,-102 348,-108 342,-108"/>
<text text-anchor="middle" x="327" y="-84.4" font-family="Helvetica,sans-Serif" font-size="14.00">Here</text>
</g>
<!-- potentialDiseaseLocation&#45;&gt;hereQueryCopy -->
<g id="edge11" class="edge"><title>potentialDiseaseLocation&#45;&gt;hereQueryCopy</title>
<path fill="none" stroke="#cc6514" stroke-width="3" d="M327,-143.697C327,-138.95 327,-133.613 327,-128.206"/>
<polygon fill="#cc6514" stroke="#cc6514" points="334,-128.104 327,-108.104 320,-128.104 334,-128.104"/>
</g>
<!-- bacterialLoadAddTBBacterialPresense&#45;&gt;individualbacterialLoad -->
<g id="edge7" class="edge"><title>bacterialLoadAddTBBacterialPresense&#45;&gt;individualbacterialLoad</title>
<path fill="none" stroke="#cc1414" stroke-width="3" d="M272.828,-36.1043C267.788,-42.1863 261.932,-49.2546 256.172,-56.2063"/>
<polygon fill="#cc1414" stroke="#cc1414" points="250.707,-51.83 243.337,-71.6966 261.488,-60.7623 250.707,-51.83"/>
</g>
<!-- hereQueryCopy&#45;&gt;bacterialLoadAddTBBacterialPresense -->
<g id="edge9" class="edge"><title>hereQueryCopy&#45;&gt;bacterialLoadAddTBBacterialPresense</title>
<path fill="none" stroke="#cc6514" stroke-width="3" d="M317.112,-71.6966C313.964,-66.1867 310.362,-59.8827 306.769,-53.5961"/>
<polygon fill="#cc6514" stroke="#cc6514" points="312.774,-49.9962 296.774,-36.1043 300.619,-56.9422 312.774,-49.9962"/>
</g>
</g>
</svg>
