<?xml version="1.0" encoding="UTF-8" standalone="no"?>
<!DOCTYPE svg PUBLIC "-//W3C//DTD SVG 1.1//EN"
 "http://www.w3.org/Graphics/SVG/1.1/DTD/svg11.dtd">
<!-- Generated by graphviz version 2.29.20110702.0445 (20110702.0445)
 -->
<!-- Title: transmission Pages: 1 -->
<svg width="564pt" height="521pt"
 viewBox="0.00 0.00 564.00 521.00" xmlns="http://www.w3.org/2000/svg" xmlns:xlink="http://www.w3.org/1999/xlink">
<g id="graph1" class="graph" transform="scale(1 1) rotate(0) translate(4 517)">
<title>transmission</title>
<polygon fill="white" stroke="white" points="-4,5 -4,-517 561,-517 561,5 -4,5"/>
<g id="graph2" class="cluster"><title>clustercontextKey</title>
<polygon fill="ghostwhite" stroke="white" points="8,-451 8,-505 96,-505 96,-451 8,-451"/>
<text text-anchor="middle" x="52.1792" y="-487" font-family="Helvetica,sans-Serif" font-size="14.00">Parameters</text>
</g>
<g id="graph3" class="cluster"><title>clusterindividualKey</title>
<polygon fill="ghostwhite" stroke="white" points="104,-371 104,-505 179,-505 179,-371 104,-371"/>
<text text-anchor="middle" x="141.576" y="-487" font-family="Helvetica,sans-Serif" font-size="14.00">Individual</text>
</g>
<!-- contextOverview -->
<g id="node2" class="node"><title>contextOverview</title>
<ellipse fill="black" stroke="black" cx="52" cy="-466" rx="7.2" ry="7.2"/>
</g>
<!-- transmissionOverview -->
<g id="node4" class="node"><title>transmissionOverview</title>
<a xlink:href="individual__Overview.svg">
<ellipse fill="#1415cc" stroke="#1415cc" cx="140" cy="-466" rx="7.2" ry="7.2"/>
</a>
</g>
<!-- individualCopyOverview -->
<g id="node5" class="node"><title>individualCopyOverview</title>
<a xlink:href="individual__Overview.svg">
<ellipse fill="#6514cc" stroke="#6514cc" cx="140" cy="-386" rx="7.2" ry="7.2"/>
</a>
</g>
<!-- transmissionOverview&#45;&gt;individualCopyOverview -->
<!-- individualtBStatusRecord -->
<g id="node7" class="node"><title>individualtBStatusRecord</title>
<polygon fill="white" stroke="none" points="281.266,-361.2 281.266,-410.8 358.734,-410.8 358.734,-361.2 281.266,-361.2"/>
<text text-anchor="middle" x="320" y="-392.8" font-family="Helvetica,sans-Serif" font-size="14.00">TB Status</text>
<polyline fill="none" stroke="none" points="281.266,-386 358.734,-386 "/>
<text text-anchor="middle" x="319.828" y="-368" font-family="Helvetica,sans-Serif" font-size="14.00">Active</text>
</g>
<!-- tBStatusIdenticalActiveQuery -->
<g id="node13" class="node"><title>tBStatusIdenticalActiveQuery</title>
<polygon fill="#ccccff" stroke="#ccccff" points="284,-324 254,-324 242,-312 242,-300 254,-288 284,-288 296,-300 296,-312 284,-324"/>
<path fill="#ccccff" stroke="#ccccff" d="M254,-324C248,-324 242,-318 242,-312"/>
<path fill="#ccccff" stroke="#ccccff" d="M242,-300C242,-294 248,-288 254,-288"/>
<path fill="#ccccff" stroke="#ccccff" d="M284,-288C290,-288 296,-294 296,-300"/>
<path fill="#ccccff" stroke="#ccccff" d="M296,-312C296,-318 290,-324 284,-324"/>
<polyline fill="none" stroke="#ccccff" points="284,-324 254,-324 "/>
<path fill="none" stroke="#ccccff" d="M254,-324C248,-324 242,-318 242,-312"/>
<polyline fill="none" stroke="#ccccff" points="242,-312 242,-300 "/>
<path fill="none" stroke="#ccccff" d="M242,-300C242,-294 248,-288 254,-288"/>
<polyline fill="none" stroke="#ccccff" points="254,-288 284,-288 "/>
<path fill="none" stroke="#ccccff" d="M284,-288C290,-288 296,-294 296,-300"/>
<polyline fill="none" stroke="#ccccff" points="296,-300 296,-312 "/>
<path fill="none" stroke="#ccccff" d="M296,-312C296,-318 290,-324 284,-324"/>
<text text-anchor="middle" x="269" y="-300.4" font-family="Helvetica,sans-Serif" font-size="14.00">Is?</text>
</g>
<!-- individualtBStatusRecord&#45;&gt;tBStatusIdenticalActiveQuery -->
<g id="edge20" class="edge"><title>individualtBStatusRecord:individualtBStatusactive&#45;&gt;tBStatusIdenticalActiveQuery:ne</title>
<path fill="none" stroke="#1415cc" stroke-width="2" stroke-dasharray="1,5" d="M280,-374C260.717,-374 291.464,-348.792 290.423,-331.632"/>
<ellipse fill="#1415cc" stroke="#1415cc" cx="288.637" cy="-327.65" rx="4.00002" ry="4.00002"/>
</g>
<!-- individualbacterialLoad -->
<g id="node8" class="node"><title>individualbacterialLoad</title>
<polygon fill="white" stroke="white" points="397.13,-36 292.87,-36 292.87,-0 397.13,-0 397.13,-36"/>
<text text-anchor="middle" x="345" y="-12.4" font-family="Helvetica,sans-Serif" font-size="14.00">Bacterial Load</text>
</g>
<!-- transmission -->
<g id="node9" class="node"><title>transmission</title>
<a xlink:href="individual_transmission.svg" xlink:title="Transmission">
<polygon fill="#ccccff" stroke="#ccccff" points="273.047,-484 198.953,-484 186.953,-472 186.953,-460 198.953,-448 273.047,-448 285.047,-460 285.047,-472 273.047,-484"/>
<path fill="#ccccff" stroke="#ccccff" d="M198.953,-484C192.953,-484 186.953,-478 186.953,-472"/>
<path fill="#ccccff" stroke="#ccccff" d="M186.953,-460C186.953,-454 192.953,-448 198.953,-448"/>
<path fill="#ccccff" stroke="#ccccff" d="M273.047,-448C279.047,-448 285.047,-454 285.047,-460"/>
<path fill="#ccccff" stroke="#ccccff" d="M285.047,-472C285.047,-478 279.047,-484 273.047,-484"/>
<polyline fill="none" stroke="black" points="273.047,-484 198.953,-484 "/>
<path fill="none" stroke="black" d="M198.953,-484C192.953,-484 186.953,-478 186.953,-472"/>
<polyline fill="none" stroke="black" points="186.953,-472 186.953,-460 "/>
<path fill="none" stroke="black" d="M186.953,-460C186.953,-454 192.953,-448 198.953,-448"/>
<polyline fill="none" stroke="black" points="198.953,-448 273.047,-448 "/>
<path fill="none" stroke="black" d="M273.047,-448C279.047,-448 285.047,-454 285.047,-460"/>
<polyline fill="none" stroke="black" points="285.047,-460 285.047,-472 "/>
<path fill="none" stroke="black" d="M285.047,-472C285.047,-478 279.047,-484 273.047,-484"/>
<text text-anchor="middle" x="236" y="-460.4" font-family="Helvetica,sans-Serif" font-size="14.00">Transmission</text>
</a>
</g>
<!-- query -->
<g id="node11" class="node"><title>query</title>
<polygon fill="#ccccff" stroke="#ccccff" points="251,-404 221,-404 209,-392 209,-380 221,-368 251,-368 263,-380 263,-392 251,-404"/>
<path fill="#ccccff" stroke="#ccccff" d="M221,-404C215,-404 209,-398 209,-392"/>
<path fill="#ccccff" stroke="#ccccff" d="M209,-380C209,-374 215,-368 221,-368"/>
<path fill="#ccccff" stroke="#ccccff" d="M251,-368C257,-368 263,-374 263,-380"/>
<path fill="#ccccff" stroke="#ccccff" d="M263,-392C263,-398 257,-404 251,-404"/>
<polyline fill="none" stroke="#ccccff" points="251,-404 221,-404 "/>
<path fill="none" stroke="#ccccff" d="M221,-404C215,-404 209,-398 209,-392"/>
<polyline fill="none" stroke="#ccccff" points="209,-392 209,-380 "/>
<path fill="none" stroke="#ccccff" d="M209,-380C209,-374 215,-368 221,-368"/>
<polyline fill="none" stroke="#ccccff" points="221,-368 251,-368 "/>
<path fill="none" stroke="#ccccff" d="M251,-368C257,-368 263,-374 263,-380"/>
<polyline fill="none" stroke="#ccccff" points="263,-380 263,-392 "/>
<path fill="none" stroke="#ccccff" d="M263,-392C263,-398 257,-404 251,-404"/>
<text text-anchor="middle" x="236" y="-380.4" font-family="Helvetica,sans-Serif" font-size="14.00">False</text>
</g>
<!-- transmission&#45;&gt;query -->
<g id="edge6" class="edge"><title>transmission&#45;&gt;query</title>
<path fill="none" stroke="#1415cc" stroke-width="3" d="M236,-447.689C236,-440.822 236,-432.64 236,-424.542"/>
<polygon fill="#1415cc" stroke="#1415cc" points="243,-424.262 236,-404.262 229,-424.262 243,-424.262"/>
</g>
<!-- query&#45;&gt;tBStatusIdenticalActiveQuery -->
<g id="edge8" class="edge"><title>query&#45;&gt;tBStatusIdenticalActiveQuery</title>
<path fill="none" stroke="#1415cc" stroke-width="3" d="M243.324,-367.689C246.443,-360.317 250.203,-351.43 253.872,-342.757"/>
<polygon fill="#1415cc" stroke="#1415cc" points="260.351,-345.409 261.697,-324.262 247.457,-339.954 260.351,-345.409"/>
</g>
<!-- individualCopy -->
<g id="node19" class="node"><title>individualCopy</title>
<polygon fill="#e2ccff" stroke="#e2ccff" points="312.294,-252 225.706,-252 213.706,-240 213.706,-228 225.706,-216 312.294,-216 324.294,-228 324.294,-240 312.294,-252"/>
<path fill="#e2ccff" stroke="#e2ccff" d="M225.706,-252C219.706,-252 213.706,-246 213.706,-240"/>
<path fill="#e2ccff" stroke="#e2ccff" d="M213.706,-228C213.706,-222 219.706,-216 225.706,-216"/>
<path fill="#e2ccff" stroke="#e2ccff" d="M312.294,-216C318.294,-216 324.294,-222 324.294,-228"/>
<path fill="#e2ccff" stroke="#e2ccff" d="M324.294,-240C324.294,-246 318.294,-252 312.294,-252"/>
<polyline fill="none" stroke="gray" points="312.294,-252 225.706,-252 "/>
<path fill="none" stroke="gray" d="M225.706,-252C219.706,-252 213.706,-246 213.706,-240"/>
<polyline fill="none" stroke="gray" points="213.706,-240 213.706,-228 "/>
<path fill="none" stroke="gray" d="M213.706,-228C213.706,-222 219.706,-216 225.706,-216"/>
<polyline fill="none" stroke="gray" points="225.706,-216 312.294,-216 "/>
<path fill="none" stroke="gray" d="M312.294,-216C318.294,-216 324.294,-222 324.294,-228"/>
<polyline fill="none" stroke="gray" points="324.294,-228 324.294,-240 "/>
<path fill="none" stroke="gray" d="M324.294,-240C324.294,-246 318.294,-252 312.294,-252"/>
<text text-anchor="middle" x="269" y="-228.4" font-family="Helvetica,sans-Serif" font-size="14.00">Individual Copy</text>
</g>
<!-- tBStatusIdenticalActiveQuery&#45;&gt;individualCopy -->
<g id="edge14" class="edge"><title>tBStatusIdenticalActiveQuery&#45;&gt;individualCopy</title>
<path fill="none" stroke="#1415cc" stroke-width="3" d="M269,-287.697C269,-282.95 269,-277.613 269,-272.206"/>
<polygon fill="#1415cc" stroke="#1415cc" points="276,-272.104 269,-252.104 262,-272.104 276,-272.104"/>
</g>
<!-- neighborQuery -->
<g id="node14" class="node"><title>neighborQuery</title>
<polygon fill="#ccccff" stroke="#ccccff" points="293.111,-180 244.889,-180 232.889,-168 232.889,-156 244.889,-144 293.111,-144 305.111,-156 305.111,-168 293.111,-180"/>
<path fill="#ccccff" stroke="#ccccff" d="M244.889,-180C238.889,-180 232.889,-174 232.889,-168"/>
<path fill="#ccccff" stroke="#ccccff" d="M232.889,-156C232.889,-150 238.889,-144 244.889,-144"/>
<path fill="#ccccff" stroke="#ccccff" d="M293.111,-144C299.111,-144 305.111,-150 305.111,-156"/>
<path fill="#ccccff" stroke="#ccccff" d="M305.111,-168C305.111,-174 299.111,-180 293.111,-180"/>
<polyline fill="none" stroke="#ccccff" points="293.111,-180 244.889,-180 "/>
<path fill="none" stroke="#ccccff" d="M244.889,-180C238.889,-180 232.889,-174 232.889,-168"/>
<polyline fill="none" stroke="#ccccff" points="232.889,-168 232.889,-156 "/>
<path fill="none" stroke="#ccccff" d="M232.889,-156C232.889,-150 238.889,-144 244.889,-144"/>
<polyline fill="none" stroke="#ccccff" points="244.889,-144 293.111,-144 "/>
<path fill="none" stroke="#ccccff" d="M293.111,-144C299.111,-144 305.111,-150 305.111,-156"/>
<polyline fill="none" stroke="#ccccff" points="305.111,-156 305.111,-168 "/>
<path fill="none" stroke="#ccccff" d="M305.111,-168C305.111,-174 299.111,-180 293.111,-180"/>
<text text-anchor="middle" x="269" y="-156.4" font-family="Helvetica,sans-Serif" font-size="14.00">Neighbor</text>
</g>
<!-- setBacterialLoadToActiveBacterialTransmissionRate -->
<g id="node16" class="node"><title>setBacterialLoadToActiveBacterialTransmissionRate</title>
<polygon fill="#ccccff" stroke="#ccccff" points="360,-108 330,-108 318,-96 318,-84 330,-72 360,-72 372,-84 372,-96 360,-108"/>
<path fill="#ccccff" stroke="#ccccff" d="M330,-108C324,-108 318,-102 318,-96"/>
<path fill="#ccccff" stroke="#ccccff" d="M318,-84C318,-78 324,-72 330,-72"/>
<path fill="#ccccff" stroke="#ccccff" d="M360,-72C366,-72 372,-78 372,-84"/>
<path fill="#ccccff" stroke="#ccccff" d="M372,-96C372,-102 366,-108 360,-108"/>
<polyline fill="none" stroke="#ccccff" points="360,-108 330,-108 "/>
<path fill="none" stroke="#ccccff" d="M330,-108C324,-108 318,-102 318,-96"/>
<polyline fill="none" stroke="#ccccff" points="318,-96 318,-84 "/>
<path fill="none" stroke="#ccccff" d="M318,-84C318,-78 324,-72 330,-72"/>
<polyline fill="none" stroke="#ccccff" points="330,-72 360,-72 "/>
<path fill="none" stroke="#ccccff" d="M360,-72C366,-72 372,-78 372,-84"/>
<polyline fill="none" stroke="#ccccff" points="372,-84 372,-96 "/>
<path fill="none" stroke="#ccccff" d="M372,-96C372,-102 366,-108 360,-108"/>
<text text-anchor="middle" x="345" y="-84.4" font-family="Helvetica,sans-Serif" font-size="14.00">Set</text>
</g>
<!-- neighborQuery&#45;&gt;setBacterialLoadToActiveBacterialTransmissionRate -->
<g id="edge10" class="edge"><title>neighborQuery&#45;&gt;setBacterialLoadToActiveBacterialTransmissionRate</title>
<path fill="none" stroke="#1415cc" stroke-width="3" d="M287.787,-143.697C294.965,-137.085 303.385,-129.329 311.525,-121.833"/>
<polygon fill="#1415cc" stroke="#1415cc" points="316.461,-126.803 326.43,-108.104 306.976,-116.505 316.461,-126.803"/>
</g>
<!-- setBacterialLoadToActiveBacterialTransmissionRate&#45;&gt;individualbacterialLoad -->
<g id="edge12" class="edge"><title>setBacterialLoadToActiveBacterialTransmissionRate&#45;&gt;individualbacterialLoad</title>
<path fill="none" stroke="#1415cc" stroke-width="3" d="M345,-71.6966C345,-66.9496 345,-61.6132 345,-56.2063"/>
<polygon fill="#1415cc" stroke="#1415cc" points="352,-56.1043 345,-36.1043 338,-56.1044 352,-56.1043"/>
</g>
<!-- individualCopy&#45;&gt;neighborQuery -->
<g id="edge16" class="edge"><title>individualCopy&#45;&gt;neighborQuery</title>
<path fill="none" stroke="#6514cc" stroke-width="3" d="M269,-215.697C269,-210.95 269,-205.613 269,-200.206"/>
<polygon fill="#6514cc" stroke="#6514cc" points="276,-200.104 269,-180.104 262,-200.104 276,-200.104"/>
</g>
<!-- importabcsetBacterialLoadToActiveBacterialTransmissionRatetBmodelactiveBacterialTransmissionRate -->
<g id="node21" class="node"><title>importabcsetBacterialLoadToActiveBacterialTransmissionRatetBmodelactiveBacterialTransmissionRate</title>
<text text-anchor="middle" x="440" y="-156.4" font-family="Helvetica,sans-Serif" font-size="14.00">Active Bacterial Transmission Rate</text>
</g>
<!-- importabcsetBacterialLoadToActiveBacterialTransmissionRatetBmodelactiveBacterialTransmissionRate&#45;&gt;setBacterialLoadToActiveBacterialTransmissionRate -->
<g id="edge18" class="edge"><title>importabcsetBacterialLoadToActiveBacterialTransmissionRatetBmodelactiveBacterialTransmissionRate&#45;&gt;setBacterialLoadToActiveBacterialTransmissionRate:ne</title>
<path fill="none" stroke="black" stroke-width="2" stroke-dasharray="1,5" d="M409.929,-143.912C396.968,-135.811 381.88,-125.366 369.08,-113.776"/>
<ellipse fill="black" stroke="black" cx="365.9" cy="-110.755" rx="4.00002" ry="4.00002"/>
</g>
</g>
</svg>
