<?xml version="1.0" encoding="UTF-8" standalone="no"?>
<!DOCTYPE svg PUBLIC "-//W3C//DTD SVG 1.1//EN"
 "http://www.w3.org/Graphics/SVG/1.1/DTD/svg11.dtd">
<!-- Generated by graphviz version 2.29.20110702.0445 (20110702.0445)
 -->
<!-- Title: initialPlacement Pages: 1 -->
<svg width="347pt" height="289pt"
 viewBox="0.00 0.00 347.00 289.00" xmlns="http://www.w3.org/2000/svg" xmlns:xlink="http://www.w3.org/1999/xlink">
<g id="graph1" class="graph" transform="scale(1 1) rotate(0) translate(4 285)">
<title>initialPlacement</title>
<polygon fill="white" stroke="white" points="-4,5 -4,-285 344,-285 344,5 -4,5"/>
<g id="graph2" class="cluster"><title>clustercontextKey</title>
<polygon fill="ghostwhite" stroke="white" points="8,-219 8,-273 96,-273 96,-219 8,-219"/>
<text text-anchor="middle" x="52.1792" y="-255" font-family="Helvetica,sans-Serif" font-size="14.00">Parameters</text>
</g>
<g id="graph3" class="cluster"><title>clusterindividualKey</title>
<polygon fill="ghostwhite" stroke="white" points="104,-219 104,-273 179,-273 179,-219 104,-219"/>
<text text-anchor="middle" x="141.576" y="-255" font-family="Helvetica,sans-Serif" font-size="14.00">Individual</text>
</g>
<!-- contextOverview -->
<g id="node2" class="node"><title>contextOverview</title>
<ellipse fill="black" stroke="black" cx="52" cy="-234" rx="7.2" ry="7.2"/>
</g>
<!-- initialPlacementOverview -->
<g id="node4" class="node"><title>initialPlacementOverview</title>
<a xlink:href="individual__Overview.svg">
<ellipse fill="#14cccc" stroke="#14cccc" cx="140" cy="-234" rx="7.2" ry="7.2"/>
</a>
</g>
<!-- initialPlacement -->
<g id="node5" class="node"><title>initialPlacement</title>
<a xlink:href="individual_initialPlacement.svg" xlink:title="Initial Placement">
<polygon fill="#ccffff" stroke="#ccffff" points="293.038,-252 198.962,-252 186.962,-240 186.962,-228 198.962,-216 293.038,-216 305.038,-228 305.038,-240 293.038,-252"/>
<path fill="#ccffff" stroke="#ccffff" d="M198.962,-252C192.962,-252 186.962,-246 186.962,-240"/>
<path fill="#ccffff" stroke="#ccffff" d="M186.962,-228C186.962,-222 192.962,-216 198.962,-216"/>
<path fill="#ccffff" stroke="#ccffff" d="M293.038,-216C299.038,-216 305.038,-222 305.038,-228"/>
<path fill="#ccffff" stroke="#ccffff" d="M305.038,-240C305.038,-246 299.038,-252 293.038,-252"/>
<polyline fill="none" stroke="black" points="293.038,-252 198.962,-252 "/>
<path fill="none" stroke="black" d="M198.962,-252C192.962,-252 186.962,-246 186.962,-240"/>
<polyline fill="none" stroke="black" points="186.962,-240 186.962,-228 "/>
<path fill="none" stroke="black" d="M186.962,-228C186.962,-222 192.962,-216 198.962,-216"/>
<polyline fill="none" stroke="black" points="198.962,-216 293.038,-216 "/>
<path fill="none" stroke="black" d="M293.038,-216C299.038,-216 305.038,-222 305.038,-228"/>
<polyline fill="none" stroke="black" points="305.038,-228 305.038,-240 "/>
<path fill="none" stroke="black" d="M305.038,-240C305.038,-246 299.038,-252 293.038,-252"/>
<text text-anchor="middle" x="246" y="-228.4" font-family="Helvetica,sans-Serif" font-size="14.00">Initial Placement</text>
</a>
</g>
<!-- initialLocation -->
<g id="node7" class="node"><title>initialLocation</title>
<polygon fill="#cce8ff" stroke="#cce8ff" points="327.13,-180 246.87,-180 234.87,-168 234.87,-156 246.87,-144 327.13,-144 339.13,-156 339.13,-168 327.13,-180"/>
<path fill="#cce8ff" stroke="#cce8ff" d="M246.87,-180C240.87,-180 234.87,-174 234.87,-168"/>
<path fill="#cce8ff" stroke="#cce8ff" d="M234.87,-156C234.87,-150 240.87,-144 246.87,-144"/>
<path fill="#cce8ff" stroke="#cce8ff" d="M327.13,-144C333.13,-144 339.13,-150 339.13,-156"/>
<path fill="#cce8ff" stroke="#cce8ff" d="M339.13,-168C339.13,-174 333.13,-180 327.13,-180"/>
<polyline fill="none" stroke="gray" points="327.13,-180 246.87,-180 "/>
<path fill="none" stroke="gray" d="M246.87,-180C240.87,-180 234.87,-174 234.87,-168"/>
<polyline fill="none" stroke="gray" points="234.87,-168 234.87,-156 "/>
<path fill="none" stroke="gray" d="M234.87,-156C234.87,-150 240.87,-144 246.87,-144"/>
<polyline fill="none" stroke="gray" points="246.87,-144 327.13,-144 "/>
<path fill="none" stroke="gray" d="M327.13,-144C333.13,-144 339.13,-150 339.13,-156"/>
<polyline fill="none" stroke="gray" points="339.13,-156 339.13,-168 "/>
<path fill="none" stroke="gray" d="M339.13,-168C339.13,-174 333.13,-180 327.13,-180"/>
<text text-anchor="middle" x="287" y="-156.4" font-family="Helvetica,sans-Serif" font-size="14.00">Initial Location</text>
</g>
<!-- initialPlacement&#45;&gt;initialLocation -->
<g id="edge4" class="edge"><title>initialPlacement&#45;&gt;initialLocation</title>
<path fill="none" stroke="#14cccc" stroke-width="3" d="M256.135,-215.697C259.362,-210.187 263.054,-203.883 266.737,-197.596"/>
<polygon fill="#14cccc" stroke="#14cccc" points="272.914,-200.9 276.982,-180.104 260.833,-193.824 272.914,-200.9"/>
</g>
<!-- moveIndividual -->
<g id="node10" class="node"><title>moveIndividual</title>
<polygon fill="#ccffff" stroke="#ccffff" points="285,-36 255,-36 243,-24 243,-12 255,-0 285,-0 297,-12 297,-24 285,-36"/>
<path fill="#ccffff" stroke="#ccffff" d="M255,-36C249,-36 243,-30 243,-24"/>
<path fill="#ccffff" stroke="#ccffff" d="M243,-12C243,-6 249,-0 255,-0"/>
<path fill="#ccffff" stroke="#ccffff" d="M285,-0C291,-0 297,-6 297,-12"/>
<path fill="#ccffff" stroke="#ccffff" d="M297,-24C297,-30 291,-36 285,-36"/>
<polyline fill="none" stroke="#ccffff" points="285,-36 255,-36 "/>
<path fill="none" stroke="#ccffff" d="M255,-36C249,-36 243,-30 243,-24"/>
<polyline fill="none" stroke="#ccffff" points="243,-24 243,-12 "/>
<path fill="none" stroke="#ccffff" d="M243,-12C243,-6 249,-0 255,-0"/>
<polyline fill="none" stroke="#ccffff" points="255,-0 285,-0 "/>
<path fill="none" stroke="#ccffff" d="M285,-0C291,-0 297,-6 297,-12"/>
<polyline fill="none" stroke="#ccffff" points="297,-12 297,-24 "/>
<path fill="none" stroke="#ccffff" d="M297,-24C297,-30 291,-36 285,-36"/>
<text text-anchor="middle" x="270" y="-12.4" font-family="Helvetica,sans-Serif" font-size="14.00">Move</text>
</g>
<!-- initialPlacement&#45;&gt;moveIndividual -->
<g id="edge8" class="edge"><title>initialPlacement&#45;&gt;moveIndividual:nw</title>
<path fill="none" stroke="#14cccc" stroke-width="3" stroke-dasharray="5,2" d="M237.282,-215.833C232.625,-205.694 227.375,-192.444 225,-180 216,-132.851 209.821,-117.537 225,-72 228.656,-61.0308 232.383,-55.4393 237.608,-49.941"/>
<polygon fill="#14cccc" stroke="#14cccc" points="242.505,-54.9433 252,-36 232.764,-44.8876 242.505,-54.9433"/>
</g>
<!-- availableQuery -->
<g id="node9" class="node"><title>availableQuery</title>
<polygon fill="#cce8ff" stroke="#cce8ff" points="293.928,-108 246.072,-108 234.072,-96 234.072,-84 246.072,-72 293.928,-72 305.928,-84 305.928,-96 293.928,-108"/>
<path fill="#cce8ff" stroke="#cce8ff" d="M246.072,-108C240.072,-108 234.072,-102 234.072,-96"/>
<path fill="#cce8ff" stroke="#cce8ff" d="M234.072,-84C234.072,-78 240.072,-72 246.072,-72"/>
<path fill="#cce8ff" stroke="#cce8ff" d="M293.928,-72C299.928,-72 305.928,-78 305.928,-84"/>
<path fill="#cce8ff" stroke="#cce8ff" d="M305.928,-96C305.928,-102 299.928,-108 293.928,-108"/>
<polyline fill="none" stroke="#cce8ff" points="293.928,-108 246.072,-108 "/>
<path fill="none" stroke="#cce8ff" d="M246.072,-108C240.072,-108 234.072,-102 234.072,-96"/>
<polyline fill="none" stroke="#cce8ff" points="234.072,-96 234.072,-84 "/>
<path fill="none" stroke="#cce8ff" d="M234.072,-84C234.072,-78 240.072,-72 246.072,-72"/>
<polyline fill="none" stroke="#cce8ff" points="246.072,-72 293.928,-72 "/>
<path fill="none" stroke="#cce8ff" d="M293.928,-72C299.928,-72 305.928,-78 305.928,-84"/>
<polyline fill="none" stroke="#cce8ff" points="305.928,-84 305.928,-96 "/>
<path fill="none" stroke="#cce8ff" d="M305.928,-96C305.928,-102 299.928,-108 293.928,-108"/>
<text text-anchor="middle" x="270" y="-84.4" font-family="Helvetica,sans-Serif" font-size="14.00">Available</text>
</g>
<!-- initialLocation&#45;&gt;availableQuery -->
<g id="edge6" class="edge"><title>initialLocation&#45;&gt;availableQuery</title>
<path fill="none" stroke="#147acc" stroke-width="3" d="M282.798,-143.697C281.604,-138.78 280.256,-133.231 278.895,-127.627"/>
<polygon fill="#147acc" stroke="#147acc" points="285.676,-125.887 274.154,-108.104 272.072,-129.191 285.676,-125.887"/>
</g>
<!-- initialLocation&#45;&gt;moveIndividual -->
<g id="edge10" class="edge"><title>initialLocation&#45;&gt;moveIndividual:ne</title>
<path fill="none" stroke="#147acc" stroke-width="3" stroke-dasharray="5,2" d="M298.887,-143.725C305.013,-133.765 311.845,-120.727 315,-108 318.85,-92.4701 320.06,-87.1789 315,-72 311.344,-61.0308 307.617,-55.4393 302.392,-49.941"/>
<polygon fill="#147acc" stroke="#147acc" points="307.236,-44.8876 288,-36 297.495,-54.9433 307.236,-44.8876"/>
</g>
<!-- availableQuery&#45;&gt;moveIndividual -->
<g id="edge12" class="edge"><title>availableQuery&#45;&gt;moveIndividual</title>
<path fill="none" stroke="#147acc" stroke-width="3" d="M270,-71.6966C270,-66.9496 270,-61.6132 270,-56.2063"/>
<polygon fill="#147acc" stroke="#147acc" points="277,-56.1043 270,-36.1043 263,-56.1044 277,-56.1043"/>
</g>
</g>
</svg>
